<?xml version="1.0" encoding="UTF-8"?>
<svg version="1.1" xmlns="http://www.w3.org/2000/svg" width="531" height="518">
<path d="M0 0 C1.53510937 -0.004183 3.07021564 -0.00966577 4.60531628 -0.01631981 C8.78424384 -0.03066647 12.96297236 -0.0265638 17.14191031 -0.019153 C21.66418499 -0.0143967 26.18641812 -0.0269528 30.7086792 -0.03717041 C39.55279974 -0.05431563 48.39684909 -0.05520734 57.24098192 -0.04995751 C64.43350052 -0.04590666 71.62599817 -0.0473702 78.81851578 -0.05270576 C80.35739271 -0.0538284 80.35739271 -0.0538284 81.92735807 -0.05497371 C84.0118889 -0.05650528 86.09641972 -0.05804362 88.18095054 -0.05958868 C107.7036029 -0.0732982 127.22621513 -0.06788688 146.74886657 -0.05640347 C164.58482042 -0.04647227 182.42067051 -0.05941257 200.25660835 -0.08333766 C218.5995009 -0.10775618 236.94234518 -0.11732979 255.28525364 -0.11068493 C265.57183101 -0.10719889 275.85832862 -0.10938412 286.14489365 -0.12693596 C294.90126502 -0.14169238 303.65750044 -0.14224851 312.41386925 -0.12486505 C316.87567094 -0.11638104 321.33723012 -0.11414149 325.79901886 -0.1295166 C329.89382449 -0.14345169 333.98818189 -0.13848875 338.08296217 -0.11927737 C339.55388064 -0.11554387 341.02483579 -0.11836161 342.49572133 -0.12888902 C366.86037302 -0.29069017 389.35381649 8.91366607 407.30154419 25.38768005 C421.52228477 39.44160843 434.52776052 59.73913743 435.43034536 80.32539117 C435.43302821 81.96896504 435.43302821 81.96896504 435.43576527 83.64574242 C435.44022311 84.91440317 435.44468095 86.18306391 435.44927388 87.49016893 C435.44918459 88.89573376 435.44899476 90.30129859 435.44871521 91.7068634 C435.45201569 93.20191659 435.45574165 94.69696889 435.45985669 96.19202006 C435.46986416 100.30193833 435.47359148 104.41184199 435.476246 108.52177072 C435.48015286 112.95419194 435.48973105 117.38660164 435.49845886 121.8190155 C435.51821422 132.52529021 435.52828908 143.23156585 435.53718665 153.93785423 C435.54157176 158.98264975 435.54693805 164.02744423 435.55217552 169.07223892 C435.56918816 185.84824849 435.58368101 202.62425741 435.59092426 219.40027428 C435.59283409 223.7530098 435.59475443 228.10574533 435.59671021 232.45848083 C435.59719395 233.54030245 435.59767769 234.62212406 435.59817608 235.73672815 C435.60647142 253.25059624 435.6317998 270.76439593 435.66429088 288.27823417 C435.69739461 306.26939369 435.71537609 324.26051849 435.7185685 342.25170863 C435.72073071 352.34892877 435.72943682 362.44604919 435.75502968 372.54323959 C435.77678209 381.14503604 435.78476486 389.74670855 435.7750629 398.34852938 C435.77053111 402.73319627 435.77233867 407.1176077 435.79182434 411.50223923 C435.80954992 415.525789 435.80838305 419.54889875 435.79292705 423.57245381 C435.7905651 425.01873127 435.79480015 426.46503997 435.8067557 427.91126995 C435.99487195 452.19503279 426.1163042 474.11079809 409.27420044 491.50486755 C393.72196969 506.92814117 372.02979986 518.48644141 349.78267097 518.52190113 C348.48128532 518.52635897 347.17989966 518.53081682 345.83907807 518.53540975 C344.40177225 518.53532046 342.96446644 518.53513063 341.52716064 518.53485107 C339.99483392 518.53815237 338.46250805 518.5418785 336.93018329 518.54599255 C332.72184085 518.55599068 328.51351268 518.55972583 324.30516005 518.56238186 C319.76503363 518.56629147 315.22491843 518.57586941 310.68479919 518.58459473 C299.72086993 518.6043416 288.75693978 518.61442354 277.79299718 518.62332252 C272.62580036 518.62770872 267.45860456 518.63307471 262.29140854 518.63831139 C245.10703049 518.65532262 227.92265307 518.66981553 210.7382679 518.67706013 C206.28051884 518.67896992 201.82276979 518.68089027 197.36502075 518.68284607 C195.70315675 518.68357168 195.70315675 518.68357168 194.00771974 518.68431195 C176.07103408 518.69260752 158.13441521 518.71793692 140.19775869 518.75042675 C121.76924791 518.78353444 103.34077104 518.80151228 84.91223037 518.80470437 C74.57074902 518.80686613 64.22936505 518.81556577 53.88791275 518.84116554 C45.0782944 518.86292334 36.26879709 518.87089807 27.45915492 518.86119876 C22.96904559 518.85666863 18.47918571 518.85846487 13.98911095 518.87796021 C9.86809663 518.89569755 5.7475118 518.89450953 1.62649225 518.87906291 C0.14590691 518.87670274 -1.33470901 518.88092652 -2.81524788 518.89289156 C-24.76011534 519.0590688 -44.41971675 511.76175143 -61.69845581 498.38768005 C-62.89535034 497.46728943 -62.89535034 497.46728943 -64.11642456 496.52830505 C-81.34569478 482.25698034 -92.56331413 460.41609792 -95.69845581 438.38768005 C-95.78766682 436.29516317 -95.82919555 434.20027552 -95.83267689 432.10586071 C-95.83713473 430.85734268 -95.84159258 429.60882466 -95.84618551 428.32247275 C-95.84609622 426.94480971 -95.8459064 425.56714666 -95.84562683 424.18948364 C-95.84892837 422.71974157 -95.85265455 421.25000041 -95.85676831 419.78026038 C-95.86676379 415.74487211 -95.87050116 411.7094987 -95.87315762 407.6740998 C-95.87706806 403.32004981 -95.88664599 398.9660115 -95.89537048 394.61196899 C-95.91511577 384.09742674 -95.92519942 373.58288355 -95.93409827 363.0683274 C-95.93848503 358.11195531 -95.9438509 353.15558428 -95.94908714 348.19921303 C-95.96609878 331.7139734 -95.98059117 315.22873442 -95.98783588 298.74348736 C-95.98974566 294.46725145 -95.99166601 290.19101555 -95.99362183 285.91477966 C-95.99410557 284.85199186 -95.99458931 283.78920406 -95.99508771 282.69421057 C-96.00338136 265.49214984 -96.02870735 248.2901588 -96.0612025 231.08812847 C-96.09432158 213.41107106 -96.11228909 195.73404899 -96.11548012 178.0569604 C-96.11764092 168.13854291 -96.12632614 158.220227 -96.1519413 148.30183983 C-96.17371475 139.8516391 -96.18166623 131.40156463 -96.17197452 122.95133903 C-96.16744877 118.64540096 -96.16921457 114.33972301 -96.18873596 110.03382111 C-96.32806856 77.46946346 -92.17146161 51.98049898 -68.69845581 27.38768005 C-68.17122925 26.78568787 -67.64400269 26.18369568 -67.10079956 25.5634613 C-59.30980683 17.0152877 -48.71336121 10.89001864 -38.13595581 6.45018005 C-37.50125366 6.18012146 -36.86655151 5.91006287 -36.21261597 5.63182068 C-24.46883097 0.99881686 -12.50941902 -0.05625004 0 0 Z " fill="#00005B" transform="translate(95.69845581054688,-0.3876800537109375)"/>
<path d="M0 0 C1.06367294 0.00222061 2.12734589 0.00444122 3.22325134 0.00672913 C5.02500572 0.00684242 5.02500572 0.00684242 6.86315918 0.00695801 C8.17042465 0.01211929 9.47769012 0.01728058 10.8245697 0.02259827 C12.16835477 0.02446253 13.51214052 0.02588639 14.85592651 0.02688599 C18.39873622 0.0307105 21.94150515 0.0405402 25.48429871 0.05158997 C29.09706572 0.06180552 32.7098393 0.06638392 36.32261658 0.07142639 C43.41573225 0.08216254 50.50882019 0.09923816 57.60191345 0.12025452 C58.23970257 1.53642786 58.8754514 2.95352016 59.51036072 4.37098694 C59.86461624 5.16002914 60.21887177 5.94907135 60.5838623 6.76202393 C62.09294218 10.25768163 63.32002529 13.82799962 64.53941345 17.43275452 C67.93561323 27.3042592 71.48093345 37.11896501 75.03941345 46.93275452 C78.66341528 56.9329428 82.26639598 66.93701252 85.72691345 76.99525452 C89.05804364 86.66540401 92.56942372 96.26453849 96.10533142 105.86146545 C100.07235491 116.63764609 103.97226153 127.43733529 107.85191345 138.24525452 C108.13810547 139.04157288 108.42429749 139.83789124 108.71916199 140.65834045 C112.16140077 150.23863971 115.55795242 159.83370244 118.91209412 169.44519043 C122.66444515 180.18361482 126.51244908 190.88790996 130.35142517 201.59559631 C131.32637513 204.31575924 132.30013319 207.0363467 133.27378845 209.75697327 C133.5644519 210.56647934 133.85511536 211.37598541 134.15458679 212.21002197 C134.70638598 213.75240225 135.25356364 215.29644535 135.79563904 216.8422699 C136.35053338 218.41002494 136.92331144 219.9715275 137.51072693 221.52738953 C137.93726563 222.69834671 137.93726563 222.69834671 138.37242126 223.89295959 C138.6324292 224.5857753 138.89243713 225.278591 139.1603241 225.99240112 C139.60191345 228.12025452 139.60191345 228.12025452 138.60191345 233.12025452 C122.10191345 233.12025452 105.60191345 233.12025452 88.60191345 233.12025452 C84.10059828 222.99229539 84.10059828 222.99229539 82.87852478 219.43006897 C82.60176407 218.62926407 82.32500336 217.82845917 82.03985596 217.00338745 C81.75740524 216.1718364 81.47495453 215.34028534 81.1839447 214.48353577 C80.88123154 213.60046249 80.57851837 212.71738922 80.26663208 211.80755615 C79.6335805 209.95700559 79.00260696 208.10574294 78.37364197 206.25379944 C77.41269197 203.42769171 76.44229047 200.60495075 75.47105408 197.78236389 C74.85394815 195.97461548 74.23739244 194.16667913 73.6214447 192.35853577 C73.3329213 191.52091202 73.04439789 190.68328827 72.74713135 189.82028198 C72.47982712 189.02893356 72.21252289 188.23758514 71.93711853 187.42225647 C71.58548393 186.39041985 71.58548393 186.39041985 71.22674561 185.33773804 C70.46946322 182.65019836 70.06094728 179.8744575 69.60191345 177.12025452 C42.21191345 177.12025452 14.82191345 177.12025452 -13.39808655 177.12025452 C-14.38808655 180.75025452 -15.37808655 184.38025452 -16.39808655 188.12025452 C-17.00244152 190.10760131 -17.62097768 192.09080769 -18.26527405 194.06556702 C-18.59124573 195.07224426 -18.91721741 196.07892151 -19.25306702 197.11610413 C-19.58967346 198.14872375 -19.92627991 199.18134338 -20.27308655 200.24525452 C-22.9526899 208.51239091 -25.55757242 216.78590448 -27.85072327 225.16957092 C-29.18524028 229.90740825 -29.18524028 229.90740825 -31.39808655 232.12025452 C-33.42289734 232.36076355 -33.42289734 232.36076355 -35.93959045 232.3473053 C-36.88041473 232.34715424 -37.82123901 232.34700317 -38.79057312 232.34684753 C-39.80831818 232.33652496 -40.82606323 232.32620239 -41.87464905 232.31556702 C-42.91503326 232.31273712 -43.95541748 232.30990723 -45.02732849 232.30699158 C-48.35936349 232.29577155 -51.69113241 232.27066366 -55.02308655 232.24525452 C-57.27829101 232.23522707 -59.53349967 232.22610082 -61.78871155 232.21791077 C-67.32526109 232.1958263 -72.86165482 232.1623309 -78.39808655 232.12025452 C-78.58751165 227.7550134 -78.07966955 224.51651857 -76.56214905 220.42884827 C-76.16253967 219.33451477 -75.7629303 218.24018127 -75.35121155 217.11268616 C-74.9129303 215.93955872 -74.47464905 214.76643127 -74.02308655 213.55775452 C-73.3337541 211.67181479 -72.64445839 209.78586066 -71.95735168 207.89910889 C-71.48249538 206.59544506 -71.00661136 205.29215515 -70.52973938 203.98922729 C-68.06674963 197.2499094 -65.72500791 190.4701482 -63.39808655 183.68275452 C-62.98639221 182.48521545 -62.57469788 181.28767639 -62.15052795 180.05384827 C-60.8982577 176.40981507 -59.64787322 172.76514019 -58.39808655 169.12025452 C-53.4738569 154.75920039 -48.52626597 140.40996797 -43.39808655 126.12025452 C-39.11643387 114.18332627 -34.9550342 102.20872632 -30.83668518 90.21461487 C-27.17504275 79.5540062 -23.4957875 68.89946101 -19.81724548 58.24467468 C-18.54335543 54.55397726 -17.27062523 50.86288124 -15.99794006 47.17176819 C-15.1964882 44.84988813 -14.39497696 42.52802857 -13.59339905 40.20619202 C-13.04855614 38.62477669 -13.04855614 38.62477669 -12.4927063 37.01141357 C-10.47084096 31.15939345 -8.38881126 25.33790194 -6.20303345 19.5448761 C-4.99445062 15.90444216 -4.53824293 12.30195902 -4.21058655 8.49525452 C-3.39635559 0.17031374 -3.39635559 0.17031374 0 0 Z " fill="#9898FE" transform="translate(144.39808654785156,132.87974548339844)"/>
<path d="M0 0 C0.93457031 0.29003906 1.86914062 0.58007812 2.83203125 0.87890625 C21.39861195 7.08507798 34.09092793 18.63164205 42.97021484 35.88525391 C51.71620816 54.19250411 52.09869825 73.62596735 50.671875 93.5078125 C50.61612305 94.30074707 50.56037109 95.09368164 50.50292969 95.91064453 C49.87371655 98.52462806 49.09152839 99.33004891 47 101 C36.37764986 103.55378359 23.91534827 102.02528862 13.046875 101.87890625 C10.93410802 101.85456234 8.82133519 101.83072104 6.70855713 101.80735779 C1.18484772 101.74494137 -4.33875637 101.67575766 -9.86236572 101.60510254 C-15.51366435 101.53403239 -21.16503683 101.46944803 -26.81640625 101.40429688 C-37.87768536 101.27583277 -48.93886397 101.1402101 -60 101 C-59.23163169 103.39674345 -58.45588569 105.79067036 -57.67578125 108.18359375 C-57.46087036 108.85660522 -57.24595947 109.5296167 -57.02453613 110.22302246 C-53.6033824 120.65833697 -48.04861126 127.40580729 -38.2421875 132.40625 C-16.99415885 141.94844563 10.13888036 139.31664783 31.734375 131.76953125 C34 131 34 131 36 131 C36.09881786 136.49921406 36.17144379 141.99791235 36.21972656 147.49780273 C36.23985207 149.36898804 36.26715549 151.24011039 36.30175781 153.11108398 C36.35023581 155.79947432 36.37295872 158.48703388 36.390625 161.17578125 C36.41127014 162.01337479 36.43191528 162.85096832 36.45318604 163.71394348 C36.45542235 169.49178977 36.45542235 169.49178977 34.24755859 171.95556641 C21.53771769 177.86179054 6.91476925 180.36344341 -7 181 C-8.04075684 181.04914551 -9.08151367 181.09829102 -10.15380859 181.14892578 C-35.81019119 182.17078599 -60.78233444 179.24729763 -81 162 C-81.56460937 161.5771875 -82.12921875 161.154375 -82.7109375 160.71875 C-95.16721673 151.02427024 -103.29972883 135.0674935 -107 120 C-107.37874268 118.51101196 -107.37874268 118.51101196 -107.76513672 116.99194336 C-109.87088855 108.08514704 -110.45691042 99.6955119 -110.375 90.5625 C-110.38660156 89.27279297 -110.39820313 87.98308594 -110.41015625 86.65429688 C-110.33672414 62.21364359 -101.9721763 38.26104201 -84.71875 20.68359375 C-83.8215625 19.79800781 -82.924375 18.91242188 -82 18 C-81.2471875 17.24847656 -80.494375 16.49695313 -79.71875 15.72265625 C-59.51094524 -3.35028991 -26.12455384 -8.68333958 0 0 Z " fill="#9797FD" transform="translate(405,189)"/>
<path d="M0 0 C2.41464763 2.41464763 2.68086766 3.95936237 3.515625 7.25 C3.79792969 8.33539063 4.08023438 9.42078125 4.37109375 10.5390625 C4.66113281 11.68117187 4.95117188 12.82328125 5.25 14 C7.57820753 23.15980239 10.30180313 32.09439777 13.33203125 41.0390625 C16.13920105 49.34012123 18.77596511 57.69717861 21.43408203 66.046875 C22.39189828 69.05303623 23.35413334 72.05776279 24.31640625 75.0625 C24.92735146 76.97908122 25.53803875 78.89574468 26.1484375 80.8125 C26.43584808 81.70815674 26.72325867 82.60381348 27.01937866 83.52661133 C27.41076523 84.76060669 27.41076523 84.76060669 27.81005859 86.01953125 C28.04066986 86.74245361 28.27128113 87.46537598 28.50888062 88.21020508 C29 90 29 90 29 92 C10.52 92 -7.96 92 -27 92 C-23.73417722 81.11392405 -23.73417722 81.11392405 -22.125 75.9375 C-20.57863644 70.92939074 -19.09058784 65.90708367 -17.625 60.875 C-15.83069561 54.72319881 -13.94517869 48.60569979 -12 42.5 C-7.53130253 28.43901229 -3.45600912 14.34533396 0 0 Z " fill="#02025E" transform="translate(171,174)"/>
<path d="M0 0 C6.06907372 4.45944982 10.17934843 11.93759657 11.48828125 19.3046875 C11.546875 21.4453125 11.546875 21.4453125 11.046875 24.8203125 C9.046875 26.8203125 9.046875 26.8203125 6.4526062 27.06082153 C4.80713303 27.0541597 4.80713303 27.0541597 3.12841797 27.04736328 C1.88728241 27.04721222 0.64614685 27.04706116 -0.63259888 27.04690552 C-1.9920467 27.0366915 -3.3514929 27.0262595 -4.7109375 27.015625 C-6.09813229 27.01189534 -7.48532971 27.00904815 -8.87252808 27.00704956 C-12.52552551 26.99940934 -16.17836417 26.97975766 -19.83129883 26.9576416 C-23.55808362 26.93719146 -27.28489404 26.92804963 -31.01171875 26.91796875 C-38.32559325 26.89651201 -45.63933689 26.86237153 -52.953125 26.8203125 C-51.83100346 16.83343076 -48.43485296 8.14461065 -40.81640625 1.21875 C-28.74122581 -7.84396404 -12.67470185 -7.65551992 0 0 Z " fill="#01015C" transform="translate(397.953125,230.1796875)"/>
</svg>
