<?xml version="1.0" encoding="UTF-8"?>
<svg version="1.1" xmlns="http://www.w3.org/2000/svg" width="1024" height="1024">
<path d="M0 0 C0.76811665 -0.00235223 1.53623329 -0.00470446 2.3276262 -0.00712797 C4.89857743 -0.01377893 7.46947766 -0.01336093 10.04043674 -0.01294994 C11.90361039 -0.016251 13.76678332 -0.01997708 15.62995535 -0.02409142 C20.7481641 -0.034092 25.86636112 -0.03782508 30.98457825 -0.04048073 C36.5056086 -0.04438953 42.02662971 -0.05396744 47.54765415 -0.0626936 C60.87974495 -0.08244127 74.21183649 -0.09252186 87.54393825 -0.10142139 C93.82538025 -0.10580688 100.10682141 -0.111173 106.38826275 -0.11641026 C127.27424369 -0.13342049 148.16022449 -0.14793907 169.04621124 -0.155159 C170.39626888 -0.15563375 171.74632651 -0.15610964 173.09638414 -0.15658666 C174.10061031 -0.15694122 174.10061031 -0.15694122 175.12512388 -0.15730295 C178.51686249 -0.1585041 181.9086011 -0.15971957 185.3003397 -0.16094494 C185.97343109 -0.16118509 186.64652248 -0.16142524 187.34001058 -0.16167267 C209.1527385 -0.16956183 230.96541198 -0.19298682 252.77811614 -0.22550088 C275.85742193 -0.25983992 298.93670227 -0.27951279 322.01603705 -0.28280324 C334.58979672 -0.28496658 347.16347636 -0.29368965 359.73721218 -0.31926441 C370.44622645 -0.34099635 381.15514125 -0.3490095 391.86417507 -0.33929763 C397.32437714 -0.33476027 402.78437406 -0.33660651 408.24454784 -0.35605907 C413.25185006 -0.37374355 418.25879827 -0.37265022 423.26610453 -0.35716178 C425.06899874 -0.35479373 426.87191782 -0.35906714 428.67477416 -0.37099043 C452.11476489 -0.51629893 471.02444282 5.69992417 488.28447056 22.21625233 C506.65557933 41.44349044 509.454454 65.6473149 509.14421177 90.98953724 C508.51880609 146.35459592 510.01895592 215.95284145 550.29618931 258.94672108 C561.29020985 269.46540739 574.99953785 275.41727205 590.10868931 277.13422108 C591.9514544 278.97698616 591.23743342 281.56385866 591.24763584 284.01556873 C591.24561161 284.83847401 591.24358738 285.66137928 591.24150181 286.50922108 C591.24245853 287.34888416 591.24341526 288.18854725 591.24440098 289.05365467 C591.24508278 290.83246402 591.24322847 292.61127585 591.2390604 294.39008045 C591.23371213 297.12255884 591.23900536 299.85487284 591.24540806 302.58734608 C591.24474728 304.31130478 591.24346611 306.03526337 591.24150181 307.75922108 C591.24352604 308.58212635 591.24555027 309.40503162 591.24763584 310.25287342 C591.22363985 316.01927053 591.22363985 316.01927053 590.10868931 317.13422108 C587.92326599 317.50098421 585.73520525 317.85204808 583.54618931 318.19672108 C569.99273433 320.68542855 558.61484746 327.1975304 549.10868931 337.13422108 C548.43837681 337.78519764 547.76806431 338.4361742 547.07743931 339.10687733 C508.58375518 378.74620681 508.66046965 451.08492416 509.20463657 502.61395741 C509.48316382 530.95574932 505.49638073 554.18024206 484.95243931 575.35687733 C472.02462158 587.51183639 455.05268097 594.30999256 437.33483982 594.26564884 C436.56727783 594.26770148 435.79971583 594.26975411 435.00889438 594.27186894 C432.43382612 594.27752874 429.85881152 594.27608295 427.28373814 594.27466297 C425.42000231 594.2772472 423.55626704 594.28026052 421.69253254 594.28366637 C416.56820152 594.29173299 411.44388451 594.29352576 406.31954789 594.29426384 C400.79376777 594.29611501 395.2679949 594.30366272 389.74221897 594.31039906 C377.65730991 594.323981 365.57240417 594.33000702 353.48748875 594.33440971 C345.9403638 594.33717264 338.39324014 594.34141012 330.84611607 594.34591389 C309.9473031 594.35810689 289.04849082 594.36844117 268.14967442 594.37178898 C266.79856805 594.37201061 265.44746168 594.37223239 264.09635532 594.37245433 C262.74202561 594.37267497 261.38769591 594.37289545 260.0333662 594.37311578 C257.31644916 594.37355832 254.59953213 594.37400544 251.88261509 594.37445545 C251.20897929 594.37456484 250.5353435 594.37467423 249.8412945 594.37478694 C228.00791472 594.37841604 206.17456817 594.39433074 184.34120111 594.41764582 C161.24541234 594.44226378 138.14963891 594.45595604 115.05383492 594.4571569 C102.46896197 594.45807314 89.88413253 594.46381272 77.29927158 594.48197651 C66.58140306 594.49739117 55.86359149 594.50248991 45.14571398 594.49423841 C39.67972574 594.49033663 34.21385215 594.49123847 28.74787807 594.50529575 C23.73760637 594.51806291 18.72753512 594.51681242 13.71726358 594.50470504 C11.91101275 594.50275291 10.10474758 594.50580395 8.29851687 594.5145494 C-11.87077732 594.60597146 -28.77918273 591.0538531 -44.89131069 578.13422108 C-45.60029507 577.5902367 -46.30927944 577.04625233 -47.03974819 576.48578358 C-61.19147971 565.01896555 -70.29036158 546.63699621 -72.27705288 528.63983631 C-72.88172543 518.64359573 -72.94775553 508.70496313 -72.8513937 498.69287586 C-72.4078518 445.98451375 -74.45336786 376.36566843 -113.51631069 335.88422108 C-124.52947 324.99914216 -138.52191303 318.88074354 -153.89131069 317.13422108 C-155.73407578 315.29145599 -155.0200548 312.70458349 -155.03025723 310.25287342 C-155.02823299 309.42996815 -155.02620876 308.60706287 -155.02412319 307.75922108 C-155.02507992 306.91955799 -155.02603664 306.07989491 -155.02702236 305.21478748 C-155.02770417 303.43597813 -155.02584986 301.6571663 -155.02168179 299.8783617 C-155.01633352 297.14588332 -155.02162675 294.41356931 -155.02802944 291.68109608 C-155.02736866 289.95713738 -155.0260875 288.23317878 -155.02412319 286.50922108 C-155.02614742 285.6863158 -155.02817165 284.86341053 -155.03025723 284.01556873 C-155.00626124 278.24917162 -155.00626124 278.24917162 -153.89131069 277.13422108 C-151.70588737 276.76745794 -149.51782664 276.41639408 -147.32881069 276.07172108 C-133.78264215 273.58435155 -122.38598969 267.07530451 -112.89131069 257.13422108 C-112.20939663 256.46004139 -111.52748257 255.7858617 -110.82490444 255.09125233 C-72.75618069 215.38356199 -72.43181187 144.65731323 -72.98725796 93.35760975 C-73.26495296 65.80020774 -70.0194834 41.49769055 -50.38984585 20.63275623 C-36.82212563 7.06503602 -19.01767934 -0.04008929 0 0 Z " fill="#7C11F8" transform="translate(293.8913106918335,214.86577892303467)"/>
<path d="M0 0 C177.15675676 0 177.15675676 0 204 26 C204.62519531 26.54011719 205.25039063 27.08023437 205.89453125 27.63671875 C217.58165737 38.11028324 224.04539261 55.64207998 225.14160156 70.98144531 C226.24980899 91.49725179 220.92385528 110.4380441 207 126 C206.34515625 126.74765625 205.6903125 127.4953125 205.015625 128.265625 C195.71591181 138.24414937 183.41867462 145.40422454 170 148 C170.648479 148.17015625 171.29695801 148.3403125 171.96508789 148.515625 C191.5300406 153.72601701 206.73698711 159.32762572 221 174 C221.68835938 174.70253906 222.37671875 175.40507813 223.0859375 176.12890625 C237.51637651 191.72512308 241.68704776 211.70893673 241.3125 232.3125 C240.58419896 250.3258124 234.43404775 267.03442877 223 281 C222.32195312 281.85335938 221.64390625 282.70671875 220.9453125 283.5859375 C202.68326648 305.32646847 174.09536559 312.98940382 147 316 C98.49 316 49.98 316 0 316 C0 211.72 0 107.44 0 0 Z " fill="#F7F0FD" transform="translate(398,354)"/>
<path d="M0 0 C12.106875 -0.061875 24.21375 -0.12375 36.6875 -0.1875 C42.35232544 -0.22846802 42.35232544 -0.22846802 48.1315918 -0.27026367 C104.97357413 -0.51296579 104.97357413 -0.51296579 124.8125 17.5625 C136.49162161 30.57637837 137.93330671 42.50503581 137.19091797 59.51220703 C136.29223068 71.22272297 130.7009196 80.76268986 122.3125 88.75 C105.06947189 102.78886388 83.38714627 103.16285351 62.3046875 103.09765625 C60.70646194 103.09618309 59.1082359 103.09516469 57.51000977 103.09460449 C51.63166574 103.08939494 45.7533321 103.07543375 39.875 103.0625 C26.71625 103.041875 13.5575 103.02125 0 103 C0 69.01 0 35.02 0 0 Z " fill="#7B12F7" transform="translate(449,526)"/>
<path d="M0 0 C18.871875 -0.0928125 18.871875 -0.0928125 38.125 -0.1875 C44.04203857 -0.22846802 44.04203857 -0.22846802 50.07861328 -0.27026367 C54.96655273 -0.28381348 54.96655273 -0.28381348 57.26852417 -0.28633118 C58.84626824 -0.29088085 60.42400315 -0.30131053 62.00167847 -0.31672668 C79.98987972 -0.48341868 97.9235286 1.64766016 112 14 C117.37796219 20.01482613 120.21921603 26.19194721 122 34 C122.27457031 34.94746094 122.27457031 34.94746094 122.5546875 35.9140625 C124.88297456 46.82024923 122.68034143 58.70050527 117.25 68.3125 C108.95795997 81.01476721 96.54601067 87.5473262 82 91 C72.20354991 92.96004899 62.5856061 93.26874229 52.63671875 93.1953125 C51.27982753 93.19236174 49.92293401 93.19032769 48.56604004 93.18920898 C43.60649135 93.17884127 38.6469918 93.15091969 33.6875 93.125 C22.570625 93.08375 11.45375 93.0425 0 93 C0 62.31 0 31.62 0 0 Z " fill="#7F13F9" transform="translate(449,395)"/>
</svg>
