<?xml version="1.0" encoding="UTF-8"?>
<svg version="1.1" xmlns="http://www.w3.org/2000/svg" width="170" height="170">
<path d="M0 0 C1.34485571 -0.0081484 2.689698 -0.01884165 4.03451538 -0.03186035 C7.65878535 -0.05902071 11.2820211 -0.04869025 14.90630722 -0.02958584 C18.71596622 -0.01429434 22.52554225 -0.02851088 26.33520508 -0.03790283 C32.73046615 -0.04878974 39.1253102 -0.03450998 45.52050781 -0.00585938 C52.89284468 0.0267894 60.26418568 0.01621029 67.63649845 -0.01681781 C73.98933153 -0.04412916 80.34186646 -0.04784751 86.69473934 -0.03218579 C90.47891986 -0.02287698 94.26263373 -0.02145763 98.04678345 -0.04140472 C101.60630046 -0.05886033 105.16454559 -0.04649629 108.72392654 -0.01203918 C110.63749743 -0.00044497 112.55117712 -0.01804289 114.46469116 -0.0368042 C122.45129845 0.07963784 128.2969548 1.34814539 134.35546875 6.77636719 C140.76821308 13.93372044 141.22279498 21.1437547 141.13183594 30.42089844 C141.13998434 31.76575415 141.15067759 33.11059644 141.16369629 34.45541382 C141.19085665 38.07968379 141.18052619 41.70291954 141.16142178 45.32720566 C141.14613028 49.13686466 141.16034682 52.94644068 141.16973877 56.75610352 C141.18062568 63.15136458 141.16634592 69.54620864 141.13769531 75.94140625 C141.10504654 83.31374312 141.11562565 90.68508412 141.14865375 98.05739689 C141.17596509 104.41022997 141.17968344 110.7627649 141.16402173 117.11563778 C141.15471292 120.8998183 141.15329357 124.68353217 141.17324066 128.46768188 C141.19069627 132.0271989 141.17833223 135.58544403 141.14387512 139.14482498 C141.13228091 141.05839587 141.14987882 142.97207556 141.16864014 144.8855896 C141.05219809 152.87219689 139.78369055 158.71785324 134.35546875 164.77636719 C127.19811549 171.18911151 119.98808123 171.64369342 110.7109375 171.55273438 C109.36608179 171.56088278 108.0212395 171.57157602 106.67642212 171.58459473 C103.05215215 171.61175509 99.4289164 171.60142463 95.80463028 171.58232021 C91.99497128 171.56702872 88.18539525 171.58124526 84.37573242 171.59063721 C77.98047135 171.60152411 71.5856273 171.58724435 65.19042969 171.55859375 C57.81809282 171.52594498 50.44675182 171.53652409 43.07443905 171.56955218 C36.72160597 171.59686353 30.36907104 171.60058188 24.01619816 171.58492017 C20.23201764 171.57561136 16.44830377 171.57419201 12.66415405 171.5941391 C9.10463704 171.61159471 5.54639191 171.59923067 1.98701096 171.56477356 C0.07344007 171.55317934 -1.84023962 171.57077726 -3.75375366 171.58953857 C-11.74036095 171.47309653 -17.5860173 170.20458899 -23.64453125 164.77636719 C-30.05727558 157.61901393 -30.51185748 150.40897967 -30.42089844 141.13183594 C-30.42904684 139.78698023 -30.43974009 138.44213794 -30.45275879 137.09732056 C-30.47991915 133.47305059 -30.46958869 129.84981484 -30.45048428 126.22552872 C-30.43519278 122.41586972 -30.44940932 118.60629369 -30.45880127 114.79663086 C-30.46968818 108.40136979 -30.45540842 102.00652574 -30.42675781 95.61132812 C-30.39410904 88.23899125 -30.40468815 80.86765025 -30.43771625 73.49533749 C-30.46502759 67.14250441 -30.46874594 60.78996947 -30.45308423 54.4370966 C-30.44377542 50.65291608 -30.44235607 46.86920221 -30.46230316 43.08505249 C-30.47975877 39.52553547 -30.46739473 35.96729034 -30.43293762 32.40790939 C-30.42134341 30.49433851 -30.43894132 28.58065882 -30.45770264 26.66714478 C-30.34126059 18.68053749 -29.07275305 12.83488114 -23.64453125 6.77636719 C-16.48717799 0.36362286 -9.27714373 -0.09095904 0 0 Z M92.35546875 24.77636719 C90.94046616 26.29055677 90.94046616 26.29055677 89.53515625 28.27636719 C88.73271484 29.35917969 88.73271484 29.35917969 87.9140625 30.46386719 C87.35847656 31.22699219 86.80289063 31.99011719 86.23046875 32.77636719 C85.66714844 33.53949219 85.10382813 34.30261719 84.5234375 35.08886719 C83.12831932 36.98055285 81.73934904 38.87645304 80.35546875 40.77636719 C78.1709337 40.26808428 76.34893871 39.77305155 74.33984375 38.75292969 C70.61041429 36.91758055 67.32322287 37.01588098 63.35546875 37.77636719 C57.77432099 39.96696769 52.60070329 42.88745339 47.35546875 45.77636719 C46.30149902 46.3504834 45.2475293 46.92459961 44.16162109 47.51611328 C37.38155077 51.20992526 30.62339204 54.9408599 23.88200378 58.70477295 C19.77389721 60.99576069 15.64792033 63.25117061 11.51171875 65.49121094 C9.43862138 66.62760009 7.36569493 67.76430113 5.29296875 68.90136719 C4.34220459 69.40885498 3.39144043 69.91634277 2.41186523 70.43920898 C-2.71105157 73.276582 -6.0403266 75.45317202 -8.64453125 80.77636719 C-9.81538948 85.06444539 -9.21120539 88.60207424 -7.29296875 92.57714844 C-5.82153 95.04233136 -4.29286973 97.4265037 -2.64453125 99.77636719 C6.81253116 99.30537325 16.24001564 98.66206073 25.66796875 97.77636719 C26.56862061 97.69338379 27.46927246 97.61040039 28.3972168 97.52490234 C29.24582275 97.44288574 30.09442871 97.36086914 30.96875 97.27636719 C32.09470581 97.16808594 32.09470581 97.16808594 33.2434082 97.05761719 C35.33845864 96.77863232 37.31735344 96.32993649 39.35546875 95.77636719 C35.62110625 101.94672113 31.65647894 107.8374357 27.23046875 113.52636719 C26.8022583 114.07897217 26.37404785 114.63157715 25.93286133 115.20092773 C24.16429228 117.47626971 22.38461149 119.7404011 20.5703125 121.97949219 C18.69032092 124.38839505 17.4060002 126.11945839 17.16796875 129.21386719 C19.64568379 134.56051543 22.59627015 138.65995269 27.60546875 141.83886719 C38.15044009 144.47511002 45.83677655 139.87745559 54.79296875 134.65136719 C56.05858489 133.92974683 57.32520546 133.20988553 58.59277344 132.49169922 C61.20990559 131.00679366 63.82199565 129.51351881 66.43115234 128.01464844 C70.24403661 125.83106145 74.08529659 123.70214265 77.9375 121.58886719 C78.54496567 121.25501007 79.15243134 120.92115295 79.77830505 120.57717896 C82.66302041 118.99193024 85.54870455 117.40847956 88.43530273 115.82666016 C101.63183902 109.52299398 101.63183902 109.52299398 110.35546875 98.77636719 C110.42349842 97.04841367 110.4404252 95.31801354 110.41796875 93.58886719 C110.40894531 92.6878125 110.39992188 91.78675781 110.390625 90.85839844 C110.37902344 90.17132813 110.36742187 89.48425781 110.35546875 88.77636719 C111.03351563 88.78796875 111.7115625 88.79957031 112.41015625 88.81152344 C121.93378902 88.96521533 121.93378902 88.96521533 131.35546875 87.77636719 C132.34546875 86.78636719 132.34546875 86.78636719 133.35546875 85.77636719 C131.70546875 83.13636719 130.05546875 80.49636719 128.35546875 77.77636719 C117.09906655 78.70933699 105.84306002 79.64695974 94.58746338 80.58959961 C92.55492437 80.75967725 90.52233779 80.92918599 88.48974609 81.09863281 C85.31975796 81.36358704 82.15006413 81.63176147 78.98046875 81.90136719 C78.07482178 81.97661621 77.1691748 82.05186523 76.23608398 82.12939453 C71.89876397 82.50203811 67.64102199 82.98067815 63.35546875 83.77636719 C69.24776018 73.78010624 76.33955371 64.69777878 83.33300781 55.46191406 C86.68691054 51.00839765 89.99089658 46.51837911 93.29296875 42.02636719 C93.90213135 41.19814453 94.51129395 40.36992188 95.13891602 39.51660156 C96.54518043 37.60373892 97.95044618 35.69014216 99.35546875 33.77636719 C97.70546875 30.80636719 96.05546875 27.83636719 94.35546875 24.77636719 C93.69546875 24.77636719 93.03546875 24.77636719 92.35546875 24.77636719 Z " fill="#010000" transform="translate(29.64453125,-0.7763671875)"/>
<path d="M0 0 C0.495 3.465 0.495 3.465 1 7 C-5.47460267 11.51178208 -12.15630782 15.36995348 -19.125 19.0625 C-28.66466383 24.16829853 -38.11617223 29.40826451 -47.51220703 34.77368164 C-61.79146173 42.90995422 -61.79146173 42.90995422 -66 42 C-67.64453125 39.46875 -67.64453125 39.46875 -69 37 C-63.22986083 28.8500108 -57.39359572 20.74868856 -51.5 12.6875 C-50.88882324 11.84533936 -50.27764648 11.00317871 -49.64794922 10.13549805 C-49.07318848 9.35215088 -48.49842773 8.56880371 -47.90625 7.76171875 C-47.13764648 6.7092395 -47.13764648 6.7092395 -46.35351562 5.63549805 C-43.61089473 2.3214978 -40.28317281 2.63719349 -36.19140625 2.24609375 C-35.16937355 2.14833397 -35.16937355 2.14833397 -34.12669373 2.04859924 C-32.67848431 1.91131612 -31.23007622 1.77611556 -29.78149414 1.64282227 C-27.60167908 1.44112522 -25.42294926 1.22983674 -23.24414062 1.01757812 C-15.48477812 0.2815266 -7.80176839 -0.21616464 0 0 Z " fill="#060303" transform="translate(128,90)"/>
<path d="M0 0 C2 3 2 3 1.81860352 4.91381836 C0.835364 7.41956893 -0.45978221 9.24111515 -2.09765625 11.37890625 C-2.73509766 12.21873047 -3.37253906 13.05855469 -4.02929688 13.92382812 C-4.70025391 14.79458984 -5.37121094 15.66535156 -6.0625 16.5625 C-7.36675179 18.27147457 -8.67013294 19.98111393 -9.97265625 21.69140625 C-10.65408691 22.54968018 -11.33551758 23.4079541 -12.03759766 24.29223633 C-14.08132344 26.95376211 -14.08132344 26.95376211 -15.48974609 30.01049805 C-17.68587358 34.092132 -19.61093261 37.22263837 -24.20584106 38.71774292 C-30.89832815 40.09442221 -37.69188863 40.36072353 -44.5 40.6875 C-46.58365211 40.8253411 -48.66699948 40.96787386 -50.75 41.11523438 C-55.83141895 41.46450321 -60.91279392 41.74951288 -66 42 C-68 39 -68 39 -67.85766602 36.49121094 C-66.82230989 33.48387422 -65.95520889 32.79298358 -63.27734375 31.140625 C-62.46120605 30.63595703 -61.64506836 30.13128906 -60.80419922 29.61132812 C-56.04736423 26.87799094 -51.23511965 24.26141003 -46.38015747 21.70666504 C-43.27945878 20.07471288 -40.18716341 18.42695698 -37.09375 16.78125 C-36.48358536 16.45715149 -35.87342072 16.13305298 -35.24476624 15.7991333 C-29.98716449 13.00309926 -24.76450989 10.14793848 -19.5625 7.25 C-18.85488525 6.85651367 -18.14727051 6.46302734 -17.41821289 6.05761719 C-14.65619169 4.51440564 -11.92887559 2.9548127 -9.2578125 1.2578125 C-6.05115343 -0.52859618 -3.59778124 -0.40729599 0 0 Z " fill="#060303" transform="translate(100,47)"/>
<path d="M0 0 C2.3125 0.1875 2.3125 0.1875 4 1 C-1.625 5 -1.625 5 -5 5 C-2.75 2.4375 -2.75 2.4375 0 0 Z " fill="#301F21" transform="translate(85,93)"/>
</svg>
