<?xml version="1.0" encoding="UTF-8"?>
<svg version="1.1" xmlns="http://www.w3.org/2000/svg" width="90" height="90">
<path d="M0 0 C29.7 0 59.4 0 90 0 C90 29.7 90 59.4 90 90 C60.3 90 30.6 90 0 90 C0 60.3 0 30.6 0 0 Z " fill="#EC4222" transform="translate(0,0)"/>
<path d="M0 0 C29.7 0 59.4 0 90 0 C90 29.7 90 59.4 90 90 C60.3 90 30.6 90 0 90 C0 60.3 0 30.6 0 0 Z M7 5 C7 5.66 7 6.32 7 7 C6.01 7.33 5.02 7.66 4 8 C2.86897569 11.39307292 2.85225301 14.01707107 2.82299805 17.59521484 C2.81642685 18.26061783 2.80985565 18.92602081 2.80308533 19.61158752 C2.78339082 21.81137205 2.77169945 24.01108848 2.76171875 26.2109375 C2.75764322 26.96319233 2.7535677 27.71544716 2.74936867 28.49049759 C2.72852602 32.47087579 2.71421558 36.45121969 2.70483398 40.43164062 C2.69376302 44.53978141 2.65935069 48.64738151 2.61966228 52.75533104 C2.59350643 55.91752116 2.58514319 59.0795821 2.58155251 62.24187088 C2.57668516 63.75612675 2.5650668 65.27037679 2.54651451 66.78452682 C2.52213937 68.90545211 2.52308381 71.02497333 2.5300293 73.14599609 C2.52416306 74.35162201 2.51829681 75.55724792 2.51225281 76.79940796 C3.10252264 80.67275254 4.23550455 82.26538514 7 85 C10.38738888 87.38563616 13.54632683 87.26981815 17.61694336 87.30639648 C18.2727388 87.31472 18.92853424 87.32304352 19.60420227 87.33161926 C21.76614361 87.35566084 23.92778303 87.36448322 26.08984375 87.37109375 C27.59672636 87.38006334 29.10360808 87.38918525 30.61048889 87.39845276 C33.76695925 87.41492854 36.9233237 87.42264049 40.07983398 87.42553711 C44.11974755 87.43092488 48.15866308 87.46862559 52.19829464 87.51428127 C55.30989704 87.54405546 58.42125894 87.5512607 61.53299141 87.55226326 C63.02213687 87.55646359 64.51128316 87.56889064 66.00028801 87.58978081 C68.08548909 87.61671126 70.16837457 87.61186882 72.25366211 87.59936523 C73.43850693 87.60443588 74.62335175 87.60950653 75.84410095 87.61473083 C79.91979989 86.82083414 81.43610936 85.19203038 84 82 C84 81.34 84 80.68 84 80 C84.66 80 85.32 80 86 80 C85.67 58.88 85.34 37.76 85 16 C84.01 16.33 83.02 16.66 82 17 C81.67 32.18 81.34 47.36 81 63 C79.515 63.495 79.515 63.495 78 64 C78 59.38 78 54.76 78 50 C74.0240688 50.5230951 74.0240688 50.5230951 72.734375 52.85546875 C70.76165786 57.52892958 69.87793124 60.87311189 70 66 C67.6323675 69.25966306 64.55306738 70.02108651 60.8125 71.1875 C59.18248047 71.70376953 59.18248047 71.70376953 57.51953125 72.23046875 C56.68808594 72.48441406 55.85664062 72.73835938 55 73 C55.9590625 72.12988281 55.9590625 72.12988281 56.9375 71.2421875 C59.5323707 68.42124852 59.88736123 66.72862038 60.1484375 63.01171875 C59.81608354 58.50744804 57.13152979 55.98438947 53.8671875 53.14453125 C49.5586362 49.68890682 49.5586362 49.68890682 44.796875 46.9296875 C42.4666216 45.72403465 41.9547527 44.38688175 41 42 C40.01 42.33 39.02 42.66 38 43 C37.50792727 48.28978183 38.71680927 49.9986113 42 54 C42.25 56.8125 42.25 56.8125 42 59 C40.02 59.66 38.04 60.32 36 61 C35.505 58.03 35.505 58.03 35 55 C30.4175727 59.15534769 30.4175727 59.15534769 28.75 64.8125 C29.02787573 68.35541555 29.97380526 70.12955745 32 73 C30.02 72.34 28.04 71.68 26 71 C26 70.34 26 69.68 26 69 C25.34 69 24.68 69 24 69 C23.690625 68.21625 23.38125 67.4325 23.0625 66.625 C22.07124962 64.07669872 22.07124962 64.07669872 21 62 C20.48097756 55.33255787 20.33028722 49.81037856 24 44 C24 43.34 24 42.68 24 42 C24.66 42 25.32 42 26 42 C27.52012037 39.74572728 27.52012037 39.74572728 29 37 C31.77777778 32.11111111 31.77777778 32.11111111 34 31 C35.13350534 28.98330173 35.13350534 28.98330173 36 27 C36.66 27 37.32 27 38 27 C38.33 25.35 38.66 23.7 39 22 C39.66 22 40.32 22 41 22 C41.66 19.69 42.32 17.38 43 15 C47.75 15.75 47.75 15.75 50 18 C52.60280568 17.67958603 52.60280568 17.67958603 55 17 C55.06058594 17.77085938 55.12117188 18.54171875 55.18359375 19.3359375 C55.26738281 20.33882812 55.35117187 21.34171875 55.4375 22.375 C55.51871094 23.37273438 55.59992187 24.37046875 55.68359375 25.3984375 C55.84965626 27.97927613 55.84965626 27.97927613 57 30 C57.66 30 58.32 30 59 30 C60.33500455 24.65998179 59.512545 21.16044765 58 16 C60.475 16.495 60.475 16.495 63 17 C63.33 16.01 63.66 15.02 64 14 C65.68029297 14.01740234 65.68029297 14.01740234 67.39453125 14.03515625 C68.86718583 14.04453622 70.33984222 14.0536362 71.8125 14.0625 C72.55048828 14.07087891 73.28847656 14.07925781 74.04882812 14.08789062 C77.29922068 14.10259828 79.89404895 14.03531702 83 13 C83.99 13.99 83.99 13.99 85 15 C84.74476126 13.37247769 84.47025506 11.74796804 84.1875 10.125 C84.03667969 9.22007813 83.88585937 8.31515625 83.73046875 7.3828125 C83.16948699 4.65587522 83.16948699 4.65587522 80 3 C76.981104 2.69457147 76.981104 2.69457147 73.49658203 2.74121094 C72.84093262 2.7377063 72.1852832 2.73420166 71.50976562 2.73059082 C69.34234018 2.72178877 67.17524128 2.72761845 65.0078125 2.734375 C63.49950091 2.73302758 61.99118974 2.73108641 60.48287964 2.72857666 C57.32041289 2.7256272 54.15805909 2.72991606 50.99560547 2.73925781 C46.94815094 2.75063277 42.90096223 2.74410429 38.85351753 2.73211288 C35.7376405 2.72487275 32.62182607 2.72719243 29.50594711 2.73236847 C28.01405684 2.73370003 26.52216083 2.73207457 25.03027725 2.72740936 C22.94076835 2.72231083 20.85168442 2.73010145 18.76220703 2.74121094 C17.57434601 2.74280212 16.38648499 2.74439331 15.16262817 2.74603271 C12.03502993 2.99718701 9.81937656 3.66476089 7 5 Z " fill="#EB4324" transform="translate(0,0)"/>
<path d="M0 0 C5.97049413 5.81740453 5.97049413 5.81740453 6.09765625 10.9140625 C6.09100226 12.48440463 6.07906939 14.05473119 6.0625 15.625 C6.05798828 16.42679688 6.05347656 17.22859375 6.04882812 18.0546875 C6.03703168 20.03649006 6.01909605 22.01825433 6 24 C7.65 24.33 9.3 24.66 11 25 C11.66 24.01 12.32 23.02 13 22 C18.25144641 23.39008876 20.87300672 26.8042875 24 31 C25.33827901 33.67655801 25.20578556 35.82434052 25.25 38.8125 C25.27578125 39.85019531 25.3015625 40.88789062 25.328125 41.95703125 C24.70354781 47.7492411 21.19128433 51.20788561 17 55 C14.3125 56.875 14.3125 56.875 12 58 C11.01 57.505 11.01 57.505 10 57 C10.639375 56.505 11.27875 56.01 11.9375 55.5 C14.71280744 52.13599099 15.32713209 49.32820914 15 45 C12.03657348 38.55776843 6.11750557 34.72457755 0.0625 31.375 C-2 30 -2 30 -2.8125 27.8125 C-2.874375 27.214375 -2.93625 26.61625 -3 26 C-3.66 26.33 -4.32 26.66 -5 27 C-5.49207273 32.28978183 -4.28319073 33.9986113 -1 38 C-0.625 40.6875 -0.625 40.6875 -1 43 C-3 45 -3 45 -5.625 45.125 C-6.40875 45.08375 -7.1925 45.0425 -8 45 C-8.66 43.35 -9.32 41.7 -10 40 C-12.30014687 43.01894277 -13.88411768 45.20537841 -14.4375 49 C-13.9307262 52.47502031 -12.73413713 54.96526003 -11 58 C-15.75 56.125 -15.75 56.125 -18 55 C-18 54.34 -18 53.68 -18 53 C-18.66 53 -19.32 53 -20 53 C-24.43908535 46.89625764 -25.0234569 41.44958535 -24 34 C-22.93837563 31.01189348 -21.67437473 28.72085893 -20 26 C-19.34 26 -18.68 26 -18 26 C-17.938125 25.443125 -17.87625 24.88625 -17.8125 24.3125 C-16.21414238 19.7633283 -12.06048739 17.04659499 -8.4375 14.0625 C-3.84240832 10.15817374 -0.72072941 6.1262 0 0 Z " fill="#F8FBF8" transform="translate(44,16)"/>
<path d="M0 0 C0.66 0 1.32 0 2 0 C2.5878125 1.11375 2.5878125 1.11375 3.1875 2.25 C5.14874194 5.22567743 6.98003491 6.27150981 10.08984375 7.90234375 C14.72040549 10.5632596 19.05463707 13.91509094 21 19 C21.16081442 22.92080867 20.51678387 26.17314582 18.4375 29.5 C17.963125 29.995 17.48875 30.49 17 31 C18.65 30.34 20.3 29.68 22 29 C22 29.66 22 30.32 22 31 C21.030625 31.639375 20.06125 32.27875 19.0625 32.9375 C15.75744775 34.71061007 15.75744775 34.71061007 15 38 C9.4721983 41.63290024 2.15386525 40.26233133 -4 39 C-4 37.33333333 -4 35.66666667 -4 34 C-4.5775 34.185625 -5.155 34.37125 -5.75 34.5625 C-8.27696034 35.0538534 -9.61833754 34.95266498 -12 34 C-12.66 33.01 -13.32 32.02 -14 31 C-18.28887745 33.57332647 -20.58271341 35.64888413 -23 40 C-23.66 40 -24.32 40 -25 40 C-23.21680171 42.31258565 -22.34050646 42.95276443 -19.39936829 43.36076355 C-18.35790146 43.35410172 -17.31643463 43.34743988 -16.2434082 43.34057617 C-15.06241043 43.34034958 -13.88141266 43.34012299 -12.66462708 43.33988953 C-11.38955795 43.32440567 -10.11448883 43.30892181 -8.80078125 43.29296875 C-7.49545944 43.28872391 -6.19013763 43.28447906 -4.84526062 43.28010559 C-1.37794721 43.26866089 2.08898813 43.23919754 5.55615234 43.20599365 C9.09532558 43.17528433 12.63456001 43.16159845 16.17382812 43.14648438 C23.11604055 43.11432705 30.05800211 43.06313554 37 43 C37.33 42.01 37.66 41.02 38 40 C39.65 40.33 41.3 40.66 43 41 C41.9054718 42.96765137 41.9054718 42.96765137 40 45 C37.09806824 45.50793457 37.09806824 45.50793457 33.51245117 45.51757812 C32.53138649 45.52809204 32.53138649 45.52809204 31.53050232 45.53881836 C29.36755944 45.55642746 27.20592505 45.54476298 25.04296875 45.53125 C23.53705088 45.5339451 22.0311347 45.53782767 20.52522278 45.54284668 C17.36682592 45.54874643 14.20888138 45.5401677 11.05053711 45.52148438 C7.01187229 45.49875249 2.97427413 45.51177709 -1.06435108 45.53577423 C-4.17604009 45.55026998 -7.28747885 45.54560809 -10.39917564 45.53526306 C-11.88744929 45.53260311 -13.37574599 45.53583974 -14.86399269 45.54518127 C-16.95135684 45.55540347 -19.03702864 45.53976838 -21.12426758 45.51757812 C-22.30990799 45.51439575 -23.4955484 45.51121338 -24.71711731 45.50793457 C-28.70804558 44.89044969 -30.89320011 43.54318925 -34 41 C-34.495 39.515 -34.495 39.515 -35 38 C-34.34 38 -33.68 38 -33 38 C-32.67 38.66 -32.34 39.32 -32 40 C-29.47266765 40.65555119 -29.47266765 40.65555119 -27 41 C-25.88158632 38.91229447 -25.0291824 37.14591199 -24.5625 34.8125 C-24.376875 34.214375 -24.19125 33.61625 -24 33 C-22.515 32.505 -22.515 32.505 -21 32 C-19.79117904 29.99983534 -19.79117904 29.99983534 -19 28 C-18.34 28 -17.68 28 -17 28 C-16.67 26.68 -16.34 25.36 -16 24 C-15.67 24.99 -15.34 25.98 -15 27 C-14.34 27 -13.68 27 -13 27 C-13 27.66 -13 28.32 -13 29 C-11.02 29.66 -9.04 30.32 -7 31 C-7.7425 29.948125 -7.7425 29.948125 -8.5 28.875 C-10.26882288 25.48475614 -10.53936208 23.77553457 -10 20 C-6.84210526 14.42105263 -6.84210526 14.42105263 -4 13 C-3.67 14.98 -3.34 16.96 -3 19 C-1.02 18.34 0.96 17.68 3 17 C3.33592508 14.7104607 3.33592508 14.7104607 3 12 C2.34 11.195625 1.68 10.39125 1 9.5625 C-1.4284164 6.45109149 -1.43787807 4.85332702 -1 1 C-0.67 0.67 -0.34 0.34 0 0 Z " fill="#E84527" transform="translate(39,42)"/>
<path d="M0 0 C29.7 0 59.4 0 90 0 C90 29.7 90 59.4 90 90 C60.3 90 30.6 90 0 90 C0 60.3 0 30.6 0 0 Z M3 6 C1.5227717 8.9544566 1.8317817 11.62706741 1.79125977 14.92480469 C1.78147598 15.63722321 1.7716922 16.34964172 1.76161194 17.08364868 C1.73164659 19.44637176 1.71026793 21.80903811 1.69140625 24.171875 C1.68483442 24.97896156 1.6782626 25.78604813 1.67149162 26.61759186 C1.63889077 30.89087674 1.61444343 35.16413664 1.5949707 39.4375 C1.57716543 42.97237495 1.54236041 46.50645095 1.49243164 50.04101562 C1.4322005 54.30983726 1.40149108 58.57791876 1.39179802 62.84714508 C1.38324577 64.47226826 1.36443293 66.09737178 1.3350544 67.72225189 C0.79897515 77.3209228 0.79897515 77.3209228 4.01733398 85.99853516 C9.53899448 89.99898754 17.81821354 88.80926074 24.34375 88.7265625 C25.95747882 88.7255242 27.57121019 88.72656385 29.18493652 88.72958374 C32.56101431 88.72940468 35.93613305 88.70862943 39.31201172 88.67236328 C43.62976028 88.62698719 47.94610906 88.62590375 52.26403046 88.63939857 C55.59450627 88.64609596 58.92466552 88.63278512 62.25508118 88.61314011 C63.84660687 88.60546632 65.43816786 88.60312712 67.02970886 88.6063118 C69.25811296 88.60705741 71.48475291 88.58170282 73.71289062 88.54931641 C74.97830688 88.54010162 76.24372314 88.53088684 77.54748535 88.52139282 C81.61700118 87.90682154 83.81186052 86.55665439 87 84 C88.47649997 81.04700006 88.17641184 78.37138287 88.22460938 75.07519531 C88.23599945 74.36277679 88.24738953 73.65035828 88.25912476 72.91635132 C88.36973519 65.46561267 88.41719835 58.01388663 88.45996094 50.5625 C88.48223863 47.02750113 88.52400837 43.49355765 88.58300781 39.95898438 C88.65412363 35.69013076 88.69079623 31.42227048 88.70307922 27.15285492 C88.71347527 25.52769636 88.73588939 23.90256758 88.77067566 22.27774811 C89.34333537 12.50911773 89.34333537 12.50911773 85.48486328 4.00146484 C79.46408073 0.2570054 71.35853087 1.18668894 64.5234375 1.2734375 C62.90874229 1.27447599 61.29404453 1.27343561 59.67935181 1.27041626 C56.30505331 1.27059515 52.9317161 1.29133935 49.55761719 1.32763672 C45.2386786 1.37308529 40.92113812 1.37408128 36.60202599 1.36060143 C33.27159249 1.3539114 29.9414763 1.36719985 26.61110306 1.38685989 C25.01875088 1.39454087 23.42636335 1.39686987 21.83399582 1.3936882 C19.60788702 1.39294421 17.38355573 1.41824974 15.15771484 1.45068359 C13.89309418 1.45989838 12.62847351 1.46911316 11.32553101 1.47860718 C7.43250387 2.08897479 5.77506041 3.25705084 3 6 Z " fill="#D77D62" transform="translate(0,0)"/>
<path d="M0 0 C0.70091263 -0.00978378 1.40182526 -0.01956757 2.12397766 -0.02964783 C4.45486539 -0.0596768 6.78569512 -0.08101369 9.11669922 -0.09985352 C9.91242214 -0.10642534 10.70814507 -0.11299717 11.5279808 -0.11976814 C15.74405896 -0.15240269 19.96011149 -0.17683728 24.17626953 -0.19628906 C27.66264861 -0.2140705 31.14821397 -0.248832 34.63427734 -0.29882812 C38.84359776 -0.35913112 43.05216623 -0.38977947 47.26189804 -0.39946175 C48.86386732 -0.40800525 50.46581712 -0.42679646 52.06753922 -0.45620537 C66.12256123 -0.70026128 66.12256123 -0.70026128 70.78125 2.21020508 C75.4868373 7.48347773 74.24794055 16.18281138 74.15576172 22.80639648 C74.15539772 24.44494235 74.15740787 26.08349031 74.16168213 27.72203064 C74.16297449 31.14950893 74.14006844 34.57570188 74.09912109 38.00292969 C74.0480048 42.39047911 74.05025435 46.77601041 74.06972885 51.16375065 C74.08003693 54.54485032 74.06559102 57.92548798 74.04334259 61.30651665 C74.03499381 62.92398461 74.03348046 64.54150312 74.03899384 66.15898323 C74.04228526 68.42145622 74.01309533 70.6812517 73.97509766 72.94335938 C73.96008209 74.87146202 73.96008209 74.87146202 73.94476318 76.83851624 C73.13288418 81.05861713 71.57881406 82.528973 68.29638672 85.20874023 C65.36390885 86.67497917 62.73778782 86.37668427 59.46337891 86.41748047 C58.76071396 86.42726425 58.05804901 86.43704803 57.33409119 86.4471283 C55.00383399 86.47709231 52.6736343 86.498472 50.34326172 86.51733398 C49.14918072 86.52719172 49.14918072 86.52719172 47.93097687 86.53724861 C43.71604692 86.56984898 39.50114231 86.59429635 35.28613281 86.61376953 C31.79975528 86.63157418 28.31418791 86.66637811 24.828125 86.71630859 C20.61765651 86.77654479 16.40793849 86.80724982 12.19705963 86.81694221 C10.59426393 86.82549367 8.9914881 86.84430458 7.3889389 86.87368584 C-6.68839921 87.1178516 -6.68839921 87.1178516 -10.6862793 84.20727539 C-14.69509587 78.70057422 -13.53401518 70.10971908 -13.46533203 63.61108398 C-13.46683547 61.97253642 -13.47026799 60.3339896 -13.47554016 58.69544983 C-13.47986471 55.26811795 -13.46308547 51.84172925 -13.4309082 48.41455078 C-13.39109488 44.027041 -13.40044318 39.64129599 -13.42514324 35.25372982 C-13.43934097 31.87266125 -13.42922883 28.49200336 -13.41163063 25.11096382 C-13.40579176 23.49348494 -13.40706706 21.87596386 -13.41565514 20.25849724 C-13.42366903 17.9960916 -13.39935586 15.73625354 -13.36645508 13.47412109 C-13.35946091 12.18871933 -13.35246674 10.90331757 -13.34526062 9.57896423 C-12.54417767 5.37131179 -10.93754151 3.91332682 -7.70361328 1.20874023 C-5.81233697 -0.68253608 -2.51569344 0.03136286 0 0 Z M-7.70361328 3.20874023 C-7.70361328 3.86874023 -7.70361328 4.52874023 -7.70361328 5.20874023 C-8.69361328 5.53874023 -9.68361328 5.86874023 -10.70361328 6.20874023 C-11.83463759 9.60181315 -11.85136027 12.22581131 -11.88061523 15.80395508 C-11.88718643 16.46935806 -11.89375763 17.13476105 -11.90052795 17.82032776 C-11.92022246 20.02011228 -11.93191384 22.21982871 -11.94189453 24.41967773 C-11.94597006 25.17193256 -11.95004559 25.92418739 -11.95424461 26.69923782 C-11.97508726 30.67961603 -11.9893977 34.65995992 -11.9987793 38.64038086 C-12.00985026 42.74852164 -12.04426259 46.85612175 -12.083951 50.96407127 C-12.11010685 54.1262614 -12.11847009 57.28832233 -12.12206078 60.45061111 C-12.12692813 61.96486698 -12.13854648 63.47911702 -12.15709877 64.99326706 C-12.18147391 67.11419235 -12.18052947 69.23371357 -12.17358398 71.35473633 C-12.17945023 72.56036224 -12.18531647 73.76598816 -12.19136047 75.00814819 C-11.60109064 78.88149277 -10.46810873 80.47412537 -7.70361328 83.20874023 C-4.3162244 85.59437639 -1.15728645 85.47855838 2.91333008 85.51513672 C3.56912552 85.52346024 4.22492096 85.53178375 4.90058899 85.5403595 C7.06253033 85.56440108 9.22416975 85.57322346 11.38623047 85.57983398 C12.89311308 85.58880358 14.3999948 85.59792548 15.90687561 85.60719299 C19.06334597 85.62366877 22.21971042 85.63138072 25.3762207 85.63427734 C29.41613427 85.63966512 33.4550498 85.67736582 37.49468136 85.72302151 C40.60628376 85.7527957 43.71764566 85.76000093 46.82937813 85.76100349 C48.31852358 85.76520382 49.80766988 85.77763087 51.29667473 85.79852104 C53.38187581 85.82545149 55.46476129 85.82060905 57.55004883 85.80810547 C58.73489365 85.81317612 59.91973846 85.81824677 61.14048767 85.82347107 C65.21618661 85.02957438 66.73249608 83.40077062 69.29638672 80.20874023 C69.29638672 79.54874023 69.29638672 78.88874023 69.29638672 78.20874023 C70.28638672 78.20874023 71.27638672 78.20874023 72.29638672 78.20874023 C72.34272916 69.28135782 72.37826561 60.35401683 72.40001106 51.42654037 C72.41044783 47.2811432 72.42460507 43.13582833 72.44726562 38.99047852 C72.46899783 34.98991334 72.48095615 30.98942733 72.4861412 26.98880768 C72.48983628 25.46258549 72.49705183 23.93636762 72.50784683 22.41017914 C72.5223669 20.2722996 72.52436447 18.1347471 72.5234375 15.99682617 C72.52787872 14.77993103 72.53231995 13.56303589 72.53689575 12.30926514 C72.30756527 9.35284861 71.85060255 7.69304139 70.29638672 5.20874023 C69.63638672 5.20874023 68.97638672 5.20874023 68.29638672 5.20874023 C68.29638672 4.54874023 68.29638672 3.88874023 68.29638672 3.20874023 C64.69596977 0.80846227 63.07337502 0.95569264 58.79296875 0.94995117 C58.13731934 0.94644653 57.48166992 0.94294189 56.80615234 0.93933105 C54.6387269 0.93052901 52.471628 0.93635868 50.30419922 0.94311523 C48.79588763 0.94176782 47.28757646 0.93982664 45.77926636 0.93731689 C42.61679961 0.93436744 39.45444581 0.93865629 36.29199219 0.94799805 C32.24453766 0.95937301 28.19734895 0.95284452 24.14990425 0.94085312 C21.03402722 0.93361299 17.91821279 0.93593266 14.80233383 0.9411087 C13.31044356 0.94244026 11.81854755 0.94081481 10.32666397 0.9361496 C8.23715507 0.93105106 6.14807114 0.93884169 4.05859375 0.94995117 C2.87073273 0.95154236 1.6828717 0.95313354 0.45901489 0.95477295 C-2.66858335 1.20592724 -4.88423672 1.87350112 -7.70361328 3.20874023 Z " fill="#B73B24" transform="translate(14.70361328125,1.791259765625)"/>
<path d="M0 0 C1.46726798 3.81489674 0.43336419 6.29011622 -1 10 C-0.34 10 0.32 10 1 10 C1.33 11.32 1.66 12.64 2 14 C2.433125 13.505 2.86625 13.01 3.3125 12.5 C5 11 5 11 8 11 C8 8.03 8 5.06 8 2 C9.65 1.67 11.3 1.34 13 1 C13.33 1.99 13.66 2.98 14 4 C13.01 4.495 13.01 4.495 12 5 C11.50792727 10.28978183 12.71680927 11.9986113 16 16 C16.375 18.6875 16.375 18.6875 16 21 C14 23 14 23 11.375 23.125 C10.59125 23.08375 9.8075 23.0425 9 23 C8.34 21.35 7.68 19.7 7 18 C4.69985313 21.01894277 3.11588232 23.20537841 2.5625 27 C3.0692738 30.47502031 4.26586287 32.96526003 6 36 C1.25 34.125 1.25 34.125 -1 33 C-1 32.34 -1 31.68 -1 31 C-1.66 31 -2.32 31 -3 31 C-7.43908535 24.89625764 -8.0234569 19.44958535 -7 12 C-5.93837563 9.01189348 -4.67437473 6.72085893 -3 4 C-2.34 4 -1.68 4 -1 4 C-0.67 2.68 -0.34 1.36 0 0 Z " fill="#F9FAFA" transform="translate(27,38)"/>
<path d="M0 0 C29.7 0 59.4 0 90 0 C90 3.63 90 7.26 90 11 C89.34 11 88.68 11 88 11 C87.319375 9.8553125 87.319375 9.8553125 86.625 8.6875 C84.89155685 5.82065172 83.87461762 4.66811362 81 3 C77.68361481 2.53097485 77.68361481 2.53097485 73.92407227 2.58007812 C73.21950897 2.57160858 72.51494568 2.56313904 71.78903198 2.55441284 C69.46463878 2.53105211 67.14090787 2.53002039 64.81640625 2.53125 C63.19742061 2.52414789 61.57843749 2.51644881 59.9594574 2.50817871 C56.56754559 2.49473612 53.17586653 2.4931641 49.78393555 2.49902344 C45.44133315 2.50491984 41.09984866 2.47433068 36.7574625 2.43390656 C33.41422021 2.4080326 30.07124723 2.4051518 26.72791862 2.40879822 C25.1271477 2.4071067 23.52636438 2.39746099 21.9256916 2.37965393 C19.68481165 2.3574676 17.44619576 2.3671607 15.20532227 2.38476562 C13.93165298 2.38271118 12.6579837 2.38065674 11.34571838 2.37854004 C7.12442867 3.16263548 5.65746745 4.70281369 3 8 C2.13880866 10.17346568 2.13880866 10.17346568 2 12 C1.34 12 0.68 12 0 12 C0 8.04 0 4.08 0 0 Z " fill="#CF7D76" transform="translate(0,0)"/>
<path d="M0 0 C22.44 0 44.88 0 68 0 C68 0.99 68 1.98 68 3 C59.87217731 3.02319395 51.74436851 3.04095104 43.61652088 3.05181217 C39.84223573 3.05702557 36.06797327 3.06409517 32.29370117 3.07543945 C28.6497494 3.0863232 25.00581942 3.09228847 21.36185265 3.09487724 C19.97322942 3.0967216 18.58460735 3.10032316 17.19599342 3.10573006 C15.24761752 3.11301321 13.29921959 3.11340868 11.35083008 3.11352539 C10.2427449 3.115746 9.13465973 3.11796661 7.99299622 3.12025452 C5.21252142 3.00853882 2.70416282 2.63378418 0 2 C0 1.34 0 0.68 0 0 Z " fill="#F2401B" transform="translate(11,4)"/>
<path d="M0 0 C0.66 0 1.32 0 2 0 C2.00142502 0.86586227 2.00285004 1.73172455 2.00431824 2.62382507 C2.0221592 10.7899968 2.06380489 18.95562722 2.13209057 27.12153912 C2.16635918 31.31962392 2.19147027 35.51734488 2.19555664 39.71557617 C2.19983999 43.76836752 2.22830446 47.82033814 2.27343178 51.87287331 C2.28640583 53.41774525 2.29071474 54.96271543 2.28615379 56.50763512 C2.2812465 58.67485162 2.30733839 60.83967041 2.34057617 63.0065918 C2.35056892 64.85525093 2.35056892 64.85525093 2.36076355 66.74125671 C3.17688367 70.90172968 4.73619254 72.37861461 8 75 C8.99 75.33 9.98 75.66 11 76 C11 76.66 11 77.32 11 78 C7.37 78 3.74 78 0 78 C0 52.26 0 26.52 0 0 Z " fill="#CE7B74" transform="translate(0,12)"/>
<path d="M0 0 C0.33 0 0.66 0 1 0 C1.33 2.64 1.66 5.28 2 8 C3.65 8.33 5.3 8.66 7 9 C7.66 8.01 8.32 7.02 9 6 C12.91841827 7.30613942 15.32640809 8.83129848 18 12 C18 12.66 18 13.32 18 14 C17.01 14 16.02 14 15 14 C15 13.34 15 12.68 15 12 C14.01 11.67 13.02 11.34 12 11 C12 10.34 12 9.68 12 9 C11.34 9 10.68 9 10 9 C9.67 9.99 9.34 10.98 9 12 C5.9375 13.6875 5.9375 13.6875 3 15 C3 15.66 3 16.32 3 17 C3.598125 17.2475 4.19625 17.495 4.8125 17.75 C7.28647521 19.16370012 8.43370255 20.65055383 10 23 C9.67 23.66 9.34 24.32 9 25 C8.33613281 24.45730469 7.67226563 23.91460937 6.98828125 23.35546875 C6.10527344 22.64003906 5.22226562 21.92460938 4.3125 21.1875 C3.44238281 20.47980469 2.57226562 19.77210937 1.67578125 19.04296875 C-0.93420952 16.95506372 -0.93420952 16.95506372 -3.76953125 15.42578125 C-6 14 -6 14 -7 11 C-6.01 11 -5.02 11 -4 11 C-2.66018514 10.6937566 -1.32488113 10.36548445 0 10 C-0.2784375 8.9171875 -0.2784375 8.9171875 -0.5625 7.8125 C-1.01995307 4.87173027 -0.73516357 2.85896942 0 0 Z " fill="#F8EEE2" transform="translate(48,32)"/>
<path d="M0 0 C0.66 0.33 1.32 0.66 2 1 C2 1.66 2 2.32 2 3 C1.01 3.495 1.01 3.495 0 4 C-0.49207273 9.28978183 0.71680927 10.9986113 4 15 C4.375 17.6875 4.375 17.6875 4 20 C2 22 2 22 -0.625 22.125 C-1.40875 22.08375 -2.1925 22.0425 -3 22 C-4.70822714 15.90120557 -5.16343407 11.2402373 -4 5 C-3.87625 4.195625 -3.7525 3.39125 -3.625 2.5625 C-3.41875 2.046875 -3.2125 1.53125 -3 1 C-2.01 0.67 -1.02 0.34 0 0 Z " fill="#F5EFE7" transform="translate(39,39)"/>
<path d="M0 0 C0.99 0.33 1.98 0.66 3 1 C3 2.32 3 3.64 3 5 C1.02 5.99 1.02 5.99 -1 7 C-0.236875 7.103125 0.52625 7.20625 1.3125 7.3125 C4.19497655 8.04987772 5.09539142 8.80970014 7 11 C7.33 11 7.66 11 8 11 C8 13.97 8 16.94 8 20 C5 19 5 19 3 16 C3 14.68 3 13.36 3 12 C2.195625 11.87625 1.39125 11.7525 0.5625 11.625 C-0.283125 11.41875 -1.12875 11.2125 -2 11 C-2.33 10.34 -2.66 9.68 -3 9 C-4.64363134 8.27840576 -6.31050386 7.60648579 -8 7 C-5.64046906 4.64046906 -4.22104383 4.50858587 -1 4 C-0.67 2.68 -0.34 1.36 0 0 Z M8 10 C8.66 10 9.32 10 10 10 C9.67 10.99 9.34 11.98 9 13 C8.67 12.01 8.34 11.02 8 10 Z " fill="#FCFAFD" transform="translate(58,40)"/>
<path d="M0 0 C1.65 0 3.3 0 5 0 C8.24571282 6.20918975 8.66944259 12.05829437 9 19 C8.01 19 7.02 19 6 19 C6.04640625 18.27554688 6.0928125 17.55109375 6.140625 16.8046875 C6.37745225 10.46110041 6.20146971 6.85794935 2 2 C1.649375 2.99 1.29875 3.98 0.9375 5 C-1.89727783 11.62343825 -7.24091814 16.81157683 -13 21 C-12.6875 19.0625 -12.6875 19.0625 -12 17 C-11.01 16.67 -10.02 16.34 -9 16 C-9 14.35 -9 12.7 -9 11 C-7.68 11.33 -6.36 11.66 -5 12 C-4.67 10.35 -4.34 8.7 -4 7 C-3.34 7 -2.68 7 -2 7 C-1.34 4.69 -0.68 2.38 0 0 Z " fill="#D25C46" transform="translate(43,15)"/>
<path d="M0 0 C0.66 0 1.32 0 2 0 C4.25514034 3.60467808 4.24237315 6.58975816 4.22705078 10.78808594 C4.22734283 11.46166641 4.22763489 12.13524689 4.22793579 12.82923889 C4.22654641 15.04775026 4.21100401 17.26592256 4.1953125 19.484375 C4.19158097 21.02565324 4.18873466 22.56693387 4.18673706 24.10821533 C4.17911161 28.15902286 4.15947253 32.2096863 4.1373291 36.26043701 C4.1168472 40.3962611 4.10773033 44.53210853 4.09765625 48.66796875 C4.07622555 56.77871185 4.04210281 64.88933799 4 73 C3.67 73 3.34 73 3 73 C2.99191315 72.17394257 2.98382629 71.34788513 2.97549438 70.49679565 C2.89744316 62.69897622 2.81012084 54.90132697 2.71247292 47.10372734 C2.66259986 43.0952282 2.61626931 39.08675427 2.578125 35.078125 C2.54115824 31.20710239 2.49476794 27.33629537 2.44193649 23.46545792 C2.4234529 21.99117961 2.40832282 20.51685519 2.39665604 19.04250717 C2.37968958 16.97196283 2.35063125 14.90190577 2.31884766 12.83154297 C2.30552399 11.65461884 2.29220032 10.4776947 2.2784729 9.2651062 C1.99112639 5.89595654 1.19990276 3.1501604 0 0 Z " fill="#DB492B" transform="translate(83,7)"/>
<path d="M0 0 C1.46726798 3.81489674 0.43336419 6.29011622 -1 10 C-1.66 10 -2.32 10 -3 10 C-5.44433951 14.88867901 -4.05609621 21.85153098 -3 27 C-3.66 27.33 -4.32 27.66 -5 28 C-7.9819129 22.99038633 -7.62012962 17.65327468 -7 12 C-5.94894031 9.00219497 -4.67742817 6.72582077 -3 4 C-2.34 4 -1.68 4 -1 4 C-0.67 2.68 -0.34 1.36 0 0 Z " fill="#FCE4DA" transform="translate(27,38)"/>
<path d="M0 0 C3.63 0 7.26 0 11 0 C11 3.63 11 7.26 11 11 C10.34 11 9.68 11 9 11 C8.5875 10.2575 8.175 9.515 7.75 8.75 C5.65410949 5.45645777 3.24660284 4.09225516 0 2 C0 1.34 0 0.68 0 0 Z " fill="#F1CBBF" transform="translate(79,0)"/>
<path d="M0 0 C0.66 0 1.32 0 2 0 C2 3.63 2 7.26 2 11 C-1.63 11 -5.26 11 -9 11 C-9 10.34 -9 9.68 -9 9 C-3.58823529 5 -3.58823529 5 -1 5 C-0.67 3.35 -0.34 1.7 0 0 Z " fill="#F6CBC2" transform="translate(88,79)"/>
<path d="M0 0 C0.66 0 1.32 0 2 0 C3.02611949 1.65071396 4.02308143 3.31970006 5 5 C7.06467856 7.40879165 7.88994659 7.96331553 11 9 C11 9.66 11 10.32 11 11 C7.37 11 3.74 11 0 11 C0 7.37 0 3.74 0 0 Z " fill="#F3C4BF" transform="translate(0,79)"/>
<path d="M0 0 C3.63 0 7.26 0 11 0 C11 0.66 11 1.32 11 2 C9.88625 2.53625 8.7725 3.0725 7.625 3.625 C4.55423918 5.34958891 4.06980621 5.84217726 2.5625 9.25 C2.376875 10.1575 2.19125 11.065 2 12 C1.34 12 0.68 12 0 12 C0 8.04 0 4.08 0 0 Z " fill="#F6E2DF" transform="translate(0,0)"/>
<path d="M0 0 C5.97976619 5.82643885 5.97976619 5.82643885 6.0625 10.625 C6.041875 11.73875 6.02125 12.8525 6 14 C5.67 14 5.34 14 5 14 C4.67 11.69 4.34 9.38 4 7 C3.01 7.33 2.02 7.66 1 8 C0.26676204 10.01508358 0.26676204 10.01508358 0 12 C-2.31 12.66 -4.62 13.32 -7 14 C-6.57847656 13.40832031 -6.15695313 12.81664062 -5.72265625 12.20703125 C-4.90087891 11.02173828 -4.90087891 11.02173828 -4.0625 9.8125 C-3.51722656 9.03519531 -2.97195312 8.25789063 -2.41015625 7.45703125 C-0.9543711 4.92049701 -0.40386565 2.8781818 0 0 Z " fill="#F8EED9" transform="translate(44,16)"/>
<path d="M0 0 C0.66 0 1.32 0 2 0 C0.125 5.75 0.125 5.75 -1 8 C-1.0969632 9.95637514 -1.12978917 11.91622931 -1.125 13.875 C-1.12757812 14.92429687 -1.13015625 15.97359375 -1.1328125 17.0546875 C-1.01998664 19.55676685 -0.72508762 21.61756923 0 24 C-0.66 24 -1.32 24 -2 24 C-4.45391569 20.31912647 -4.22802759 17.55644412 -4.125 13.3125 C-4.11597656 12.61060547 -4.10695313 11.90871094 -4.09765625 11.18554688 C-4.07413704 9.45688475 -4.03826713 7.72839855 -4 6 C-3.34 6 -2.68 6 -2 6 C-1.7834375 5.071875 -1.7834375 5.071875 -1.5625 4.125 C-1 2 -1 2 0 0 Z " fill="#D55540" transform="translate(22,42)"/>
<path d="M0 0 C2.0625 0.4375 2.0625 0.4375 4 1 C3.835 1.61875 3.67 2.2375 3.5 2.875 C2.79924683 7.25470729 2.92265749 11.57428989 3 16 C2.01 16 1.02 16 0 16 C-0.19389096 13.5211787 -0.38040123 11.04219069 -0.5625 8.5625 C-0.61857422 7.85544922 -0.67464844 7.14839844 -0.73242188 6.41992188 C-0.86190993 4.61572163 -0.93521608 2.80768048 -1 1 C-0.67 0.67 -0.34 0.34 0 0 Z " fill="#EB401B" transform="translate(51,16)"/>
<path d="M0 0 C2.86724686 0.57344937 3.8614515 0.8614515 6 3 C6.625 5.125 6.625 5.125 7 7 C8.32 7.33 9.64 7.66 11 8 C11 8.66 11 9.32 11 10 C10.01 10.33 9.02 10.66 8 11 C7.34 11.66 6.68 12.32 6 13 C5.67 11.02 5.34 9.04 5 7 C4.34 7 3.68 7 3 7 C0.70351351 4.4385343 0 3.52032428 0 0 Z " fill="#EA3E2B" transform="translate(39,45)"/>
<path d="M0 0 C0.33 0 0.66 0 1 0 C1.2763585 2.24691477 1.52018861 4.49784842 1.75 6.75 C1.88921875 8.00296875 2.0284375 9.2559375 2.171875 10.546875 C2 14 2 14 0.21875 16.40625 C-2.50533646 18.36298816 -4.69240098 18.69930918 -8 19 C-7.67 18.34 -7.34 17.68 -7 17 C-6.34 17 -5.68 17 -5 17 C-4.71125 16.4225 -4.4225 15.845 -4.125 15.25 C-3.43526248 13.87052496 -2.72162815 12.50230488 -1.96875 11.15625 C-0.90073721 8.77906023 -0.60335284 6.83799886 -0.375 4.25 C-0.26285156 3.05117188 -0.26285156 3.05117188 -0.1484375 1.828125 C-0.09945312 1.22484375 -0.05046875 0.6215625 0 0 Z " fill="#DD695B" transform="translate(69,52)"/>
<path d="M0 0 C2.96213105 1.39120312 5.55423485 2.99589924 8.1875 4.9375 C8.88230469 5.44152344 9.57710937 5.94554687 10.29296875 6.46484375 C12 8 12 8 13 11 C9.65750371 10.40312566 7.53563658 9.26396123 5 7 C5 6.34 5 5.68 5 5 C3.35 4.67 1.7 4.34 0 4 C0 2.68 0 1.36 0 0 Z " fill="#D4533E" transform="translate(45,48)"/>
<path d="M0 0 C0.99 0 1.98 0 3 0 C3.82638376 2.89234315 4 4.88742431 4 8 C4.66 8.33 5.32 8.66 6 9 C6 9.66 6 10.32 6 11 C4.3203125 12.32421875 4.3203125 12.32421875 2.125 13.6875 C1.04605469 14.37392578 1.04605469 14.37392578 -0.0546875 15.07421875 C-1.01761719 15.53248047 -1.01761719 15.53248047 -2 16 C-2.66 15.67 -3.32 15.34 -4 15 C-3.360625 14.505 -2.72125 14.01 -2.0625 13.5 C0.85943435 9.95826139 0.78268493 7.56361642 1 3 C0.67 2.01 0.34 1.02 0 0 Z " fill="#FBD9C0" transform="translate(58,58)"/>
<path d="M0 0 C0.33 0 0.66 0 1 0 C1.13572155 2.39774745 1.23436868 4.78775245 1.3125 7.1875 C1.3753418 8.19780273 1.3753418 8.19780273 1.43945312 9.22851562 C1.53568056 13.17384042 1.15535183 14.80509461 -1.33203125 17.92578125 C-4 20 -4 20 -7 21 C-7 17.0521912 -5.66275435 15.81491174 -3 13 C-2.01 13 -1.02 13 0 13 C0 8.71 0 4.42 0 0 Z " fill="#B94B34" transform="translate(87,67)"/>
<path d="M0 0 C0.66 0 1.32 0 2 0 C2.33 0.99 2.66 1.98 3 3 C2.01 3 1.02 3 0 3 C0.495 3.78375 0.99 4.5675 1.5 5.375 C3 8 3 8 3 10 C3.66 10 4.32 10 5 10 C6.23076923 15.41538462 6.23076923 15.41538462 5.0625 18.375 C4.711875 18.91125 4.36125 19.4475 4 20 C2.35 20 0.7 20 -1 20 C-0.34 19.608125 0.32 19.21625 1 18.8125 C3.20706284 17.16856466 3.20706284 17.16856466 3.5 14.625 C3.18417553 11.82808159 3.18417553 11.82808159 1 9.5625 C-1.4284164 6.45109149 -1.43787807 4.85332702 -1 1 C-0.67 0.67 -0.34 0.34 0 0 Z " fill="#D64F38" transform="translate(39,42)"/>
<path d="M0 0 C0.99 0 1.98 0 3 0 C4.98362069 2.91708924 4.9876191 4.12380904 4.625 7.75 C4.41875 8.8225 4.2125 9.895 4 11 C3.34 11 2.68 11 2 11 C1.67 10.34 1.34 9.68 1 9 C0.67 9 0.34 9 0 9 C0 6.03 0 3.06 0 0 Z " fill="#E2461E" transform="translate(34,16)"/>
<path d="M0 0 C1.65 0 3.3 0 5 0 C5 0.66 5 1.32 5 2 C5.66 2 6.32 2 7 2 C6.67 2.99 6.34 3.98 6 5 C4.35 4.01 2.7 3.02 1 2 C0.34 3.32 -0.32 4.64 -1 6 C-2.65 5.67 -4.3 5.34 -6 5 C-6.33 4.01 -6.66 3.02 -7 2 C-5.02 2 -3.04 2 -1 2 C-0.67 1.34 -0.34 0.68 0 0 Z " fill="#D05843" transform="translate(56,36)"/>
<path d="M0 0 C0.33 0.66 0.66 1.32 1 2 C0.030625 2.598125 -0.93875 3.19625 -1.9375 3.8125 C-5.23052042 5.71127509 -5.23052042 5.71127509 -6 9 C-8.0625 9.6875 -8.0625 9.6875 -10 10 C-9.67 9.01 -9.34 8.02 -9 7 C-9.38932856 4.85744207 -9.38932856 4.85744207 -10 3 C-6.97265625 2.26757812 -6.97265625 2.26757812 -3.9453125 1.53515625 C-1.9414343 1.05153008 -1.9414343 1.05153008 0 0 Z " fill="#E45032" transform="translate(60,71)"/>
<path d="M0 0 C0.66 0 1.32 0 2 0 C2 0.66 2 1.32 2 2 C3.32 2 4.64 2 6 2 C5.88648483 3.81325551 5.75887039 5.62563357 5.625 7.4375 C5.55539063 8.44683594 5.48578125 9.45617187 5.4140625 10.49609375 C5.27742188 11.32238281 5.14078125 12.14867187 5 13 C4.01 13.495 4.01 13.495 3 14 C2.86722656 13.24074219 2.73445313 12.48148438 2.59765625 11.69921875 C2.42105469 10.70535156 2.24445313 9.71148437 2.0625 8.6875 C1.88847656 7.70136719 1.71445313 6.71523438 1.53515625 5.69921875 C1.04253153 2.91810787 1.04253153 2.91810787 0 0 Z " fill="#DE4D31" transform="translate(67,46)"/>
<path d="M0 0 C0.66 0.33 1.32 0.66 2 1 C2.125 3.375 2.125 3.375 2 6 C0 8 0 8 -2.625 8.125 C-3.40875 8.08375 -4.1925 8.0425 -5 8 C-5.33 6.02 -5.66 4.04 -6 2 C-3.525 3.485 -3.525 3.485 -1 5 C-0.67 3.35 -0.34 1.7 0 0 Z " fill="#FBCCBF" transform="translate(41,53)"/>
<path d="M0 0 C0.99 0.99 1.98 1.98 3 3 C2.01 4.485 2.01 4.485 1 6 C0.54860541 8.0492094 0.54860541 8.0492094 0.375 10.1875 C0.25125 11.445625 0.1275 12.70375 0 14 C-2 12 -2 12 -2.265625 9.94140625 C-2.26046875 9.15636719 -2.2553125 8.37132812 -2.25 7.5625 C-2.25515625 6.78003906 -2.2603125 5.99757813 -2.265625 5.19140625 C-2 3 -2 3 0 0 Z " fill="#F3FDF9" transform="translate(24,47)"/>
<path d="M0 0 C0.99 0.495 0.99 0.495 2 1 C2 1.66 2 2.32 2 3 C2.66 3 3.32 3 4 3 C4 3.66 4 4.32 4 5 C6.475 5.99 6.475 5.99 9 7 C8.01 7.495 8.01 7.495 7 8 C7 8.66 7 9.32 7 10 C6.34 10 5.68 10 5 10 C4.34 9.01 3.68 8.02 3 7 C2.01 6.67 1.02 6.34 0 6 C0 4.02 0 2.04 0 0 Z " fill="#DA533F" transform="translate(22,66)"/>
<path d="M0 0 C2.38227313 1.82766986 2.95881499 2.7165502 3.3984375 5.7421875 C3.39070313 6.77601562 3.38296875 7.80984375 3.375 8.875 C3.38273437 9.90367188 3.39046875 10.93234375 3.3984375 11.9921875 C2.9506028 15.37290044 2.00766492 17.26761701 0 20 C-0.66 20.33 -1.32 20.66 -2 21 C-1.67 19.68 -1.34 18.36 -1 17 C-0.34 17 0.32 17 1 17 C1 12.71 1 8.42 1 4 C0.34 3.67 -0.32 3.34 -1 3 C-0.67 2.01 -0.34 1.02 0 0 Z " fill="#FAE4DC" transform="translate(66,46)"/>
<path d="M0 0 C0.99 0 1.98 0 3 0 C3 1.65 3 3.3 3 5 C-2.75 5.125 -2.75 5.125 -5 4 C-5 4.66 -5 5.32 -5 6 C-5.66 6 -6.32 6 -7 6 C-6.67 5.01 -6.34 4.02 -6 3 C-3.5 1.875 -3.5 1.875 -1 1 C-0.67 0.67 -0.34 0.34 0 0 Z " fill="#F73D29" transform="translate(69,67)"/>
<path d="M0 0 C1.66666667 3.33333333 3.33333333 6.66666667 5 10 C0.25 8.125 0.25 8.125 -2 7 C-2 6.34 -2 5.68 -2 5 C-2.66 5 -3.32 5 -4 5 C-4.33 4.01 -4.66 3.02 -5 2 C-4.34 2 -3.68 2 -3 2 C-3 2.66 -3 3.32 -3 4 C-2.01 4 -1.02 4 0 4 C-0.33 3.01 -0.66 2.02 -1 1 C-0.67 0.67 -0.34 0.34 0 0 Z " fill="#FCD6C6" transform="translate(28,64)"/>
<path d="M0 0 C0.66 0.66 1.32 1.32 2 2 C1.02501855 3.5027237 0.04490611 5.00211963 -0.9375 6.5 C-1.75541016 7.75296875 -1.75541016 7.75296875 -2.58984375 9.03125 C-3.05519531 9.6809375 -3.52054688 10.330625 -4 11 C-4.33 11 -4.66 11 -5 11 C-4.93993922 9.54052295 -4.8511311 8.08220728 -4.75 6.625 C-4.70359375 5.81289063 -4.6571875 5.00078125 -4.609375 4.1640625 C-4 2 -4 2 -1.953125 0.7109375 C-1.30859375 0.47632813 -0.6640625 0.24171875 0 0 Z " fill="#FBF0E6" transform="translate(32,54)"/>
<path d="M0 0 C0.99 0.33 1.98 0.66 3 1 C3 1.99 3 2.98 3 4 C4.32 4.33 5.64 4.66 7 5 C7 5.66 7 6.32 7 7 C4.69 7 2.38 7 0 7 C0 4.69 0 2.38 0 0 Z " fill="#F9F9F6" transform="translate(0,83)"/>
<path d="M0 0 C0.66 0 1.32 0 2 0 C2.33 1.32 2.66 2.64 3 4 C2.38125 4.4125 1.7625 4.825 1.125 5.25 C-1.06768281 7.05573879 -1.92788417 8.4090534 -3 11 C-3.33 11 -3.66 11 -4 11 C-4.36997319 5.45040214 -4.36997319 5.45040214 -2.5625 3.25 C-2.046875 2.8375 -1.53125 2.425 -1 2 C-0.67 1.34 -0.34 0.68 0 0 Z " fill="#E1481C" transform="translate(20,70)"/>
<path d="M0 0 C5.97976619 5.82643885 5.97976619 5.82643885 6.0625 10.625 C6.041875 11.73875 6.02125 12.8525 6 14 C5.67 14 5.34 14 5 14 C4.34 11.03 3.68 8.06 3 5 C1.68 5.33 0.36 5.66 -1 6 C-0.67 4.02 -0.34 2.04 0 0 Z " fill="#FEDFD1" transform="translate(44,16)"/>
<path d="M0 0 C0.66 0.66 1.32 1.32 2 2 C1.88489209 9.13669065 1.88489209 9.13669065 -1.5625 12.5 C-2.7690625 13.2425 -2.7690625 13.2425 -4 14 C-3.566875 13.0409375 -3.566875 13.0409375 -3.125 12.0625 C-1.6752275 8.11589708 -0.84221938 4.1125393 0 0 Z " fill="#D35F4D" transform="translate(58,59)"/>
<path d="M0 0 C0.33 0.66 0.66 1.32 1 2 C0.0625 4.625 0.0625 4.625 -1 7 C-3.31 7.33 -5.62 7.66 -8 8 C-3.375 2.25 -3.375 2.25 0 0 Z " fill="#FCE3DB" transform="translate(36,30)"/>
<path d="M0 0 C0.66 0 1.32 0 2 0 C2 2.31 2 4.62 2 7 C0.02 7 -1.96 7 -4 7 C-3.67 6.34 -3.34 5.68 -3 5 C-2.34 5 -1.68 5 -1 5 C-1.33 4.01 -1.66 3.02 -2 2 C-1.34 2 -0.68 2 0 2 C0 1.34 0 0.68 0 0 Z " fill="#FDFAF9" transform="translate(88,83)"/>
<path d="M0 0 C1.32 0.66 2.64 1.32 4 2 C2.35 2.33 0.7 2.66 -1 3 C-1 3.66 -1 4.32 -1 5 C-3.5 6.625 -3.5 6.625 -6 8 C-4.73058503 4.08597051 -3.48832306 2.20927127 0 0 Z " fill="#C05244" transform="translate(8,2)"/>
<path d="M0 0 C1.65 0 3.3 0 5 0 C5 2.31 5 4.62 5 7 C4.34 7 3.68 7 3 7 C3 6.01 3 5.02 3 4 C2.01 3.67 1.02 3.34 0 3 C0 2.01 0 1.02 0 0 Z " fill="#FBF9FB" transform="translate(85,0)"/>
<path d="M0 0 C3.91841827 1.30613942 6.32640809 2.83129848 9 6 C9 6.66 9 7.32 9 8 C8.01 8 7.02 8 6 8 C6 7.34 6 6.68 6 6 C5.01 5.67 4.02 5.34 3 5 C3 4.34 3 3.68 3 3 C2.01 2.67 1.02 2.34 0 2 C0 1.34 0 0.68 0 0 Z " fill="#FCD5D1" transform="translate(57,38)"/>
<path d="M0 0 C-0.33 1.98 -0.66 3.96 -1 6 C-2.32 6 -3.64 6 -5 6 C-5.33 6.66 -5.66 7.32 -6 8 C-5.62403791 5.21788056 -5.32681541 3.4120716 -3.5625 1.1875 C-2 0 -2 0 0 0 Z " fill="#EA4C38" transform="translate(27,36)"/>
<path d="M0 0 C1.32 0 2.64 0 4 0 C4 0.99 4 1.98 4 3 C3.01 3.33 2.02 3.66 1 4 C-0.21869929 6.50447516 -0.21869929 6.50447516 -1 9 C-1.33 9 -1.66 9 -2 9 C-2 7.02 -2 5.04 -2 3 C-1.34 3 -0.68 3 0 3 C0 2.01 0 1.02 0 0 Z " fill="#F63D27" transform="translate(18,32)"/>
<path d="M0 0 C1.32 0 2.64 0 4 0 C3.74438677 2.3431213 3.40729228 4.67843403 3 7 C2.01 7.495 2.01 7.495 1 8 C0.67 5.36 0.34 2.72 0 0 Z " fill="#E84716" transform="translate(58,16)"/>
<path d="M0 0 C1.98 0 3.96 0 6 0 C6 0.66 6 1.32 6 2 C6.66 2.33 7.32 2.66 8 3 C6.68 3 5.36 3 4 3 C4 3.66 4 4.32 4 5 C2.68 4.67 1.36 4.34 0 4 C0 2.68 0 1.36 0 0 Z " fill="#F4412C" transform="translate(29,76)"/>
<path d="M0 0 C1.32 0.33 2.64 0.66 4 1 C4 1.66 4 2.32 4 3 C3.34 3 2.68 3 2 3 C2 3.66 2 4.32 2 5 C1.34 5 0.68 5 0 5 C0 5.66 0 6.32 0 7 C-0.66 7 -1.32 7 -2 7 C-2 5.68 -2 4.36 -2 3 C-1.34 3 -0.68 3 0 3 C0 2.01 0 1.02 0 0 Z " fill="#F83C22" transform="translate(18,67)"/>
<path d="M0 0 C0.33 0 0.66 0 1 0 C1.0825 1.258125 1.165 2.51625 1.25 3.8125 C1.66557143 7.33811212 1.66557143 7.33811212 4.0625 10 C4.701875 10.33 5.34125 10.66 6 11 C3.03 10.505 3.03 10.505 0 10 C-0.95024979 6.30458414 -0.95024979 3.69541586 0 0 Z " fill="#FACAC0" transform="translate(48,32)"/>
<path d="M0 0 C1.32 0 2.64 0 4 0 C4 1.32 4 2.64 4 4 C2.35 4 0.7 4 -1 4 C-0.67 2.68 -0.34 1.36 0 0 Z " fill="#E0491E" transform="translate(25,76)"/>
<path d="M0 0 C2.88575819 0.39803561 3.82189513 0.79009069 5.75 3.0625 C6.1625 3.701875 6.575 4.34125 7 5 C6.67 5.66 6.34 6.32 6 7 C3.95880212 5.38405168 1.95927063 3.7143618 0 2 C0 1.34 0 0.68 0 0 Z " fill="#FEE3D1" transform="translate(51,50)"/>
<path d="M0 0 C0.66 0 1.32 0 2 0 C2.33 0.99 2.66 1.98 3 3 C2.01 3 1.02 3 0 3 C0.350625 3.598125 0.70125 4.19625 1.0625 4.8125 C2 7 2 7 1 10 C-1.29404844 6.55892734 -1.26293056 5.03160191 -1 1 C-0.67 0.67 -0.34 0.34 0 0 Z " fill="#C16954" transform="translate(39,42)"/>
<path d="M0 0 C0.66 0 1.32 0 2 0 C2 2.64 2 5.28 2 8 C1.34 8 0.68 8 0 8 C-1.125 2.25 -1.125 2.25 0 0 Z " fill="#FA3B21" transform="translate(32,16)"/>
<path d="M0 0 C1.32 0.33 2.64 0.66 4 1 C3.67 2.65 3.34 4.3 3 6 C2.34 6 1.68 6 1 6 C0.67 4.02 0.34 2.04 0 0 Z " fill="#F63A28" transform="translate(38,16)"/>
<path d="M0 0 C1.65 0 3.3 0 5 0 C5 1.32 5 2.64 5 4 C3.35 3.67 1.7 3.34 0 3 C0 2.01 0 1.02 0 0 Z " fill="#FB3535" transform="translate(9,10)"/>
<path d="M0 0 C0.66 0.33 1.32 0.66 2 1 C2.625 3.5625 2.625 3.5625 3 6 C2.01 6 1.02 6 0 6 C-0.38218767 4.34385343 -0.71395102 2.67542976 -1 1 C-0.67 0.67 -0.34 0.34 0 0 Z " fill="#EAFDF6" transform="translate(43,37)"/>
<path d="M0 0 C0.99 0 1.98 0 3 0 C1.50902342 3.7952131 -0.75700849 5.61042731 -4 8 C-3.6875 6.0625 -3.6875 6.0625 -3 4 C-2.01 3.67 -1.02 3.34 0 3 C0 2.01 0 1.02 0 0 Z " fill="#D46050" transform="translate(34,28)"/>
<path d="M0 0 C0.99 0.33 1.98 0.66 3 1 C1.02 3.97 1.02 3.97 -1 7 C-2.32 6.34 -3.64 5.68 -5 5 C-4.34 4.67 -3.68 4.34 -3 4 C-2.34 4.33 -1.68 4.66 -1 5 C-0.67 3.35 -0.34 1.7 0 0 Z " fill="#D95236" transform="translate(39,22)"/>
</svg>
