<?xml version="1.0" encoding="UTF-8"?>
<svg version="1.1" xmlns="http://www.w3.org/2000/svg" width="3840" height="2160">
<path d="M0 0 C6.38110935 0.01123129 12.76218403 -0.00087242 19.14329112 -0.00984204 C30.8871845 -0.02289684 42.6309809 -0.01805638 54.37487045 -0.00376675 C65.22738589 0.00935121 76.07987053 0.01446832 86.93239367 0.01191509 C87.65584538 0.01175467 88.3792971 0.01159426 89.12467159 0.01142898 C92.0623055 0.01076526 94.99993939 0.01006282 97.93757328 0.00930364 C125.41977585 0.00230048 152.90192432 0.0177013 180.38411313 0.0439271 C204.73801442 0.06704461 229.0918563 0.07242535 253.44576609 0.06219471 C259.68621247 0.05959215 265.92665886 0.05700698 272.16710532 0.05459678 C272.93566161 0.05429933 273.7042179 0.05400189 274.49606378 0.05369543 C294.91985284 0.04606176 315.34363714 0.05250934 335.76742405 0.0632928 C337.96785247 0.06444047 340.1682809 0.06558364 342.36870933 0.06671963 C343.82806105 0.06747487 345.28741277 0.06824051 346.74676449 0.06901663 C357.58783989 0.07464785 368.42889986 0.07336353 379.2699753 0.06878841 C391.60860256 0.06365491 403.94716236 0.06994218 416.2857767 0.08968271 C422.5695804 0.09949163 428.85329135 0.10472969 435.13709986 0.09679019 C505.12687791 0.01788607 571.34515139 12.06185948 624.40499461 61.51995838 C626.31961367 63.29831805 628.28557329 64.965239 630.29561961 66.63323963 C654.0950025 87.5115715 670.08164553 114.86258287 685.47240794 142.0862273 C688.98151461 148.28944067 692.54112032 154.4631556 696.10811961 160.63323963 C697.02996043 162.22930042 697.02996043 162.22930042 697.97042429 163.85760486 C699.20898816 166.00201077 700.44775714 168.14629822 701.68673289 170.29046619 C704.80886566 175.69494608 707.92703165 181.10171375 711.04561961 186.50823963 C712.29560082 188.67491713 713.54560082 190.8415838 714.79561961 193.00823963 C752.29561961 258.00823963 752.29561961 258.00823963 754.17086375 261.25872791 C755.41997479 263.42381033 756.6691609 265.58884945 757.91842234 267.7538451 C761.0576427 273.19439669 764.19552523 278.63571178 767.33077586 284.07855213 C773.35309289 294.53030162 779.39231298 304.97123511 785.48311961 315.38323963 C790.90520659 324.65387893 796.24885972 333.96760661 801.56585276 343.29870594 C806.18045989 351.39531806 810.83646847 359.46612764 815.54561961 367.50823963 C820.9491842 376.73624492 826.27214322 386.00818633 831.56612742 395.29925525 C836.18064764 403.39568096 840.83657216 411.46630472 845.54561961 419.50823963 C850.9491842 428.73624492 856.27214322 438.00818633 861.56612742 447.29925525 C866.18064764 455.39568096 870.83657216 463.46630472 875.54561961 471.50823963 C880.9491842 480.73624492 886.27214322 490.00818633 891.56612742 499.29925525 C896.18064764 507.39568096 900.83657216 515.46630472 905.54561961 523.50823963 C910.9491842 532.73624492 916.27214322 542.00818633 921.56612742 551.29925525 C926.18064764 559.39568096 930.83657216 567.46630472 935.54561961 575.50823963 C940.9491842 584.73624492 946.27214322 594.00818633 951.56612742 603.29925525 C956.18064764 611.39568096 960.83657216 619.46630472 965.54561961 627.50823963 C970.9491842 636.73624492 976.27214322 646.00818633 981.56612742 655.29925525 C986.18064764 663.39568096 990.83657216 671.46630472 995.54561961 679.50823963 C1000.9491842 688.73624492 1006.27214322 698.00818633 1011.56612742 707.29925525 C1016.18064813 715.39568181 1020.83665755 723.4662542 1025.54561961 731.50823963 C1031.26820758 741.28320605 1036.9040546 751.10611022 1042.51436961 760.94573963 C1047.00117697 768.81361368 1051.51326719 776.66649365 1056.04561961 784.50823963 C1061.26204446 793.53354809 1066.44476936 802.57751765 1071.60811961 811.63323963 C1076.54158694 820.28519822 1081.51381374 828.91301467 1086.54561961 837.50823963 C1092.2681041 847.28326728 1097.90405401 857.10610919 1103.51436961 866.94573963 C1108.00117697 874.81361368 1112.51326719 882.66649365 1117.04561961 890.50823963 C1122.26204446 899.53354809 1127.44476936 908.57751765 1132.60811961 917.63323963 C1137.54158747 926.28519914 1142.51390472 934.91296088 1147.54561961 943.50823963 C1152.55307064 952.06373374 1157.5071682 960.64848208 1162.42061961 969.25823963 C1162.75349986 969.84150012 1163.08638011 970.42476062 1163.42934763 971.02569568 C1166.14362477 975.78260861 1168.85504792 980.54114681 1171.56637156 985.29974353 C1173.93313393 989.45332937 1176.30100154 993.60628223 1178.67061961 997.75823963 C1179.00366099 998.34182239 1179.33670237 998.92540515 1179.67983592 999.52667224 C1184.81914627 1008.52802731 1190.02273252 1017.49037153 1195.25924265 1026.43548572 C1200.40492813 1035.23775622 1205.46419634 1044.08851267 1210.51436961 1052.94573963 C1215.00117697 1060.81361368 1219.51326719 1068.66649365 1224.04561961 1076.50823963 C1229.26204446 1085.53354809 1234.44476936 1094.57751765 1239.60811961 1103.63323963 C1244.54158694 1112.28519822 1249.51381374 1120.91301467 1254.54561961 1129.50823963 C1260.2681041 1139.28326728 1265.90405401 1149.10610919 1271.51436961 1158.94573963 C1276.00117697 1166.81361368 1280.51326719 1174.66649365 1285.04561961 1182.50823963 C1290.26204446 1191.53354809 1295.44476936 1200.57751765 1300.60811961 1209.63323963 C1305.54158694 1218.28519822 1310.51381374 1226.91301467 1315.54561961 1235.50823963 C1321.26492215 1245.27783194 1326.90120252 1255.09331203 1332.50338328 1264.93035877 C1336.45097678 1271.85933487 1340.43396446 1278.76604341 1344.44747508 1285.65716541 C1380.64004716 1347.95130622 1396.90796322 1415.51470512 1378.54561961 1486.50823963 C1378.36305613 1487.2388158 1378.18049265 1487.96939197 1377.99239695 1488.72210681 C1371.48600324 1514.44729415 1358.86143837 1538.19456771 1345.32296336 1560.83636463 C1341.93855471 1566.50316573 1338.65134975 1572.22563012 1335.35811961 1577.94573963 C1334.72035594 1579.05264148 1334.08259226 1580.15954334 1333.42550242 1581.29998767 C1332.11717025 1583.57093456 1330.8090667 1585.84201316 1329.50118601 1588.1132201 C1326.3522991 1593.57993938 1323.1988347 1599.04401609 1320.04561961 1604.50823963 C1316.28196595 1611.03056402 1312.51917338 1617.55337726 1308.76046336 1624.07855213 C1302.14339069 1635.56272783 1295.49927984 1647.03020856 1288.81270945 1658.47405994 C1282.64642907 1669.03444245 1276.54066011 1679.62950728 1270.43673289 1690.22601306 C1267.30881812 1695.65483905 1264.17703513 1701.08143244 1261.04561961 1706.50823963 C1259.79560082 1708.67489545 1258.54560082 1710.84156212 1257.29561961 1713.00823963 C1249.79561961 1726.00823963 1242.29561961 1739.00823963 1234.79561961 1752.00823963 C1233.86737376 1753.61723133 1233.86737376 1753.61723133 1232.92037547 1755.25872791 C1231.67126443 1757.42381033 1230.42207831 1759.58884945 1229.17281687 1761.7538451 C1226.03359651 1767.19439669 1222.89571398 1772.63571178 1219.76046336 1778.07855213 C1213.14339069 1789.56272783 1206.49927984 1801.03020856 1199.81270945 1812.47405994 C1193.64642907 1823.03444245 1187.54066011 1833.62950728 1181.43673289 1844.22601306 C1178.30881812 1849.65483905 1175.17703513 1855.08143244 1172.04561961 1860.50823963 C1170.79560082 1862.67489545 1169.54560082 1864.84156212 1168.29561961 1867.00823963 C1165.79561961 1871.34157296 1163.29561961 1875.67490629 1160.79561961 1880.00823963 C1159.86737376 1881.61723133 1159.86737376 1881.61723133 1158.92037547 1883.25872791 C1157.67126443 1885.42381033 1156.42207831 1887.58884945 1155.17281687 1889.7538451 C1152.03359651 1895.19439669 1148.89571398 1900.63571178 1145.76046336 1906.07855213 C1139.1464928 1917.557344 1132.51338719 1929.02418343 1125.81930125 1940.45648181 C1122.7682326 1945.6731436 1119.74392543 1950.90323973 1116.75655711 1956.15667713 C1104.61775766 1977.47408285 1091.92280644 1997.84751591 1075.07686961 2015.78948963 C1072.93746443 2018.08736926 1070.8854297 2020.42482769 1068.85811961 2022.82073963 C1065.40097125 2026.79035939 1061.56838314 2030.12561434 1057.54561961 2033.50823963 C1056.62136179 2034.320349 1055.69710398 2035.13245838 1054.74483836 2035.96917713 C1005.7174733 2078.81734433 945.02858435 2094.69435607 881.05345023 2094.63966739 C878.68436585 2094.64131955 876.31528173 2094.64340697 873.94619808 2094.64588749 C868.12432303 2094.65085044 862.30246057 2094.65120905 856.48058393 2094.64959848 C849.45177689 2094.64791897 842.42297614 2094.65207853 835.39417063 2094.65637392 C822.25995025 2094.66422763 809.12573258 2094.66733498 795.99151003 2094.66781986 C782.68654589 2094.66832287 769.38158479 2094.67097614 756.07662165 2094.67622745 C755.23532737 2094.67655758 754.39403308 2094.67688772 753.52724503 2094.67722785 C750.10059348 2094.67857791 746.67394193 2094.67994058 743.24729039 2094.68131996 C702.71618535 2094.69760648 662.1850809 2094.70400647 621.65397314 2094.70876783 C601.4668522 2094.71115262 581.27973159 2094.71485639 561.0926109 2094.71880493 C496.3153939 2094.73146783 431.53817692 2094.74225199 366.76095871 2094.74564539 C363.66618287 2094.74580762 360.57140703 2094.74597318 357.47663119 2094.74613977 C351.27018702 2094.74647356 345.06374285 2094.74680404 338.85729867 2094.74713433 C331.59132496 2094.74752122 324.32535125 2094.74791083 317.05937754 2094.74830539 C314.979811 2094.74841781 312.90024446 2094.74852923 310.82067791 2094.74863965 C244.03660411 2094.75218884 177.25254107 2094.76726718 110.46847138 2094.79057739 C62.46851644 2094.80732444 14.46856353 2094.82279624 -33.53139436 2094.82731235 C-35.01281969 2094.82745258 -35.01281969 2094.82745258 -36.5241728 2094.82759564 C-58.20728032 2094.82961491 -79.89038781 2094.83077077 -101.57349543 2094.83112423 C-109.33261279 2094.83126039 -117.09173016 2094.83146938 -124.85084752 2094.83171748 C-126.78105149 2094.83177904 -128.71125547 2094.83183736 -130.64145944 2094.83189243 C-161.36683811 2094.83281131 -192.09220553 2094.84276814 -222.8175805 2094.85734991 C-253.77445088 2094.87198275 -284.73130748 2094.87699727 -315.68818071 2094.86893037 C-319.97211071 2094.8678151 -324.25604072 2094.86680441 -328.53997076 2094.86585605 C-329.79954056 2094.8655711 -329.79954056 2094.8655711 -331.08455622 2094.86528039 C-344.3452312 2094.86255377 -357.60588057 2094.86986606 -370.86654998 2094.88142942 C-383.92689388 2094.89260702 -396.98720181 2094.89296482 -410.04754631 2094.88205923 C-417.02501759 2094.87652311 -424.00240844 2094.875528 -430.97987209 2094.88856795 C-437.34252724 2094.89998914 -443.70502276 2094.89729305 -450.06767264 2094.88390088 C-452.34059931 2094.88148928 -454.61353863 2094.88397036 -456.88645132 2094.89229736 C-495.07703341 2095.02287797 -534.1311532 2089.12462401 -568.45438039 2071.50823963 C-570.04186086 2070.76573963 -570.04186086 2070.76573963 -571.66141164 2070.00823963 C-592.60644049 2060.05037448 -611.58130672 2046.33363879 -628.45438039 2030.50823963 C-629.86527711 2029.27245421 -631.28148565 2028.04269122 -632.70438039 2026.82073963 C-640.12309507 2020.33500733 -646.30943105 2013.20663216 -652.45438039 2005.50823963 C-653.31938028 2004.45672929 -654.18528754 2003.40596482 -655.05203664 2002.35589588 C-668.26235185 1986.18328211 -678.20645533 1967.87005351 -688.46646535 1949.75967395 C-691.76838408 1943.93917249 -695.13551603 1938.15783559 -698.51688039 1932.38323963 C-705.24701498 1920.87983802 -711.91094026 1909.33900164 -718.56326711 1897.79046619 C-721.69118185 1892.36164024 -724.8229177 1886.93501956 -727.95438039 1881.50823963 C-731.71801959 1874.98590688 -735.48082661 1868.463102 -739.23953664 1861.93792713 C-745.28493198 1851.44591869 -751.34548258 1840.96342287 -757.45438039 1830.50823963 C-764.20139233 1818.96094447 -770.88777357 1807.37921935 -777.56326711 1795.79046619 C-780.69118188 1790.3616402 -783.82296487 1784.93504682 -786.95438039 1779.50823963 C-788.20439918 1777.3415838 -789.45439918 1775.17491713 -790.70438039 1773.00823963 C-791.32313039 1771.93573963 -791.94188039 1770.86323963 -792.57938039 1769.75823963 C-798.2043804 1760.00823962 -798.2043804 1760.00823962 -800.07962453 1756.75775135 C-801.32873557 1754.59266892 -802.57792169 1752.4276298 -803.82718313 1750.26263416 C-806.96640349 1744.82208257 -810.10428602 1739.38076747 -813.23953664 1733.93792713 C-819.26185368 1723.48617763 -825.30107377 1713.04524415 -831.39188039 1702.63323963 C-836.81359217 1693.36324185 -842.15642955 1684.04992211 -847.47360647 1674.71978748 C-852.67483168 1665.59541123 -857.93465917 1656.50691188 -863.23782766 1647.4413451 C-869.39204781 1636.91739338 -875.47808035 1626.35443825 -881.56326711 1615.79046619 C-884.06775857 1611.44365711 -886.57478104 1607.09831091 -889.08206594 1602.75311267 C-890.32983114 1600.59063422 -891.57738989 1598.42803663 -892.82474172 1596.26531971 C-895.97159632 1590.80932151 -899.12087113 1585.35474505 -902.27469289 1579.90277088 C-906.0102559 1573.44309097 -909.73675133 1566.97825731 -913.45438039 1560.50823963 C-914.04557668 1559.47972888 -914.63677297 1558.45121814 -915.2458843 1557.39154041 C-939.12371031 1515.76605465 -954.99823568 1473.02464486 -954.76688039 1424.44573963 C-954.76505758 1423.64352985 -954.76323476 1422.84132007 -954.76135671 1422.01480091 C-954.67985677 1400.58190974 -951.78786264 1380.26413556 -946.45438039 1359.50823963 C-946.18053518 1358.41020008 -946.18053518 1358.41020008 -945.90115774 1357.28997791 C-938.72656463 1328.92946721 -924.02468437 1303.65939702 -909.31180227 1278.67474353 C-906.18491191 1273.34406952 -903.10109677 1267.98868147 -900.01688039 1262.63323963 C-899.39466604 1261.55356922 -898.77245168 1260.47389881 -898.13138235 1259.36151111 C-896.86922997 1257.17127199 -895.60726735 1254.9809235 -894.34549367 1252.79046619 C-891.21757891 1247.3616402 -888.08579591 1241.93504682 -884.95438039 1236.50823963 C-883.7043616 1234.3415838 -882.45436161 1232.17491713 -881.20438039 1230.00823963 C-768.7043804 1035.00823964 -768.7043804 1035.00823964 -766.82962453 1031.75872791 C-765.57873559 1029.59047698 -764.32792188 1027.42218266 -763.07718313 1025.2538451 C-759.96639704 1019.86106047 -756.85433802 1014.4690187 -753.73953664 1009.07855213 C-746.91935402 997.27194479 -740.13114779 985.44796963 -733.37701833 973.60351551 C-728.22102594 964.56494535 -723.00117366 955.56546825 -717.74319875 946.58587635 C-713.26248646 938.92221711 -708.84922283 931.22129325 -704.45438039 923.50823963 C-698.94174204 913.83342744 -693.37013472 904.19541825 -687.74344289 894.58636463 C-683.26271893 886.92250193 -678.84931287 879.22145127 -674.45438039 871.50823963 C-668.94174204 861.83342744 -663.37013472 852.19541825 -657.74344289 842.58636463 C-653.26271893 834.92250193 -648.84931287 827.22145127 -644.45438039 819.50823963 C-638.94174204 809.83342744 -633.37013472 800.19541825 -627.74344289 790.58636463 C-623.26271893 782.92250193 -618.84931287 775.22145127 -614.45438039 767.50823963 C-608.94174204 757.83342744 -603.37013472 748.19541825 -597.74344289 738.58636463 C-593.26271893 730.92250193 -588.84931287 723.22145127 -584.45438039 715.50823963 C-578.94174204 705.83342744 -573.37013472 696.19541825 -567.74344289 686.58636463 C-563.26271893 678.92250193 -558.84931287 671.22145127 -554.45438039 663.50823963 C-548.94174204 653.83342744 -543.37013472 644.19541825 -537.74344289 634.58636463 C-533.26271893 626.92250193 -528.84931287 619.22145127 -524.45438039 611.50823963 C-518.94174204 601.83342744 -513.37013472 592.19541825 -507.74344289 582.58636463 C-503.26271893 574.92250193 -498.84931287 567.22145127 -494.45438039 559.50823963 C-488.94174204 549.83342744 -483.37013472 540.19541825 -477.74344289 530.58636463 C-473.26271893 522.92250193 -468.84931287 515.22145127 -464.45438039 507.50823963 C-458.94174204 497.83342744 -453.37013472 488.19541825 -447.74344289 478.58636463 C-443.26271893 470.92250193 -438.84931287 463.22145127 -434.45438039 455.50823963 C-428.94174204 445.83342744 -423.37013472 436.19541825 -417.74344289 426.58636463 C-413.26271893 418.92250193 -408.84931287 411.22145127 -404.45438039 403.50823963 C-398.94174204 393.83342744 -393.37013472 384.19541825 -387.74344289 374.58636463 C-383.26271893 366.92250193 -378.84931287 359.22145127 -374.45438039 351.50823963 C-368.94174204 341.83342744 -363.37013472 332.19541825 -357.74344289 322.58636463 C-353.26271893 314.92250193 -348.84931287 307.22145127 -344.45438039 299.50823963 C-338.94174204 289.83342744 -333.37013472 280.19541825 -327.74344289 270.58636463 C-323.26271893 262.92250193 -318.84931287 255.22145127 -314.45438039 247.50823963 C-309.50059216 238.81422276 -304.5105967 230.14326734 -299.45438039 221.50823963 C-294.42248249 212.91306673 -289.45048915 204.2851174 -284.51688039 195.63323963 C-277.49319721 183.31649595 -270.42091307 171.02852734 -263.32645071 158.75238025 C-261.41442245 155.43899587 -259.50794081 152.12247368 -257.60281789 148.80511463 C-254.47753798 143.36482724 -251.34032818 137.93162056 -248.19168508 132.50482166 C-247.07747739 130.58298563 -245.96590972 128.65961519 -244.85770071 126.73431385 C-235.01435712 109.6680929 -224.04806026 93.81221988 -210.45438039 79.50823963 C-209.2386553 78.11883952 -208.02975428 76.72342372 -206.82938039 75.32073963 C-200.50866037 68.08865997 -193.66721835 61.76934497 -186.12234914 55.82562244 C-184.95134539 54.90074887 -183.78507309 53.96986824 -182.62234914 53.03460681 C-155.47897032 31.23559065 -124.52719042 16.51029668 -90.89188039 7.75823963 C-89.88504201 7.48858387 -88.87820364 7.2189281 -87.840855 6.94110096 C-84.0667131 6.00756254 -80.27090452 5.24334686 -76.45438039 4.50823963 C-75.61053332 4.34350206 -74.76668625 4.17876449 -73.89726806 4.00903487 C-49.40967115 -0.54550177 -24.81305908 -0.06092632 0 0 Z M215.54561961 672.50823963 C214.12231839 674.77919579 212.76138086 677.06365169 211.42061961 679.38323963 C210.98322459 680.13355457 210.54582957 680.88386951 210.09518015 681.65692127 C208.57376778 684.27121966 207.0591133 686.88934927 205.54561961 689.50823963 C204.98471629 690.47777576 204.42381297 691.44731189 203.84591258 692.44622791 C200.05563644 699.00066026 196.27503458 705.56063505 192.49679148 712.12200916 C190.60392824 715.40704585 188.70819254 718.69040399 186.81124461 721.97308338 C179.99682636 733.76754535 173.2157481 745.58015202 166.46825755 757.41296375 C161.31145353 766.4529567 156.09018192 775.45349284 150.8322407 784.43499744 C146.37645616 792.05729741 141.98164815 799.71355274 137.60811961 807.38323963 C130.57958454 819.70849158 123.50321526 832.0054603 116.40450633 844.29046619 C113.28237358 849.69494604 110.1641608 855.10168681 107.04561961 860.50823963 C103.30925046 866.98590848 99.57213614 873.46313946 95.83077586 879.93792713 C89.01059323 891.74453446 82.22238701 903.56850963 75.46825755 915.41296375 C70.31145353 924.4529567 65.09018192 933.45349284 59.8322407 942.43499744 C55.37645616 950.05729741 50.98164815 957.71355274 46.60811961 965.38323963 C38.35396324 979.85774332 30.02844588 994.29045809 21.69112742 1008.717224 C19.82959289 1011.93892238 17.96863121 1015.16095041 16.10811961 1018.38323963 C15.49259226 1019.44929431 14.87706492 1020.515349 14.24288523 1021.61370838 C9.29108918 1030.19819559 4.37737093 1038.80404255 -0.53174245 1047.41296375 C-5.68854647 1056.4529567 -10.90981808 1065.45349284 -16.1677593 1074.43499744 C-20.62354384 1082.05729741 -25.01835185 1089.71355274 -29.39188039 1097.38323963 C-36.42041546 1109.70849158 -43.49678474 1122.0054603 -50.59549367 1134.29046619 C-53.71762642 1139.69494604 -56.8358392 1145.10168681 -59.95438039 1150.50823963 C-63.69074954 1156.98590848 -67.42786386 1163.46313946 -71.16922414 1169.93792713 C-77.98940677 1181.74453446 -84.77761299 1193.56850963 -91.53174245 1205.41296375 C-96.68854647 1214.4529567 -101.90981808 1223.45349284 -107.1677593 1232.43499744 C-111.62354384 1240.05729741 -116.01835185 1247.71355274 -120.39188039 1255.38323963 C-127.42041546 1267.70849158 -134.49678474 1280.0054603 -141.59549367 1292.29046619 C-144.71762642 1297.69494604 -147.8358392 1303.10168681 -150.95438039 1308.50823963 C-154.69074954 1314.98590848 -158.42786386 1321.46313946 -162.16922414 1327.93792713 C-168.9880528 1339.74219058 -175.77496781 1351.56378709 -182.52771413 1363.40591419 C-187.20881263 1371.61205157 -191.93420795 1379.79103205 -196.70438039 1387.94573963 C-201.26423551 1395.74776814 -205.81800499 1403.55305055 -210.32938039 1411.38323963 C-210.84790578 1412.27583484 -211.36643117 1413.16843006 -211.90066946 1414.08807361 C-212.60401418 1415.3131261 -212.60401418 1415.3131261 -213.32156789 1416.56292713 C-213.73519582 1417.27948474 -214.14882375 1417.99604236 -214.57498586 1418.73431385 C-215.60243138 1420.47690058 -215.60243138 1420.47690058 -215.45438039 1422.50823963 C69.66561961 1422.50823963 354.78561961 1422.50823963 648.54561961 1422.50823963 C644.61063238 1414.63826517 640.645484 1407.04615096 636.17061961 1399.50823963 C634.93121318 1397.40213054 633.69297958 1395.29533092 632.45577586 1393.18792713 C631.81527293 1392.09705799 631.17477 1391.00618885 630.51485789 1389.88226306 C627.17248221 1384.15555442 623.89048784 1378.39445634 620.60811961 1372.63323963 C619.25693321 1370.26323334 617.90532942 1367.89346546 616.55343211 1365.52386463 C616.21956995 1364.93866046 615.8857078 1364.3534563 615.54172862 1363.75051868 C610.19762216 1354.38891733 604.7976684 1345.05940431 599.40450633 1335.72601306 C596.28237356 1330.32153317 593.16420756 1324.91476551 590.04561961 1319.50823963 C588.79563839 1317.34156212 587.5456384 1315.17489545 586.29561961 1313.00823963 C558.79561961 1265.34157296 531.29561961 1217.67490629 503.79561961 1170.00823963 C503.17695017 1168.93590076 502.55828074 1167.86356189 501.92086375 1166.75872791 C500.66997481 1164.59047698 499.41916109 1162.42218266 498.16842234 1160.2538451 C495.05763626 1154.86106047 491.94557723 1149.4690187 488.83077586 1144.07855213 C482.01059323 1132.27194479 475.22238701 1120.44796963 468.46825755 1108.60351551 C463.87167738 1100.5456075 459.23237801 1092.51406176 454.54561961 1084.50823963 C449.51381271 1075.91301291 444.54172889 1067.28511833 439.60811961 1058.63323963 C432.57958454 1046.30798767 425.50321526 1034.01101895 418.40450633 1021.72601306 C415.28237356 1016.32153317 412.16420756 1010.91476551 409.04561961 1005.50823963 C407.79563839 1003.34156212 406.5456384 1001.17489545 405.29561961 999.00823963 C377.79561961 951.34157296 350.29561961 903.67490629 322.79561961 856.00823963 C322.17695017 854.93590076 321.55828074 853.86356189 320.92086375 852.75872791 C319.66997481 850.59047698 318.41916109 848.42218266 317.16842234 846.2538451 C314.05763626 840.86106047 310.94557723 835.4690187 307.83077586 830.07855213 C301.01059323 818.27194479 294.22238701 806.44796963 287.46825755 794.60351551 C282.87167738 786.5456075 278.23237801 778.51406176 273.54561961 770.50823963 C268.51381271 761.91301291 263.54172889 753.28511833 258.60811961 744.63323963 C252.20684598 733.40795449 245.76962981 722.2041178 239.30343211 711.01605213 C237.01544661 707.05705241 234.73233422 703.09533268 232.45582163 699.12973011 C231.08718947 696.74574126 229.71708152 694.36260198 228.34691966 691.97949207 C227.38562706 690.30612319 226.42640795 688.63156371 225.46725047 686.9569701 C221.25448257 679.57507822 221.25448257 679.57507822 216.54561961 672.50823963 C216.21561961 672.50823963 215.88561961 672.50823963 215.54561961 672.50823963 Z M648.54561961 1422.50823963 C649.53561961 1423.49823963 650.52561961 1424.48823963 651.54561961 1425.50823963 C651.21561961 1424.51823963 650.88561961 1423.52823963 650.54561961 1422.50823963 C649.88561961 1422.50823963 649.22561961 1422.50823963 648.54561961 1422.50823963 Z M651.54561961 1425.50823963 C652.54561961 1427.50823963 652.54561961 1427.50823963 652.54561961 1427.50823963 Z M652.54561961 1427.50823963 C653.54561961 1429.50823963 653.54561961 1429.50823963 653.54561961 1429.50823963 Z M653.54561961 1429.50823963 C653.87561961 1430.49823963 654.20561961 1431.48823963 654.54561961 1432.50823963 C654.54561961 1431.51823963 654.54561961 1430.52823963 654.54561961 1429.50823963 C654.21561961 1429.50823963 653.88561961 1429.50823963 653.54561961 1429.50823963 Z M655.54561961 1432.50823963 C656.54561961 1434.50823963 656.54561961 1434.50823963 656.54561961 1434.50823963 Z M656.54561961 1434.50823963 C657.54561961 1436.50823963 657.54561961 1436.50823963 657.54561961 1436.50823963 Z M657.54561961 1436.50823963 C657.87561961 1437.49823963 658.20561961 1438.48823963 658.54561961 1439.50823963 C658.54561961 1438.51823963 658.54561961 1437.52823963 658.54561961 1436.50823963 C658.21561961 1436.50823963 657.88561961 1436.50823963 657.54561961 1436.50823963 Z M659.54561961 1439.50823963 C660.54561961 1441.50823963 660.54561961 1441.50823963 660.54561961 1441.50823963 Z M660.54561961 1441.50823963 C661.54561961 1443.50823963 661.54561961 1443.50823963 661.54561961 1443.50823963 Z M661.54561961 1443.50823963 C661.87561961 1444.49823963 662.20561961 1445.48823963 662.54561961 1446.50823963 C662.54561961 1445.51823963 662.54561961 1444.52823963 662.54561961 1443.50823963 C662.21561961 1443.50823963 661.88561961 1443.50823963 661.54561961 1443.50823963 Z M663.54561961 1446.50823963 C664.54561961 1448.50823963 664.54561961 1448.50823963 664.54561961 1448.50823963 Z M664.54561961 1448.50823963 C664.87561961 1449.49823963 665.20561961 1450.48823963 665.54561961 1451.50823963 C665.54561961 1450.51823963 665.54561961 1449.52823963 665.54561961 1448.50823963 C665.21561961 1448.50823963 664.88561961 1448.50823963 664.54561961 1448.50823963 Z M666.54561961 1451.50823963 C667.54561961 1453.50823963 667.54561961 1453.50823963 667.54561961 1453.50823963 Z M667.54561961 1453.50823963 C668.54561961 1455.50823963 668.54561961 1455.50823963 668.54561961 1455.50823963 Z M668.54561961 1455.50823963 C668.87561961 1456.49823963 669.20561961 1457.48823963 669.54561961 1458.50823963 C669.54561961 1457.51823963 669.54561961 1456.52823963 669.54561961 1455.50823963 C669.21561961 1455.50823963 668.88561961 1455.50823963 668.54561961 1455.50823963 Z M670.54561961 1458.50823963 C671.54561961 1460.50823963 671.54561961 1460.50823963 671.54561961 1460.50823963 Z M671.54561961 1460.50823963 C672.54561961 1462.50823963 672.54561961 1462.50823963 672.54561961 1462.50823963 Z M672.54561961 1462.50823963 C672.87561961 1463.49823963 673.20561961 1464.48823963 673.54561961 1465.50823963 C673.54561961 1464.51823963 673.54561961 1463.52823963 673.54561961 1462.50823963 C673.21561961 1462.50823963 672.88561961 1462.50823963 672.54561961 1462.50823963 Z M674.54561961 1465.50823963 C675.54561961 1467.50823963 675.54561961 1467.50823963 675.54561961 1467.50823963 Z M675.54561961 1467.50823963 C676.54561961 1469.50823963 676.54561961 1469.50823963 676.54561961 1469.50823963 Z M676.54561961 1469.50823963 C676.87561961 1470.49823963 677.20561961 1471.48823963 677.54561961 1472.50823963 C677.54561961 1471.51823963 677.54561961 1470.52823963 677.54561961 1469.50823963 C677.21561961 1469.50823963 676.88561961 1469.50823963 676.54561961 1469.50823963 Z M678.54561961 1472.50823963 C679.54561961 1474.50823963 679.54561961 1474.50823963 679.54561961 1474.50823963 Z M679.54561961 1474.50823963 C680.54561961 1476.50823963 680.54561961 1476.50823963 680.54561961 1476.50823963 Z M681.54561961 1477.50823963 C682.54561961 1479.50823963 682.54561961 1479.50823963 682.54561961 1479.50823963 Z M682.54561961 1479.50823963 C683.54561961 1481.50823963 683.54561961 1481.50823963 683.54561961 1481.50823963 Z M683.54561961 1481.50823963 C684.54561961 1483.50823963 684.54561961 1483.50823963 684.54561961 1483.50823963 Z M685.54561961 1484.50823963 C686.54561961 1486.50823963 686.54561961 1486.50823963 686.54561961 1486.50823963 Z M686.54561961 1486.50823963 C687.54561961 1488.50823963 687.54561961 1488.50823963 687.54561961 1488.50823963 Z M688.54561961 1489.50823963 C689.54561961 1491.50823963 689.54561961 1491.50823963 689.54561961 1491.50823963 Z M689.54561961 1491.50823963 C690.54561961 1493.50823963 690.54561961 1493.50823963 690.54561961 1493.50823963 Z M690.54561961 1493.50823963 C691.54561961 1495.50823963 691.54561961 1495.50823963 691.54561961 1495.50823963 Z M691.54561961 1495.50823963 C691.87561961 1496.49823963 692.20561961 1497.48823963 692.54561961 1498.50823963 C692.54561961 1497.51823963 692.54561961 1496.52823963 692.54561961 1495.50823963 C692.21561961 1495.50823963 691.88561961 1495.50823963 691.54561961 1495.50823963 Z M693.54561961 1498.50823963 C694.54561961 1500.50823963 694.54561961 1500.50823963 694.54561961 1500.50823963 Z M694.54561961 1500.50823963 C695.54561961 1502.50823963 695.54561961 1502.50823963 695.54561961 1502.50823963 Z M696.54561961 1503.50823963 C697.54561961 1505.50823963 697.54561961 1505.50823963 697.54561961 1505.50823963 Z M697.54561961 1505.50823963 C698.54561961 1507.50823963 698.54561961 1507.50823963 698.54561961 1507.50823963 Z M698.54561961 1507.50823963 C699.54561961 1509.50823963 699.54561961 1509.50823963 699.54561961 1509.50823963 Z M700.54561961 1510.50823963 C701.54561961 1512.50823963 701.54561961 1512.50823963 701.54561961 1512.50823963 Z M701.54561961 1512.50823963 C702.54561961 1514.50823963 702.54561961 1514.50823963 702.54561961 1514.50823963 Z M704.54561961 1517.50823963 C705.54561961 1519.50823963 705.54561961 1519.50823963 705.54561961 1519.50823963 Z M705.54561961 1519.50823963 C706.54561961 1521.50823963 706.54561961 1521.50823963 706.54561961 1521.50823963 Z M708.54561961 1524.50823963 C709.54561961 1526.50823963 709.54561961 1526.50823963 709.54561961 1526.50823963 Z M709.54561961 1526.50823963 C710.54561961 1528.50823963 710.54561961 1528.50823963 710.54561961 1528.50823963 Z M711.54561961 1529.50823963 C712.54561961 1531.50823963 712.54561961 1531.50823963 712.54561961 1531.50823963 Z M712.54561961 1531.50823963 C713.54561961 1533.50823963 713.54561961 1533.50823963 713.54561961 1533.50823963 Z M713.54561961 1533.50823963 C714.54561961 1535.50823963 714.54561961 1535.50823963 714.54561961 1535.50823963 Z M715.54561961 1536.50823963 C716.54561961 1538.50823963 716.54561961 1538.50823963 716.54561961 1538.50823963 Z M716.54561961 1538.50823963 C717.54561961 1540.50823963 717.54561961 1540.50823963 717.54561961 1540.50823963 Z M719.54561961 1543.50823963 C720.54561961 1545.50823963 720.54561961 1545.50823963 720.54561961 1545.50823963 Z M720.54561961 1545.50823963 C721.54561961 1547.50823963 721.54561961 1547.50823963 721.54561961 1547.50823963 Z M723.54561961 1550.50823963 C724.54561961 1552.50823963 724.54561961 1552.50823963 724.54561961 1552.50823963 Z M724.54561961 1552.50823963 C725.54561961 1554.50823963 725.54561961 1554.50823963 725.54561961 1554.50823963 Z M727.54561961 1557.50823963 C728.54561961 1559.50823963 728.54561961 1559.50823963 728.54561961 1559.50823963 Z M731.54561961 1564.50823963 C732.54561961 1566.50823963 732.54561961 1566.50823963 732.54561961 1566.50823963 Z M734.54561961 1569.50823963 C735.54561961 1571.50823963 735.54561961 1571.50823963 735.54561961 1571.50823963 Z M735.54561961 1571.50823963 C736.54561961 1573.50823963 736.54561961 1573.50823963 736.54561961 1573.50823963 Z M738.54561961 1576.50823963 C739.54561961 1578.50823963 739.54561961 1578.50823963 739.54561961 1578.50823963 Z M739.54561961 1578.50823963 C740.54561961 1580.50823963 740.54561961 1580.50823963 740.54561961 1580.50823963 Z M742.54561961 1583.50823963 C743.54561961 1585.50823963 743.54561961 1585.50823963 743.54561961 1585.50823963 Z M746.54561961 1590.50823963 C747.54561961 1592.50823963 747.54561961 1592.50823963 747.54561961 1592.50823963 Z M750.54561961 1597.50823963 C751.54561961 1599.50823963 751.54561961 1599.50823963 751.54561961 1599.50823963 Z M753.54561961 1602.50823963 C754.54561961 1604.50823963 754.54561961 1604.50823963 754.54561961 1604.50823963 Z M754.54561961 1604.50823963 C755.54561961 1606.50823963 755.54561961 1606.50823963 755.54561961 1606.50823963 Z M757.54561961 1609.50823963 C758.54561961 1611.50823963 758.54561961 1611.50823963 758.54561961 1611.50823963 Z M761.54561961 1616.50823963 C762.54561961 1618.50823963 762.54561961 1618.50823963 762.54561961 1618.50823963 Z M765.54561961 1623.50823963 C766.54561961 1625.50823963 766.54561961 1625.50823963 766.54561961 1625.50823963 Z M769.54561961 1630.50823963 C770.54561961 1632.50823963 770.54561961 1632.50823963 770.54561961 1632.50823963 Z M773.54561961 1637.50823963 C774.54561961 1639.50823963 774.54561961 1639.50823963 774.54561961 1639.50823963 Z M776.54561961 1642.50823963 C777.54561961 1644.50823963 777.54561961 1644.50823963 777.54561961 1644.50823963 Z M780.54561961 1649.50823963 C781.54561961 1651.50823963 781.54561961 1651.50823963 781.54561961 1651.50823963 Z " fill="#00AD3C" transform="translate(1703.4543803930283,32.49176037311554)"/>
<path d="M0 0 C49.04898907 -0.04950478 98.09798008 -0.09692979 147.14697266 -0.14282227 C148.5866236 -0.14416953 148.5866236 -0.14416953 150.05535841 -0.14554402 C252.87261926 -0.24170818 355.68988075 -0.32472178 458.50717163 -0.38108826 C460.79039454 -0.38234331 463.07361744 -0.38359838 465.35684034 -0.38485345 C513.27974501 -0.41115625 561.20265047 -0.43560684 609.12555716 -0.4579171 C633.19795594 -0.46912586 657.27035455 -0.48069063 681.342753 -0.49259197 C684.97403818 -0.49438521 688.60532336 -0.49616828 692.23660855 -0.49795092 C748.16926748 -0.52549861 804.10190879 -0.56069268 860.0345459 -0.61798096 C861.23762278 -0.61921305 862.44069966 -0.62044514 863.68023341 -0.62171456 C883.07803666 -0.6416265 902.47583922 -0.66217875 921.87364171 -0.68281596 C977.72888877 -0.74223028 1033.58412232 -0.79692872 1089.43939781 -0.82025814 C1090.58743418 -0.82073996 1091.73547055 -0.82122177 1092.91829589 -0.82171819 C1118.1173421 -0.8322088 1143.31638847 -0.84026307 1168.51543618 -0.84600885 C1178.65389005 -0.84836352 1188.79234383 -0.85106909 1198.93079758 -0.85389519 C1200.04042375 -0.85419603 1201.15004991 -0.85449688 1202.29330112 -0.85480684 C1238.0762334 -0.86468308 1273.85906522 -0.90315058 1309.64195694 -0.95653988 C1345.67223271 -1.01016788 1381.70241091 -1.03590838 1417.73272763 -1.02261589 C1422.70629787 -1.02078805 1427.67986816 -1.01928165 1432.65343857 -1.01796913 C1433.6284412 -1.01770021 1434.60344383 -1.01743128 1435.60799199 -1.01715421 C1451.07664255 -1.0137219 1466.54508729 -1.04064469 1482.0136817 -1.08008876 C1497.20639142 -1.11821031 1512.39883311 -1.12452228 1527.59156798 -1.09648632 C1536.51040041 -1.08100071 1545.42838537 -1.09043187 1554.34711976 -1.13595302 C1560.26084111 -1.16370162 1566.17395261 -1.15916377 1572.08765442 -1.12770965 C1575.44701658 -1.11076639 1578.80336896 -1.11307596 1582.16282436 -1.1451172 C1585.76672252 -1.17733267 1589.36616096 -1.15474773 1592.96991408 -1.11778647 C1594.53349758 -1.15165631 1594.53349758 -1.15165631 1596.12866862 -1.18621039 C1602.96921028 -1.03503841 1602.96921028 -1.03503841 1605.9305537 1.93851101 C1607.4873741 4.23394748 1608.7702157 6.51642111 1610 9 C1610.75532116 10.32713178 1611.51484228 11.65189586 1612.28125 12.97265625 C1613.02389039 14.3342746 1613.76334507 15.69763415 1614.5 17.0625 C1618.50880723 24.38242334 1622.65492494 31.61242932 1626.875 38.8125 C1631.29228035 46.35153956 1635.67862469 53.90555755 1640 61.5 C1644.22600329 68.92240618 1648.50177846 76.31397632 1652.8125 83.6875 C1659.62357982 95.33810553 1666.37273669 107.02371974 1673.10888672 118.71777344 C1676.23680148 124.14659942 1679.36858448 129.57319281 1682.5 135 C1683.75001879 137.16665583 1685.00001878 139.3333225 1686.25 141.5 C1686.86875 142.5725 1687.4875 143.645 1688.125 144.75 C1723.75000001 206.50000002 1723.75000001 206.50000002 1725.62524414 209.75048828 C1726.87435518 211.91557071 1728.12354129 214.08060982 1729.37280273 216.24560547 C1732.51202309 221.68615706 1735.64990563 227.12747216 1738.78515625 232.5703125 C1744.80747375 243.02206279 1750.84680257 253.46293115 1756.9375 263.875 C1762.67753421 273.69138458 1768.33323337 283.55465494 1773.96630859 293.43261719 C1780.31923895 304.57152504 1786.72546631 315.6793258 1793.14111328 326.78222656 C1796.26324607 332.18670649 1799.38136526 337.59350107 1802.5 343 C1803.4271582 344.60681641 1803.4271582 344.60681641 1804.37304688 346.24609375 C1807.51222374 351.68646075 1810.64999629 357.12762955 1813.78515625 362.5703125 C1819.80747375 373.02206279 1825.84680257 383.46293115 1831.9375 393.875 C1837.67753421 403.69138458 1843.33323337 413.55465494 1848.96630859 423.43261719 C1855.31923895 434.57152504 1861.72546631 445.6793258 1868.14111328 456.78222656 C1871.26324605 462.18670645 1874.38141204 467.59347412 1877.5 473 C1878.74998122 475.1666775 1879.99998121 477.33334417 1881.25 479.5 C1888.75 492.5 1896.25 505.5 1903.75 518.5 C1904.36866943 519.57233887 1904.98733887 520.64467773 1905.62475586 521.74951172 C1906.8756448 523.91776264 1908.12645852 526.08605697 1909.37719727 528.25439453 C1912.48798335 533.64717915 1915.60004238 539.03922093 1918.71484375 544.4296875 C1925.53367241 556.23395095 1932.32058741 568.05554746 1939.07333374 579.89767456 C1943.75443686 588.10382004 1948.48060831 596.28233081 1953.25 604.4375 C1954.38156181 606.37757419 1955.51307297 608.31767793 1956.64453125 610.2578125 C1958.3520647 613.18458386 1960.06401574 616.10843662 1961.78662109 619.02636719 C1963.51241952 621.94999511 1965.22587062 624.88056105 1966.9375 627.8125 C1967.4644043 628.69671631 1967.99130859 629.58093262 1968.53417969 630.49194336 C1969.2423584 631.71216187 1969.2423584 631.71216187 1969.96484375 632.95703125 C1970.3837085 633.66835205 1970.80257324 634.37967285 1971.23413086 635.11254883 C1972 637 1972 637 1971 640 C1968.98828125 641.29931641 1968.98828125 641.29931641 1966.3125 642.6015625 C1965.31677979 643.08737793 1964.32105957 643.57319336 1963.29516602 644.07373047 C1962.20776123 644.58564941 1961.12035645 645.09756836 1960 645.625 C1958.3137854 646.42188232 1958.3137854 646.42188232 1956.59350586 647.23486328 C1917.65732001 665.28805683 1878.00734965 671.16775817 1835.50783062 671.13142776 C1833.13874624 671.13307992 1830.76966213 671.13516734 1828.40057847 671.13764787 C1822.57870342 671.14261081 1816.75684097 671.14296942 1810.93496433 671.14135885 C1803.90615728 671.13967934 1796.87735653 671.1438389 1789.84855102 671.1481343 C1776.71433064 671.155988 1763.58011298 671.15909535 1750.44589043 671.15958023 C1737.14092629 671.16008324 1723.83596519 671.16273651 1710.53100204 671.16798782 C1709.68970776 671.16831796 1708.84841348 671.16864809 1707.98162542 671.16898823 C1704.55497387 671.17033828 1701.12832233 671.17170095 1697.70167079 671.17308033 C1657.17056575 671.18936685 1616.63946129 671.19576684 1576.10835354 671.2005282 C1555.9212326 671.20291299 1535.73411198 671.20661677 1515.5469913 671.2105653 C1450.7697743 671.2232282 1385.99255731 671.23401236 1321.2153391 671.23740576 C1318.12056326 671.237568 1315.02578742 671.23773356 1311.93101159 671.23790014 C1305.72456741 671.23823394 1299.51812324 671.23856442 1293.31167907 671.2388947 C1286.04570535 671.2392816 1278.77973164 671.2396712 1271.51375793 671.24006577 C1269.43419139 671.24017818 1267.35462485 671.2402896 1265.27505831 671.24040002 C1198.4909845 671.24394921 1131.70692146 671.25902755 1064.92285177 671.28233776 C1016.92289683 671.29908482 968.92294393 671.31455662 920.92298603 671.31907272 C919.44156071 671.31921295 919.44156071 671.31921295 917.9302076 671.31935601 C896.24710007 671.32137528 874.56399258 671.32253114 852.88088497 671.3228846 C845.1217676 671.32302077 837.36265024 671.32322976 829.60353287 671.32347785 C827.6733289 671.32353941 825.74312493 671.32359773 823.81292096 671.3236528 C793.08754228 671.32457168 762.36217487 671.33452852 731.6367999 671.34911029 C700.67992951 671.36374312 669.72307291 671.36875764 638.76619968 671.36069075 C634.48226969 671.35957547 630.19833967 671.35856478 625.91440964 671.35761642 C624.65483983 671.35733147 624.65483983 671.35733147 623.36982417 671.35704076 C610.10914919 671.35431415 596.84849982 671.36162643 583.58783041 671.37318979 C570.52748651 671.38436739 557.46717858 671.3847252 544.40683409 671.37381961 C537.42936281 671.36828348 530.45197195 671.36728838 523.47450831 671.38032833 C517.11185316 671.39174951 510.74935763 671.38905343 504.38670775 671.37566125 C502.11378108 671.37324965 499.84084177 671.37573073 497.56792907 671.38405773 C459.37734698 671.51463834 420.32322719 665.61638439 386 648 C384.94167969 647.505 383.88335938 647.01 382.79296875 646.5 C361.84793991 636.54213486 342.87307367 622.82539916 326 607 C324.58910329 605.76421458 323.17289474 604.53445159 321.75 603.3125 C314.33128533 596.8267677 308.14494934 589.69839254 302 582 C301.13500011 580.94848966 300.26909285 579.8977252 299.40234375 578.84765625 C286.19202854 562.67504248 276.24792506 544.36181389 265.98791504 526.25143433 C262.68599632 520.43093287 259.31886436 514.64959596 255.9375 508.875 C249.20736541 497.37159839 242.54344013 485.83076201 235.89111328 474.28222656 C232.76319854 468.85340062 229.63146269 463.42677993 226.5 458 C222.73636081 451.47766725 218.97355378 444.95486238 215.21484375 438.4296875 C209.16944841 427.93767906 203.10889781 417.45518324 197 407 C190.25298806 395.45270484 183.56660682 383.87097973 176.89111328 372.28222656 C173.76319852 366.85340058 170.63141552 361.42680719 167.5 356 C166.24998121 353.83334417 164.99998122 351.6666775 163.75 349.5 C163.13125 348.4275 162.5125 347.355 161.875 346.25 C156.25 336.5 156.25 336.5 154.37475586 333.24951172 C153.12564482 331.08442929 151.87645871 328.91939018 150.62719727 326.75439453 C147.48797691 321.31384294 144.35009437 315.87252784 141.21484375 310.4296875 C135.19252671 299.97793801 129.15330663 289.53700452 123.0625 279.125 C117.64078822 269.85500223 112.29795085 260.54168248 106.98077393 251.21154785 C101.77954871 242.0871716 96.51972122 232.99867226 91.21655273 223.93310547 C85.06233258 213.40915375 78.97630004 202.84619863 72.89111328 192.28222656 C70.38662183 187.93541749 67.87959935 183.59007128 65.37231445 179.24487305 C64.12454925 177.08239459 62.8769905 174.919797 61.62963867 172.75708008 C58.48278408 167.30108189 55.33350926 161.84650542 52.1796875 156.39453125 C48.44412449 149.93485135 44.71762906 143.47001769 41 137 C40.11320557 135.45723389 40.11320557 135.45723389 39.20849609 133.88330078 C17.15383168 95.43607702 -0.386352 54.1400606 -0.046875 8.9765625 C-0.04349121 8.10813721 -0.04010742 7.23971191 -0.03662109 6.3449707 C-0.02788741 4.22996327 -0.01444035 2.11497617 0 0 Z " fill="#0085FE" transform="translate(749,1456)"/>
<path d="M0 0 C14.66179421 5.46887528 28.50972398 17.43249106 39.859375 28.01171875 C41.77399406 29.79007842 43.73995368 31.45699938 45.75 33.125 C69.54938289 54.00333187 85.53602592 81.35434324 100.92678833 108.57798767 C104.435895 114.78120104 107.99550071 120.95491597 111.5625 127.125 C112.17706055 128.18904053 112.79162109 129.25308105 113.42480469 130.34936523 C114.66336855 132.49377115 115.90213754 134.6380586 117.14111328 136.78222656 C120.26324605 142.18670645 123.38141204 147.59347412 126.5 153 C127.74998122 155.1666775 128.99998121 157.33334417 130.25 159.5 C167.75 224.5 167.75 224.5 169.62524414 227.75048828 C170.87435518 229.91557071 172.12354129 232.08060982 173.37280273 234.24560547 C176.51202309 239.68615706 179.64990563 245.12747216 182.78515625 250.5703125 C188.80747329 261.02206199 194.84669337 271.46299548 200.9375 281.875 C206.35958699 291.14563931 211.70324012 300.45936699 217.02023315 309.79046631 C221.63484029 317.88707843 226.29084886 325.95788801 231 334 C236.4035646 343.22800529 241.72652361 352.4999467 247.02050781 361.79101562 C251.63502804 369.88744133 256.29095255 377.95806509 261 386 C266.4035646 395.22800529 271.72652361 404.4999467 277.02050781 413.79101562 C281.63502804 421.88744133 286.29095255 429.95806509 291 438 C296.4035646 447.22800529 301.72652361 456.4999467 307.02050781 465.79101562 C311.63502804 473.88744133 316.29095255 481.95806509 321 490 C326.4035646 499.22800529 331.72652361 508.4999467 337.02050781 517.79101562 C341.63502804 525.88744133 346.29095255 533.95806509 351 542 C356.4035646 551.22800529 361.72652361 560.4999467 367.02050781 569.79101562 C371.63502804 577.88744133 376.29095255 585.95806509 381 594 C386.4035646 603.22800529 391.72652361 612.4999467 397.02050781 621.79101562 C401.63502804 629.88744133 406.29095255 637.95806509 411 646 C416.4035646 655.22800529 421.72652361 664.4999467 427.02050781 673.79101562 C431.63502852 681.88744218 436.29103794 689.95801457 441 698 C446.72258797 707.77496642 452.35843499 717.5978706 457.96875 727.4375 C462.45555737 735.30537405 466.96764758 743.15825402 471.5 751 C476.71642486 760.02530846 481.89914975 769.06927803 487.0625 778.125 C491.99596734 786.77695859 496.96819413 795.40477505 502 804 C507.72248449 813.77502765 513.3584344 823.59786956 518.96875 833.4375 C523.45555737 841.30537405 527.96764758 849.15825402 532.5 857 C537.71642486 866.02530846 542.89914975 875.06927803 548.0625 884.125 C552.99596786 892.77695951 557.96828511 901.40472125 563 910 C568.00745104 918.55549411 572.96154859 927.14024245 577.875 935.75 C578.20788025 936.3332605 578.5407605 936.916521 578.88372803 937.51745605 C581.59800516 942.27436898 584.30942831 947.03290718 587.02075195 951.79150391 C589.38751432 955.94508974 591.75538194 960.09804261 594.125 964.25 C594.45804138 964.83358276 594.79108276 965.41716553 595.13421631 966.01843262 C600.27352667 975.01978768 605.47711291 983.9821319 610.71362305 992.92724609 C615.85930852 1001.7295166 620.91857673 1010.58027304 625.96875 1019.4375 C630.45555737 1027.30537405 634.96764758 1035.15825402 639.5 1043 C644.71642486 1052.02530846 649.89914975 1061.06927803 655.0625 1070.125 C659.99596734 1078.77695859 664.96819413 1087.40477505 670 1096 C675.72248449 1105.77502765 681.3584344 1115.59786956 686.96875 1125.4375 C691.45555737 1133.30537405 695.96764758 1141.15825402 700.5 1149 C705.71642486 1158.02530846 710.89914975 1167.06927803 716.0625 1176.125 C720.99596734 1184.77695859 725.96819413 1193.40477505 731 1202 C736.71930254 1211.76959231 742.35558291 1221.5850724 747.95776367 1231.42211914 C751.90535718 1238.35109525 755.88834486 1245.25780379 759.90185547 1252.14892578 C796.09442755 1314.44306659 812.36234362 1382.0064655 794 1453 C793.81743652 1453.73057617 793.63487305 1454.46115234 793.44677734 1455.21386719 C786.94038363 1480.93905453 774.31581876 1504.68632808 760.77734375 1527.328125 C757.3929351 1532.99492611 754.10573015 1538.71739049 750.8125 1544.4375 C750.17473633 1545.54440186 749.53697266 1546.65130371 748.87988281 1547.79174805 C747.57155064 1550.06269493 746.26344709 1552.33377354 744.95556641 1554.60498047 C741.80667949 1560.07169975 738.6532151 1565.53577646 735.5 1571 C731.73634635 1577.52232439 727.97355377 1584.04513763 724.21484375 1590.5703125 C717.59777108 1602.0544882 710.95366023 1613.52196894 704.26708984 1624.96582031 C698.10080946 1635.52620282 691.9950405 1646.12126766 685.89111328 1656.71777344 C682.76319852 1662.14659942 679.63141552 1667.57319281 676.5 1673 C675.24998121 1675.16665583 673.99998122 1677.3333225 672.75 1679.5 C665.25 1692.5 657.75 1705.5 650.25 1718.5 C649.63116943 1719.57266113 649.01233887 1720.64532227 648.37475586 1721.75048828 C647.12564482 1723.91557071 645.87645871 1726.08060982 644.62719727 1728.24560547 C641.48797691 1733.68615706 638.35009437 1739.12747216 635.21484375 1744.5703125 C628.59777108 1756.0544882 621.95366023 1767.52196894 615.26708984 1778.96582031 C609.10080946 1789.52620282 602.9950405 1800.12126766 596.89111328 1810.71777344 C593.76319852 1816.14659942 590.63141552 1821.57319281 587.5 1827 C586.24998121 1829.16665583 584.99998122 1831.3333225 583.75 1833.5 C581.25 1837.83333333 578.75 1842.16666667 576.25 1846.5 C575.63116943 1847.57266113 575.01233887 1848.64532227 574.37475586 1849.75048828 C573.12564482 1851.91557071 571.87645871 1854.08060982 570.62719727 1856.24560547 C567.48797691 1861.68615706 564.35009437 1867.12747216 561.21484375 1872.5703125 C554.6008732 1884.04910437 547.96776759 1895.5159438 541.27368164 1906.94824219 C538.22261299 1912.16490397 535.19830582 1917.3950001 532.2109375 1922.6484375 C520.07213805 1943.96584323 507.37718683 1964.33927628 490.53125 1982.28125 C488.39184482 1984.57912963 486.3398101 1986.91658807 484.3125 1989.3125 C480.85535164 1993.28211976 477.02276354 1996.61737471 473 2000 C472.07574219 2000.81210938 471.15148438 2001.62421875 470.19921875 2002.4609375 C461.60021364 2009.97326267 452.47795215 2016.63886661 443 2023 C442.27893066 2023.4940332 441.55786133 2023.98806641 440.81494141 2024.49707031 C440.10901855 2024.96467773 439.4030957 2025.43228516 438.67578125 2025.9140625 C438.04196533 2026.33896973 437.40814941 2026.76387695 436.75512695 2027.20166016 C435 2028 435 2028 432 2027 C430.44458008 2024.76049805 430.44458008 2024.76049805 428.76953125 2021.76171875 C427.824729 2020.08770996 427.824729 2020.08770996 426.86083984 2018.37988281 C426.17800433 2017.14911937 425.49522595 2015.91832423 424.8125 2014.6875 C424.09945254 2013.4183928 423.38540694 2012.14984594 422.67041016 2010.88183594 C421.18239906 2008.24097042 419.69874751 2005.59772792 418.21826172 2002.95263672 C415.13390746 1997.44831019 412.0047975 1991.96967592 408.87182617 1986.49291992 C407.86999793 1984.74125403 406.86949504 1982.98883604 405.86914062 1981.23632812 C400.99313773 1972.70060183 396.04590125 1964.20785237 391.07763672 1955.72558594 C386.60287144 1948.07094615 382.23352426 1940.36042628 377.88720703 1932.63232422 C374.04938079 1925.82200715 370.13837572 1919.05778909 366.1875 1912.3125 C361.11671203 1903.6532632 356.09813661 1894.96562138 351.125 1886.25 C350.79239166 1885.66719269 350.45978333 1885.08438538 350.11709595 1884.48391724 C347.4025452 1879.72654591 344.69083592 1874.96755657 341.97924805 1870.20849609 C339.61248568 1866.05491026 337.24461806 1861.90195739 334.875 1857.75 C334.54195862 1857.16641724 334.20891724 1856.58283447 333.86578369 1855.98156738 C329.28714649 1847.96221532 324.66449635 1839.96973138 320 1832 C312.923078 1819.90841215 305.97346095 1807.74545051 299.03662109 1795.57324219 C295.67347956 1789.67198324 292.30631826 1783.77301988 288.9375 1777.875 C288.44085342 1777.00545685 288.44085342 1777.00545685 287.93417358 1776.11834717 C280.6623447 1763.3893792 273.33511739 1750.69257279 266 1738 C257.96462608 1724.09571421 249.95097002 1710.1796502 241.99102783 1696.23205566 C234.70310446 1683.4635186 227.35630831 1670.72924124 220 1658 C211.93910696 1644.05155632 203.90290574 1630.08996112 195.92263794 1616.09527588 C191.32605777 1608.03736788 186.6867584 1600.00582214 182 1592 C176.27751551 1582.22497235 170.6415656 1572.40213044 165.03125 1562.5625 C160.54444245 1554.69462562 156.0322827 1546.84178645 151.5 1539 C146.307595 1530.01459064 141.14333816 1521.01354666 136 1512 C128.37661796 1498.64161987 120.69583975 1485.31676114 113 1472 C105.64266756 1459.26898663 98.29492785 1446.53289986 91.00622559 1433.76245117 C90.00639563 1432.01120224 89.00578844 1430.26039997 88.00488281 1428.50976562 C87.67600067 1427.93450134 87.34711853 1427.35923706 87.00827026 1426.76654053 C86.34417312 1425.60494504 85.6800496 1424.44336462 85.01589966 1423.28179932 C82.96236573 1419.6887267 80.91530223 1416.09204365 78.87185669 1412.4932251 C77.84577875 1410.6882458 76.81700439 1408.88483494 75.78710938 1407.08203125 C74.50642566 1404.83988469 73.23011168 1402.59523435 71.95898438 1400.34765625 C69.66980541 1396.35116321 67.50520805 1392.600485 64.53515625 1389.0703125 C60.53615331 1384.22714408 57.68521353 1378.71611444 54.625 1373.25 C53.91746062 1371.9971559 53.20919601 1370.74472113 52.50024414 1369.49267578 C51.40803278 1367.56360515 50.31624485 1365.63430949 49.22663879 1363.70376587 C45.67069636 1357.40411151 42.05921483 1351.1370494 38.4375 1344.875 C37.1965767 1342.72658438 35.95569131 1340.57814687 34.71484375 1338.4296875 C34.10237793 1337.36975586 33.48991211 1336.30982422 32.85888672 1335.21777344 C29.73675395 1329.81329355 26.61858796 1324.40652588 23.5 1319 C22.25001878 1316.8333225 21.00001879 1314.66665583 19.75 1312.5 C7.25 1290.83333333 -5.25 1269.16666667 -17.75 1247.5 C-18.36866943 1246.42766113 -18.98733887 1245.35532227 -19.62475586 1244.25048828 C-20.8756448 1242.08223736 -22.12645852 1239.91394303 -23.37719727 1237.74560547 C-26.48798335 1232.35282085 -29.60004238 1226.96077907 -32.71484375 1221.5703125 C-39.53502637 1209.76370516 -46.3232326 1197.93973 -53.07736206 1186.09527588 C-58.23335445 1177.05670572 -63.45320673 1168.05722862 -68.71118164 1159.07763672 C-73.53872836 1150.82076358 -78.28548671 1142.51905969 -83.02050781 1134.20898438 C-87.63502852 1126.11255782 -92.29103794 1118.04198543 -97 1110 C-102.0318979 1101.4048271 -107.00389124 1092.77687778 -111.9375 1084.125 C-118.96603507 1071.79974804 -126.04240434 1059.50277933 -133.14111328 1047.21777344 C-136.26324605 1041.81329355 -139.38141204 1036.40652588 -142.5 1031 C-143.74998122 1028.8333225 -144.99998121 1026.66665583 -146.25 1024.5 C-168.75 985.5 -191.25 946.5 -213.75 907.5 C-214.36866943 906.42766113 -214.98733887 905.35532227 -215.62475586 904.25048828 C-216.8756448 902.08223736 -218.12645852 899.91394303 -219.37719727 897.74560547 C-222.48798335 892.35282085 -225.60004238 886.96077907 -228.71484375 881.5703125 C-235.53502637 869.76370516 -242.3232326 857.93973 -249.07736206 846.09527588 C-254.23335445 837.05670572 -259.45320673 828.05722862 -264.71118164 819.07763672 C-269.53872836 810.82076358 -274.28548671 802.51905969 -279.02050781 794.20898438 C-283.63502852 786.11255782 -288.29103794 778.04198543 -293 770 C-298.0318979 761.4048271 -303.00389124 752.77687778 -307.9375 744.125 C-314.96603507 731.79974804 -322.04240434 719.50277933 -329.14111328 707.21777344 C-332.26324606 701.81329353 -335.38138904 696.40651263 -338.5 691 C-339.739574 688.85155711 -340.97915735 686.70311962 -342.21875 684.5546875 C-344.48542819 680.6258575 -346.75157239 676.69672062 -349.01696777 672.76715088 C-350.02619104 671.01658759 -351.03553836 669.26609589 -352.04492188 667.515625 C-353.3016766 665.33607835 -354.55820586 663.15640168 -355.81445312 660.9765625 C-356.39130859 659.97625 -356.96816406 658.9759375 -357.5625 657.9453125 C-358.12066406 656.96981445 -358.67882813 655.99431641 -359.25390625 654.98925781 C-360.47939317 652.89126259 -361.74055699 650.81389595 -363.02734375 648.75292969 C-363.67832031 647.69750977 -364.32929687 646.64208984 -365 645.5546875 C-365.598125 644.60835449 -366.19625 643.66202148 -366.8125 642.68701172 C-368.23112123 639.47703119 -368.13334547 638.28019137 -367 635 C-365.82348633 632.51831055 -365.82348633 632.51831055 -364.33203125 629.88671875 C-363.4978064 628.40473999 -363.4978064 628.40473999 -362.64672852 626.89282227 C-362.04143311 625.83506592 -361.4361377 624.77730957 -360.8125 623.6875 C-359.87071899 622.02448853 -359.87071899 622.02448853 -358.90991211 620.32788086 C-353.53806301 610.87034342 -348.06304021 601.47298349 -342.5625 592.08984375 C-338.8678669 585.78429581 -335.21147319 579.45705564 -331.5625 573.125 C-330.93996338 572.04484619 -330.31742676 570.96469238 -329.67602539 569.85180664 C-328.41423174 567.66203666 -327.15259466 565.47217645 -325.89111328 563.28222656 C-322.76319852 557.85340058 -319.63141552 552.42680719 -316.5 547 C-315.24998121 544.83334417 -313.99998122 542.6666775 -312.75 540.5 C-285.25 492.83333333 -257.75 445.16666667 -230.25 397.5 C-229.63116943 396.42733887 -229.01233887 395.35467773 -228.37475586 394.24951172 C-227.12564482 392.08442929 -225.87645871 389.91939018 -224.62719727 387.75439453 C-221.48797691 382.31384294 -218.35009437 376.87252784 -215.21484375 371.4296875 C-209.19252671 360.97793801 -203.15330663 350.53700452 -197.0625 340.125 C-191.98724877 331.44737759 -186.97741233 322.73394432 -182 314 C-176.4599827 304.27884383 -170.86625191 294.59105342 -165.21655273 284.93310547 C-159.06233258 274.40915375 -152.97630004 263.84619863 -146.89111328 253.28222656 C-143.76319852 247.85340058 -140.63141552 242.42680719 -137.5 237 C-136.24998121 234.83334417 -134.99998122 232.6666775 -133.75 230.5 C-101.25 174.16666667 -68.75 117.83333333 -36.25 61.5 C-35.6307666 60.42661377 -35.0115332 59.35322754 -34.37353516 58.24731445 C-33.12858718 56.08950197 -31.8834711 53.93178647 -30.63818359 51.77416992 C-27.43447349 46.22283408 -24.2340637 40.66963459 -21.0390625 35.11328125 C-9.8002005 15.5781412 -9.8002005 15.5781412 -4.625 6.9375 C-4.07996826 6.02641479 -4.07996826 6.02641479 -3.52392578 5.09692383 C-1.1303105 1.1303105 -1.1303105 1.1303105 0 0 Z " fill="#FEBA00" transform="translate(2288,66)"/>
<path d="M0 0 C243.21 0 486.42 0 737 0 C735.54877547 3.62806134 734.12455815 6.74228784 732.234375 10.11328125 C731.40498413 11.59526001 731.40498413 11.59526001 730.55883789 13.10717773 C729.96192139 14.16493408 729.36500488 15.22269043 728.75 16.3125 C728.12665771 17.42117432 727.50331543 18.52984863 726.86108398 19.67211914 C721.52126695 29.13940877 716.05876975 38.53299965 710.5625 47.91015625 C706.8678669 54.21570419 703.21147319 60.54294436 699.5625 66.875 C698.93996338 67.95515381 698.31742676 69.03530762 697.67602539 70.14819336 C696.41423174 72.33796334 695.15259466 74.52782355 693.89111328 76.71777344 C690.76319852 82.14659942 687.63141552 87.57319281 684.5 93 C683.24998121 95.16665583 681.99998122 97.3333225 680.75 99.5 C678.25 103.83333333 675.75 108.16666667 673.25 112.5 C672.63116943 113.57266113 672.01233887 114.64532227 671.37475586 115.75048828 C670.12564482 117.91557071 668.87645871 120.08060982 667.62719727 122.24560547 C664.48797691 127.68615706 661.35009437 133.12747216 658.21484375 138.5703125 C651.59777108 150.0544882 644.95366023 161.52196894 638.26708984 172.96582031 C632.10080946 183.52620282 625.9950405 194.12126766 619.89111328 204.71777344 C616.76319852 210.14659942 613.63141552 215.57319281 610.5 221 C609.24998121 223.16665583 607.99998122 225.3333225 606.75 227.5 C604.25 231.83333333 601.75 236.16666667 599.25 240.5 C598.63116943 241.57266113 598.01233887 242.64532227 597.37475586 243.75048828 C596.12564482 245.91557071 594.87645871 248.08060982 593.62719727 250.24560547 C590.48797691 255.68615706 587.35009437 261.12747216 584.21484375 266.5703125 C577.59777108 278.0544882 570.95366023 289.52196894 564.26708984 300.96582031 C558.10080946 311.52620282 551.9950405 322.12126766 545.89111328 332.71777344 C542.76319852 338.14659942 539.63141552 343.57319281 536.5 349 C535.24998121 351.16665583 533.99998122 353.3333225 532.75 355.5 C530.25 359.83333333 527.75 364.16666667 525.25 368.5 C524.63116943 369.57266113 524.01233887 370.64532227 523.37475586 371.75048828 C522.12564482 373.91557071 520.87645871 376.08060982 519.62719727 378.24560547 C516.48797691 383.68615706 513.35009437 389.12747216 510.21484375 394.5703125 C503.59777108 406.0544882 496.95366023 417.52196894 490.26708984 428.96582031 C484.10080946 439.52620282 477.9950405 450.12126766 471.89111328 460.71777344 C468.13971976 467.22871257 464.38309006 473.73663194 460.62744141 480.24511719 C457.48817754 485.68585336 454.35018503 491.12731477 451.21484375 496.5703125 C445.19252671 507.02206199 439.15330663 517.46299548 433.0625 527.875 C427.98724877 536.55262241 422.97741233 545.26605568 418 554 C412.46241608 563.71688628 406.87312011 573.40160227 401.22314453 583.05371094 C396.9058174 590.43277219 392.63564951 597.83809812 388.375 605.25 C382.04875604 616.247299 375.58064197 627.15319687 369 638 C352.87640732 631.98587129 338.39919948 618.62931455 326 607 C324.58910329 605.76421458 323.17289474 604.53445159 321.75 603.3125 C314.33128533 596.8267677 308.14494934 589.69839254 302 582 C301.13500011 580.94848966 300.26909285 579.8977252 299.40234375 578.84765625 C286.19202854 562.67504248 276.24792506 544.36181389 265.98791504 526.25143433 C262.68599632 520.43093287 259.31886436 514.64959596 255.9375 508.875 C249.20736541 497.37159839 242.54344013 485.83076201 235.89111328 474.28222656 C232.76319854 468.85340062 229.63146269 463.42677993 226.5 458 C222.73636081 451.47766725 218.97355378 444.95486238 215.21484375 438.4296875 C209.16944841 427.93767906 203.10889781 417.45518324 197 407 C190.25298806 395.45270484 183.56660682 383.87097973 176.89111328 372.28222656 C173.76319852 366.85340058 170.63141552 361.42680719 167.5 356 C166.24998121 353.83334417 164.99998122 351.6666775 163.75 349.5 C163.13125 348.4275 162.5125 347.355 161.875 346.25 C156.25 336.5 156.25 336.5 154.37475586 333.24951172 C153.12564482 331.08442929 151.87645871 328.91939018 150.62719727 326.75439453 C147.48797691 321.31384294 144.35009437 315.87252784 141.21484375 310.4296875 C135.19252671 299.97793801 129.15330663 289.53700452 123.0625 279.125 C117.64078822 269.85500223 112.29795085 260.54168248 106.98077393 251.21154785 C101.77954871 242.0871716 96.51972122 232.99867226 91.21655273 223.93310547 C85.06233258 213.40915375 78.97630004 202.84619863 72.89111328 192.28222656 C70.38662183 187.93541749 67.87959935 183.59007128 65.37231445 179.24487305 C64.12454925 177.08239459 62.8769905 174.919797 61.62963867 172.75708008 C58.48278408 167.30108189 55.33350926 161.84650542 52.1796875 156.39453125 C48.44412449 149.93485135 44.71762906 143.47001769 41 137 C40.11320557 135.45723389 40.11320557 135.45723389 39.20849609 133.88330078 C14.82734171 91.38037802 0 49.53530397 0 0 Z " fill="#0066DD" transform="translate(749,1456)"/>
<path d="M0 0 C6.38110935 0.01123129 12.76218403 -0.00087242 19.14329112 -0.00984204 C30.8871845 -0.02289684 42.6309809 -0.01805638 54.37487045 -0.00376675 C65.22738589 0.00935121 76.07987053 0.01446832 86.93239367 0.01191509 C87.65584538 0.01175467 88.3792971 0.01159426 89.12467159 0.01142898 C92.0623055 0.01076526 94.99993939 0.01006282 97.93757328 0.00930364 C125.41977585 0.00230048 152.90192432 0.0177013 180.38411313 0.0439271 C204.73801442 0.06704461 229.0918563 0.07242535 253.44576609 0.06219471 C259.68621247 0.05959215 265.92665886 0.05700698 272.16710532 0.05459678 C272.93566161 0.05429933 273.7042179 0.05400189 274.49606378 0.05369543 C294.91985284 0.04606176 315.34363714 0.05250934 335.76742405 0.0632928 C337.96785247 0.06444047 340.1682809 0.06558364 342.36870933 0.06671963 C343.82806105 0.06747487 345.28741277 0.06824051 346.74676449 0.06901663 C357.58783989 0.07464785 368.42889986 0.07336353 379.2699753 0.06878841 C391.60860256 0.06365491 403.94716236 0.06994218 416.2857767 0.08968271 C422.5695804 0.09949163 428.85329135 0.10472969 435.13709986 0.09679019 C487.93987694 0.03726212 538.19220483 4.62376355 584.54561961 32.50823963 C583.129569 36.29342695 581.39140895 39.70573284 579.37765086 43.20745838 C578.73948435 44.32072498 578.10131785 45.43399158 577.44381297 46.58099353 C576.74866427 47.78595645 576.0534309 48.99087053 575.35811961 50.19573963 C574.63593343 51.45258762 573.91401371 52.70958874 573.19234812 53.96673572 C571.33818893 57.19461111 569.47998008 60.42013312 567.62020457 63.64477527 C565.97169777 66.50349167 564.32530273 69.36342417 562.67843211 72.22308338 C559.59082785 77.58102071 556.49841028 82.93616464 553.40450633 88.29046619 C550.90872617 92.61071606 548.41555664 96.9324695 545.92257273 101.25433338 C544.04852397 104.50320458 542.17402533 107.75181595 540.29952586 111.00042713 C537.78492525 115.35889351 535.27207299 119.71836154 532.76046336 124.07855213 C526.73814632 134.53030162 520.69892623 144.97123511 514.60811961 155.38323963 C509.53286837 164.06086204 504.52303194 172.7742953 499.54561961 181.50823963 C494.00560231 191.22939579 488.41187152 200.91718621 482.76217234 210.57513416 C476.60795219 221.09908587 470.52191965 231.662041 464.43673289 242.22601306 C461.30881812 247.65483905 458.17703513 253.08143244 455.04561961 258.50823963 C453.79560082 260.67489545 452.54560082 262.84156212 451.29561961 265.00823963 C418.79561961 321.34157296 386.29561961 377.67490629 353.79561961 434.00823963 C353.17678904 435.08090076 352.55795847 436.15356189 351.92037547 437.25872791 C350.67126443 439.42381033 349.42207831 441.58884945 348.17281687 443.7538451 C345.03359651 449.19439669 341.89571398 454.63571178 338.76046336 460.07855213 C332.73814632 470.53030162 326.69892623 480.97123511 320.60811961 491.38323963 C315.53286837 500.06086204 310.52303194 508.7742953 305.54561961 517.50823963 C300.00560231 527.22939579 294.41187152 536.91718621 288.76217234 546.57513416 C282.60795219 557.09908587 276.52191965 567.662041 270.43673289 578.22601306 C267.30881812 583.65483905 264.17703513 589.08143244 261.04561961 594.50823963 C259.79560082 596.67489545 258.54560082 598.84156212 257.29561961 601.00823963 C254.79561961 605.34157296 252.29561961 609.67490629 249.79561961 614.00823963 C249.17622508 615.08186756 248.55683054 616.15549549 247.91866648 617.2616576 C246.67521451 619.41695273 245.43172525 621.57222636 244.18819773 623.72747791 C241.30099086 628.73161636 238.4141153 633.73594483 235.52865183 638.74108875 C234.51942857 640.49165203 233.51008124 642.24214373 232.50069773 643.99261463 C231.24394301 646.17216128 229.98741375 648.35183795 228.73116648 650.53167713 C224.69145519 657.53685246 220.62625121 664.52682469 216.54561961 671.50823963 C213.97591172 668.40572048 211.75458276 665.35530898 209.80343211 661.83245838 C209.30222849 660.93502918 208.80102488 660.03759998 208.28463328 659.11297596 C207.75200877 658.15028797 207.21938426 657.18759998 206.67061961 656.19573963 C202.10222858 648.02369083 197.47019804 639.8961954 192.73311961 631.82073963 C187.61294433 623.08231671 182.55900782 614.30817119 177.54561961 605.50823963 C172.59198462 596.81413803 167.60192623 588.14321075 162.54561961 579.50823963 C157.14205501 570.28023433 151.819096 561.00829293 146.52511179 551.717224 C141.91059157 543.6207983 137.25466705 535.55017453 132.54561961 527.50823963 C127.14205501 518.28023433 121.819096 509.00829293 116.52511179 499.717224 C111.91059157 491.6207983 107.25466705 483.55017453 102.54561961 475.50823963 C97.14205501 466.28023433 91.819096 457.00829293 86.52511179 447.717224 C81.91059157 439.6207983 77.25466705 431.55017453 72.54561961 423.50823963 C67.14205501 414.28023433 61.819096 405.00829293 56.52511179 395.717224 C51.91059157 387.6207983 47.25466705 379.55017453 42.54561961 371.50823963 C37.14205501 362.28023433 31.819096 353.00829293 26.52511179 343.717224 C21.91059157 335.6207983 17.25466705 327.55017453 12.54561961 319.50823963 C7.14205501 310.28023433 1.819096 301.00829293 -3.47488821 291.717224 C-8.08940843 283.6207983 -12.74533295 275.55017453 -17.45438039 267.50823963 C-22.51068962 258.87326405 -27.50045161 250.20217644 -32.45438039 241.50823963 C-37.99423972 231.78699457 -43.58812971 222.09929094 -49.23782766 212.4413451 C-55.39204781 201.91739338 -61.47808035 191.35443825 -67.56326711 180.79046619 C-70.69118188 175.3616402 -73.82296487 169.93504682 -76.95438039 164.50823963 C-78.20439918 162.3415838 -79.45439918 160.17491713 -80.70438039 158.00823963 C-81.32313039 156.93573963 -81.94188039 155.86323963 -82.57938039 154.75823963 C-94.45438039 134.17490629 -106.32938039 113.59157296 -118.20438039 93.00823963 C-118.82369436 91.93477283 -119.44300832 90.86130603 -120.08108938 89.75530994 C-121.32543037 87.59843059 -122.56973403 85.44152971 -123.81399953 83.28460681 C-126.69074776 78.29789137 -129.56782777 73.31136861 -132.44630849 68.32565296 C-146.00535151 44.840399 -146.00535151 44.840399 -152.45438039 33.50823963 C-139.36540067 18.98391487 -109.22035126 12.53295921 -90.89188039 7.75823963 C-89.38138113 7.35363513 -89.38138113 7.35363513 -87.84036672 6.94085681 C-84.06637331 6.00750051 -80.27072058 5.24331973 -76.45438039 4.50823963 C-75.61053269 4.34350174 -74.76668499 4.17876386 -73.89726615 4.00903392 C-49.40966826 -0.54549765 -24.8130596 -0.06092632 0 0 Z " fill="#00841E" transform="translate(1703.4543803930283,32.49176037311554)"/>
<path d="M0 0 C242.55 0 485.1 0 735 0 C735 18.80412874 735 18.80412874 733.8125 28.125 C733.68085449 29.18267578 733.54920898 30.24035156 733.41357422 31.33007812 C731.99219779 42.06651788 729.70997551 52.52253897 727 63 C726.81743652 63.73057617 726.63487305 64.46115234 726.44677734 65.21386719 C719.94038363 90.93905453 707.31581876 114.68632808 693.77734375 137.328125 C690.3929351 142.99492611 687.10573015 148.71739049 683.8125 154.4375 C683.17473633 155.54440186 682.53697266 156.65130371 681.87988281 157.79174805 C680.57155064 160.06269493 679.26344709 162.33377354 677.95556641 164.60498047 C674.80667949 170.07169975 671.6532151 175.53577646 668.5 181 C664.73634635 187.52232439 660.97355377 194.04513763 657.21484375 200.5703125 C650.59777108 212.0544882 643.95366023 223.52196894 637.26708984 234.96582031 C631.10080946 245.52620282 624.9950405 256.12126766 618.89111328 266.71777344 C615.76319852 272.14659942 612.63141552 277.57319281 609.5 283 C608.24998121 285.16665583 606.99998122 287.3333225 605.75 289.5 C598.25 302.5 590.75 315.5 583.25 328.5 C582.63116943 329.57266113 582.01233887 330.64532227 581.37475586 331.75048828 C580.12564482 333.91557071 578.87645871 336.08060982 577.62719727 338.24560547 C574.48797691 343.68615706 571.35009437 349.12747216 568.21484375 354.5703125 C561.59777108 366.0544882 554.95366023 377.52196894 548.26708984 388.96582031 C542.10080946 399.52620282 535.9950405 410.12126766 529.89111328 420.71777344 C526.76319852 426.14659942 523.63141552 431.57319281 520.5 437 C519.24998121 439.16665583 517.99998122 441.3333225 516.75 443.5 C514.25 447.83333333 511.75 452.16666667 509.25 456.5 C508.63116943 457.57266113 508.01233887 458.64532227 507.37475586 459.75048828 C506.12564482 461.91557071 504.87645871 464.08060982 503.62719727 466.24560547 C500.48797691 471.68615706 497.35009437 477.12747216 494.21484375 482.5703125 C487.6008732 494.04910437 480.96776759 505.5159438 474.27368164 516.94824219 C471.22261299 522.16490397 468.19830582 527.3950001 465.2109375 532.6484375 C453.07213805 553.96584323 440.37718683 574.33927628 423.53125 592.28125 C421.39184482 594.57912963 419.3398101 596.91658807 417.3125 599.3125 C413.85535164 603.28211976 410.02276354 606.61737471 406 610 C404.61361328 611.21816406 404.61361328 611.21816406 403.19921875 612.4609375 C394.60021364 619.97326267 385.47795215 626.63886661 376 633 C375.27893066 633.4940332 374.55786133 633.98806641 373.81494141 634.49707031 C373.10901855 634.96467773 372.4030957 635.43228516 371.67578125 635.9140625 C371.04196533 636.33896973 370.40814941 636.76387695 369.75512695 637.20166016 C368 638 368 638 365 637 C363.44458008 634.76049805 363.44458008 634.76049805 361.76953125 631.76171875 C361.13966309 630.64571289 360.50979492 629.52970703 359.86083984 628.37988281 C359.17800433 627.14911937 358.49522595 625.91832423 357.8125 624.6875 C357.09945254 623.4183928 356.38540694 622.14984594 355.67041016 620.88183594 C354.18239906 618.24097042 352.69874751 615.59772792 351.21826172 612.95263672 C348.13390746 607.44831019 345.0047975 601.96967592 341.87182617 596.49291992 C340.86999793 594.74125403 339.86949504 592.98883604 338.86914062 591.23632812 C333.99313773 582.70060183 329.04590125 574.20785237 324.07763672 565.72558594 C319.60287144 558.07094615 315.23352426 550.36042628 310.88720703 542.63232422 C307.04938079 535.82200715 303.13837572 529.05778909 299.1875 522.3125 C294.11671203 513.6532632 289.09813661 504.96562138 284.125 496.25 C283.79239166 495.66719269 283.45978333 495.08438538 283.11709595 494.48391724 C280.4025452 489.72654591 277.69083592 484.96755657 274.97924805 480.20849609 C272.61248568 476.05491026 270.24461806 471.90195739 267.875 467.75 C267.37543793 466.87462585 267.37543793 466.87462585 266.86578369 465.98156738 C262.28714649 457.96221532 257.66449635 449.96973138 253 442 C245.923078 429.90841215 238.97346095 417.74545051 232.03662109 405.57324219 C228.67347956 399.67198324 225.30631826 393.77301988 221.9375 387.875 C221.60640228 387.29530457 221.27530457 386.71560913 220.93417358 386.11834717 C213.6623447 373.3893792 206.33511739 360.69257279 199 348 C190.96462608 334.09571421 182.95097002 320.1796502 174.99102783 306.23205566 C167.70310446 293.4635186 160.35630831 280.72924124 153 268 C144.93910696 254.05155632 136.90290574 240.08996112 128.92263794 226.09527588 C124.32605777 218.03736788 119.6867584 210.00582214 115 202 C109.27751551 192.22497235 103.6415656 182.40213044 98.03125 172.5625 C93.54444245 164.69462562 89.0322827 156.84178645 84.5 149 C79.307595 140.01459064 74.14333816 131.01354666 69 122 C61.37661796 108.64161987 53.69583975 95.31676114 46 82 C37.63579525 67.52671047 29.29254467 53.04208097 21.01586914 38.51855469 C17.58727675 32.50566059 14.138644 26.5053548 10.65625 20.5234375 C9.95178918 19.31121752 9.24736154 18.09897826 8.54296875 16.88671875 C7.2064979 14.58702566 5.86454166 12.29083537 4.51953125 9.99609375 C3.92527344 8.97386719 3.33101562 7.95164062 2.71875 6.8984375 C2.19216797 5.99786621 1.66558594 5.09729492 1.12304688 4.16943359 C0 2 0 2 0 0 Z " fill="#FE4130" transform="translate(2355,1456)"/>
</svg>
