<?xml version="1.0" encoding="UTF-8"?>
<svg version="1.1" xmlns="http://www.w3.org/2000/svg" width="1303" height="1303">
<path d="M0 0 C3.68462687 0.00165183 7.3692483 -0.00252315 11.05387336 -0.00590918 C17.49613548 -0.01103473 23.93839009 -0.01248535 30.38065404 -0.01145306 C39.9613964 -0.00992166 49.54213052 -0.01410417 59.12287127 -0.01932769 C77.235048 -0.02897732 95.34722188 -0.03181104 113.45940088 -0.03238475 C127.452821 -0.03284508 141.44624001 -0.03490754 155.43965978 -0.03808537 C159.47422526 -0.03898298 163.50879075 -0.03987279 167.54335624 -0.04076025 C169.04806315 -0.04109182 169.04806315 -0.04109182 170.58316818 -0.04143009 C198.78401015 -0.04758076 226.98485173 -0.05153102 255.1856944 -0.05108681 C256.2480251 -0.05107124 257.3103558 -0.05105566 258.40487835 -0.05103961 C263.7886491 -0.0509565 269.17241985 -0.05085746 274.5561906 -0.0507549 C276.15991079 -0.05072498 276.15991079 -0.05072498 277.79602937 -0.05069446 C279.95810383 -0.05065402 282.12017829 -0.05061222 284.28225275 -0.05056907 C317.90534757 -0.04995659 351.52843231 -0.05745924 385.15152425 -0.07114163 C422.96852848 -0.0865245 460.78552608 -0.09510652 498.60253364 -0.09417841 C502.64024268 -0.09410378 506.67795171 -0.09405507 510.71566075 -0.09402409 C512.20682545 -0.09400661 512.20682545 -0.09400661 513.72811468 -0.09398878 C529.67939559 -0.09395809 545.63066769 -0.10032565 561.58194598 -0.10895636 C577.63281036 -0.11746091 593.68366194 -0.11840095 609.73452734 -0.11184704 C619.25131674 -0.10816996 628.76806709 -0.10992819 638.2848523 -0.11978938 C644.6635775 -0.12583643 651.04227474 -0.1244421 657.4209987 -0.11731888 C661.04097413 -0.11347674 664.66087462 -0.11254516 668.28084444 -0.12077623 C694.71274166 -0.1767686 720.77819533 0.92636597 746.74673909 6.13466892 C748.05336507 6.39522067 748.05336507 6.39522067 749.38638753 6.6610361 C813.78316549 19.89258068 876.13660832 57.0351951 916.74673909 109.13466892 C917.60170132 110.18952278 918.45856113 111.24284074 919.31705159 112.29482517 C930.6290861 126.25834032 940.34738182 141.25637729 948.74673909 157.13466892 C949.08125081 157.76518161 949.41576253 158.39569431 949.76041097 159.04531345 C952.2020151 163.68935874 954.51077514 168.38842875 956.74673909 173.13466892 C957.10235921 173.88748142 957.45797933 174.64029392 957.82437581 175.41591892 C978.71870554 220.28568483 983.91814079 267.47594752 983.88140801 316.38792982 C983.87975618 320.0725567 983.88393116 323.75717813 983.88731718 327.44180319 C983.89244273 333.8840653 983.89389336 340.32631991 983.89286107 346.76858386 C983.89132967 356.34932622 983.89551218 365.93006034 983.9007357 375.5108011 C983.91038533 393.62297782 983.91321905 411.73515171 983.91379275 429.8473307 C983.91425309 443.84075082 983.91631554 457.83416984 983.91949338 471.8275896 C983.92039099 475.86215509 983.9212808 479.89672058 983.92216826 483.93128607 C983.9223893 484.934424 983.92261035 485.93756194 983.9228381 486.971098 C983.92898877 515.17193997 983.93293903 543.37278155 983.93249482 571.57362422 C983.93247924 572.63595493 983.93246366 573.69828563 983.93244761 574.79280817 C983.93236451 580.17657892 983.93226547 585.56034967 983.93216291 590.94412042 C983.93213299 592.54784062 983.93213299 592.54784062 983.93210247 594.1839592 C983.93206203 596.34603366 983.93202023 598.50810811 983.93197707 600.67018257 C983.9313646 634.2932774 983.93886725 667.91636213 983.95254964 701.53945407 C983.96793251 739.3564583 983.97651453 777.17345591 983.97558642 814.99046346 C983.97551179 819.0281725 983.97546308 823.06588154 983.9754321 827.10359058 C983.97542045 828.09770037 983.97540879 829.09181017 983.97539678 830.1160445 C983.9753661 846.06732541 983.98173365 862.01859751 983.99036436 877.96987581 C983.99886892 894.02074018 983.99980895 910.07159177 983.99325504 926.12245716 C983.98957797 935.63924656 983.99133619 945.15599692 984.00119738 954.67278213 C984.00724444 961.05150732 984.00585011 967.43020456 983.99872689 973.80892853 C983.99488474 977.42890395 983.99395317 981.04880444 984.00218424 984.66877426 C984.0581766 1011.10067148 982.95504204 1037.16612515 977.74673909 1063.13466892 C977.57303792 1064.0057529 977.39933675 1064.87683688 977.2203719 1065.77431735 C963.98882732 1130.17109532 926.84621291 1192.52453815 874.74673909 1233.13466892 C873.69188522 1233.98963115 872.63856726 1234.84649096 871.58658284 1235.70498142 C857.62306768 1247.01701592 842.62503071 1256.73531164 826.74673909 1265.13466892 C826.1162264 1265.46918063 825.4857137 1265.80369235 824.83609456 1266.14834079 C820.19204927 1268.58994492 815.49297926 1270.89870497 810.74673909 1273.13466892 C809.99392659 1273.49028903 809.24111409 1273.84590915 808.46548909 1274.21230563 C763.59572318 1295.10663536 716.40546049 1300.30607062 667.49347818 1300.26933783 C663.80885131 1300.267686 660.12422988 1300.27186098 656.43960482 1300.27524701 C649.99734271 1300.28037256 643.5550881 1300.28182318 637.11282414 1300.28079089 C627.53208178 1300.2792595 617.95134766 1300.283442 608.37060691 1300.28866552 C590.25843018 1300.29831515 572.1462563 1300.30114888 554.0340773 1300.30172258 C540.04065718 1300.30218291 526.04723817 1300.30424537 512.05381841 1300.3074232 C508.01925292 1300.30832081 503.98468743 1300.30921063 499.95012194 1300.31009808 C498.44541503 1300.31042965 498.44541503 1300.31042965 496.91031001 1300.31076792 C468.70946804 1300.31691859 440.50862645 1300.32086885 412.30778378 1300.32042465 C411.24545308 1300.32040907 410.18312238 1300.32039349 409.08859984 1300.32037744 C403.70482909 1300.32029434 398.32105834 1300.32019529 392.93728759 1300.32009273 C391.33356739 1300.32006281 391.33356739 1300.32006281 389.69744881 1300.32003229 C387.53537435 1300.31999185 385.37329989 1300.31995005 383.21122544 1300.3199069 C349.58813061 1300.31929442 315.96504587 1300.32679707 282.34195394 1300.34047946 C244.5249497 1300.35586233 206.7079521 1300.36444435 168.89094454 1300.36351624 C164.8532355 1300.36344162 160.81552647 1300.36339291 156.77781743 1300.36336192 C155.28665274 1300.36334444 155.28665274 1300.36334444 153.7653635 1300.36332661 C137.81408259 1300.36329592 121.8628105 1300.36966348 105.9115322 1300.37829419 C89.86066782 1300.38679874 73.80981624 1300.38773878 57.75895085 1300.38118487 C48.24216145 1300.3775078 38.72541109 1300.37926602 29.20862588 1300.38912721 C22.82990069 1300.39517426 16.45120345 1300.39377994 10.07247948 1300.38665671 C6.45250406 1300.38281457 2.83260357 1300.38188299 -0.78736625 1300.39011406 C-27.21926348 1300.44610643 -53.28471715 1299.34297186 -79.25326091 1294.13466892 C-80.12434489 1293.96096774 -80.99542888 1293.78726657 -81.89290935 1293.60830173 C-146.28968731 1280.37675715 -208.64313014 1243.23414273 -249.25326091 1191.13466892 C-250.10822314 1190.07981505 -250.96508295 1189.02649709 -251.82357341 1187.97451267 C-263.13560791 1174.01099751 -272.85390363 1159.01296054 -281.25326091 1143.13466892 C-281.75502849 1142.18889987 -281.75502849 1142.18889987 -282.26693278 1141.22402438 C-284.70853692 1136.57997909 -287.01729696 1131.88090908 -289.25326091 1127.13466892 C-289.60888103 1126.38185642 -289.96450114 1125.62904392 -290.33089763 1124.85341892 C-311.22522736 1079.983653 -316.42466261 1032.79339031 -316.38792982 983.88140801 C-316.386278 980.19678114 -316.39045297 976.5121597 -316.393839 972.82753464 C-316.39896455 966.38527253 -316.40041518 959.94301792 -316.39938289 953.50075397 C-316.39785149 943.92001161 -316.40203399 934.33927749 -316.40725751 924.75853673 C-316.41690715 906.64636001 -316.41974087 888.53418612 -316.42031457 870.42200713 C-316.42077491 856.42858701 -316.42283736 842.43516799 -316.4260152 828.44174823 C-316.4269128 824.40718274 -316.42780262 820.37261725 -316.42869007 816.33805177 C-316.42891112 815.33491383 -316.42913217 814.33177589 -316.42935992 813.29823983 C-316.43551058 785.09739786 -316.43946084 756.89655628 -316.43901664 728.69571361 C-316.43900106 727.63338291 -316.43898548 726.5710522 -316.43896943 725.47652966 C-316.43888633 720.09275891 -316.43878729 714.70898816 -316.43868472 709.32521741 C-316.43866478 708.25607061 -316.43864483 707.18692382 -316.43862428 706.08537863 C-316.43858384 703.92330418 -316.43854205 701.76122972 -316.43849889 699.59915526 C-316.43788642 665.97606043 -316.44538907 632.3529757 -316.45907146 598.72988376 C-316.47445432 560.91287953 -316.48303634 523.09588192 -316.48210823 485.27887437 C-316.48203361 481.24116533 -316.4819849 477.20345629 -316.48195392 473.16574725 C-316.48194226 472.17163746 -316.48193061 471.17752766 -316.4819186 470.15329333 C-316.48188791 454.20201242 -316.48825547 438.25074032 -316.49688618 422.29946203 C-316.50539074 406.24859765 -316.50633077 390.19774606 -316.49977686 374.14688067 C-316.49609979 364.63009127 -316.49785801 355.11334091 -316.5077192 345.5965557 C-316.51376626 339.21783051 -316.51237193 332.83913327 -316.5052487 326.4604093 C-316.50140656 322.84043388 -316.50047499 319.22053339 -316.50870605 315.60056357 C-316.56469842 289.16866635 -315.46156386 263.10321268 -310.25326091 237.13466892 C-310.07955974 236.26358493 -309.90585856 235.39250095 -309.72689372 234.49502048 C-296.49534914 170.09824251 -259.35273473 107.74479969 -207.25326091 67.13466892 C-206.19840704 66.27970669 -205.14508908 65.42284688 -204.09310466 64.56435642 C-190.1295895 53.25232191 -175.13155253 43.53402619 -159.25326091 35.13466892 C-158.62274821 34.8001572 -157.99223552 34.46564548 -157.34261638 34.12099704 C-152.69857109 31.67939291 -147.99950107 29.37063286 -143.25326091 27.13466892 C-142.50044841 26.7790488 -141.74763591 26.42342868 -140.97201091 26.0570322 C-96.10224499 5.16270247 -48.91198231 -0.03673279 0 0 Z " fill="#1A374C" transform="translate(316.2532609086484,0.8653310844674706)"/>
<path d="M0 0 C3.18552466 1.5198731 5.3461277 3.09711386 7.84992599 5.60383034 C8.98526736 6.73319856 8.98526736 6.73319856 10.14354491 7.88538229 C10.96844743 8.7161105 11.79334995 9.5468387 12.64324951 10.40274048 C13.9653217 11.72224939 13.9653217 11.72224939 15.31410241 13.06841505 C17.76005617 15.51164156 20.20143626 17.95928207 22.64100528 20.40887403 C25.27265448 23.04915225 27.91007282 25.68365631 30.54679871 28.31886292 C35.11449018 32.8855052 39.67850266 37.45579793 44.24004364 42.02858353 C50.83528714 48.64007432 57.43603991 55.24604202 64.03815463 61.8506705 C74.74924137 72.56613555 85.45585326 83.28606024 96.15966797 94.00878906 C106.55804203 104.42551839 116.95851254 114.84014714 127.36181641 125.25195312 C128.00296956 125.89363173 128.64412272 126.53531033 129.30470476 127.19643374 C132.52116313 130.41550217 135.73766284 133.6345293 138.9541831 136.85353589 C165.64253361 163.56262314 192.32362921 190.27894798 219 217 C215.58588848 221.05169472 212.13214023 224.99246832 208.37733459 228.7361908 C207.50413071 229.60932419 206.63092682 230.48245758 205.73126221 231.38204956 C204.78190345 232.32627624 203.83250012 233.27045812 202.88305664 234.21459961 C201.86868813 235.2270455 200.8545496 236.23972186 199.84062195 237.25260925 C197.66824888 239.42183746 195.49433606 241.58950612 193.31920052 243.75596428 C189.87371414 247.18784782 186.43211701 250.62361422 182.99107361 254.05995178 C175.06443592 261.97458135 167.13278631 269.88418196 159.20107269 277.79372406 C151.92998124 285.04459111 144.65997524 292.29653783 137.39402479 299.55255705 C133.97947189 302.96215392 130.5625021 306.36930368 127.14360631 309.77454555 C125.01006 311.90058509 122.87863017 314.02873707 120.74774361 316.15744209 C119.76629832 317.13702964 118.78399629 318.11575976 117.80073166 319.09352112 C116.4480077 320.43891747 115.09876846 321.78781471 113.74964905 323.13682556 C112.99696275 323.88729125 112.24427645 324.63775694 111.46878147 325.41096401 C109.59157801 327.37960618 107.82892326 329.36197233 106.06792641 331.42955017 C100.42212293 337.92036557 94.24232302 343.90970631 88.16352844 349.9903717 C86.74532765 351.41259232 85.32733678 352.83502228 83.90953702 354.25764269 C80.02459394 358.15449672 76.13654351 362.04823722 72.24793136 365.9414295 C68.05057222 370.14476469 63.85603065 374.35091013 59.66104126 378.55661011 C49.54208837 388.70002718 39.41823721 398.83854972 29.29350951 408.97620192 C26.43506423 411.83832074 23.57678354 414.7006039 20.71853995 417.56292415 C2.97082632 435.33588463 -14.77848953 453.1072434 -32.53261089 470.87380314 C-36.63968418 474.98379759 -40.74673425 479.09381524 -44.85375977 483.20385742 C-45.36398757 483.71445613 -45.87421537 484.22505485 -46.39990462 484.75112625 C-62.96934318 501.3327398 -79.5293509 517.92373134 -96.08404516 534.52006434 C-113.10792325 551.58668322 -130.1398245 568.64525102 -147.18246654 585.6931335 C-149.58659455 588.09800198 -151.99063743 590.50295554 -154.39463234 592.90795708 C-154.86775776 593.38127311 -155.34088318 593.85458915 -155.82834573 594.34224809 C-163.45377911 601.97120021 -171.07077883 609.60851978 -178.68476919 617.24889056 C-186.32690807 624.91710922 -193.97834479 632.5759495 -201.63882526 640.22584534 C-205.79147972 644.37328951 -209.93989111 648.52476529 -214.07761955 652.68710518 C-217.85967114 656.4914659 -221.65290086 660.28428289 -225.45565996 664.06794172 C-226.83472874 665.44418475 -228.20951416 666.82473499 -229.57971378 668.20980848 C-231.4321188 670.0810985 -233.2990088 671.93656976 -235.17060375 673.78863621 C-235.977276 674.61458229 -235.977276 674.61458229 -236.80024466 675.45721415 C-238.31193465 676.9340778 -238.31193465 676.9340778 -241 679 C-244.24822014 678.9493112 -244.93437014 678.06341033 -247.312603 675.76560688 C-248.21506679 674.74769205 -249.11032803 673.72336774 -250.00018311 672.69441223 C-255.216274 666.86571646 -260.62119103 661.26284123 -266.14971924 655.73002625 C-266.99537901 654.88311836 -267.84103879 654.03621047 -268.71232462 653.16363871 C-270.99173257 650.88390255 -273.27291619 648.60596262 -275.55501437 646.32892001 C-278.03928265 643.84902785 -280.52060083 641.36618662 -283.00230408 638.88372803 C-287.28774865 634.5977627 -291.57499953 630.31361139 -295.86353302 626.03073692 C-302.06379666 619.83864959 -308.26125039 613.64375601 -314.45805284 607.44820509 C-324.51548648 597.39295241 -334.57514459 587.33992829 -344.63623047 577.28833008 C-354.40140928 567.53235024 -364.16552236 557.77530579 -373.92822266 548.0168457 C-374.83303379 547.11242866 -374.83303379 547.11242866 -375.75612393 546.18974056 C-378.78266005 543.16450962 -381.80917542 540.13925792 -384.83568048 537.11399591 C-409.88723924 512.07277995 -434.94242028 487.03519101 -460 462 C-458.64893767 458.9882608 -457.1449311 456.89526155 -454.8148936 454.56649661 C-454.15389394 453.90100236 -453.49289427 453.23550811 -452.81186432 452.54984736 C-451.71756004 451.46342413 -451.71756004 451.46342413 -450.60114861 450.35505295 C-449.82556577 449.57716242 -449.04998293 448.7992719 -448.25089759 447.99780893 C-445.62935134 445.37093425 -443.00068307 442.75130227 -440.37203979 440.13153076 C-438.48072621 438.23934569 -436.58981353 436.34676768 -434.69938576 434.4536984 C-430.5774238 430.32758484 -426.45175111 426.20521083 -422.32365036 422.08523941 C-416.18530407 415.95894768 -410.05268492 409.82694702 -403.921242 403.69374707 C-393.60774839 393.37762359 -383.28959986 383.06616783 -372.96880722 372.75734711 C-362.74720429 362.54757071 -352.52766537 352.33573563 -342.31088638 342.1211319 C-341.67607704 341.48646003 -341.04126769 340.85178816 -340.3872217 340.19788382 C-337.16346968 336.97480845 -333.9397546 333.75169614 -330.71605374 330.52856961 C-307.87150349 307.68822225 -285.02231792 284.85251718 -262.17041016 262.01953125 C-239.96754384 239.83502816 -217.76677509 217.6484294 -195.56884766 195.45898438 C-194.8848331 194.77523287 -194.20081855 194.09148137 -193.49607628 193.38701012 C-186.62703948 186.52061032 -179.75804536 179.65416784 -172.8890825 172.78769407 C-158.89571352 158.79939776 -144.90205968 144.81138643 -130.90823364 130.82354736 C-130.2647943 130.1803826 -129.62135495 129.53721783 -128.95841744 128.87456322 C-85.977049 85.91160187 -42.98904051 42.95528445 0 0 Z " fill="#54E4C4" transform="translate(786,435)"/>
<path d="M0 0 C3.21973122 1.41784119 5.37001094 3.12102493 7.84992599 5.60383034 C8.60682024 6.35674248 9.36371448 7.10965463 10.14354491 7.88538229 C10.96844743 8.7161105 11.79334995 9.5468387 12.64324951 10.40274048 C13.9653217 11.72224939 13.9653217 11.72224939 15.31410241 13.06841505 C17.76005617 15.51164156 20.20143626 17.95928207 22.64100528 20.40887403 C25.27265448 23.04915225 27.91007282 25.68365631 30.54679871 28.31886292 C35.11449018 32.8855052 39.67850266 37.45579793 44.24004364 42.02858353 C50.83528714 48.64007432 57.43603991 55.24604202 64.03815463 61.8506705 C74.74924137 72.56613555 85.45585326 83.28606024 96.15966797 94.00878906 C106.55804203 104.42551839 116.95851254 114.84014714 127.36181641 125.25195312 C128.00296956 125.89363173 128.64412272 126.53531033 129.30470476 127.19643374 C132.52116313 130.41550217 135.73766284 133.6345293 138.9541831 136.85353589 C165.64253361 163.56262314 192.32362921 190.27894798 219 217 C214.00737903 223.02432003 208.60168138 228.54128125 203.06671143 234.06700134 C202.06042292 235.07516058 201.0543501 236.08353514 200.04847312 237.09210497 C197.29755054 239.84911865 194.54353828 242.60302742 191.78897786 245.35640585 C188.81382237 248.33135668 185.84153432 251.30917013 182.86885071 254.28659058 C177.05186265 260.11186887 171.2321139 265.93438141 165.41125855 271.75579511 C160.68292164 276.48460756 155.95537609 281.2142097 151.22838593 285.94436836 C137.82923417 299.35231899 124.42799559 312.75817879 111.02406839 326.16135543 C110.30214633 326.88323753 109.58022427 327.60511963 108.83642578 328.34887695 C108.11362402 329.07163783 107.39082226 329.79439871 106.64611742 330.53906143 C94.91025367 342.27451799 83.17939644 354.01496507 71.45077839 365.75766271 C59.41067488 377.81210596 47.36687137 389.86284138 35.31916308 401.90968424 C28.55396857 408.67454615 21.79033632 415.44095351 15.0306778 422.21134758 C9.28112429 427.96997407 3.52816324 433.72516858 -2.2293357 439.47585165 C-5.16880252 442.41203819 -8.10659943 445.34984768 -11.04011345 448.29198265 C-13.72129354 450.98096153 -16.4069789 453.6653504 -19.09645048 456.34603555 C-20.07247995 457.32051539 -21.04679516 458.2967156 -22.01928386 459.27472901 C-23.33348601 460.59590601 -24.65436584 461.91043084 -25.97564316 463.22453213 C-26.7098076 463.95891394 -27.44397205 464.69329575 -28.2003839 465.44993156 C-30 467 -30 467 -32 467 C-30.988117 463.87923934 -29.9258916 460.81405529 -28.7109375 457.765625 C-22.95543605 442.61956855 -23.28439196 427.04596028 -29.21875 411.88671875 C-32.64013837 404.40718362 -37.22157453 398.76724142 -43 393 C-43.61294922 392.38543945 -44.22589844 391.77087891 -44.85742188 391.13769531 C-48.991457 386.9974709 -48.991457 386.9974709 -53.15185547 382.88378906 C-53.80557129 382.23893555 -54.45928711 381.59408203 -55.1328125 380.9296875 C-55.70918457 380.36491699 -56.28555664 379.80014648 -56.87939453 379.21826172 C-58.57289489 377.44677377 -60.13743692 375.65402298 -61.71653748 373.78445435 C-67.6912695 366.94785575 -74.23075738 360.63864613 -80.65600586 354.23046875 C-82.14491913 352.74183788 -83.63361159 351.25298614 -85.12210083 349.76393127 C-89.14618185 345.73956432 -93.17333024 341.71827976 -97.20105052 337.69755554 C-101.41623003 333.48864346 -105.62856231 329.27688377 -109.84120178 325.06542969 C-117.81109797 317.09863683 -125.78353901 309.13439571 -133.75690514 301.17107582 C-142.83747181 292.10170129 -151.91518621 283.02947415 -160.99266613 273.95701027 C-179.65861295 255.30150523 -198.32812587 236.6495724 -217 218 C-212.35577039 212.42383453 -207.40710076 207.26821667 -202.26809692 202.14784241 C-201.40134083 201.28023189 -200.53458473 200.41262136 -199.6415633 199.51871961 C-197.25118743 197.12698744 -194.85860296 194.7375053 -192.46503544 192.34896982 C-189.87843127 189.76670172 -187.29473583 187.18152605 -184.7106781 184.59671021 C-180.23851178 180.12402065 -175.76452456 175.65315931 -171.28927994 171.18354988 C-164.81890469 164.72131676 -158.35130683 158.25630977 -151.88437401 151.79063194 C-141.39101814 141.29946233 -130.89543309 130.81052581 -120.3984375 120.32299805 C-110.20422914 110.13797483 -100.01107616 99.9518973 -89.81933594 89.7644043 C-88.87631635 88.82177879 -88.87631635 88.82177879 -87.91424586 87.86011035 C-84.76021341 84.70738298 -81.60620165 81.55463492 -78.45220017 78.40187657 C-52.304673 52.26470874 -26.15352436 26.13116682 0 0 Z " fill="#FEFEFE" transform="translate(543,195)"/>
</svg>
