<?xml version="1.0" encoding="UTF-8"?>
<svg version="1.1" xmlns="http://www.w3.org/2000/svg" width="4096" height="4096">
<path d="M0 0 C2.36977983 -0.00302708 4.73955868 -0.00691933 7.10933584 -0.01159257 C12.89413323 -0.02074385 18.67887801 -0.02074488 24.46368001 -0.01668095 C31.40479112 -0.01232359 38.34587844 -0.01964121 45.28698509 -0.02717223 C59.67397854 -0.04235474 74.06095428 -0.04412319 88.44795407 -0.0416492 C99.56471524 -0.03981126 110.68147067 -0.04158662 121.79823112 -0.04587364 C123.39957193 -0.04647606 125.00091273 -0.04707726 126.60225354 -0.04767724 C129.01581245 -0.04858457 131.42937136 -0.04949325 133.84293027 -0.0504096 C156.26300136 -0.05883066 178.68307029 -0.06318074 201.10314274 -0.05900288 C202.36905789 -0.05876831 202.36905789 -0.05876831 203.66054708 -0.05852901 C207.9372514 -0.05772332 212.21395571 -0.05687755 216.49066002 -0.05601571 C217.3399112 -0.05584462 218.18916239 -0.05567353 219.06414845 -0.05549726 C220.78153836 -0.0551506 222.49892826 -0.05480207 224.21631816 -0.05445167 C250.92510388 -0.04909725 277.63385655 -0.05702043 304.34263611 -0.07548523 C334.40390856 -0.09624378 364.46516055 -0.10692052 394.52644056 -0.10290974 C397.7375615 -0.10251445 400.94868244 -0.10215289 404.15980339 -0.10181236 C405.34564504 -0.10167627 405.34564504 -0.10167627 406.55544308 -0.10153742 C418.44240755 -0.10037588 430.32935122 -0.10698583 442.2163105 -0.11762428 C455.75113164 -0.12972575 469.28590726 -0.13117874 482.82072914 -0.11883412 C489.71622438 -0.11282489 496.61163881 -0.11137684 503.50712776 -0.12383652 C509.83809586 -0.13477996 516.16890204 -0.13149262 522.49986284 -0.11757483 C524.77160111 -0.11495096 527.04335242 -0.11722027 529.31507779 -0.1253107 C597.62518582 -0.35140566 662.21122608 22.78628228 712.28330994 69.78413391 C714.45898181 71.80667932 716.66901717 73.73237905 718.94737244 75.63569641 C741.6650487 95.49609793 757.10147866 122.43649054 771.94737244 148.26069641 C773.18119378 150.39773491 774.41556953 152.53445342 775.65049744 154.67085266 C778.79004456 160.10425686 781.92401685 165.54085199 785.05625916 170.97846985 C788.18417392 176.40729583 791.31595691 181.83388922 794.44737244 187.26069641 C795.69739123 189.42735224 796.94739122 191.59401891 798.19737244 193.76069641 C798.81612244 194.83319641 799.43487244 195.90569641 800.07237244 197.01069641 C805.69737243 206.7606964 805.69737243 206.7606964 807.57261658 210.01118469 C808.82172762 212.17626712 810.07091373 214.34130623 811.32017517 216.50630188 C814.45939553 221.94685347 817.59727806 227.38816857 820.73252869 232.83100891 C826.75484572 243.28275841 832.79406581 253.72369189 838.88487244 264.13569641 C844.30695942 273.40633572 849.65061255 282.7200634 854.96760559 292.05116272 C859.58221272 300.14777484 864.2382213 308.21858442 868.94737244 316.26069641 C874.00368166 324.89567198 878.99344366 333.5667596 883.94737244 342.26069641 C889.48723177 351.98194147 895.08112175 361.6696451 900.7308197 371.32759094 C906.88503985 381.85154266 912.9710724 392.41449779 919.05625916 402.97846985 C922.18417392 408.40729583 925.31595691 413.83388922 928.44737244 419.26069641 C929.69739123 421.42735224 930.94739122 423.59401891 932.19737244 425.76069641 C932.81612244 426.83319641 933.43487244 427.90569641 934.07237244 429.01069641 C1074.69737243 672.7606964 1074.69737243 672.7606964 1076.57261658 676.01118469 C1077.82172762 678.17626712 1079.07091373 680.34130623 1080.32017517 682.50630188 C1083.45939553 687.94685347 1086.59727806 693.38816857 1089.73252869 698.83100891 C1095.75484572 709.28275841 1101.79406581 719.72369189 1107.88487244 730.13569641 C1113.30695942 739.40633572 1118.65061255 748.7200634 1123.96760559 758.05116272 C1128.58221321 766.1477757 1133.23830668 774.2185339 1137.94737244 782.26069641 C1143.66996041 792.03566283 1149.30580743 801.85856701 1154.91612244 811.69819641 C1159.40292999 819.56607079 1163.91508974 827.41890996 1168.44737244 835.26069641 C1173.63977743 844.24610577 1178.80403427 853.24714975 1183.94737244 862.26069641 C1191.57075448 875.61907655 1199.25153269 888.94393527 1206.94737244 902.26069641 C1214.98274636 916.1649822 1222.99640242 930.08104621 1230.9563446 944.02864075 C1238.24426798 956.79717781 1245.59106412 969.53145517 1252.94737244 982.26069641 C1260.98274636 996.1649822 1268.99640242 1010.08104621 1276.9563446 1024.02864075 C1284.24426798 1036.79717781 1291.59106412 1049.53145517 1298.94737244 1062.26069641 C1306.98274636 1076.1649822 1314.99640242 1090.08104621 1322.9563446 1104.02864075 C1330.24426798 1116.79717781 1337.59106412 1129.53145517 1344.94737244 1142.26069641 C1352.98274636 1156.1649822 1360.99640242 1170.08104621 1368.9563446 1184.02864075 C1376.24426798 1196.79717781 1383.59106412 1209.53145517 1390.94737244 1222.26069641 C1398.98274636 1236.1649822 1406.99640242 1250.08104621 1414.9563446 1264.02864075 C1422.24426798 1276.79717781 1429.59106412 1289.53145517 1436.94737244 1302.26069641 C1444.98274636 1316.1649822 1452.99640242 1330.08104621 1460.9563446 1344.02864075 C1465.7873662 1352.49265376 1470.63755724 1360.94536497 1475.50987244 1369.38569641 C1476.12112976 1370.44466125 1476.73238708 1371.5036261 1477.36216736 1372.59468079 C1480.5277429 1378.07650057 1483.69716254 1383.55607848 1486.86924744 1389.03413391 C1490.57446878 1395.43582765 1494.26487098 1401.84591137 1497.94737244 1408.26069641 C1498.42545349 1409.090047 1498.90353455 1409.91939758 1499.39610291 1410.77388 C1522.63301516 1451.19295598 1537.37590549 1494.65094492 1538.77159119 1541.56538391 C1538.91748605 1544.63241805 1539.34780188 1547.27228568 1539.94737244 1550.26069641 C1543.25792092 1607.49498647 1519.09781734 1660.14239519 1490.78868103 1708.12641907 C1487.66432224 1713.44470574 1484.58770325 1718.79039122 1481.50987244 1724.13569641 C1480.88757751 1725.21552795 1480.26528259 1726.2953595 1479.62413025 1727.40791321 C1478.36204992 1729.59798419 1477.10016872 1731.78816994 1475.83848572 1733.97846985 C1472.71057095 1739.40729583 1469.57878796 1744.83388922 1466.44737244 1750.26069641 C1465.19735365 1752.42735224 1463.94735365 1754.59401891 1462.69737244 1756.76069641 C1406.44737244 1854.26069641 1406.44737244 1854.26069641 1350.19737244 1951.76069641 C1349.26912659 1953.36968811 1349.26912659 1953.36968811 1348.3221283 1955.01118469 C1347.07301726 1957.17626712 1345.82383114 1959.34130623 1344.5745697 1961.50630188 C1341.43534934 1966.94685347 1338.29746681 1972.38816857 1335.16221619 1977.83100891 C1329.13989915 1988.28275841 1323.10067906 1998.72369189 1317.00987244 2009.13569641 C1311.9346212 2017.81331882 1306.92478477 2026.52675209 1301.94737244 2035.26069641 C1296.40816619 2044.98042942 1290.81591151 2054.66719327 1285.16612244 2064.32319641 C1280.89853962 2071.61969854 1276.66594492 2078.93576004 1272.44737244 2086.26069641 C1266.47374709 2096.6297757 1260.46261334 2106.9762563 1254.42393494 2117.30757141 C1252.05781189 2121.35576611 1249.69911073 2125.40815986 1247.34580994 2129.46382141 C1243.89642973 2135.4060074 1240.42688789 2141.33611605 1236.94737244 2147.26069641 C1236.46703552 2148.08295715 1235.98669861 2148.9052179 1235.49180603 2149.75239563 C1226.14430206 2165.69852779 1215.66004505 2180.80324096 1202.94737244 2194.26069641 C1201.81708077 2195.56864213 1200.69193932 2196.8810589 1199.57237244 2198.19819641 C1191.76268312 2207.12355564 1183.2311898 2214.90393775 1173.94737244 2222.26069641 C1172.80242297 2223.20522953 1171.65928107 2224.15195681 1170.51768494 2225.10054016 C1126.72177178 2261.26214156 1067.57809439 2282.51481859 1010.74818605 2282.38834691 C1009.68136815 2282.38999769 1008.61455024 2282.39164847 1007.51540452 2282.39334927 C1003.95140009 2282.39765281 1000.38743741 2282.39487971 996.82343197 2282.39212418 C994.22707141 2282.39377482 991.6307111 2282.39586156 989.0343512 2282.39834428 C983.37713918 2282.40304411 977.71993591 2282.40404616 972.06272226 2282.40261593 C963.59343266 2282.40049056 955.12415208 2282.40411413 946.65486388 2282.40883071 C932.21891866 2282.41669657 917.78297592 2282.41979238 903.34702873 2282.42027664 C888.71808756 2282.4207792 874.08914916 2282.42342789 859.46020889 2282.42868423 C858.07401169 2282.42917943 858.07401169 2282.42917943 856.6598105 2282.42968464 C852.89590961 2282.43103465 849.13200872 2282.43239732 845.36810783 2282.43377674 C800.81574185 2282.45007556 756.2633764 2282.45646498 711.71100794 2282.46122461 C689.52332601 2282.46360834 667.33564438 2282.46731192 645.14796268 2282.47126171 C573.96581819 2282.48392618 502.78367371 2282.49470982 431.60152812 2282.49810217 C428.19967632 2282.49826441 424.79782452 2282.49842997 421.39597273 2282.49859655 C414.5735812 2282.49893035 407.75118967 2282.49926083 400.92879814 2282.49959111 C392.94154891 2282.49997801 384.95429969 2282.50036762 376.96705047 2282.50076218 C374.68104065 2282.5008746 372.39503083 2282.50098601 370.10902102 2282.50109643 C296.70157871 2282.50464531 223.2941462 2282.51972147 149.88670764 2282.54303417 C97.13620077 2282.55977987 44.38569575 2282.57525257 -8.3648138 2282.57976913 C-9.45006614 2282.57986262 -10.53531848 2282.57995611 -11.65345725 2282.58005242 C-35.47969105 2282.58207166 -59.30592483 2282.58322755 -83.13215871 2282.58358101 C-91.65816765 2282.58371718 -100.18417658 2282.58392617 -108.71018552 2282.58417426 C-110.83120251 2282.58423582 -112.95221951 2282.58429414 -115.0732365 2282.58434921 C-148.84576327 2282.58526835 -182.61827981 2282.59522845 -216.39080321 2282.6098067 C-250.41777926 2282.62443598 -284.44474277 2282.6294563 -318.47172141 2282.62138716 C-323.17929695 2282.62027186 -327.88687251 2282.61926118 -332.59444809 2282.61831284 C-333.97859988 2282.61802788 -333.97859988 2282.61802788 -335.39071433 2282.61773718 C-349.97056204 2282.61500919 -364.55038647 2282.62232728 -379.13022913 2282.6338862 C-393.48548204 2282.64505628 -407.84070222 2282.64542906 -422.19595567 2282.63451602 C-430.59911898 2282.6284462 -439.00218319 2282.63044279 -447.40533704 2282.64476799 C-453.00420705 2282.6534797 -458.60300502 2282.65107093 -464.20187072 2282.64006928 C-467.36415415 2282.63415374 -470.52621077 2282.63424541 -473.68848756 2282.64475414 C-495.344793 2282.71193365 -517.06070641 2281.37585862 -538.24012756 2276.57319641 C-539.38610413 2276.3190094 -540.53208069 2276.06482239 -541.71278381 2275.80293274 C-560.6617092 2271.43563419 -578.60294626 2264.79198258 -596.05262756 2256.26069641 C-597.12770569 2255.74152649 -597.12770569 2255.74152649 -598.22450256 2255.21186829 C-616.16319829 2246.45844917 -632.7240912 2235.00171366 -648.05262756 2222.26069641 C-648.6199762 2221.79486145 -649.18732483 2221.32902649 -649.77186584 2220.84907532 C-662.76432286 2210.15046897 -674.73813241 2198.59153132 -685.05262756 2185.26069641 C-686.04543429 2184.01926459 -687.03897539 2182.77841984 -688.03309631 2181.53804016 C-702.06041562 2163.844393 -712.92148459 2144.18216765 -724.0262146 2124.58911133 C-727.54756316 2118.37951516 -731.10841766 2112.19289523 -734.67762756 2106.01069641 C-735.60357727 2104.40641785 -735.60357727 2104.40641785 -736.54823303 2102.76972961 C-741.27019661 2094.59729147 -746.02423905 2086.44380959 -750.78578186 2078.29438782 C-758.22712252 2065.55063502 -765.5828265 2052.7574659 -772.94813538 2039.96968079 C-779.62219068 2028.38387875 -786.30726841 2016.80516288 -793.05262756 2005.26069641 C-799.7996395 1993.71340125 -806.48602074 1982.13167614 -813.16151428 1970.54292297 C-816.28942902 1965.11409703 -819.42116487 1959.68747634 -822.55262756 1954.26069641 C-826.31626676 1947.73836366 -830.07907378 1941.21555879 -833.83778381 1934.69038391 C-839.86010085 1924.23863442 -845.89932094 1913.79770093 -851.99012756 1903.38569641 C-857.41183934 1894.11569864 -862.75467672 1884.80237889 -868.07185364 1875.47224426 C-873.27307885 1866.34786801 -878.53290634 1857.25936867 -883.83607483 1848.19380188 C-889.99029498 1837.66985016 -896.07632752 1827.10689504 -902.16151428 1816.54292297 C-905.28942905 1811.11409699 -908.42121204 1805.6875036 -911.55262756 1800.26069641 C-912.80264635 1798.09404058 -914.05264635 1795.92737391 -915.30262756 1793.76069641 C-915.92137756 1792.68819641 -916.54012756 1791.61569641 -917.17762756 1790.51069641 C-929.05262756 1769.92736308 -940.92762756 1749.34402974 -952.80262756 1728.76069641 C-953.73111511 1727.15158386 -953.73111511 1727.15158386 -954.67835999 1725.50996399 C-955.92653879 1723.34609637 -957.17409881 1721.18187169 -958.42103577 1719.01728821 C-961.56888799 1713.55468161 -964.72769743 1708.09895817 -967.90809631 1702.65522766 C-1003.34043361 1641.90572526 -1022.5022467 1577.90334148 -1011.05262756 1507.26069641 C-1010.90229065 1506.30324524 -1010.75195374 1505.34579407 -1010.59706116 1504.35932922 C-1004.30135728 1465.90519607 -987.64549737 1431.67446946 -967.94374084 1398.46235657 C-964.76895833 1393.08744075 -961.66462988 1387.67211591 -958.55262756 1382.26069641 C-957.302961 1380.09383741 -956.05296106 1377.92717064 -954.80262756 1375.76069641 C-953.87450256 1374.15194641 -953.87450256 1374.15194641 -952.92762756 1372.51069641 C-926.05262756 1325.92736308 -899.17762756 1279.34402974 -872.30262756 1232.76069641 C-871.683797 1231.68803528 -871.06496643 1230.61537415 -870.42738342 1229.51020813 C-869.17827238 1227.3451257 -867.92908627 1225.18008659 -866.67982483 1223.01509094 C-863.54060447 1217.57453935 -860.40272194 1212.13322425 -857.26747131 1206.69038391 C-851.24515428 1196.23863442 -845.20593419 1185.79770093 -839.11512756 1175.38569641 C-833.69304058 1166.11505711 -828.34938745 1156.80132943 -823.03239441 1147.4702301 C-817.85883969 1138.39291006 -812.62120602 1129.35498108 -807.34169006 1120.33882141 C-802.86096491 1112.67495667 -798.44768532 1104.97383807 -794.05262756 1097.26069641 C-788.51276823 1087.53945136 -782.91887825 1077.85174773 -777.2691803 1068.19380188 C-771.11496015 1057.66985016 -765.0289276 1047.10689504 -758.94374084 1036.54292297 C-755.81582608 1031.11409699 -752.68404309 1025.6875036 -749.55262756 1020.26069641 C-748.30260877 1018.09404058 -747.05260878 1015.92737391 -745.80262756 1013.76069641 C-682.05262756 903.26069641 -682.05262756 903.26069641 -618.30262756 792.76069641 C-617.683797 791.68803528 -617.06496643 790.61537415 -616.42738342 789.51020813 C-615.17827238 787.3451257 -613.92908627 785.18008659 -612.67982483 783.01509094 C-609.54060447 777.57453935 -606.40272194 772.13322425 -603.26747131 766.69038391 C-597.24515428 756.23863442 -591.20593419 745.79770093 -585.11512756 735.38569641 C-579.69304058 726.11505711 -574.34938745 716.80132943 -569.03239441 707.4702301 C-563.85883969 698.39291006 -558.62120602 689.35498108 -553.34169006 680.33882141 C-548.86096491 672.67495667 -544.44768532 664.97383807 -540.05262756 657.26069641 C-534.51276823 647.53945136 -528.91887825 637.85174773 -523.2691803 628.19380188 C-517.11496015 617.66985016 -511.0289276 607.10689504 -504.94374084 596.54292297 C-501.81582608 591.11409699 -498.68404309 585.6875036 -495.55262756 580.26069641 C-494.30260877 578.09404058 -493.05260878 575.92737391 -491.80262756 573.76069641 C-428.05262756 463.26069641 -428.05262756 463.26069641 -364.30262756 352.76069641 C-363.683797 351.68803528 -363.06496643 350.61537415 -362.42738342 349.51020813 C-361.17827238 347.3451257 -359.92908627 345.18008659 -358.67982483 343.01509094 C-355.54060447 337.57453935 -352.40272194 332.13322425 -349.26747131 326.69038391 C-343.24515428 316.23863442 -337.20593419 305.79770093 -331.11512756 295.38569641 C-325.69304058 286.11505711 -320.34938745 276.80132943 -315.03239441 267.4702301 C-309.85883969 258.39291006 -304.62120602 249.35498108 -299.34169006 240.33882141 C-294.86096491 232.67495667 -290.44768532 224.97383807 -286.05262756 217.26069641 C-280.51276823 207.53945136 -274.91887825 197.85174773 -269.2691803 188.19380188 C-265.02645261 180.93857534 -260.8132293 173.66683011 -256.61512756 166.38569641 C-255.9946051 165.31110168 -255.37408264 164.23650696 -254.73475647 163.12934875 C-251.53643447 157.58675033 -248.35333684 152.03613013 -245.19325256 146.47163391 C-233.07994688 125.19562063 -220.37960565 104.86243218 -203.56434631 86.95991516 C-201.52901905 84.77265056 -199.59141705 82.55251838 -197.67762756 80.26069641 C-188.72586019 69.9906165 -177.91477286 61.4080637 -167.05262756 53.26069641 C-166.4949469 52.8407843 -165.93726624 52.42087219 -165.36268616 51.98823547 C-132.49457639 27.4162783 -94.5896024 11.96838196 -54.42762756 4.01069641 C-53.67835999 3.85947327 -52.92909241 3.70825012 -52.15711975 3.55244446 C-34.89164768 0.34997786 -17.50448578 -0.03205729 0 0 Z M261.94737244 734.26069641 C260.58810627 736.09845935 260.58810627 736.09845935 259.25205994 738.52632141 C258.70936462 739.46475891 258.16666931 740.40319641 257.60752869 741.37007141 C257.01842712 742.40647766 256.42932556 743.44288391 255.82237244 744.51069641 C255.2049115 745.58319641 254.58745056 746.65569641 253.95127869 747.76069641 C252.28332345 750.66206944 250.6221876 753.56710551 248.96531677 756.47480774 C247.62952681 758.81832701 246.29062281 761.16006023 244.95179749 763.50184631 C242.60280758 767.61058261 240.25515542 771.72007378 237.91172791 775.83198547 C233.07510153 784.31471981 228.17059327 792.75620056 223.23643494 801.18257141 C218.75571098 808.84643411 214.34230492 816.54748477 209.94737244 824.26069641 C204.9935842 832.95471327 200.00358874 841.6256687 194.94737244 850.26069641 C189.91547453 858.85586931 184.94348119 867.48381863 180.00987244 876.13569641 C172.98133736 888.46094837 165.90496809 900.75791708 158.80625916 913.04292297 C155.68412639 918.44740287 152.56596039 923.85417053 149.44737244 929.26069641 C148.19739122 931.42737391 146.94739123 933.59404058 145.69737244 935.76069641 C145.07862244 936.83319641 144.45987244 937.90569641 143.82237244 939.01069641 C81.94737244 1046.26069641 20.07237244 1153.51069641 -178.68006897 1498.01460266 C-179.92230718 1500.1680315 -181.16417293 1502.32167525 -182.40565491 1504.47554016 C-185.3039256 1509.50276396 -188.20560829 1514.52790643 -191.12117004 1519.54512024 C-192.14678384 1521.31044852 -193.17117421 1523.07648112 -194.19520569 1524.84272766 C-195.47534222 1527.04985961 -196.75773423 1529.25568564 -198.04286194 1531.45991516 C-198.62616272 1532.46667297 -199.2094635 1533.47343079 -199.81044006 1534.51069641 C-200.31720276 1535.38210266 -200.82396545 1536.25350891 -201.34608459 1537.15132141 C-203.70770511 1541.45426831 -205.85751465 1545.87047059 -208.05262756 1550.26069641 C102.80737244 1550.26069641 413.66737244 1550.26069641 733.94737244 1550.26069641 C729.62964398 1541.6252395 725.35923099 1533.27203898 720.44737244 1525.01069641 C719.21628257 1522.91991618 717.9858361 1520.82875699 716.75596619 1518.73725891 C716.12803162 1517.67152649 715.50009705 1516.60579407 714.85313416 1515.50776672 C711.7090619 1510.15084115 708.60939627 1504.76848205 705.50987244 1499.38569641 C704.88789978 1498.30642883 704.26592712 1497.22716125 703.62510681 1496.1151886 C702.36270304 1493.92454676 701.10049621 1491.73379141 699.83848572 1489.54292297 C696.71057095 1484.11409699 693.57878796 1478.6875036 690.44737244 1473.26069641 C689.19735365 1471.09404058 687.94735365 1468.92737391 686.69737244 1466.76069641 C685.76924744 1465.15194641 685.76924744 1465.15194641 684.82237244 1463.51069641 C622.94737244 1356.26069641 561.07237244 1249.01069641 469.19737244 1089.76069641 C468.578703 1088.68835754 467.96003357 1087.61601868 467.32261658 1086.51118469 C466.07172764 1084.34293377 464.82091392 1082.17463944 463.57017517 1080.00630188 C460.45938909 1074.61351726 457.34733006 1069.22147548 454.23252869 1063.83100891 C447.41234606 1052.02440158 440.62413984 1040.20042641 433.87001038 1028.35597229 C428.71401798 1019.31740213 423.4941657 1010.31792503 418.2361908 1001.33833313 C413.40864408 993.08145999 408.66188573 984.7797561 403.92686462 976.46968079 C399.3123444 968.37325508 394.65641988 960.30263132 389.94737244 952.26069641 C384.54380784 943.03269112 379.22084883 933.76074971 373.92686462 924.46968079 C369.3123444 916.37325508 364.65641988 908.30263132 359.94737244 900.26069641 C354.54380784 891.03269112 349.22084883 881.76074971 343.92686462 872.46968079 C339.3123444 864.37325508 334.65641988 856.30263132 329.94737244 848.26069641 C324.54380784 839.03269112 319.22084883 829.76074971 313.92686462 820.46968079 C308.75420591 811.39397087 303.51808443 802.35728282 298.2386322 793.34321594 C294.08045577 786.23223397 289.98293557 779.08798872 285.90690613 771.92976379 C280.49847437 762.43585855 275.07545551 752.95010426 269.57237244 743.51069641 C269.03088562 742.56951965 268.4893988 741.6283429 267.9315033 740.65864563 C267.43400574 739.81060364 266.93650818 738.96256165 266.42393494 738.08882141 C265.9916156 737.34535461 265.55929626 736.60188782 265.11387634 735.83589172 C264.53645691 735.05617004 264.53645691 735.05617004 263.94737244 734.26069641 C263.28737244 734.26069641 262.62737244 734.26069641 261.94737244 734.26069641 Z " fill="#00AB47" transform="translate(1785.0526275634766,906.7393035888672)"/>
<path d="M0 0 C5.53974204 2.6470386 10.59693628 5.54714857 15.625 9.0625 C16.65705566 9.77986328 16.65705566 9.77986328 17.70996094 10.51171875 C28.18113388 17.86126044 38.00889296 25.77031668 47.3359375 34.5234375 C49.51160937 36.5459829 51.72164473 38.47168264 54 40.375 C76.71767626 60.23540152 92.15410622 87.17579413 107 113 C108.23382134 115.1370385 109.4681971 117.27375701 110.703125 119.41015625 C113.84267212 124.84356045 116.97664442 130.28015558 120.10888672 135.71777344 C123.23680148 141.14659942 126.36858448 146.57319281 129.5 152 C130.75001879 154.16665583 132.00001878 156.3333225 133.25 158.5 C134.178125 160.10875 134.178125 160.10875 135.125 161.75 C140.75 171.5 140.75 171.5 142.62524414 174.75048828 C143.87435518 176.91557071 145.12354129 179.08060982 146.37280273 181.24560547 C149.51202309 186.68615706 152.64990563 192.12747216 155.78515625 197.5703125 C161.80747329 208.02206199 167.84669337 218.46299548 173.9375 228.875 C179.35958699 238.14563931 184.70324012 247.45936699 190.02023315 256.79046631 C194.63484029 264.88707843 199.29084886 272.95788801 204 281 C209.05630923 289.63497557 214.04607122 298.30606319 219 307 C224.53985933 316.72124506 230.13374932 326.40894868 235.78344727 336.06689453 C241.93766742 346.59084625 248.02369996 357.15380137 254.10888672 367.71777344 C257.23680148 373.14659942 260.36858448 378.57319281 263.5 384 C264.75001879 386.16665583 266.00001878 388.3333225 267.25 390.5 C268.178125 392.10875 268.178125 392.10875 269.125 393.75 C409.74999999 637.49999999 409.74999999 637.49999999 411.62524414 640.75048828 C412.87435518 642.91557071 414.12354129 645.08060982 415.37280273 647.24560547 C418.51202309 652.68615706 421.64990563 658.12747216 424.78515625 663.5703125 C430.80747329 674.02206199 436.84669337 684.46299548 442.9375 694.875 C448.35958699 704.14563931 453.70324012 713.45936699 459.02023315 722.79046631 C463.63484077 730.88707929 468.29093425 738.95783749 473 747 C478.72258797 756.77496642 484.35843499 766.5978706 489.96875 776.4375 C494.45555755 784.30537438 498.9677173 792.15821355 503.5 800 C508.692405 808.98540936 513.85666184 817.98645334 519 827 C526.62338204 840.35838013 534.30416025 853.68323886 542 867 C550.03537392 880.90428579 558.04902998 894.8203498 566.00897217 908.76794434 C573.29689554 921.5364814 580.64369169 934.27075876 588 947 C596.03537392 960.90428579 604.04902998 974.8203498 612.00897217 988.76794434 C619.29689554 1001.5364814 626.64369169 1014.27075876 634 1027 C642.03537392 1040.90428579 650.04902998 1054.8203498 658.00897217 1068.76794434 C665.29689554 1081.5364814 672.64369169 1094.27075876 680 1107 C688.03537392 1120.90428579 696.04902998 1134.8203498 704.00897217 1148.76794434 C711.29689554 1161.5364814 718.64369169 1174.27075876 726 1187 C734.03537392 1200.90428579 742.04902998 1214.8203498 750.00897217 1228.76794434 C757.29689554 1241.5364814 764.64369169 1254.27075876 772 1267 C780.03537392 1280.90428579 788.04902998 1294.8203498 796.00897217 1308.76794434 C800.83999376 1317.23195735 805.6901848 1325.68466856 810.5625 1334.125 C811.17375732 1335.18396484 811.78501465 1336.24292969 812.41479492 1337.33398438 C815.58037047 1342.81580416 818.74979011 1348.29538207 821.921875 1353.7734375 C825.62709634 1360.17513124 829.31749855 1366.58521496 833 1373 C833.47808105 1373.82935059 833.95616211 1374.65870117 834.44873047 1375.51318359 C857.68564273 1415.93225956 872.42853305 1459.39024851 873.82421875 1506.3046875 C873.97011361 1509.37172164 874.40042944 1512.01158926 875 1515 C878.31054848 1572.23429006 854.1504449 1624.88169878 825.84130859 1672.86572266 C822.71694981 1678.18400933 819.64033082 1683.52969481 816.5625 1688.875 C815.94020508 1689.95483154 815.31791016 1691.03466309 814.67675781 1692.1472168 C813.41467749 1694.33728778 812.15279628 1696.52747353 810.89111328 1698.71777344 C807.76319852 1704.14659942 804.63141552 1709.57319281 801.5 1715 C800.24998121 1717.16665583 798.99998122 1719.3333225 797.75 1721.5 C760.25 1786.5 722.75 1851.5 685.25 1916.5 C684.63116943 1917.57266113 684.01233887 1918.64532227 683.37475586 1919.75048828 C682.12564482 1921.91557071 680.87645871 1924.08060982 679.62719727 1926.24560547 C676.48797691 1931.68615706 673.35009437 1937.12747216 670.21484375 1942.5703125 C664.19252671 1953.02206199 658.15330663 1963.46299548 652.0625 1973.875 C646.98724877 1982.55262241 641.97741233 1991.26605568 637 2000 C631.46079375 2009.719733 625.86853907 2019.40649686 620.21875 2029.0625 C615.95116719 2036.35900213 611.71857249 2043.67506363 607.5 2051 C601.52637465 2061.36907929 595.51524091 2071.71555989 589.4765625 2082.046875 C587.11043946 2086.0950697 584.75173829 2090.14746345 582.3984375 2094.203125 C578.9490573 2100.14531099 575.47951545 2106.07541963 572 2112 C571.51966309 2112.82226074 571.03932617 2113.64452148 570.54443359 2114.49169922 C561.19692963 2130.43783138 550.71267261 2145.54254455 538 2159 C536.86970833 2160.30794571 535.74456689 2161.62036248 534.625 2162.9375 C526.81531068 2171.86285922 518.28381736 2179.64324134 509 2187 C507.85505053 2187.94453312 506.71190863 2188.8912604 505.5703125 2189.83984375 C498.9133256 2195.33208073 492.11946517 2200.42745383 484.875 2205.125 C484.16456543 2205.58632324 483.45413086 2206.04764648 482.72216797 2206.52294922 C479.22125807 2208.74669237 475.89093664 2210.51945216 472 2212 C471.6282666 2211.33170166 471.2565332 2210.66340332 470.87353516 2209.97485352 C461.5341651 2193.19311466 461.5341651 2193.19311466 451.88989258 2176.5859375 C448.14775591 2170.27328523 444.47618322 2163.92096234 440.8125 2157.5625 C440.17449463 2156.45527588 439.53648926 2155.34805176 438.87915039 2154.20727539 C437.57110523 2151.93662932 436.26324552 2149.66587642 434.95556641 2147.39501953 C431.80667944 2141.92830016 428.65311964 2136.46427871 425.5 2131 C424.2486933 2128.83073183 422.99739122 2126.661461 421.74609375 2124.4921875 C419.26069098 2120.18398349 416.77358023 2115.87677211 414.28515625 2111.5703125 C407.46497363 2099.76370516 400.6767674 2087.93973 393.92263794 2076.09527588 C389.32605777 2068.03736788 384.6867584 2060.00582214 380 2052 C374.9681931 2043.40477328 369.99610928 2034.7768787 365.0625 2026.125 C358.03396493 2013.79974804 350.95759566 2001.50277933 343.85888672 1989.21777344 C340.73675395 1983.81329355 337.61858796 1978.40652588 334.5 1973 C333.25001878 1970.8333225 332.00001879 1968.66665583 330.75 1966.5 C293.25 1901.5 255.75 1836.5 218.25 1771.5 C217.63133057 1770.42766113 217.01266113 1769.35532227 216.37524414 1768.25048828 C215.1243552 1766.08223736 213.87354148 1763.91394303 212.62280273 1761.74560547 C209.51201665 1756.35282085 206.39995762 1750.96077907 203.28515625 1745.5703125 C196.46497363 1733.76370516 189.6767674 1721.93973 182.92263794 1710.09527588 C177.76664555 1701.05670572 172.54679327 1692.05722862 167.28881836 1683.07763672 C162.46127164 1674.82076358 157.71451329 1666.51905969 152.97949219 1658.20898438 C148.36497196 1650.11255867 143.70904745 1642.04193491 139 1634 C133.5964354 1624.77199471 128.27347639 1615.5000533 122.97949219 1606.20898438 C118.36497196 1598.11255867 113.70904745 1590.04193491 109 1582 C103.60164157 1572.78088561 98.27976549 1563.52001818 92.99560547 1554.23516846 C89.32624277 1547.78801574 85.63664272 1541.35478612 81.875 1534.9609375 C81.22273438 1533.85105469 80.57046875 1532.74117187 79.8984375 1531.59765625 C78.65753837 1529.49119168 77.41290045 1527.38692394 76.1640625 1525.28515625 C75.61492188 1524.35316406 75.06578125 1523.42117188 74.5 1522.4609375 C74.0153125 1521.64415527 73.530625 1520.82737305 73.03125 1519.98583984 C72 1518 72 1518 72 1516 C71.40106934 1515.76941895 70.80213867 1515.53883789 70.18505859 1515.30126953 C67.39993038 1513.6426401 66.57214671 1512.02447378 65.0390625 1509.1796875 C64.49266113 1508.18219482 63.94625977 1507.18470215 63.38330078 1506.15698242 C62.80306152 1505.07392822 62.22282227 1503.99087402 61.625 1502.875 C60.36649994 1500.57577281 59.10603434 1498.27762053 57.84375 1495.98046875 C57.52310577 1495.39435318 57.20246155 1494.80823761 56.87210083 1494.20436096 C53.72866561 1488.46922637 50.44141099 1482.8237837 47.125 1477.1875 C42.02290674 1468.49222123 36.9899092 1459.7599266 32 1451 C27.04650609 1442.30581933 22.05630535 1433.63496896 17 1425 C11.5964354 1415.77199471 6.27347639 1406.5000533 0.97949219 1397.20898438 C-3.63502804 1389.11255867 -8.29095255 1381.04193491 -13 1373 C-18.4035646 1363.77199471 -23.72652361 1354.5000533 -29.02050781 1345.20898438 C-33.63502804 1337.11255867 -38.29095255 1329.04193491 -43 1321 C-48.4035646 1311.77199471 -53.72652361 1302.5000533 -59.02050781 1293.20898438 C-63.63502852 1285.11255782 -68.29103794 1277.04198543 -73 1269 C-78.0318979 1260.4048271 -83.00389124 1251.77687778 -87.9375 1243.125 C-94.96603507 1230.79974804 -102.04240434 1218.50277933 -109.14111328 1206.21777344 C-112.26324605 1200.81329355 -115.38141204 1195.40652588 -118.5 1190 C-119.74998122 1187.8333225 -120.99998121 1185.66665583 -122.25 1183.5 C-184.125 1076.25 -246 969 -371.62719727 751.24609375 C-372.86976019 749.0923828 -374.11243489 746.93873633 -375.35522461 744.78515625 C-378.25314623 739.76315738 -381.15003349 734.74057193 -384.04275513 729.71557617 C-385.05947198 727.94954478 -386.07655658 726.18372569 -387.09375 724.41796875 C-388.36400873 722.21265845 -389.63359018 720.00695784 -390.90234375 717.80078125 C-391.48242188 716.79402344 -392.0625 715.78726563 -392.66015625 714.75 C-393.2133252 713.78449219 -393.76649414 712.81898438 -394.33642578 711.82421875 C-395.45288817 709.92882149 -396.60849318 708.05598563 -397.80029297 706.20703125 C-398.63971436 704.89798828 -398.63971436 704.89798828 -399.49609375 703.5625 C-400.00197021 702.80066406 -400.50784668 702.03882813 -401.02905273 701.25390625 C-402.28345401 698.34200468 -401.96575936 696.99076684 -401 694 C-399.9152832 691.7019043 -399.9152832 691.7019043 -398.55078125 689.32421875 C-398.0398291 688.42662842 -397.52887695 687.52903809 -397.00244141 686.60424805 C-396.44476074 685.64172119 -395.88708008 684.67919434 -395.3125 683.6875 C-394.73161621 682.67276611 -394.15073242 681.65803223 -393.55224609 680.61254883 C-388.28487432 671.43241348 -382.94415377 662.29436919 -377.59765625 653.16015625 C-371.98321325 643.56057762 -366.4419968 633.91864049 -360.89111328 624.28222656 C-357.76319852 618.85340058 -354.63141552 613.42680719 -351.5 608 C-350.24998121 605.83334417 -348.99998122 603.6666775 -347.75 601.5 C-335.25 579.83333333 -322.75 558.16666667 -310.25 536.5 C-309.63116943 535.42733887 -309.01233887 534.35467773 -308.37475586 533.24951172 C-307.12564482 531.08442929 -305.87645871 528.91939018 -304.62719727 526.75439453 C-301.48797691 521.31384294 -298.35009437 515.87252784 -295.21484375 510.4296875 C-288.59777108 498.9455118 -281.95366023 487.47803106 -275.26708984 476.03417969 C-269.10080946 465.47379718 -262.9950405 454.87873234 -256.89111328 444.28222656 C-253.76319852 438.85340058 -250.63141552 433.42680719 -247.5 428 C-246.24998121 425.83334417 -244.99998122 423.6666775 -243.75 421.5 C-226.25 391.16666667 -208.75 360.83333333 -191.25 330.5 C-190.63116943 329.42733887 -190.01233887 328.35467773 -189.37475586 327.24951172 C-188.12564482 325.08442929 -186.87645871 322.91939018 -185.62719727 320.75439453 C-182.48797691 315.31384294 -179.35009437 309.87252784 -176.21484375 304.4296875 C-169.59777108 292.9455118 -162.95366023 281.47803106 -156.26708984 270.03417969 C-150.10080946 259.47379718 -143.9950405 248.87873234 -137.89111328 238.28222656 C-134.76319852 232.85340058 -131.63141552 227.42680719 -128.5 222 C-127.24998121 219.83334417 -125.99998122 217.6666775 -124.75 215.5 C-112.25 193.83333333 -99.75 172.16666667 -87.25 150.5 C-86.63116943 149.42733887 -86.01233887 148.35467773 -85.37475586 147.24951172 C-84.12564482 145.08442929 -82.87645871 142.91939018 -81.62719727 140.75439453 C-78.48797691 135.31384294 -75.35009437 129.87252784 -72.21484375 124.4296875 C-65.59777108 112.9455118 -58.95366023 101.47803106 -52.26708984 90.03417969 C-46.10080946 79.47379718 -39.9950405 68.87873234 -33.89111328 58.28222656 C-30.14856359 51.78663684 -26.40099757 45.29393958 -22.65380859 38.80102539 C-19.71817241 33.71374968 -16.78383388 28.62573896 -13.85409546 23.5350647 C-12.46671905 21.12456252 -11.07860376 18.71448624 -9.69042969 16.30444336 C-8.70826185 14.59856032 -7.72716615 12.89206014 -6.74609375 11.18554688 C-5.85664063 9.64157227 -5.85664063 9.64157227 -4.94921875 8.06640625 C-4.16550903 6.7043103 -4.16550903 6.7043103 -3.3659668 5.31469727 C-2.30022034 3.50873799 -1.16319248 1.74478871 0 0 Z " fill="#FEB900" transform="translate(2450,942)"/>
<path d="M0 0 C3.34512779 -0.00078453 6.69025558 -0.00157517 10.03538337 -0.00236505 C11.37216218 -0.00268039 12.70894099 -0.00299571 14.04571979 -0.00331102 C16.71701979 -0.00394131 19.38831979 -0.00457246 22.05961979 -0.00520438 C22.7202788 -0.00536063 23.38093781 -0.00551688 24.06161679 -0.00567786 C25.39566299 -0.00599341 26.72970919 -0.0063091 28.0637554 -0.00662493 C31.39433732 -0.00741257 34.72491924 -0.00819309 38.05550117 -0.0089654 C68.68274043 -0.01606907 99.3099766 -0.02528103 129.93721224 -0.04176121 C130.59864278 -0.04211681 131.26007332 -0.04247241 131.9415472 -0.04283878 C141.92607436 -0.04821741 151.91060144 -0.05376091 161.8951285 -0.05930882 C207.51470052 -0.0846518 253.13426169 -0.09930752 298.75384106 -0.09959989 C303.5223152 -0.099671 308.29078934 -0.09978638 313.05926348 -0.09993535 C314.81568194 -0.09998273 314.81568194 -0.09998273 316.60758359 -0.10003106 C335.24153688 -0.10079287 353.8754709 -0.11151345 372.50941788 -0.12617788 C390.86952248 -0.14040097 409.22960304 -0.14388556 427.58971167 -0.13582873 C438.39575279 -0.13140519 449.201716 -0.13530337 460.00774688 -0.15112633 C467.17569494 -0.16080837 474.34358757 -0.15976248 481.51153501 -0.1496843 C485.58884891 -0.14425988 489.66601087 -0.14368031 493.74331257 -0.15618935 C497.43745019 -0.16743457 501.13131006 -0.16510979 504.82543754 -0.15152269 C506.78936098 -0.14790801 508.75329425 -0.15912911 510.71718626 -0.17081412 C512.44761581 -0.16031695 512.44761581 -0.16031695 514.21300353 -0.14960771 C515.70908444 -0.14997402 515.70908444 -0.14997402 517.2353892 -0.15034772 C520.13537859 0.28810985 520.9495979 0.93561019 522.71226718 3.22413844 C523.77359073 4.88460191 524.78377221 6.5781779 525.75914218 8.29054469 C526.3488077 9.31969997 526.93847323 10.34885524 527.54600741 11.40919704 C528.49455599 13.08103053 528.49455599 13.08103053 529.46226718 14.78663844 C530.13241897 15.95961448 530.80308217 17.13229847 531.47423007 18.30470485 C532.8675347 20.73947138 534.25863007 23.17548064 535.64830233 25.61232204 C538.79266468 31.1210684 541.97404855 36.60843365 545.14976718 42.09913844 C550.72772091 51.75798661 556.2645468 61.4397404 561.78962924 71.12886257 C566.94562163 80.16743272 572.16547391 89.16690983 577.42344882 98.14650173 C582.25099553 106.40337487 586.99775388 114.70507875 591.73277499 123.01515407 C596.34729521 131.11157977 601.00321973 139.18220354 605.71226718 147.22413844 C611.11583177 156.45214374 616.43879079 165.72408515 621.73277499 175.01515407 C626.3472957 183.11158063 631.00330511 191.18215301 635.71226718 199.22413844 C640.74416508 207.81931135 645.71615842 216.44726067 650.64976718 225.09913844 C657.67830225 237.4243904 664.75467152 249.72135912 671.85338046 262.00636501 C674.97551323 267.4108449 678.09367922 272.81761257 681.21226718 278.22413844 C682.46224839 280.39081595 683.71224839 282.55748262 684.96226718 284.72413844 C717.46226718 341.05747178 749.96226718 397.39080511 782.46226718 453.72413844 C783.08093661 454.79647731 783.69960604 455.86881618 784.33702304 456.97365016 C785.58791198 459.14190109 786.83872569 461.31019541 788.08946444 463.47853298 C791.20025053 468.8713176 794.31230955 474.26335937 797.42711093 479.65382594 C804.24729355 491.46043328 811.03549978 503.28440844 817.78962924 515.12886257 C822.38620941 523.18677057 827.02550877 531.21831631 831.71226718 539.22413844 C836.74407407 547.81936516 841.71615789 556.44725974 846.64976718 565.09913844 C853.67830225 577.4243904 860.75467152 589.72135912 867.85338046 602.00636501 C870.97551323 607.4108449 874.09367922 612.81761257 877.21226718 618.22413844 C878.46224839 620.39081595 879.71224839 622.55748262 880.96226718 624.72413844 C888.46226721 637.72413851 888.46226721 637.72413851 890.3392203 640.97755641 C891.58267227 643.13285155 892.82616154 645.28812517 894.06968905 647.44337673 C896.95689592 652.44751518 899.84377148 657.45184365 902.72923495 662.45698757 C903.73845822 664.20755085 904.74780554 665.95804255 905.75718905 667.70851344 C907.01394377 669.88806009 908.27047303 672.06773677 909.5267203 674.24757594 C910.10357577 675.24788844 910.68043124 676.24820094 911.27476718 677.27882594 C912.11394686 678.73820583 912.11394686 678.73820583 912.97007968 680.22706813 C914.19900976 682.34118609 915.44551292 684.44513638 916.70445468 686.54152126 C917.3464078 687.61498805 917.98836093 688.68845485 918.64976718 689.79445094 C919.52955233 691.24875514 919.52955233 691.24875514 920.42711093 692.73243923 C921.71226718 695.22413844 921.71226718 695.22413844 921.71226718 698.22413844 C882.76320284 718.85258546 839.91763132 732.4506087 795.51308079 732.35178894 C794.44626289 732.35343972 793.37944498 732.3550905 792.28029926 732.3567913 C788.71629483 732.36109484 785.15233215 732.35832174 781.58832671 732.35556621 C778.99196615 732.35721686 776.39560584 732.35930359 773.79924594 732.36178631 C768.14203392 732.36648614 762.48483065 732.36748819 756.827617 732.36605797 C748.3583274 732.36393259 739.88904682 732.36755616 731.41975862 732.37227274 C716.9838134 732.3801386 702.54787066 732.38323441 688.11192347 732.38371868 C673.4829823 732.38422124 658.85404389 732.38686992 644.22510363 732.39212627 C642.83890643 732.39262147 642.83890643 732.39262147 641.42470524 732.39312667 C637.66080435 732.39447669 633.89690346 732.39583936 630.13300257 732.39721878 C585.58063659 732.41351759 541.02827114 732.41990701 496.47590268 732.42466665 C474.28822075 732.42705037 452.10053912 732.43075395 429.91285742 732.43470374 C358.73071293 732.44736821 287.54856845 732.45815186 216.36642286 732.4615442 C212.96457106 732.46170644 209.56271926 732.461872 206.16086747 732.46203859 C199.33847594 732.46237238 192.51608441 732.46270286 185.69369288 732.46303315 C177.70644365 732.46342004 169.71919443 732.46380965 161.73194521 732.46420421 C159.44593539 732.46431663 157.15992557 732.46442805 154.87391576 732.46453846 C81.46647345 732.46808735 8.05904094 732.48316351 -65.34839762 732.50647621 C-118.09890449 732.5232219 -170.84940951 732.5386946 -223.59991906 732.54321117 C-224.6851714 732.54330465 -225.77042374 732.54339814 -226.88856251 732.54349446 C-250.71479631 732.54551369 -274.54103009 732.54666958 -298.36726397 732.54702304 C-306.89327291 732.54715921 -315.41928184 732.5473682 -323.94529078 732.5476163 C-326.06630777 732.54767786 -328.18732477 732.54773618 -330.30834176 732.54779125 C-364.08086853 732.54871039 -397.85338507 732.55867048 -431.62590847 732.57324873 C-465.65288452 732.58787801 -499.67984803 732.59289833 -533.70682667 732.58482919 C-538.41440221 732.5837139 -543.12197777 732.58270321 -547.82955335 732.58175487 C-549.21370514 732.58146992 -549.21370514 732.58146992 -550.62581959 732.58117921 C-565.2056673 732.57845122 -579.78549173 732.58576932 -594.36533439 732.59732824 C-608.7205873 732.60849831 -623.07580748 732.60887109 -637.43106093 732.59795805 C-645.83422424 732.59188823 -654.23728845 732.59388482 -662.6404423 732.60821002 C-668.23931231 732.61692173 -673.83811028 732.61451296 -679.43697598 732.60351131 C-682.59925941 732.59759577 -685.76131603 732.59768744 -688.92359282 732.60819617 C-710.57989826 732.67537568 -732.29581167 731.33930065 -753.47523282 726.53663844 C-755.19419767 726.15535793 -755.19419767 726.15535793 -756.94788907 725.76637477 C-775.89681446 721.39907623 -793.83805152 714.75542461 -811.28773282 706.22413844 C-812.00445157 705.87802516 -812.72117032 705.53191188 -813.45960782 705.17531032 C-831.39830355 696.4218912 -847.95919646 684.96515569 -863.28773282 672.22413844 C-863.85508146 671.75830348 -864.42243009 671.29246852 -865.0069711 670.81251735 C-877.99942812 660.113911 -889.97323767 648.55497335 -900.28773282 635.22413844 C-901.28053955 633.98270662 -902.27408065 632.74186188 -903.26820157 631.50148219 C-917.29552088 613.80783504 -928.15658985 594.14560968 -939.26131986 574.55255336 C-942.78266842 568.34295719 -946.34352292 562.15633726 -949.91273282 555.97413844 C-950.83868253 554.36985988 -950.83868253 554.36985988 -951.78333829 552.73317165 C-956.50530187 544.5607335 -961.25934431 536.40725162 -966.02088712 528.25782985 C-973.46222778 515.51407705 -980.81793176 502.72090794 -988.18324064 489.93312282 C-994.85729594 478.34732078 -1001.54237367 466.76860492 -1008.28773282 455.22413844 C-1015.03474476 443.67684328 -1021.721126 432.09511817 -1028.39661954 420.50636501 C-1031.52453428 415.07753906 -1034.65627013 409.65091838 -1037.78773282 404.22413844 C-1041.55137202 397.7018057 -1045.31417904 391.17900082 -1049.07288907 384.65382594 C-1055.09520611 374.20207645 -1061.1344262 363.76114296 -1067.22523282 353.34913844 C-1072.6469446 344.07914067 -1077.98978198 334.76582092 -1083.3069589 325.4356863 C-1088.50818411 316.31131005 -1093.7680116 307.2228107 -1099.07118009 298.15724391 C-1105.22540024 287.6332922 -1111.31143278 277.07033707 -1117.39661954 266.50636501 C-1120.52453431 261.07753902 -1123.6563173 255.65094563 -1126.78773282 250.22413844 C-1128.03775161 248.05748262 -1129.28775161 245.89081595 -1130.53773282 243.72413844 C-1131.15648282 242.65163844 -1131.77523282 241.57913844 -1132.41273282 240.47413844 C-1144.28773282 219.89080511 -1156.16273282 199.30747178 -1168.03773282 178.72413844 C-1168.65672452 177.65139675 -1169.27571622 176.57865505 -1169.91346525 175.47340602 C-1171.16164405 173.3095384 -1172.40920407 171.14531373 -1173.65614103 168.98073024 C-1176.80399325 163.51812364 -1179.96280269 158.06240021 -1183.14320157 152.61866969 C-1205.64722348 114.03504137 -1222.71746774 75.56900662 -1228.10023282 30.84913844 C-1228.22422452 29.84093044 -1228.34821622 28.83272243 -1228.47596525 27.79396266 C-1229.15138098 21.61517788 -1229.35081681 15.52298975 -1229.31776212 9.31544704 C-1229.31559438 8.53412914 -1229.31342664 7.75281123 -1229.31119321 6.94781703 C-1229.30558523 5.03991639 -1229.29696994 3.13202497 -1229.28773282 1.22413844 C-1136.92705224 1.07877702 -1044.56636 0.9412303 0 0 Z " fill="#2683FB" transform="translate(2000.287732823519,2456.7758615557104)"/>
<path d="M0 0 C2.36977983 -0.00302708 4.73955868 -0.00691933 7.10933584 -0.01159257 C12.89413323 -0.02074385 18.67887801 -0.02074488 24.46368001 -0.01668095 C31.40479112 -0.01232359 38.34587844 -0.01964121 45.28698509 -0.02717223 C59.67397854 -0.04235474 74.06095428 -0.04412319 88.44795407 -0.0416492 C99.56471524 -0.03981126 110.68147067 -0.04158662 121.79823112 -0.04587364 C123.39957193 -0.04647606 125.00091273 -0.04707726 126.60225354 -0.04767724 C129.01581245 -0.04858457 131.42937136 -0.04949325 133.84293027 -0.0504096 C156.26300136 -0.05883066 178.68307029 -0.06318074 201.10314274 -0.05900288 C201.94708617 -0.0588465 202.7910296 -0.05869012 203.66054708 -0.05852901 C207.9372514 -0.05772332 212.21395571 -0.05687755 216.49066002 -0.05601571 C217.3399112 -0.05584462 218.18916239 -0.05567353 219.06414845 -0.05549726 C220.78153836 -0.0551506 222.49892826 -0.05480207 224.21631816 -0.05445167 C250.92510388 -0.04909725 277.63385655 -0.05702043 304.34263611 -0.07548523 C334.40390856 -0.09624378 364.46516055 -0.10692052 394.52644056 -0.10290974 C397.7375615 -0.10251445 400.94868244 -0.10215289 404.15980339 -0.10181236 C405.34564504 -0.10167627 405.34564504 -0.10167627 406.55544308 -0.10153742 C418.44240755 -0.10037588 430.32935122 -0.10698583 442.2163105 -0.11762428 C455.75113164 -0.12972575 469.28590726 -0.13117874 482.82072914 -0.11883412 C489.71622438 -0.11282489 496.61163881 -0.11137684 503.50712776 -0.12383652 C509.83809586 -0.13477996 516.16890204 -0.13149262 522.49986284 -0.11757483 C524.77160111 -0.11495096 527.04335242 -0.11722027 529.31507779 -0.1253107 C577.25389678 -0.28398012 623.15269281 10.54145305 664.94737244 34.26069641 C663.68976174 38.36966928 662.16761051 41.91476628 659.99815369 45.62007141 C659.40518494 46.63971985 658.81221619 47.65936829 658.20127869 48.70991516 C657.56061462 49.79917297 656.91995056 50.88843079 656.25987244 52.01069641 C655.58480604 53.16790613 654.91033782 54.32546498 654.23643494 55.48335266 C652.83721439 57.88640223 651.43544308 60.28793561 650.03184509 62.68843079 C646.8128786 68.19856486 643.63222215 73.7308 640.44737244 79.26069641 C639.19883422 81.42485105 637.95013576 83.58891325 636.70127869 85.75288391 C634.18667808 90.11135029 631.67382582 94.47081832 629.16221619 98.83100891 C622.54514352 110.31518461 615.90103267 121.78266535 609.21446228 133.22651672 C603.0481819 143.78689923 596.94241294 154.38196407 590.83848572 164.97846985 C587.71057095 170.40729583 584.57878796 175.83388922 581.44737244 181.26069641 C580.19735365 183.42735224 578.94735365 185.59401891 577.69737244 187.76069641 C565.19737244 209.42736308 552.69737244 231.09402974 540.19737244 252.76069641 C539.57854187 253.83335754 538.9597113 254.90601868 538.3221283 256.01118469 C537.07301726 258.17626712 535.82383114 260.34130623 534.5745697 262.50630188 C531.43534934 267.94685347 528.29746681 273.38816857 525.16221619 278.83100891 C518.54514352 290.31518461 511.90103267 301.78266535 505.21446228 313.22651672 C499.0481819 323.78689923 492.94241294 334.38196407 486.83848572 344.97846985 C483.71057095 350.40729583 480.57878796 355.83388922 477.44737244 361.26069641 C476.19735365 363.42735224 474.94735365 365.59401891 473.69737244 367.76069641 C456.19737244 398.09402974 438.69737244 428.42736308 421.19737244 458.76069641 C420.57854187 459.83335754 419.9597113 460.90601868 419.3221283 462.01118469 C418.07301726 464.17626712 416.82383114 466.34130623 415.5745697 468.50630188 C412.43534934 473.94685347 409.29746681 479.38816857 406.16221619 484.83100891 C399.54514352 496.31518461 392.90103267 507.78266535 386.21446228 519.22651672 C380.0481819 529.78689923 373.94241294 540.38196407 367.83848572 550.97846985 C364.71057095 556.40729583 361.57878796 561.83388922 358.44737244 567.26069641 C357.19735365 569.42735224 355.94735365 571.59401891 354.69737244 573.76069641 C342.19737244 595.42736308 329.69737244 617.09402974 317.19737244 638.76069641 C316.57854187 639.83335754 315.9597113 640.90601868 315.3221283 642.01118469 C314.07301726 644.17626712 312.82383114 646.34130623 311.5745697 648.50630188 C308.43534934 653.94685347 305.29746681 659.38816857 302.16221619 664.83100891 C294.37847786 678.34050776 286.56697105 691.83316007 278.68663025 705.28657532 C276.86978827 708.3933649 275.06091722 711.50472107 273.25205994 714.61616516 C272.06747179 716.64368871 270.88258693 718.67103894 269.69737244 720.69819641 C269.14807068 721.64662415 268.59876892 722.59505188 268.03282166 723.57221985 C267.52509216 724.43750305 267.01736267 725.30278625 266.49424744 726.19429016 C266.04919861 726.95797913 265.60414978 727.72166809 265.14561462 728.50849915 C263.94737244 730.26069641 263.94737244 730.26069641 261.94737244 731.26069641 C261.54123718 730.54865051 261.13510193 729.83660461 260.71665955 729.10298157 C251.45707481 712.87307733 242.1596222 696.66589495 232.81065369 680.48725891 C230.92702194 677.22545634 229.04614923 673.96207797 227.16612244 670.69819641 C221.11989932 660.20330725 215.05773763 649.71839102 208.94737244 639.26069641 C202.2003605 627.71340125 195.51397926 616.13167614 188.83848572 604.54292297 C185.71057095 599.11409699 182.57878796 593.6875036 179.44737244 588.26069641 C178.19735365 586.09404058 176.94735365 583.92737391 175.69737244 581.76069641 C175.07862244 580.68819641 174.45987244 579.61569641 173.82237244 578.51069641 C153.19737243 542.76069641 153.19737243 542.76069641 151.3221283 539.51020813 C150.07301726 537.3451257 148.82383114 535.18008659 147.5745697 533.01509094 C144.43534934 527.57453935 141.29746681 522.13322425 138.16221619 516.69038391 C132.13989915 506.23863442 126.10067906 495.79770093 120.00987244 485.38569641 C114.58816066 476.11569864 109.24532328 466.80237889 103.92814636 457.47224426 C98.72692115 448.34786801 93.46709366 439.25936867 88.16392517 430.19380188 C82.00970502 419.66985016 75.92367248 409.10689504 69.83848572 398.54292297 C66.71057095 393.11409699 63.57878796 387.6875036 60.44737244 382.26069641 C59.19735365 380.09404058 57.94735365 377.92737391 56.69737244 375.76069641 C56.07862244 374.68819641 55.45987244 373.61569641 54.82237244 372.51069641 C34.19737243 336.76069641 34.19737243 336.76069641 32.3221283 333.51020813 C31.07301726 331.3451257 29.82383114 329.18008659 28.5745697 327.01509094 C25.43534934 321.57453935 22.29746681 316.13322425 19.16221619 310.69038391 C13.13989915 300.23863442 7.10067906 289.79770093 1.00987244 279.38569641 C-4.41183934 270.11569864 -9.75467672 260.80237889 -15.07185364 251.47224426 C-20.27307885 242.34786801 -25.53290634 233.25936867 -30.83607483 224.19380188 C-36.99029498 213.66985016 -43.07632752 203.10689504 -49.16151428 192.54292297 C-52.28942905 187.11409699 -55.42121204 181.6875036 -58.55262756 176.26069641 C-59.80264635 174.09404058 -61.05264635 171.92737391 -62.30262756 169.76069641 C-62.92137756 168.68819641 -63.54012756 167.61569641 -64.17762756 166.51069641 C-69.80262756 156.76069641 -69.80262756 156.76069641 -71.6778717 153.51020813 C-72.92698274 151.3451257 -74.17616886 149.18008659 -75.4254303 147.01509094 C-78.56465066 141.57453935 -81.70253319 136.13322425 -84.83778381 130.69038391 C-90.86010039 120.23863522 -96.8992117 109.79763658 -102.99012756 99.38569641 C-106.70024164 93.04354908 -110.38905146 86.69017369 -114.02919006 80.30757141 C-114.36554977 79.71789581 -114.70190948 79.12822021 -115.04846191 78.52067566 C-116.74329504 75.54752826 -118.43468503 72.57247162 -120.12220764 69.59516907 C-123.3426846 63.92473542 -126.61471328 58.29604046 -130.02528381 52.73725891 C-130.64201965 51.72550598 -131.25875549 50.71375305 -131.8941803 49.67134094 C-133.05566205 47.77576457 -134.2303537 45.8881992 -135.4200592 44.01020813 C-135.93044739 43.17505676 -136.44083557 42.3399054 -136.96669006 41.47944641 C-137.64658997 40.39566711 -137.64658997 40.39566711 -138.34022522 39.28999329 C-139.05262756 37.26069641 -139.05262756 37.26069641 -138.48207092 35.16572571 C-136.66704111 32.74682262 -134.98850727 31.8774151 -132.26747131 30.56147766 C-130.77824158 29.8375885 -130.77824158 29.8375885 -129.25892639 29.09907532 C-127.64087097 28.34376526 -127.64087097 28.34376526 -125.99012756 27.57319641 C-124.87339661 27.04645325 -123.75666565 26.51971008 -122.60609436 25.977005 C-100.82788801 15.90532872 -77.95341958 8.67209207 -54.42762756 4.01069641 C-53.67835999 3.85947327 -52.92909241 3.70825012 -52.15711975 3.55244446 C-34.89164768 0.34997786 -17.50448578 -0.03205729 0 0 Z " fill="#00832C" transform="translate(1785.0526275634766,906.7393035888672)"/>
<path d="M0 0 C265.32 0 530.64 0 804 0 C800.04555433 7.90889133 796.05605359 15.54580824 791.5625 23.125 C790.32231764 25.23402286 789.08275562 27.34341061 787.84375 29.453125 C787.20953125 30.53142578 786.5753125 31.60972656 785.921875 32.72070312 C782.77515892 38.08994733 779.66841381 43.48208191 776.5625 48.875 C775.94060791 49.95410645 775.31871582 51.03321289 774.67797852 52.14501953 C773.41550269 54.33582951 772.15321444 56.5267476 770.89111328 58.71777344 C767.76319852 64.14659942 764.63141552 69.57319281 761.5 75 C760.24998121 77.16665583 758.99998122 79.3333225 757.75 81.5 C755.25 85.83333333 752.75 90.16666667 750.25 94.5 C749.63116943 95.57266113 749.01233887 96.64532227 748.37475586 97.75048828 C747.12564482 99.91557071 745.87645871 102.08060982 744.62719727 104.24560547 C741.48797691 109.68615706 738.35009437 115.12747216 735.21484375 120.5703125 C728.59777108 132.0544882 721.95366023 143.52196894 715.26708984 154.96582031 C709.10080946 165.52620282 702.9950405 176.12126766 696.89111328 186.71777344 C693.76319852 192.14659942 690.63141552 197.57319281 687.5 203 C686.24998121 205.16665583 684.99998122 207.3333225 683.75 209.5 C665 242 665 242 646.25 274.5 C645.63116943 275.57266113 645.01233887 276.64532227 644.37475586 277.75048828 C643.12564482 279.91557071 641.87645871 282.08060982 640.62719727 284.24560547 C637.48797691 289.68615706 634.35009437 295.12747216 631.21484375 300.5703125 C624.59777108 312.0544882 617.95366023 323.52196894 611.26708984 334.96582031 C605.10080946 345.52620282 598.9950405 356.12126766 592.89111328 366.71777344 C589.76319852 372.14659942 586.63141552 377.57319281 583.5 383 C582.24998121 385.16665583 580.99998122 387.3333225 579.75 389.5 C567.25 411.16666667 554.75 432.83333333 542.25 454.5 C541.63116943 455.57266113 541.01233887 456.64532227 540.37475586 457.75048828 C539.12564482 459.91557071 537.87645871 462.08060982 536.62719727 464.24560547 C533.48797691 469.68615706 530.35009437 475.12747216 527.21484375 480.5703125 C521.19252671 491.02206199 515.15330663 501.46299548 509.0625 511.875 C503.98724877 520.55262241 498.97741233 529.26605568 494 538 C488.4599827 547.72115617 482.86625191 557.40894658 477.21655273 567.06689453 C471.06233258 577.59084625 464.97630004 588.15380137 458.89111328 598.71777344 C455.76319852 604.14659942 452.63141552 609.57319281 449.5 615 C448.24998121 617.16665583 446.99998122 619.3333225 445.75 621.5 C438.25 634.5 438.25 634.5 436.37353516 637.75244141 C435.12830516 639.91090498 433.88318728 642.06943323 432.63818359 644.22802734 C429.44113663 649.77074741 426.24192405 655.31220008 423.0390625 660.8515625 C416.28960337 672.52923791 409.56699121 684.21856861 403 696 C398.00080205 694.32700108 393.90029974 691.48249035 389.5625 688.5625 C388.76553711 688.02753906 387.96857422 687.49257812 387.14746094 686.94140625 C379.81262384 681.96346159 372.83040393 676.64517451 366 671 C365.14245117 670.29689697 365.14245117 670.29689697 364.26757812 669.57958984 C351.28044178 658.88366233 339.31081634 647.32608028 329 634 C328.00719327 632.75856818 327.01365217 631.51772343 326.01953125 630.27734375 C311.99221194 612.58369659 301.13114298 592.92147124 290.02641296 573.32841492 C286.5050644 567.11881874 282.94420991 560.93219882 279.375 554.75 C278.44905029 553.14572144 278.44905029 553.14572144 277.50439453 551.5090332 C272.78243095 543.33659506 268.02838851 535.18311317 263.2668457 527.03369141 C255.82550505 514.28993861 248.46980106 501.49676949 241.10449219 488.70898438 C234.43043688 477.12318234 227.74535916 465.54446647 221 454 C214.25298806 442.45270484 207.56660682 430.87097973 200.89111328 419.28222656 C197.76319854 413.85340062 194.63146269 408.42677993 191.5 403 C187.73636081 396.47766725 183.97355378 389.95486238 180.21484375 383.4296875 C174.19252671 372.97793801 168.15330663 362.53700452 162.0625 352.125 C156.64078822 342.85500223 151.29795085 333.54168248 145.98077393 324.21154785 C140.77954871 315.0871716 135.51972122 305.99867226 130.21655273 296.93310547 C124.06233258 286.40915375 117.97630004 275.84619863 111.89111328 265.28222656 C108.76319852 259.85340058 105.63141552 254.42680719 102.5 249 C101.24998121 246.83334417 99.99998122 244.6666775 98.75 242.5 C98.13125 241.4275 97.5125 240.355 96.875 239.25 C85 218.66666667 73.125 198.08333333 61.25 177.5 C60.6310083 176.4272583 60.0120166 175.3545166 59.37426758 174.24926758 C58.12608877 172.08539996 56.87852875 169.92117528 55.6315918 167.7565918 C52.48373957 162.2939852 49.32493013 156.83826176 46.14453125 151.39453125 C23.64050934 112.81090293 6.57026509 74.34486818 1.1875 29.625 C1.0635083 28.61679199 0.9395166 27.60858398 0.81176758 26.56982422 C-0.17052625 17.58368158 0 9.19776776 0 0 Z " fill="#0065DA" transform="translate(771,2458)"/>
<path d="M0 0 C2.01723978 57.82754035 -20.4315239 109.17313534 -49.15869141 157.86572266 C-52.28305019 163.18400933 -55.35966918 168.52969481 -58.4375 173.875 C-59.05979492 174.95483154 -59.68208984 176.03466309 -60.32324219 177.1472168 C-61.58532251 179.33728778 -62.84720372 181.52747353 -64.10888672 183.71777344 C-67.23680148 189.14659942 -70.36858448 194.57319281 -73.5 200 C-74.75001879 202.16665583 -76.00001878 204.3333225 -77.25 206.5 C-114.75 271.5 -152.25 336.5 -189.75 401.5 C-190.36883057 402.57266113 -190.98766113 403.64532227 -191.62524414 404.75048828 C-192.87435518 406.91557071 -194.12354129 409.08060982 -195.37280273 411.24560547 C-198.51202309 416.68615706 -201.64990563 422.12747216 -204.78515625 427.5703125 C-210.80747329 438.02206199 -216.84669337 448.46299548 -222.9375 458.875 C-228.01275123 467.55262241 -233.02258767 476.26605568 -238 485 C-243.53920625 494.719733 -249.13146093 504.40649686 -254.78125 514.0625 C-259.04883281 521.35900213 -263.28142751 528.67506363 -267.5 536 C-273.47362535 546.36907929 -279.48475909 556.71555989 -285.5234375 567.046875 C-287.88956054 571.0950697 -290.24826171 575.14746345 -292.6015625 579.203125 C-296.0509427 585.14531099 -299.52048455 591.07541963 -303 597 C-303.48033691 597.82226074 -303.96067383 598.64452148 -304.45556641 599.49169922 C-313.80307037 615.43783138 -324.28732739 630.54254455 -337 644 C-338.13029167 645.30794571 -339.25543311 646.62036248 -340.375 647.9375 C-348.18468932 656.86285922 -356.71618264 664.64324134 -366 672 C-367.14494947 672.94453312 -368.28809137 673.8912604 -369.4296875 674.83984375 C-376.0866744 680.33208073 -382.88053483 685.42745383 -390.125 690.125 C-390.83543457 690.58632324 -391.54586914 691.04764648 -392.27783203 691.52294922 C-395.77874193 693.74669237 -399.10906336 695.51945216 -403 697 C-403.3717334 696.33170166 -403.7434668 695.66340332 -404.12646484 694.97485352 C-413.4658349 678.19311466 -413.4658349 678.19311466 -423.11010742 661.5859375 C-426.85224409 655.27328523 -430.52381678 648.92096234 -434.1875 642.5625 C-434.82550537 641.45527588 -435.46351074 640.34805176 -436.12084961 639.20727539 C-437.42889477 636.93662932 -438.73675448 634.66587642 -440.04443359 632.39501953 C-443.19332056 626.92830016 -446.34688036 621.46427871 -449.5 616 C-450.7513067 613.83073183 -452.00260878 611.661461 -453.25390625 609.4921875 C-455.73930902 605.18398349 -458.22641977 600.87677211 -460.71484375 596.5703125 C-467.53502637 584.76370516 -474.3232326 572.93973 -481.07736206 561.09527588 C-485.67394223 553.03736788 -490.3132416 545.00582214 -495 537 C-500.0318069 528.40477328 -505.00389072 519.7768787 -509.9375 511.125 C-516.96603507 498.79974804 -524.04240434 486.50277933 -531.14111328 474.21777344 C-534.26324605 468.81329355 -537.38141204 463.40652588 -540.5 458 C-541.74998122 455.8333225 -542.99998121 453.66665583 -544.25 451.5 C-581.75 386.5 -619.25 321.5 -656.75 256.5 C-657.36866943 255.42766113 -657.98733887 254.35532227 -658.62475586 253.25048828 C-659.8756448 251.08223736 -661.12645852 248.91394303 -662.37719727 246.74560547 C-665.48798335 241.35282085 -668.60004238 235.96077907 -671.71484375 230.5703125 C-678.53502637 218.76370516 -685.3232326 206.93973 -692.07736206 195.09527588 C-697.23335445 186.05670572 -702.45320673 177.05722862 -707.71118164 168.07763672 C-712.53872836 159.82076358 -717.28548671 151.51905969 -722.02050781 143.20898438 C-726.63502804 135.11255867 -731.29095255 127.04193491 -736 119 C-741.4035646 109.77199471 -746.72652361 100.5000533 -752.02050781 91.20898438 C-756.63502804 83.11255867 -761.29095255 75.04193491 -766 67 C-771.39835843 57.78088561 -776.72023451 48.52001818 -782.00439453 39.23516846 C-785.67375723 32.78801574 -789.36335728 26.35478612 -793.125 19.9609375 C-794.10339844 18.29611328 -794.10339844 18.29611328 -795.1015625 16.59765625 C-796.34246163 14.49119168 -797.58709955 12.38692394 -798.8359375 10.28515625 C-799.65964844 8.88716797 -799.65964844 8.88716797 -800.5 7.4609375 C-800.9846875 6.64415527 -801.469375 5.82737305 -801.96875 4.98583984 C-803 3 -803 3 -803 1 C-726.66336061 0.90465555 -650.32672121 0.80931418 -573.99008179 0.71398926 C-572.2966963 0.71187465 -572.2966963 0.71187465 -570.56910101 0.70971733 C-546.03744473 0.67908357 -521.50578844 0.64845036 -496.97413216 0.61781773 C-484.94466883 0.60279656 -472.91520551 0.58777526 -460.88574219 0.57275391 C-459.68863471 0.57125906 -458.49152723 0.56976422 -457.25814377 0.56822408 C-418.42217396 0.51972907 -379.58620416 0.47122596 -340.75023437 0.42271865 C-300.85756078 0.37289154 -260.96488718 0.32307256 -221.07221357 0.2732639 C-215.4439897 0.26623668 -209.81576583 0.25920937 -204.18754196 0.25218201 C-202.52588893 0.25010728 -202.52588893 0.25010728 -200.83066715 0.24799064 C-182.96338868 0.22568147 -165.09611022 0.20336366 -147.22883177 0.18104266 C-129.28755452 0.15862939 -111.34627726 0.13622514 -93.40499999 0.11383021 C-82.73196553 0.10050748 -72.05893108 0.08717771 -61.38589664 0.07383808 C-54.26899902 0.06494375 -47.15210139 0.05605836 -40.03520375 0.04718045 C-35.9719962 0.04211157 -31.90878866 0.03703862 -27.84558113 0.03195482 C-24.15636711 0.02733903 -20.46715307 0.02273453 -16.77793902 0.0181394 C-14.81107496 0.01568654 -12.84421092 0.01322131 -10.87734687 0.01075572 C-9.72468511 0.0093223 -8.57202334 0.00788888 -7.38443244 0.00641203 C-6.38522056 0.00516418 -5.38600868 0.00391634 -4.35651765 0.00263068 C-2.90434574 0.00100956 -1.45217281 0 0 0 Z " fill="#E94335" transform="translate(3325,2457)"/>
</svg>
