<?xml version="1.0" encoding="UTF-8"?>
<svg version="1.1" xmlns="http://www.w3.org/2000/svg" width="1200" height="1200">
<path d="M0 0 C3.83634802 0.00421643 7.67267777 -0.00325744 11.50902115 -0.00915251 C18.21602751 -0.01787062 24.92300333 -0.01924235 31.63001393 -0.01564924 C41.60424723 -0.01032002 51.57845119 -0.01645977 61.5526813 -0.02473217 C80.40741441 -0.03994101 99.26213405 -0.04168043 118.11687202 -0.03920914 C132.68142416 -0.03737363 147.24597191 -0.0391415 161.8105235 -0.04343358 C163.905982 -0.044036 166.00144049 -0.04463719 168.09689899 -0.04523719 C171.25490099 -0.04614448 174.412903 -0.04705315 177.570905 -0.04796954 C206.91811901 -0.05639448 236.26533138 -0.06073796 265.61254643 -0.05656282 C267.27071137 -0.05632825 267.27071137 -0.05632825 268.96237459 -0.05608895 C274.56467833 -0.05528322 280.16698207 -0.05443745 285.7692858 -0.05357565 C287.43811575 -0.05331902 287.43811575 -0.05331902 289.14065944 -0.0530572 C291.39051063 -0.05271054 293.64036182 -0.05236201 295.89021301 -0.05201161 C330.88966206 -0.04665568 365.8890859 -0.05458308 400.88853025 -0.07304517 C440.2488256 -0.09378348 479.60910535 -0.10448436 518.96940648 -0.10046969 C523.17021949 -0.10007437 527.3710325 -0.09971281 531.57184552 -0.0993723 C533.12326092 -0.09923621 533.12326092 -0.09923621 534.70601803 -0.09909736 C550.28667938 -0.09793374 565.86732491 -0.10456179 581.4479823 -0.11518422 C599.17845337 -0.12726032 616.90888972 -0.12876751 634.63936133 -0.11639406 C644.54783637 -0.10978785 654.45622825 -0.11134456 664.36469655 -0.12498257 C671.00064594 -0.1332748 677.63653354 -0.13046812 684.27247799 -0.1190073 C688.04183421 -0.11279775 691.81102914 -0.11102649 695.58037556 -0.12287064 C717.33687824 -0.18661756 739.15199782 0.53316859 760.34263181 5.95063647 C761.36445554 6.20554858 762.38627927 6.46046069 763.43906735 6.72309741 C800.07278313 16.2300876 831.50852505 36.24813919 858.59263181 62.26313647 C859.48981931 63.11907397 860.38700681 63.97501147 861.31138181 64.85688647 C890.11981341 92.95399877 909.98262289 130.19107573 918.40513181 169.38813647 C918.69782956 170.74443164 918.69782956 170.74443164 918.9964404 172.1281267 C922.58897659 190.10190549 922.87664169 208.02828148 922.81968259 226.28730639 C922.81911723 228.85165266 922.81943747 231.41599925 922.8205676 233.98034533 C922.82101984 239.46123752 922.81542801 244.942068 922.80409192 250.42294749 C922.78771348 258.34698951 922.78261642 266.27100862 922.78011594 274.19506574 C922.775758 287.05688048 922.762501 299.91866959 922.74351071 312.78047045 C922.72510235 325.26126344 922.71097023 337.74204942 922.70249509 350.22285327 C922.70196964 350.99448037 922.70144419 351.76610747 922.70090283 352.56111722 C922.69829241 356.43283365 922.69576508 360.30455012 922.69327902 364.17626663 C922.67260583 396.20524186 922.63743271 428.23418558 922.59263181 460.26313647 C919.04432476 456.74625327 915.6801076 453.14992846 912.46763181 449.32563647 C911.99245114 448.76207446 911.51727048 448.19851245 911.0276904 447.6178728 C907.2062141 443.05665437 903.51526414 438.40137141 899.85972165 433.70673999 C896.3285855 429.17729497 892.72519216 424.71154028 889.09263181 420.26313647 C885.06043016 415.32379287 881.07452162 410.35494198 877.15513181 405.32563647 C872.47361041 399.32227374 867.64623368 393.44779127 862.78867673 387.58637866 C859.10931943 383.13626682 855.50856605 378.63638042 851.96763181 374.07563647 C836.35833616 352.17665873 836.35833616 352.17665873 813.52099179 340.57462939 C808.10296693 340.0515164 803.08038149 340.81665309 797.73887204 341.71674975 C796.15169842 341.96967099 796.15169842 341.96967099 794.53246068 342.22770175 C791.00753122 342.79282308 787.48573002 343.37539631 783.96372556 343.95844897 C781.43760624 344.36803995 778.91135247 344.77680249 776.38497495 345.18479785 C768.83181049 346.40953974 761.28238919 347.65621554 753.7337098 348.90826472 C750.87941357 349.38134842 748.02486022 349.85287079 745.17031704 350.32446178 C725.93336138 353.50330703 706.70528748 356.73367156 687.48055636 359.98553833 C681.31654653 361.02761872 675.15133985 362.06248798 668.9858995 363.09606596 C662.92442542 364.1125436 656.86379366 365.1339414 650.80378955 366.15914603 C647.23446866 366.76290454 643.66485781 367.36477693 640.09435796 367.96152743 C636.16424969 368.61856942 632.23594554 369.28585017 628.3077197 369.95405444 C627.16152158 370.14419619 626.01532346 370.33433795 624.83439206 370.53024157 C611.35675863 372.76385091 611.35675863 372.76385091 599.59263181 379.26313647 C597.39637456 382.55752234 597.256756 384.07066377 597.87778806 387.91548022 C600.38025943 396.13397911 606.98049237 403.24529504 612.05332517 410.08613452 C615.97023122 415.37425377 619.76576853 420.74057103 623.53013181 426.13813647 C624.12237546 426.98730639 624.71461911 427.83647631 625.32480954 428.71137866 C626.51007567 430.41132325 627.695217 432.11135487 628.88022946 433.81147631 C631.47996395 437.53353701 634.09729593 441.2430619 636.71763181 444.95063647 C637.20481687 445.64012377 637.69200192 446.32961108 638.19395017 447.03999194 C639.17080584 448.42223378 640.14777467 449.80439566 641.12485837 451.18647631 C643.61584167 454.71081163 646.10408084 458.23708348 648.59263181 461.76313647 C649.59261903 463.17981215 650.59261902 464.59647883 651.59263181 466.01313647 C669.59263181 491.51313647 687.59263181 517.01313647 705.59263181 542.51313647 C706.08827634 543.21519213 706.58392087 543.9172478 707.09458493 544.64057788 C708.08848404 546.04881758 709.08197768 547.45734354 710.07505368 548.86616381 C712.66504339 552.53928653 715.2631518 556.20628239 717.87388181 559.86469897 C718.41270993 560.62202319 718.95153806 561.37934741 719.50669431 562.15962084 C720.53010756 563.59769291 721.55597305 565.03402446 722.58481931 566.46821459 C725.52740432 570.60978107 728.14159475 574.81196069 730.59263181 579.26313647 C718.31937174 582.62646418 705.96994332 585.63326569 693.59653806 588.60298022 C691.44019289 589.12191189 689.28388275 589.64098914 687.12760495 590.16020068 C681.34294468 591.55253329 675.55770461 592.94244195 669.77232312 594.33177432 C664.89023934 595.50446812 660.00848291 596.67852172 655.12670754 597.85249861 C622.29630483 605.74705152 589.4576074 613.60652695 556.61088323 621.43287142 C534.17128257 626.7796268 511.73555277 632.14232288 489.30356931 637.52094897 C487.97102395 637.84044294 486.63847835 638.15993591 485.30593251 638.4794279 C473.44256657 641.32384909 461.57931676 644.16875422 449.71656369 647.01573046 C447.8799154 647.45648551 447.8799154 647.45648551 446.00616311 647.9061447 C443.55358858 648.49473664 441.10103385 649.08341106 438.648499 649.67216834 C432.62125868 651.11863696 426.59337947 652.56233823 420.56408261 654.00021228 C409.78160839 656.57289463 399.00194172 659.15447303 388.23820393 661.80450942 C382.69967268 663.16802068 377.15856446 664.520671 371.61558919 665.86600103 C368.29891489 666.67179131 364.98411137 667.48403729 361.67280721 668.31164225 C358.02840809 669.21962028 354.37941796 670.1061616 350.72861814 670.98798999 C349.09574448 671.40353609 349.09574448 671.40353609 347.42988347 671.82747706 C345.93895334 672.18102543 345.93895334 672.18102543 344.41790341 672.54171618 C343.55345011 672.75467113 342.6889968 672.96762608 341.79834794 673.18703421 C339.59263181 673.26313647 339.59263181 673.26313647 337.90448617 671.985334 C335.96309336 669.43668074 334.34811526 666.71964834 332.74106931 663.95454272 C332.36979917 663.32461917 331.99852902 662.69469561 331.61600827 662.04568347 C330.81481301 660.68551982 330.01560682 659.32418296 329.21818112 657.9618059 C327.08680133 654.32101517 324.94062117 650.68896268 322.79575681 647.05610522 C322.35937894 646.31620349 321.92300107 645.57630175 321.47339963 644.81397875 C317.28288653 637.71770774 313.00957478 630.67336155 308.71763181 623.63813647 C302.1938909 612.93271561 295.77847074 602.1679021 289.41978025 591.36372241 C285.73785596 585.11566811 282.0421999 578.87575677 278.34263181 572.63813647 C277.73430509 571.61242541 277.73430509 571.61242541 277.11368894 570.56599292 C270.81928347 559.95874829 264.44465617 549.4032728 258.025249 538.87129077 C251.6942577 528.47351816 245.47506128 518.01044662 239.27427243 507.53462084 C238.52624683 506.27093638 237.77820019 505.00726437 237.03013181 503.74360522 C236.66278928 503.1230173 236.29544675 502.50242938 235.91697263 501.86303576 C233.32426963 497.48708282 230.71292837 493.12261374 228.09263181 488.76313647 C225.09704548 483.77927675 222.11708721 478.78659077 219.15513181 473.78266772 C218.78682248 473.16050875 218.41851316 472.53834979 218.03904294 471.89733752 C217.28174697 470.61799206 216.52446361 469.33863913 215.76719235 468.05927905 C209.27128498 457.08874331 202.72835668 446.14967658 196.09263181 435.26313647 C189.06730571 423.73741835 182.14975814 412.15030268 175.27427243 400.53462084 C174.52624683 399.27093638 173.77820019 398.00726437 173.03013181 396.74360522 C172.66278928 396.1230173 172.29544675 395.50242938 171.91697263 394.86303576 C169.32426963 390.48708282 166.71292837 386.12261374 164.09263181 381.76313647 C161.09704548 376.77927675 158.11708721 371.78659077 155.15513181 366.78266772 C154.78682248 366.16050875 154.41851316 365.53834979 154.03904294 364.89733752 C153.28174697 363.61799206 152.52446361 362.33863913 151.76719235 361.05927905 C145.27128498 350.08874331 138.72835668 339.14967658 132.09263181 328.26313647 C125.06730571 316.73741835 118.14975814 305.15030268 111.27427243 293.53462084 C110.52624683 292.27093638 109.77820019 291.00726437 109.03013181 289.74360522 C108.66278928 289.1230173 108.29544675 288.50242938 107.91697263 287.86303576 C105.32426963 283.48708282 102.71292837 279.12261374 100.09263181 274.76313647 C97.09704548 269.77927675 94.11708721 264.78659077 91.15513181 259.78266772 C90.78682248 259.16050875 90.41851316 258.53834979 90.03904294 257.89733752 C89.28174697 256.61799206 88.52446361 255.33863913 87.76719235 254.05927905 C81.27128498 243.08874331 74.72835668 232.14967658 68.09263181 221.26313647 C60.68269576 209.10642901 53.39698428 196.87858586 46.1451373 184.62701281 C42.71532593 178.83355905 39.27547022 173.04632577 35.81528806 167.27094897 C35.45898313 166.67537692 35.10267819 166.07980487 34.73557614 165.46618518 C24.03525506 145.17380955 24.03525506 145.17380955 6.59263181 132.26313647 C-3.27746873 130.03097427 -12.78712964 130.25491164 -22.79579593 130.94819506 C-24.37593336 131.04774438 -25.95612482 131.14643933 -27.53636504 131.24434336 C-44.57531152 132.32383007 -61.59437486 133.69481936 -78.6097448 135.09100255 C-83.04705714 135.45384593 -87.48485383 135.81066775 -91.92261172 136.16801318 C-103.10546019 137.06944704 -114.28769195 137.97840773 -125.46986819 138.88813647 C-137.64099296 139.87822885 -149.81222803 140.86686179 -161.98415513 141.84704872 C-167.2283235 142.26960844 -172.47212503 142.69638859 -177.7156731 143.12657436 C-180.96966416 143.39265207 -184.22394399 143.65505818 -187.47831012 143.91650447 C-188.97513766 144.03750424 -190.47184529 144.15999903 -191.96841289 144.28417262 C-200.12604683 144.96018995 -208.21664994 145.44332168 -216.40736819 145.26313647 C-215.06275694 137.58764726 -212.32753614 131.17748048 -208.90736819 124.20063647 C-208.37127933 123.0988103 -207.83519046 121.99698413 -207.28285647 120.86176928 C-200.39258036 106.91798872 -192.25648128 94.28282304 -182.40736819 82.26313647 C-181.95136233 81.70416674 -181.49535647 81.14519702 -181.02553225 80.56928881 C-170.36315794 67.590757 -158.78912698 55.46650181 -145.40736819 45.26313647 C-144.84968753 44.83436206 -144.29200686 44.40558764 -143.71742679 43.96382006 C-118.55272138 24.70253727 -90.32687983 11.12135798 -59.28236819 4.45063647 C-58.37817142 4.25550463 -57.47397464 4.0603728 -56.54237796 3.85932788 C-37.79724658 0.11261643 -19.03906346 -0.03204142 0 0 Z " fill="#F35045" transform="translate(253.4073681924492,24.736863530240953)"/>
<path d="M0 0 C3.36235505 3.10696619 4.95393562 6.77696712 6.81640625 10.890625 C7.18471558 11.68987396 7.5530249 12.48912292 7.93249512 13.31259155 C9.14870854 15.95559001 10.3555393 18.60276498 11.5625 21.25 C12.41593166 23.10886143 13.2700266 24.96741846 14.12475586 26.82568359 C15.88978367 30.66519575 17.65134772 34.50626786 19.41015625 38.34863281 C21.80496803 43.57826966 24.21190666 48.80221459 26.625 54.0234375 C26.99374741 54.8213269 27.36249481 55.61921631 27.74241638 56.44128418 C28.48073744 58.03871315 29.21909476 59.63612537 29.95748901 61.23352051 C31.81868315 65.26154164 33.67687434 69.29094723 35.53515625 73.3203125 C38.52129599 79.79465845 41.50818595 86.2686573 44.49609375 92.7421875 C44.86754517 93.54696533 45.23899658 94.35174316 45.6217041 95.1809082 C46.74778726 97.62061261 47.87388977 100.06030809 49 102.5 C57.25114322 120.37591197 57.25114322 120.37591197 61.34925842 129.26100159 C74.20585387 157.13521752 87.09630402 184.9936869 100.03198242 212.83129883 C106.10214208 225.89439087 112.14344659 238.9706022 118.17654419 252.05084229 C122.93788217 262.37338036 127.70754651 272.69186265 132.5 283 C137.56122725 293.88685221 142.59672743 304.78539813 147.625 315.6875 C153.90255812 329.29822946 160.19444747 342.90221729 166.5 356.5 C172.42272954 369.2722335 178.33472893 382.04932706 184.23132324 394.83364868 C185.3622307 397.28482331 186.493957 399.73561809 187.62597656 402.1862793 C190.72189222 408.88932154 193.8168592 415.59266191 196.88723755 422.30744934 C197.78310699 424.26533664 198.68137328 426.22210402 199.58056641 428.1784668 C200.64738366 430.50072108 201.70998269 432.82492087 202.76708984 435.15161133 C210.33946011 451.59274371 218.44295873 463.72618313 235.546875 471.09765625 C249.2227808 475.66337014 265.00166136 473.22237538 278.5625 469.6875 C280.15894152 469.28932332 281.75580908 468.89285213 283.35302734 468.49780273 C288.12801966 467.30834146 292.89402243 466.08551458 297.65936279 464.85803223 C301.22720761 463.94164243 304.79716764 463.03388554 308.36767578 462.12792969 C330.59619845 456.48724225 352.80056599 450.75396982 375 445 C375.97260521 444.74791023 376.94521042 444.49582047 377.94728851 444.23609161 C391.66147984 440.6811169 405.37433806 437.12102302 419.08636475 433.55770874 C423.39387482 432.43834402 427.70153802 431.31957152 432.00933838 430.20132446 C452.44088011 424.89722315 472.87038258 419.58813056 493.26362419 414.13832474 C495.63830021 413.50428097 498.01344551 412.87203226 500.3888092 412.24057007 C501.52139805 411.93947421 501.52139805 411.93947421 502.67686749 411.63229561 C504.15809998 411.23858865 505.63935722 410.84497476 507.12064075 410.45145988 C511.30273432 409.33916511 515.48110866 408.21409298 519.656991 407.07871437 C522.73720566 406.24482156 525.82210301 405.4285834 528.90625 404.609375 C530.53130714 404.16004105 530.53130714 404.16004105 532.18919373 403.70162964 C533.17154495 403.44398834 534.15389618 403.18634705 535.16601562 402.92089844 C536.01023071 402.69287537 536.8544458 402.46485229 537.72424316 402.22991943 C540.48131138 401.95137317 541.70505565 402.49925942 544 404 C545.16577148 405.60620117 545.16577148 405.60620117 546.12109375 407.54296875 C546.49186035 408.27435059 546.86262695 409.00573242 547.24462891 409.75927734 C547.8351001 410.96124756 547.8351001 410.96124756 548.4375 412.1875 C549.32619801 413.93523944 550.2182738 415.68126442 551.11328125 417.42578125 C551.58330566 418.34311035 552.05333008 419.26043945 552.53759766 420.20556641 C554.9552812 424.82540043 557.53919381 429.34775991 560.125 433.875 C565.10948056 442.62995461 570.01756075 451.4241698 574.875 460.25 C576.23429302 462.71879515 577.59369649 465.18752946 578.953125 467.65625 C579.28989258 468.26790009 579.62666016 468.87955017 579.97363281 469.50973511 C589.41687708 486.65481366 598.95927618 503.74512808 608.53515625 520.81640625 C610.86247143 524.9661832 613.18219515 529.12007154 615.49609375 533.27734375 C621.83426724 544.6528506 628.28289639 555.95000245 634.88183594 567.17626953 C638.79727722 573.86468934 642.5662136 580.61901877 646.25 587.4375 C650.39053271 595.09738467 654.6539182 602.65461588 659.11328125 610.1328125 C661.43369603 614.02626145 663.71090167 617.94396801 665.98046875 621.8671875 C684.00165058 655.77366028 684.00165058 655.77366028 712.875 679.375 C733.46591361 683.49318272 756.41834906 672.78937836 775.5 666.1875 C777.98484877 665.33533903 780.46987791 664.48370384 782.95507812 663.63256836 C803.38133728 656.62114237 823.74053704 649.42454114 844.06640625 642.12792969 C850.49965575 639.81920145 856.93715986 637.52245309 863.375 635.2265625 C891.98586311 625.02159418 920.58363149 614.78020463 949.1758728 604.52319336 C956.76875997 601.79959406 964.36265826 599.07882825 971.95703125 596.359375 C995.37601153 587.97237993 1018.78731747 579.56429746 1042.1875 571.125 C1042.81940624 570.89711037 1043.45131248 570.66922073 1044.1023674 570.43442535 C1058.42376855 565.2693055 1072.74224261 560.09616472 1087.05540276 554.9082489 C1089.04460246 554.18724915 1091.03384106 553.46635682 1093.02308655 552.7454834 C1099.25647643 550.48644971 1105.48938271 548.22609945 1111.72143555 545.96337891 C1113.98224755 545.1435228 1116.24307056 544.32369703 1118.50390625 543.50390625 C1119.47556732 543.15057724 1120.44722839 542.79724823 1121.44833374 542.43321228 C1131.27020557 538.87404549 1141.13591126 535.43997877 1151 532 C1151.07026063 543.04196554 1151.12319001 554.08387581 1151.15543652 565.12602139 C1151.17093203 570.2562151 1151.19186591 575.38625322 1151.22631836 580.51635742 C1151.51846184 625.2418295 1151.51846184 625.2418295 1148 645 C1147.66319214 646.92573853 1147.66319214 646.92573853 1147.31958008 648.89038086 C1146.73427781 651.87371335 1146.06537387 654.80510489 1145.3125 657.75 C1144.93013184 659.2827356 1144.93013184 659.2827356 1144.54003906 660.84643555 C1135.03304887 697.48015132 1115.01499728 728.91589324 1089 756 C1087.71609375 757.34578125 1087.71609375 757.34578125 1086.40625 758.71875 C1058.3091377 787.5271816 1021.07206074 807.38999108 981.875 815.8125 C980.97080322 816.00763184 980.06660645 816.20276367 979.13500977 816.40380859 C960.38987839 820.15052004 941.63169526 820.29517788 922.59263181 820.26313647 C918.75628378 820.25892004 914.91995404 820.26639391 911.08361065 820.27228898 C904.3766043 820.28100709 897.66962848 820.28237882 890.96261787 820.27878571 C880.98838458 820.27345649 871.01418062 820.27959624 861.03995051 820.28786864 C842.1852174 820.30307748 823.33049775 820.3048169 804.47575979 820.30234561 C789.91120765 820.3005101 775.3466599 820.30227797 760.78210831 820.30657005 C758.68664981 820.30717246 756.59119132 820.30777366 754.49573282 820.30837366 C751.33773082 820.30928095 748.17972881 820.31018962 745.02172681 820.31110601 C715.67451279 820.31953095 686.32730043 820.32387443 656.98008537 820.31969929 C655.32192044 820.31946472 655.32192044 820.31946472 653.63025722 820.31922542 C648.02795348 820.31841969 642.42564974 820.31757392 636.823346 820.31671212 C635.15451606 820.31645549 635.15451606 820.31645549 633.45197237 820.31619367 C631.20212118 820.31584701 628.95226999 820.31549848 626.7024188 820.31514808 C591.70296975 820.30979215 556.70354591 820.31771955 521.70410156 820.33618164 C482.3438062 820.35691995 442.98352646 820.36762083 403.62322533 820.36360615 C399.42241232 820.36321084 395.2215993 820.36284928 391.02078629 820.36250877 C389.46937089 820.36237268 389.46937089 820.36237268 387.88661377 820.36223383 C372.30595243 820.3610702 356.7253069 820.36769826 341.14464951 820.37832069 C323.41417843 820.39039679 305.68374209 820.39190398 287.95327048 820.37953053 C278.04479544 820.37292432 268.13640356 820.37448103 258.22793525 820.38811904 C251.59198587 820.39641127 244.95609826 820.39360459 238.32015382 820.38214377 C234.5507976 820.37593422 230.78160267 820.37416296 227.01225625 820.38600711 C205.25575357 820.44975403 183.44063399 819.72996788 162.25 814.3125 C160.7172644 813.93013184 160.7172644 813.93013184 159.15356445 813.54003906 C122.51984868 804.03304887 91.08410676 784.01499728 64 758 C63.1028125 757.1440625 62.205625 756.288125 61.28125 755.40625 C32.4728184 727.3091377 12.61000892 690.07206074 4.1875 650.875 C3.99236816 649.97080322 3.79723633 649.06660645 3.59619141 648.13500977 C0.0174575 630.23028501 -0.28679758 612.36661501 -0.24050903 594.17756653 C-0.24138268 591.60379182 -0.24313659 589.03001729 -0.24568737 586.45624369 C-0.24980263 580.89159326 -0.24660301 575.32698593 -0.23841095 569.76234055 C-0.2262641 561.48812335 -0.22574642 553.21393292 -0.22749493 544.93970844 C-0.2301136 531.01634967 -0.22347475 517.09300998 -0.21146011 503.16965675 C-0.19960406 489.39459959 -0.19192379 475.61955038 -0.18975449 461.84448814 C-0.18961701 460.98625919 -0.18947953 460.12803024 -0.18933788 459.24379436 C-0.18866117 454.88483673 -0.18805842 450.5258791 -0.18748413 446.16692146 C-0.18328936 415.33596633 -0.16983159 384.50502156 -0.15087891 353.67407227 C-0.13249416 323.73234105 -0.11833472 293.79061268 -0.10986328 263.84887695 C-0.10960023 262.92506128 -0.10933718 262.00124562 -0.10906615 261.04943553 C-0.10642899 251.77164038 -0.10387738 242.4938452 -0.10138843 233.21605 C-0.09631675 214.31808002 -0.09067424 195.42011022 -0.08468628 176.5221405 C-0.0844117 175.65334588 -0.08413712 174.78455126 -0.08385422 173.88942952 C-0.06546974 115.92628201 -0.03373957 57.96314036 0 0 Z " fill="#F35045" transform="translate(25,356)"/>
<path d="M0 0 C1.09581579 -0.03058439 2.19163158 -0.06116879 3.32065392 -0.09267998 C6.08169556 0.32443237 6.08169556 0.32443237 8.10215187 2.06513786 C9.73966124 4.38515986 10.88614119 6.74942748 12.08169556 9.32443237 C13.18145407 11.21647204 14.29550144 13.10025764 15.42153931 14.97677612 C16.62379795 17.07008523 17.82286996 19.16522688 19.01919556 21.26193237 C20.01057017 22.98966878 21.0019494 24.71740256 21.99360657 26.44497681 C23.01580356 28.22666856 24.03667425 30.00911472 25.05728149 31.79171753 C28.24134203 37.3509553 31.44275754 42.90018942 34.64419556 48.44943237 C35.5751001 50.0638623 35.5751001 50.0638623 36.52481079 51.71090698 C40.68931673 58.92782806 44.87814673 66.130193 49.08169556 73.32443237 C57.10437067 87.05498426 65.04027814 100.83521203 72.97720337 114.615448 C80.22202604 127.19207157 87.48902366 139.75480194 94.81240845 152.28585815 C99.73220837 160.71012576 104.60691693 169.15997134 109.47622681 177.61349487 C113.65518713 184.86394778 117.85917545 192.09927101 122.08169556 199.32443237 C130.10451233 213.05490054 138.04027883 226.83521323 145.97720337 240.615448 C153.22202604 253.19207157 160.48902366 265.75480194 167.81240845 278.28585815 C172.73220837 286.71012576 177.60691693 295.15997134 182.47622681 303.61349487 C186.65518713 310.86394778 190.85917545 318.09927101 195.08169556 325.32443237 C203.10451233 339.05490054 211.04027883 352.83521323 218.97720337 366.615448 C225.65125867 378.20125004 232.3363364 389.7799659 239.08169556 401.32443237 C247.10437067 415.05498426 255.04027814 428.83521203 262.97720337 442.615448 C269.71191774 454.30655092 276.45998495 465.98902833 283.26919556 477.63693237 C287.82361798 485.43035551 292.3490308 493.23949024 296.83169556 501.07443237 C297.33338257 501.95010864 297.83506958 502.82578491 298.35195923 503.72799683 C298.81449097 504.53841431 299.27702271 505.34883179 299.75357056 506.18380737 C300.15672485 506.88989136 300.55987915 507.59597534 300.97525024 508.32345581 C301.3403772 508.98377808 301.70550415 509.64410034 302.08169556 510.32443237 C302.46744751 510.99248901 302.85319946 511.66054565 303.25064087 512.34884644 C304.55081947 515.43963527 303.69933959 518.11268339 303.08169556 521.32443237 C291.29954188 525.25158179 279.26165511 528.02412738 267.18716431 530.88302612 C264.91140949 531.42519705 262.63574642 531.96775319 260.36016846 532.51066589 C254.26149963 533.96462417 248.16162033 535.41344155 242.06149673 536.86128235 C235.70186082 538.37165981 229.34335984 539.88679941 222.98477173 541.40158081 C213.93915323 543.55606591 204.8931876 545.70908124 195.84674931 547.86012077 C180.9254831 551.40811153 166.00663472 554.96611185 151.08950806 558.53146362 C149.07372805 559.01315914 147.05794541 559.49484365 145.04216003 559.97651672 C135.11146138 562.34952752 135.11146138 562.34952752 125.18087387 564.72300339 C115.3594641 567.07059993 105.53729702 569.41486914 95.7120409 571.74632168 C91.28217005 572.79835561 86.85473514 573.85998946 82.42897129 574.92916489 C79.638047 575.60201584 76.84564306 576.2685645 74.05286217 576.93366241 C72.1623938 577.38605061 70.27383476 577.84639488 68.38536072 578.30703735 C54.58891288 581.57804103 54.58891288 581.57804103 50.08169556 579.32443237 C49.07046509 577.474823 49.07046509 577.474823 47.96450806 574.98068237 C47.53259155 574.02202271 47.10067505 573.06336304 46.65567017 572.07565308 C46.17750854 571.00275024 45.69934692 569.92984741 45.20669556 568.82443237 C39.6919201 556.65506266 33.8983099 544.63411957 28.01919556 532.63693237 C26.27158398 529.06802757 24.52426682 525.49897866 22.77700806 521.92990112 C22.36019272 521.07875732 21.94337738 520.22761353 21.51393127 519.35067749 C18.43887776 513.06687417 15.39865039 506.76732761 12.39419556 500.44943237 C7.86303722 490.92388647 3.25844528 481.43491339 -1.35580444 471.94943237 C-6.19411251 462.00329755 -11.02095442 452.05244387 -15.79330444 442.07443237 C-21.36179884 430.43540639 -27.01952072 418.84041394 -32.67703247 407.24447632 C-37.91607956 396.50495315 -43.12755113 385.75351523 -48.28158569 374.97286987 C-52.94578739 365.23329718 -57.68319644 355.52965955 -62.41830444 345.82443237 C-67.6154483 335.17220188 -72.80595808 324.51771109 -77.91830444 313.82443237 C-82.99097697 303.21546569 -88.13792812 292.64336985 -93.29330444 282.07443237 C-98.89784491 270.58456229 -104.49274213 259.09049172 -110.04330444 247.57443237 C-115.08837924 237.10757601 -120.15251133 226.65020422 -125.23080444 216.19943237 C-125.58659576 215.46722473 -125.94238708 214.73501709 -126.30895996 213.98062134 C-128.1192681 210.25527015 -129.92984564 206.53004998 -131.74057007 202.80490112 C-135.32189157 195.43701562 -138.90143163 188.06826471 -142.48080444 180.69943237 C-142.83276886 179.97487854 -143.18473328 179.25032471 -143.54736328 178.5038147 C-148.67571494 167.946299 -153.79875584 157.38621933 -158.91830444 146.82443237 C-164.35231577 135.61440434 -169.78906518 124.40571126 -175.23080444 113.19943237 C-175.57632355 112.48776917 -175.92184265 111.77610596 -176.27783203 111.0428772 C-180.5108014 102.32495109 -184.75254685 93.61136716 -189.00424194 84.90255737 C-189.86322513 83.14231083 -190.72219332 81.38205697 -191.58114624 79.62179565 C-193.21908223 76.26524143 -194.85881691 72.90957445 -196.49960327 69.55441284 C-197.98102952 66.52428518 -199.45226297 63.48954453 -200.9156189 60.45065308 C-202.17660256 57.83364205 -203.46966814 55.23861995 -204.80184937 52.65719604 C-208.18437166 45.88770401 -209.77060171 40.92612362 -208.85580444 33.38693237 C-208.75622437 32.19100464 -208.75622437 32.19100464 -208.65463257 30.97091675 C-208.27792503 26.71447363 -207.62694309 22.5379977 -206.91830444 18.32443237 C-195.47364559 16.80877457 -184.02523576 15.63197732 -172.52523804 14.62863159 C-170.74263988 14.47093634 -168.96006297 14.31300067 -167.17750549 14.15484619 C-162.38659326 13.73061958 -157.59535773 13.3101634 -152.80401945 12.89077902 C-149.80132136 12.62776917 -146.7986988 12.36391352 -143.79610062 12.09976578 C-133.29575692 11.17603138 -122.79514975 10.25536198 -112.29428101 9.33761597 C-102.54394133 8.48538293 -92.79421227 7.62639884 -83.04474199 6.76428211 C-74.63615762 6.02103704 -66.22716655 5.28251957 -57.8178488 4.54761899 C-52.81175624 4.11005199 -47.80584348 3.67063884 -42.80033493 3.22643661 C-38.09421264 2.80896639 -33.38760703 2.39743065 -28.68058205 1.99026871 C-26.96405187 1.8408074 -25.24769704 1.68931456 -23.53154945 1.53552246 C-15.69624496 0.83447888 -7.86535551 0.21657877 0 0 Z " fill="#F35045" transform="translate(233.91830444335938,189.67556762695313)"/>
<path d="M0 0 C6.44555548 5.37686234 10.99834838 13.53505819 15.765625 20.375 C18.92552076 24.90660384 22.1383639 29.39796464 25.375 33.875 C26.1805835 34.9894751 26.1805835 34.9894751 27.00244141 36.12646484 C31.55443761 42.40959696 36.15812117 48.65409001 40.76904297 54.89404297 C44.71398785 60.23813704 48.61944818 65.60900077 52.5 71 C59.25983749 80.38780773 66.12417344 89.69696495 73 99 C80.42059673 109.0401124 87.81196039 119.09797508 95.10571289 129.23071289 C99.03398986 134.68107084 103.00722852 140.09675057 107 145.5 C112.6989575 153.21477012 118.34907445 160.96256441 123.9375 168.7578125 C125.9261875 171.52812971 127.94588051 174.27007269 130 176.9921875 C130.46567383 177.61826904 130.93134766 178.24435059 131.41113281 178.8894043 C132.26950452 180.04219562 133.13783852 181.18767435 134.01855469 182.32348633 C136.83421052 186.13988012 137.64552929 189.30326313 138 194 C133.04572825 197.69140824 128.07791399 199.59032065 122.234375 201.51171875 C121.27072525 201.83659271 120.3070755 202.16146667 119.31422424 202.4961853 C116.12881915 203.56810121 112.93944089 204.62765923 109.75 205.6875 C107.48300334 206.44820309 105.21632573 207.20985758 102.94995117 207.97241211 C98.25675417 209.55070515 93.56222046 211.12492494 88.86669922 212.69628906 C79.6603294 215.78056522 70.47141654 218.91567776 61.28204346 222.05014038 C38.2906337 229.88823912 15.27611526 237.65819781 -7.73672485 245.43307495 C-28.74370942 252.53030264 -49.74645512 259.63976748 -70.74279785 266.76843262 C-87.68931481 272.52198957 -104.63958369 278.26435177 -121.59235668 283.99944115 C-132.49148413 287.68665304 -143.38985715 291.37609407 -154.28803921 295.06609917 C-158.55698908 296.51150973 -162.82608428 297.95649044 -167.09521484 299.40136719 C-172.55157956 301.24837582 -178.00720653 303.097548 -183.46224976 304.94845581 C-185.51333632 305.64414422 -187.56462323 306.33924226 -189.61611938 307.03372192 C-200.32650126 310.66038634 -211.0131005 314.34026746 -221.65625 318.16015625 C-223.51747824 318.82492161 -225.37872459 319.48963625 -227.23999023 320.15429688 C-230.67798299 321.38280939 -234.10846564 322.62969121 -237.53540039 323.88867188 C-239.06634254 324.43813143 -240.59749867 324.98699526 -242.12890625 325.53515625 C-243.1331665 325.91342308 -243.1331665 325.91342308 -244.15771484 326.29933167 C-249.58855906 328.2156158 -255.84451235 329.39101257 -261.27734375 326.99609375 C-273.01494623 315.97655636 -280.323893 300.43041742 -288.203125 286.62890625 C-291.60172411 280.6779214 -295.06410099 274.76774666 -298.5625 268.875 C-304.8402214 258.28819067 -311.0450897 247.65986802 -317.23828125 237.0234375 C-318.97952417 234.03514034 -320.72361792 231.04852736 -322.46875 228.0625 C-329.14710423 216.63298183 -335.78692302 205.18213002 -342.39428711 193.71142578 C-346.57327594 186.46078014 -350.7773134 179.22527414 -355 172 C-360.49134121 162.6039805 -365.93861554 153.1832626 -371.37036133 143.75268555 C-376.36139811 135.09290078 -381.38858094 126.45461102 -386.43359375 117.82617188 C-387.49021925 116.01858754 -388.54550136 114.21021692 -389.59912109 112.40087891 C-390.48708705 110.87904949 -391.38004594 109.36011341 -392.27978516 107.84521484 C-395 103.21858574 -395 103.21858574 -395 101 C-376.60373798 95.52396258 -358.01083025 90.8093636 -339.4234314 86.03604126 C-329.44708846 83.47398219 -319.4736669 80.90057746 -309.5 78.328125 C-308.47518209 78.06388544 -307.45036419 77.79964588 -306.3944912 77.52739906 C-285.86783624 72.2341925 -265.35700848 66.88148233 -244.85069656 61.51008606 C-212.98722381 53.16390737 -181.10977485 44.87308692 -149.22265625 36.6177063 C-114.36282639 27.59270003 -79.50982027 18.54380852 -44.6875 9.375 C-43.87952469 9.16234623 -43.07154938 8.94969246 -42.23908997 8.73059464 C-37.6822224 7.53125255 -33.12561457 6.33093356 -28.56947517 5.12882805 C-27.22269659 4.77351225 -25.87586999 4.41837837 -24.52898979 4.06344795 C-16.66417994 2.00227488 -16.66417994 2.00227488 -8.84301758 -0.21630859 C-5.24690523 -1.20759418 -3.52014886 -1.32005582 0 0 Z " fill="#F35045" transform="translate(1015,643)"/>
<path d="M0 0 C6.7592097 5.63267475 11.82625083 12.77969239 17.1328125 19.74609375 C20.37312791 23.99829311 23.65379023 28.21876779 26.9375 32.4375 C27.53618896 33.20666748 28.13487793 33.97583496 28.75170898 34.76831055 C35.57805533 43.53260187 42.41190209 52.28944627 49.37426758 60.94628906 C54.14714304 66.88151925 58.83317519 72.87042192 63.4375 78.9375 C67.69287767 84.54339816 72.03645573 90.0584391 76.5 95.5 C81.55235805 101.66072528 86.48679661 107.89842984 91.23706055 114.29614258 C93.7643322 117.68298833 96.30095907 120.8906266 99.26171875 123.91015625 C106.0919244 131.10254549 107.87586389 136.33079594 107.6875 146.375 C107.54626529 149.76106798 107.32759135 153.12695449 107 156.5 C101.2840336 158.54872376 95.43282816 159.95003733 89.54467773 161.40161133 C87.82368866 161.82891289 87.82368866 161.82891289 86.06793213 162.2648468 C82.92898392 163.04367442 79.78951255 163.82034812 76.64977908 164.59600282 C73.34001435 165.41415548 70.03089697 166.23491856 66.72169495 167.05534363 C61.14958244 168.43639251 55.57701857 169.8156073 50.00415039 171.19360352 C43.61693859 172.7729721 37.23029517 174.35462074 30.84399647 175.9376772 C23.98947619 177.63678919 17.13458719 179.33440967 10.2795651 181.03149581 C8.33488189 181.513022 6.39026364 181.99481048 4.44564629 182.47660255 C-2.62833541 184.22869085 -9.7044473 185.97169958 -16.78282547 187.70593643 C-19.9417448 188.48562144 -23.09628411 189.28128708 -26.25045776 190.07992554 C-28.15249512 190.55316797 -30.05460072 191.02613625 -31.95678711 191.4987793 C-33.23360147 191.8289579 -33.23360147 191.8289579 -34.53621006 192.16580677 C-38.64223697 193.17376267 -41.87585804 193.95644302 -46 192.5 C-47.5546875 191.01977539 -47.5546875 191.01977539 -48.875 189.09765625 C-49.37829834 188.3816626 -49.88159668 187.66566895 -50.40014648 186.92797852 C-51.19207397 185.75706665 -51.19207397 185.75706665 -52 184.5625 C-53.15721293 182.90601301 -54.31477455 181.24976958 -55.47265625 179.59375 C-56.35268311 178.31951172 -56.35268311 178.31951172 -57.25048828 177.01953125 C-59.92820726 173.16325719 -62.68187333 169.36329169 -65.4375 165.5625 C-65.97052734 164.82394775 -66.50355469 164.08539551 -67.05273438 163.32446289 C-71.58213102 157.05314708 -76.17183125 150.82721828 -80.76928711 144.60571289 C-85.25816363 138.52455095 -89.68990813 132.40404491 -94.10546875 126.26953125 C-98.03392016 120.81916162 -102.00705268 115.40325984 -106 110 C-111.08205078 103.1229644 -116.11002797 96.20966917 -121.10546875 89.26953125 C-125.0339221 83.81915892 -129.00725345 78.40341043 -133 73 C-139.23285479 64.55972988 -145.41844254 56.08749506 -151.5234375 47.55419922 C-152.9417902 45.58098168 -154.37568935 43.61995374 -155.8125 41.66015625 C-156.64646324 40.5030579 -157.47983723 39.34553453 -158.3125 38.1875 C-159.03050781 37.20136719 -159.74851562 36.21523438 -160.48828125 35.19921875 C-162.12224767 32.28172315 -162.6043122 30.78135879 -162 27.5 C-158.6394998 25.25966653 -155.76041575 24.73619084 -151.87231445 24.08642578 C-151.14439634 23.95887626 -150.41647823 23.83132673 -149.666502 23.69991207 C-147.23318984 23.27512441 -144.79826912 22.86037734 -142.36328125 22.4453125 C-140.63490914 22.14504742 -138.90666554 21.84404179 -137.17854309 21.54234314 C-133.4838635 20.8984359 -129.78852454 20.258523 -126.09259033 19.62185669 C-116.40656061 17.95291526 -106.72464238 16.26040579 -97.04296875 14.56640625 C-96.06935394 14.39627203 -95.09573914 14.22613781 -94.09262085 14.05084801 C-80.83312926 11.73186913 -67.58954031 9.34149805 -54.36328125 6.83984375 C-53.23863307 6.62730705 -53.23863307 6.62730705 -52.09126472 6.41047668 C-45.06805075 5.08195193 -38.0470813 3.74215112 -31.02925014 2.38547802 C-29.11126693 2.01551883 -27.19268695 1.64865767 -25.27409363 1.28187561 C-22.97501871 0.84232049 -20.67691547 0.39763482 -18.38008118 -0.05348206 C-5.14953063 -2.57476532 -5.14953063 -2.57476532 0 0 Z " fill="#F35045" transform="translate(1069,400.5)"/>
<path d="M0 0 C0 63.36 0 126.72 0 192 C-5.62551929 186.37448071 -5.62551929 186.37448071 -7.62109375 183.6796875 C-8.07387695 183.07229736 -8.52666016 182.46490723 -8.99316406 181.83911133 C-9.46979492 181.19095459 -9.94642578 180.54279785 -10.4375 179.875 C-10.9540918 179.17979248 -11.47068359 178.48458496 -12.00292969 177.76831055 C-14.79179118 174.00968207 -17.56147832 170.2369771 -20.33203125 166.46484375 C-21.47132145 164.91403846 -22.61064483 163.36325756 -23.75 161.8125 C-24.32645264 161.02705811 -24.90290527 160.24161621 -25.49682617 159.43237305 C-30.01219888 153.29717448 -34.61776462 147.23477766 -39.25 141.1875 C-43.99563998 134.99118126 -48.65457911 128.7593616 -53.14257812 122.37451172 C-57.54261459 116.15683251 -62.20261849 110.13827295 -66.83374023 104.09204102 C-71.89119446 97.48008757 -76.85778637 90.80777108 -81.78027344 84.0949707 C-85.98272104 78.36809417 -90.23016489 72.67678348 -94.5 67 C-101.26454845 58.00446758 -107.95350609 48.95488323 -114.61230469 39.88085938 C-115.6067557 38.53299685 -116.65645198 37.22523186 -117.73925781 35.94726562 C-118.15530273 35.30466797 -118.57134766 34.66207031 -119 34 C-118.67 33.01 -118.34 32.02 -118 31 C-116.34149742 30.22036076 -116.34149742 30.22036076 -114.14633179 29.64112854 C-113.31680496 29.41560303 -112.48727814 29.19007751 -111.63261414 28.9577179 C-110.71535049 28.72231796 -109.79808685 28.48691803 -108.85302734 28.24438477 C-107.89186508 27.98702545 -106.93070282 27.72966614 -105.94041443 27.46450806 C-102.74200654 26.61135007 -99.53912831 25.77641066 -96.3359375 24.94140625 C-94.10856084 24.35104307 -91.8814832 23.75955064 -89.6546936 23.16697693 C-83.76802723 21.60371831 -77.87743142 20.05579645 -71.98590088 18.51098633 C-66.0455001 16.95060317 -60.10883108 15.37616301 -54.171875 13.80273438 C-44.46663433 11.2323403 -34.75925606 8.67023015 -25.0484066 6.12110233 C-20.7879944 5.00178433 -16.52944212 3.87688005 -12.27716064 2.72702026 C-11.57185526 2.53666923 -10.86654987 2.34631819 -10.1398716 2.15019894 C-8.30916378 1.65481177 -6.47932398 1.1562198 -4.64956665 0.65733337 C-2 0 -2 0 0 0 Z " fill="#F35045" transform="translate(1176,603)"/>
</svg>
