<?xml version="1.0" encoding="UTF-8"?>
<svg version="1.1" xmlns="http://www.w3.org/2000/svg" width="4096" height="4096">
<path d="M0 0 C2.55129812 1.24076054 5.10360551 2.47941931 7.65625 3.71740723 C14.81422266 7.18973757 21.96890162 10.66872916 29.11863708 14.1579895 C37.48247915 18.23963268 45.86433269 22.28120308 54.26586914 26.28479004 C61.88893302 29.91859656 69.49455157 33.58799504 77.09765625 37.26330566 C85.75569996 41.44812067 94.41928084 45.62076021 103.09765625 49.76330566 C111.73386929 53.88600202 120.35613616 58.03714274 128.97265625 62.20080566 C142.17006274 68.57780565 155.38094533 74.92641025 168.59765625 81.26330566 C182.43601759 87.89825812 196.26678908 94.54850807 210.08483887 101.22564697 C218.0808193 105.08897691 226.08360751 108.9375818 234.09765625 112.76330566 C242.73385591 116.88603018 251.35613604 121.03714268 259.97265625 125.20080566 C273.17006274 131.57780565 286.38094533 137.92641025 299.59765625 144.26330566 C313.43601759 150.89825812 327.26678908 157.54850807 341.08483887 164.22564697 C349.0808193 168.08897691 357.08360751 171.9375818 365.09765625 175.76330566 C373.73385591 179.88603018 382.35613604 184.03714268 390.97265625 188.20080566 C404.17006274 194.57780565 417.38094533 200.92641025 430.59765625 207.26330566 C444.43601759 213.89825812 458.26678908 220.54850807 472.08483887 227.22564697 C480.9981978 231.53221659 489.92234113 235.81557382 498.85595703 240.07995605 C507.23979586 244.08501645 515.60621475 248.12583198 523.97167969 252.16906738 C532.00527368 256.0514812 540.04542814 259.91964606 548.09765625 263.76330566 C556.73386929 267.88600202 565.35613616 272.03714274 573.97265625 276.20080566 C587.17006274 282.57780565 600.38094533 288.92641025 613.59765625 295.26330566 C627.43601759 301.89825812 641.26678908 308.54850807 655.08483887 315.22564697 C663.08082269 319.08897854 671.08397573 322.93680688 679.09765625 326.76330566 C680.94535264 327.64733636 682.7930082 328.53145239 684.640625 329.41564941 C688.41112794 331.21982514 692.18454166 333.01773993 695.95970154 334.81214905 C734.92470515 353.34857837 769.49121293 375.12124458 795.59765625 410.26330566 C796.31566406 411.20947754 797.03367187 412.15564941 797.7734375 413.13049316 C820.29449028 443.30433088 834.33282534 479.06272401 839.59765625 516.26330566 C839.76797436 517.45659933 839.93829246 518.64989299 840.11377172 519.87934707 C840.91885885 527.26762841 840.73570959 534.70855967 840.72530675 542.13052011 C840.72655037 543.86505091 840.72823161 545.59958144 840.73030911 547.33411144 C840.73476187 552.11635481 840.73297972 556.89857882 840.73020733 561.68082271 C840.72828622 566.89697337 840.73216619 572.11312026 840.73530412 577.32926989 C840.74002156 586.51180446 840.74100136 595.69433364 840.73957577 604.87686923 C840.73745727 618.62366738 840.74106426 632.37045994 840.74579055 646.11725723 C840.75367039 669.54385346 840.75676087 692.97044774 840.75723648 716.39704514 C840.7577309 740.14625243 840.76037523 763.89545803 840.76564407 787.64466476 C840.76597761 789.15840477 840.76631108 790.67214478 840.76664448 792.18588478 C840.76799258 798.28922708 840.76935588 804.39256937 840.77073658 810.49591166 C840.78590439 877.6397327 840.7926796 944.78355331 840.79715855 1011.9273758 C840.79721524 1012.77670686 840.79727193 1013.62603793 840.79733034 1014.5011063 C840.79761686 1018.79720735 840.79790189 1023.09330839 840.79818445 1027.38940943 C840.80055953 1063.38215044 840.80426919 1099.37489126 840.80822155 1135.36763213 C840.81011413 1152.60411968 840.81194263 1169.84060724 840.81375575 1187.07709479 C840.81384594 1187.93434088 840.81393613 1188.79158697 840.81402905 1189.67481021 C840.81836532 1230.9332706 840.82229364 1272.19173102 840.82575607 1313.4501915 C840.82582995 1314.33031128 840.82590382 1315.21043107 840.82597993 1316.11722116 C840.83067499 1372.20791339 840.83349796 1428.29860555 840.83514285 1484.38929795 C840.83527843 1488.98812254 840.83541746 1493.58694714 840.83555639 1498.18577173 C840.83577887 1505.55881235 840.83600024 1512.93185297 840.83622027 1520.3048936 C840.83624754 1521.21853958 840.83627481 1522.13218556 840.83630291 1523.07351779 C840.83635802 1524.92007008 840.83641313 1526.76662236 840.83646824 1528.61317465 C840.83685486 1541.56622863 840.8372428 1554.51928262 840.83763737 1567.47233661 C840.83777848 1572.10720941 840.83791855 1576.74208222 840.83805627 1581.37695502 C840.84066043 1668.91243718 840.84599015 1756.44791757 840.86193848 1843.98339844 C840.86210627 1844.9048691 840.86227406 1845.82633976 840.86244694 1846.77573378 C840.86769764 1875.56651299 840.87327199 1904.35729215 840.87890625 1933.14807129 C840.88468724 1962.68949506 840.8904178 1992.23091884 840.89586258 2021.77234268 C840.89611429 2023.13674404 840.89611429 2023.13674404 840.89637109 2024.52870906 C840.90686453 2081.49743997 840.91372595 2138.46617039 840.91672897 2195.43490219 C840.91677578 2196.31481209 840.9168226 2197.194722 840.91687083 2198.10129584 C840.91892151 2236.74542857 840.92016557 2275.38956129 840.92051688 2314.03369408 C840.92066015 2329.58051476 840.92089881 2345.12733544 840.92118094 2360.67415612 C840.92122647 2363.25189181 840.92126812 2365.82962749 840.92130905 2368.40736317 C840.9219551 2407.83319308 840.92491184 2447.25902096 840.93476963 2486.68484974 C840.93508819 2487.9600409 840.93508819 2487.9600409 840.93541318 2489.26099351 C840.93884193 2502.93621142 840.94245491 2516.61142928 840.94608958 2530.28664714 C840.95640405 2569.11305652 840.96518398 2607.9394634 840.96324492 2646.76587439 C840.96318681 2647.94789856 840.96318681 2647.94789856 840.96312752 2649.15380201 C840.96225091 2666.3468759 840.96053873 2683.5399496 840.9580079 2700.73302333 C840.95701116 2707.59039348 840.9561245 2714.44776365 840.95527267 2721.30513382 C840.95517679 2722.05315129 840.9550809 2722.80116876 840.95498211 2723.57185343 C840.95199462 2747.28497962 840.95822072 2770.99809134 840.96979154 2794.71121457 C840.98146355 2818.71276787 840.98276855 2842.71429435 840.97147586 2866.71584909 C840.96537379 2880.36794025 840.96748921 2894.01997053 840.98172783 2907.67205597 C840.99036521 2916.73917174 840.98811832 2925.8062427 840.97702912 2934.87335569 C840.97104757 2940.01308668 840.96966731 2945.15269829 840.98171398 2950.29242134 C841.06810103 2989.76914122 841.06810103 2989.76914122 837.59765625 3006.26330566 C837.41149337 3007.16372817 837.22533049 3008.06415067 837.03352631 3008.99185871 C826.28802386 3060.50191888 797.75188612 3109.11947712 755.59765625 3141.26330566 C754.95441406 3141.75588867 754.31117188 3142.24847168 753.6484375 3142.75598145 C731.30154043 3159.72785083 706.01985136 3171.30667595 680.78125 3183.31408691 C673.87326901 3186.602694 666.98549912 3189.93281741 660.09765625 3193.26330566 C650.52260125 3197.89170416 640.93752732 3202.49838137 631.33984375 3207.07971191 C623.58190056 3210.78580455 615.83861063 3214.52191161 608.09765625 3218.26330566 C599.43954587 3222.44798382 590.77603254 3226.62075978 582.09765625 3230.76330566 C573.46144321 3234.88600202 564.83917634 3239.03714274 556.22265625 3243.20080566 C542.01240364 3250.0672139 527.78572246 3256.89906596 513.5546875 3263.72229004 C500.73091582 3269.87146097 487.91568246 3276.03793168 475.11047363 3282.22564697 C466.1971147 3286.53221659 457.27297137 3290.81557382 448.33935547 3295.07995605 C440.58156475 3298.78594575 432.83844677 3302.52199081 425.09765625 3306.26330566 C416.43954587 3310.44798382 407.77603254 3314.62075978 399.09765625 3318.76330566 C390.46144321 3322.88600202 381.83917634 3327.03714274 373.22265625 3331.20080566 C359.01240364 3338.0672139 344.78572246 3344.89906596 330.5546875 3351.72229004 C317.73091582 3357.87146097 304.91568246 3364.03793168 292.11047363 3370.22564697 C283.19563985 3374.53292917 274.26992931 3378.81680345 265.33496094 3383.08215332 C257.62077476 3386.76752191 249.92034454 3390.48113938 242.22265625 3394.20080566 C228.01240364 3401.0672139 213.78572246 3407.89906596 199.5546875 3414.72229004 C186.73091582 3420.87146097 173.91568246 3427.03793168 161.11047363 3433.22564697 C152.1971147 3437.53221659 143.27297137 3441.81557382 134.33935547 3446.07995605 C126.58156475 3449.78594575 118.83844677 3453.52199081 111.09765625 3457.26330566 C102.43954587 3461.44798382 93.77603254 3465.62075978 85.09765625 3469.76330566 C76.46144321 3473.88600202 67.83917634 3478.03714274 59.22265625 3482.20080566 C48.04988422 3487.59950025 36.86908931 3492.98117589 25.6796875 3498.34533691 C21.65393318 3500.27545781 17.63063513 3502.21055839 13.609375 3504.15002441 C8.43378705 3506.64524044 3.25226586 3509.12779774 -1.93261719 3511.6036377 C-4.37764268 3512.77316227 -6.82100584 3513.94575302 -9.26269531 3515.12219238 C-70.15036031 3544.43258853 -133.52873273 3555.96186168 -199.01220703 3533.44445801 C-221.14134941 3525.49234698 -241.7750243 3514.67481124 -260.40234375 3500.26330566 C-261.21574219 3499.64197754 -262.02914062 3499.02064941 -262.8671875 3498.38049316 C-271.16788386 3491.90254055 -278.77555502 3484.67219291 -286.44140625 3477.47033691 C-287.48820557 3476.48722534 -287.48820557 3476.48722534 -288.55615234 3475.48425293 C-289.91228857 3474.20914371 -291.26688656 3472.93239569 -292.61962891 3471.65368652 C-296.48196634 3468.01442139 -300.41858152 3464.48437468 -304.42480469 3461.0045166 C-307.65185851 3458.16311563 -310.77379024 3455.21219805 -313.90234375 3452.26330566 C-318.31480094 3448.1234494 -322.74748523 3444.03307555 -327.33203125 3440.08361816 C-331.88044787 3436.08444431 -336.28828766 3431.92563858 -340.73095703 3427.80969238 C-346.8954574 3422.10622389 -353.0874225 3416.43281569 -359.33984375 3410.82580566 C-363.79444285 3406.82882188 -368.19152854 3402.77256157 -372.58349609 3398.70715332 C-376.65115963 3394.9460314 -380.75796005 3391.23121027 -384.8828125 3387.53283691 C-390.27272041 3382.67774157 -395.6018618 3377.75551025 -400.94335938 3372.84729004 C-406.05544749 3368.15092446 -411.17119531 3363.46005427 -416.33984375 3358.82580566 C-420.79444285 3354.82882188 -425.19152854 3350.77256157 -429.58349609 3346.70715332 C-433.65115963 3342.9460314 -437.75796005 3339.23121027 -441.8828125 3335.53283691 C-447.27272041 3330.67774157 -452.6018618 3325.75551025 -457.94335938 3320.84729004 C-463.05544749 3316.15092446 -468.17119531 3311.46005427 -473.33984375 3306.82580566 C-477.79444285 3302.82882188 -482.19152854 3298.77256157 -486.58349609 3294.70715332 C-490.65115963 3290.9460314 -494.75796005 3287.23121027 -498.8828125 3283.53283691 C-504.27272041 3278.67774157 -509.6018618 3273.75551025 -514.94335938 3268.84729004 C-520.05544749 3264.15092446 -525.17119531 3259.46005427 -530.33984375 3254.82580566 C-534.79444285 3250.82882188 -539.19152854 3246.77256157 -543.58349609 3242.70715332 C-547.65115963 3238.9460314 -551.75796005 3235.23121027 -555.8828125 3231.53283691 C-561.27272041 3226.67774157 -566.6018618 3221.75551025 -571.94335938 3216.84729004 C-577.05544749 3212.15092446 -582.17119531 3207.46005427 -587.33984375 3202.82580566 C-591.79521179 3198.82813193 -596.19317894 3194.77129681 -600.58569336 3190.70495605 C-603.83599726 3187.69934494 -607.1053145 3184.71778642 -610.40234375 3181.76330566 C-614.26896942 3178.29840734 -618.09248161 3174.79025998 -621.90234375 3171.26330566 C-626.52854182 3166.98103288 -631.1891305 3162.74122708 -635.8828125 3158.53283691 C-641.27272041 3153.67774157 -646.6018618 3148.75551025 -651.94335938 3143.84729004 C-657.05544749 3139.15092446 -662.17119531 3134.46005427 -667.33984375 3129.82580566 C-671.79444285 3125.82882188 -676.19152854 3121.77256157 -680.58349609 3117.70715332 C-684.65115963 3113.9460314 -688.75796005 3110.23121027 -692.8828125 3106.53283691 C-698.27272041 3101.67774157 -703.6018618 3096.75551025 -708.94335938 3091.84729004 C-714.05544749 3087.15092446 -719.17119531 3082.46005427 -724.33984375 3077.82580566 C-728.79444285 3073.82882188 -733.19152854 3069.77256157 -737.58349609 3065.70715332 C-741.65115963 3061.9460314 -745.75796005 3058.23121027 -749.8828125 3054.53283691 C-755.27272041 3049.67774157 -760.6018618 3044.75551025 -765.94335938 3039.84729004 C-771.05544749 3035.15092446 -776.17119531 3030.46005427 -781.33984375 3025.82580566 C-785.79444285 3021.82882188 -790.19152854 3017.77256157 -794.58349609 3013.70715332 C-798.65115963 3009.9460314 -802.75796005 3006.23121027 -806.8828125 3002.53283691 C-812.27272041 2997.67774157 -817.6018618 2992.75551025 -822.94335938 2987.84729004 C-828.05544749 2983.15092446 -833.17119531 2978.46005427 -838.33984375 2973.82580566 C-842.79444285 2969.82882188 -847.19152854 2965.77256157 -851.58349609 2961.70715332 C-855.65115963 2957.9460314 -859.75796005 2954.23121027 -863.8828125 2950.53283691 C-869.27272041 2945.67774157 -874.6018618 2940.75551025 -879.94335938 2935.84729004 C-885.05544749 2931.15092446 -890.17119531 2926.46005427 -895.33984375 2921.82580566 C-899.79444285 2917.82882188 -904.19152854 2913.77256157 -908.58349609 2909.70715332 C-912.65115963 2905.9460314 -916.75796005 2902.23121027 -920.8828125 2898.53283691 C-926.27272041 2893.67774157 -931.6018618 2888.75551025 -936.94335938 2883.84729004 C-942.05544749 2879.15092446 -947.17119531 2874.46005427 -952.33984375 2869.82580566 C-956.79444285 2865.82882188 -961.19152854 2861.77256157 -965.58349609 2857.70715332 C-969.65115963 2853.9460314 -973.75796005 2850.23121027 -977.8828125 2846.53283691 C-983.27272041 2841.67774157 -988.6018618 2836.75551025 -993.94335938 2831.84729004 C-999.05544749 2827.15092446 -1004.17119531 2822.46005427 -1009.33984375 2817.82580566 C-1013.79521179 2813.82813193 -1018.19317894 2809.77129681 -1022.58569336 2805.70495605 C-1025.83599726 2802.69934494 -1029.1053145 2799.71778642 -1032.40234375 2796.76330566 C-1036.26896942 2793.29840734 -1040.09248161 2789.79025998 -1043.90234375 2786.26330566 C-1048.52854182 2781.98103288 -1053.1891305 2777.74122708 -1057.8828125 2773.53283691 C-1063.27272041 2768.67774157 -1068.6018618 2763.75551025 -1073.94335938 2758.84729004 C-1079.05544749 2754.15092446 -1084.17119531 2749.46005427 -1089.33984375 2744.82580566 C-1093.79444285 2740.82882188 -1098.19152854 2736.77256157 -1102.58349609 2732.70715332 C-1106.65115963 2728.9460314 -1110.75796005 2725.23121027 -1114.8828125 2721.53283691 C-1120.27272041 2716.67774157 -1125.6018618 2711.75551025 -1130.94335938 2706.84729004 C-1136.05544749 2702.15092446 -1141.17119531 2697.46005427 -1146.33984375 2692.82580566 C-1150.79444285 2688.82882188 -1155.19152854 2684.77256157 -1159.58349609 2680.70715332 C-1163.65115963 2676.9460314 -1167.75796005 2673.23121027 -1171.8828125 2669.53283691 C-1177.27272041 2664.67774157 -1182.6018618 2659.75551025 -1187.94335938 2654.84729004 C-1193.05544749 2650.15092446 -1198.17119531 2645.46005427 -1203.33984375 2640.82580566 C-1207.79444285 2636.82882188 -1212.19152854 2632.77256157 -1216.58349609 2628.70715332 C-1220.65115963 2624.9460314 -1224.75796005 2621.23121027 -1228.8828125 2617.53283691 C-1234.27272041 2612.67774157 -1239.6018618 2607.75551025 -1244.94335938 2602.84729004 C-1250.05544749 2598.15092446 -1255.17119531 2593.46005427 -1260.33984375 2588.82580566 C-1264.79444285 2584.82882188 -1269.19152854 2580.77256157 -1273.58349609 2576.70715332 C-1277.65115963 2572.9460314 -1281.75796005 2569.23121027 -1285.8828125 2565.53283691 C-1291.27272041 2560.67774157 -1296.6018618 2555.75551025 -1301.94335938 2550.84729004 C-1307.05544749 2546.15092446 -1312.17119531 2541.46005427 -1317.33984375 2536.82580566 C-1321.79444285 2532.82882188 -1326.19152854 2528.77256157 -1330.58349609 2524.70715332 C-1334.65115963 2520.9460314 -1338.75796005 2517.23121027 -1342.8828125 2513.53283691 C-1348.27272041 2508.67774157 -1353.6018618 2503.75551025 -1358.94335938 2498.84729004 C-1364.05544749 2494.15092446 -1369.17119531 2489.46005427 -1374.33984375 2484.82580566 C-1378.79521179 2480.82813193 -1383.19317894 2476.77129681 -1387.58569336 2472.70495605 C-1390.83599726 2469.69934494 -1394.1053145 2466.71778642 -1397.40234375 2463.76330566 C-1401.26896942 2460.29840734 -1405.09248161 2456.79025998 -1408.90234375 2453.26330566 C-1413.52854182 2448.98103288 -1418.1891305 2444.74122708 -1422.8828125 2440.53283691 C-1428.27272041 2435.67774157 -1433.6018618 2430.75551025 -1438.94335938 2425.84729004 C-1444.05544749 2421.15092446 -1449.17119531 2416.46005427 -1454.33984375 2411.82580566 C-1458.79444285 2407.82882188 -1463.19152854 2403.77256157 -1467.58349609 2399.70715332 C-1471.65115963 2395.9460314 -1475.75796005 2392.23121027 -1479.8828125 2388.53283691 C-1485.27272041 2383.67774157 -1490.6018618 2378.75551025 -1495.94335938 2373.84729004 C-1501.05544749 2369.15092446 -1506.17119531 2364.46005427 -1511.33984375 2359.82580566 C-1515.79444285 2355.82882188 -1520.19152854 2351.77256157 -1524.58349609 2347.70715332 C-1528.65115963 2343.9460314 -1532.75796005 2340.23121027 -1536.8828125 2336.53283691 C-1542.27272041 2331.67774157 -1547.6018618 2326.75551025 -1552.94335938 2321.84729004 C-1558.05544749 2317.15092446 -1563.17119531 2312.46005427 -1568.33984375 2307.82580566 C-1572.79444285 2303.82882188 -1577.19152854 2299.77256157 -1581.58349609 2295.70715332 C-1585.65115963 2291.9460314 -1589.75796005 2288.23121027 -1593.8828125 2284.53283691 C-1599.27272041 2279.67774157 -1604.6018618 2274.75551025 -1609.94335938 2269.84729004 C-1615.05544749 2265.15092446 -1620.17119531 2260.46005427 -1625.33984375 2255.82580566 C-1629.79444285 2251.82882188 -1634.19152854 2247.77256157 -1638.58349609 2243.70715332 C-1642.65115963 2239.9460314 -1646.75796005 2236.23121027 -1650.8828125 2232.53283691 C-1656.27272041 2227.67774157 -1661.6018618 2222.75551025 -1666.94335938 2217.84729004 C-1672.05544749 2213.15092446 -1677.17119531 2208.46005427 -1682.33984375 2203.82580566 C-1688.4205614 2198.3700231 -1694.40925061 2192.81490135 -1700.40234375 2187.26330566 C-1705.42311348 2189.2074383 -1709.37151611 2191.50579322 -1713.52734375 2194.95080566 C-1714.74993371 2195.93687967 -1715.97398898 2196.92113864 -1717.19921875 2197.90393066 C-1718.19791992 2198.70733887 -1718.19791992 2198.70733887 -1719.21679688 2199.52697754 C-1723.35507112 2202.81466816 -1727.56930996 2206.00323121 -1731.77734375 2209.20080566 C-1733.13496826 2210.23370728 -1733.13496826 2210.23370728 -1734.52001953 2211.28747559 C-1740.43326921 2215.78109922 -1746.36739493 2220.24597763 -1752.31518555 2224.69372559 C-1761.3910474 2231.4884095 -1770.3904412 2238.38418778 -1779.40234375 2245.26330566 C-1789.68091618 2253.10931942 -1799.96101403 2260.95114582 -1810.31689453 2268.69494629 C-1819.39206589 2275.48938678 -1828.39099595 2282.38461125 -1837.40234375 2289.26330566 C-1847.68091618 2297.10931942 -1857.96101403 2304.95114582 -1868.31689453 2312.69494629 C-1877.39206589 2319.48938678 -1886.39099595 2326.38461125 -1895.40234375 2333.26330566 C-1905.68091618 2341.10931942 -1915.96101403 2348.95114582 -1926.31689453 2356.69494629 C-1935.39206589 2363.48938678 -1944.39099595 2370.38461125 -1953.40234375 2377.26330566 C-1963.68091618 2385.10931942 -1973.96101403 2392.95114582 -1984.31689453 2400.69494629 C-1993.39206589 2407.48938678 -2002.39099595 2414.38461125 -2011.40234375 2421.26330566 C-2021.68091618 2429.10931942 -2031.96101403 2436.95114582 -2042.31689453 2444.69494629 C-2051.39206589 2451.48938678 -2060.39099595 2458.38461125 -2069.40234375 2465.26330566 C-2079.68091618 2473.10931942 -2089.96101403 2480.95114582 -2100.31689453 2488.69494629 C-2109.39206589 2495.48938678 -2118.39099595 2502.38461125 -2127.40234375 2509.26330566 C-2137.68091618 2517.10931942 -2147.96101403 2524.95114582 -2158.31689453 2532.69494629 C-2167.39206589 2539.48938678 -2176.39099595 2546.38461125 -2185.40234375 2553.26330566 C-2195.68091618 2561.10931942 -2205.96101403 2568.95114582 -2216.31689453 2576.69494629 C-2225.39206589 2583.48938678 -2234.39099595 2590.38461125 -2243.40234375 2597.26330566 C-2253.68091618 2605.10931942 -2263.96101403 2612.95114582 -2274.31689453 2620.69494629 C-2279.76311065 2624.7724441 -2285.17897072 2628.88905878 -2290.58984375 2633.01330566 C-2291.47325439 2633.68514893 -2292.35666504 2634.35699219 -2293.2668457 2635.04919434 C-2297.79025212 2638.49281195 -2302.29717523 2641.95498843 -2306.77734375 2645.45471191 C-2342.76361987 2673.45576029 -2382.27910512 2689.63101457 -2428.625 2684.80236816 C-2456.87343413 2681.12209392 -2485.11070711 2669.30487976 -2506.40234375 2650.26330566 C-2507.24023438 2649.52209473 -2508.078125 2648.78088379 -2508.94140625 2648.01721191 C-2511.44366894 2645.78221877 -2513.92408944 2643.52486047 -2516.40234375 2641.26330566 C-2518.02644342 2639.80396973 -2519.65145166 2638.34564435 -2521.27734375 2636.88830566 C-2525.52297488 2633.06856857 -2529.73545236 2629.213528 -2533.94091797 2625.34973145 C-2537.07865488 2622.46936738 -2540.23238193 2619.60814319 -2543.40234375 2616.76330566 C-2549.62803386 2611.17410783 -2555.78287453 2605.50806509 -2561.94335938 2599.84729004 C-2567.88123876 2594.39228776 -2573.83876766 2588.96138677 -2579.83984375 2583.57580566 C-2583.22555919 2580.52040393 -2586.58316285 2577.43473583 -2589.94140625 2574.34924316 C-2593.07901461 2571.4690796 -2596.23255316 2568.60798953 -2599.40234375 2565.76330566 C-2603.60918702 2561.9879335 -2607.77909228 2558.17350118 -2611.94140625 2554.34924316 C-2615.07901461 2551.4690796 -2618.23255316 2548.60798953 -2621.40234375 2545.76330566 C-2625.60918702 2541.9879335 -2629.77909228 2538.17350118 -2633.94140625 2534.34924316 C-2637.07901461 2531.4690796 -2640.23255316 2528.60798953 -2643.40234375 2525.76330566 C-2647.60918702 2521.9879335 -2651.77909228 2518.17350118 -2655.94140625 2514.34924316 C-2659.07901461 2511.4690796 -2662.23255316 2508.60798953 -2665.40234375 2505.76330566 C-2669.60918702 2501.9879335 -2673.77909228 2498.17350118 -2677.94140625 2494.34924316 C-2681.07901461 2491.4690796 -2684.23255316 2488.60798953 -2687.40234375 2485.76330566 C-2691.60912766 2481.98798677 -2695.78261341 2478.17745272 -2699.93920898 2474.3470459 C-2703.07614304 2471.46074447 -2706.25917733 2468.63520904 -2709.46484375 2465.82580566 C-2737.04657833 2440.88768782 -2755.4259633 2404.82926708 -2757.625 2367.48181152 C-2757.74177409 2363.42718346 -2757.78947985 2359.38172711 -2757.77734375 2355.32580566 C-2757.77646759 2354.60542114 -2757.77559143 2353.88503662 -2757.77468872 2353.14282227 C-2757.72433464 2340.52189462 -2756.66840611 2328.48980068 -2753.40234375 2316.26330566 C-2753.17160156 2315.39882812 -2752.94085937 2314.53435059 -2752.703125 2313.64367676 C-2742.16962714 2275.83594335 -2717.33733046 2249.88648172 -2688.82421875 2224.43518066 C-2685.99681747 2221.89964016 -2683.19823463 2219.33344412 -2680.40234375 2216.76330566 C-2676.77497881 2213.42994276 -2673.13341208 2210.11384179 -2669.46484375 2206.82580566 C-2665.00947571 2202.82813193 -2660.61150856 2198.77129681 -2656.21899414 2194.70495605 C-2652.17784491 2190.96803685 -2648.09523779 2187.28031461 -2643.99609375 2183.60705566 C-2640.94342723 2180.84862206 -2637.9215008 2178.05830257 -2634.90234375 2175.26330566 C-2630.30192835 2171.00445243 -2625.66500725 2166.79088724 -2620.99609375 2162.60705566 C-2617.94342694 2159.8486218 -2614.92151719 2157.05828523 -2611.90234375 2154.26330566 C-2607.27614568 2149.98103288 -2602.615557 2145.74122708 -2597.921875 2141.53283691 C-2593.0502413 2137.14459012 -2588.23022051 2132.69956758 -2583.40234375 2128.26330566 C-2572.12573529 2117.90140309 -2572.12573529 2117.90140309 -2566.46484375 2112.82580566 C-2562.57863777 2109.3388247 -2558.73391568 2105.80998581 -2554.90234375 2102.26330566 C-2550.27612058 2097.98105958 -2545.61555752 2093.74122754 -2540.921875 2089.53283691 C-2536.0502413 2085.14459012 -2531.23022051 2080.69956758 -2526.40234375 2076.26330566 C-2515.12573529 2065.90140309 -2515.12573529 2065.90140309 -2509.46484375 2060.82580566 C-2505.57863777 2057.3388247 -2501.73391568 2053.80998581 -2497.90234375 2050.26330566 C-2493.27612058 2045.98105958 -2488.61555752 2041.74122754 -2483.921875 2037.53283691 C-2479.0502413 2033.14459012 -2474.23022051 2028.69956758 -2469.40234375 2024.26330566 C-2458.12573529 2013.90140309 -2458.12573529 2013.90140309 -2452.46484375 2008.82580566 C-2448.57863777 2005.3388247 -2444.73391568 2001.80998581 -2440.90234375 1998.26330566 C-2436.27612058 1993.98105958 -2431.61555752 1989.74122754 -2426.921875 1985.53283691 C-2422.0502413 1981.14459012 -2417.23022051 1976.69956758 -2412.40234375 1972.26330566 C-2401.12573529 1961.90140309 -2401.12573529 1961.90140309 -2395.46484375 1956.82580566 C-2391.57863777 1953.3388247 -2387.73391568 1949.80998581 -2383.90234375 1946.26330566 C-2379.27612058 1941.98105958 -2374.61555752 1937.74122754 -2369.921875 1933.53283691 C-2365.0502413 1929.14459012 -2360.23022051 1924.69956758 -2355.40234375 1920.26330566 C-2344.12573529 1909.90140309 -2344.12573529 1909.90140309 -2338.46484375 1904.82580566 C-2334.57863777 1901.3388247 -2330.73391568 1897.80998581 -2326.90234375 1894.26330566 C-2322.27612058 1889.98105958 -2317.61555752 1885.74122754 -2312.921875 1881.53283691 C-2308.0502413 1877.14459012 -2303.23022051 1872.69956758 -2298.40234375 1868.26330566 C-2287.12573529 1857.90140309 -2287.12573529 1857.90140309 -2281.46484375 1852.82580566 C-2277.00947571 1848.82813193 -2272.61150856 1844.77129681 -2268.21899414 1840.70495605 C-2264.17784491 1836.96803685 -2260.09523779 1833.28031461 -2255.99609375 1829.60705566 C-2252.94342694 1826.8486218 -2249.92151719 1824.05828523 -2246.90234375 1821.26330566 C-2242.27614568 1816.98103288 -2237.615557 1812.74122708 -2232.921875 1808.53283691 C-2228.0502413 1804.14459012 -2223.23022051 1799.69956758 -2218.40234375 1795.26330566 C-2207.12573529 1784.90140309 -2207.12573529 1784.90140309 -2201.46484375 1779.82580566 C-2197.5340743 1776.30013966 -2193.65018703 1772.72721452 -2189.77734375 1769.13830566 C-2185.0558047 1764.76387772 -2180.2878405 1760.4550914 -2175.40234375 1756.26330566 C-2177.0001047 1752.05919717 -2180.13208766 1749.49514386 -2183.40234375 1746.57580566 C-2183.98757813 1746.04471191 -2184.5728125 1745.51361816 -2185.17578125 1744.96643066 C-2186.91261755 1743.39265978 -2188.65639641 1741.82695557 -2190.40234375 1740.26330566 C-2191.26859375 1739.48342285 -2192.13484375 1738.70354004 -2193.02734375 1737.90002441 C-2194.61967192 1736.46745286 -2196.21343944 1735.03647966 -2197.80859375 1733.60705566 C-2201.42861372 1730.33595328 -2205.00565641 1727.01917167 -2208.5859375 1723.70471191 C-2211.83617472 1720.69919844 -2215.10540025 1717.71770958 -2218.40234375 1714.76330566 C-2222.26896942 1711.29840734 -2226.09248161 1707.79025998 -2229.90234375 1704.26330566 C-2234.52854182 1699.98103288 -2239.1891305 1695.74122708 -2243.8828125 1691.53283691 C-2249.27272041 1686.67774157 -2254.6018618 1681.75551025 -2259.94335938 1676.84729004 C-2265.05544749 1672.15092446 -2270.17119531 1667.46005427 -2275.33984375 1662.82580566 C-2279.79444285 1658.82882188 -2284.19152854 1654.77256157 -2288.58349609 1650.70715332 C-2292.65115963 1646.9460314 -2296.75796005 1643.23121027 -2300.8828125 1639.53283691 C-2306.27272041 1634.67774157 -2311.6018618 1629.75551025 -2316.94335938 1624.84729004 C-2322.05544749 1620.15092446 -2327.17119531 1615.46005427 -2332.33984375 1610.82580566 C-2336.79521179 1606.82813193 -2341.19317894 1602.77129681 -2345.58569336 1598.70495605 C-2348.83599726 1595.69934494 -2352.1053145 1592.71778642 -2355.40234375 1589.76330566 C-2359.26896942 1586.29840734 -2363.09248161 1582.79025998 -2366.90234375 1579.26330566 C-2371.52854182 1574.98103288 -2376.1891305 1570.74122708 -2380.8828125 1566.53283691 C-2386.27272041 1561.67774157 -2391.6018618 1556.75551025 -2396.94335938 1551.84729004 C-2402.05544749 1547.15092446 -2407.17119531 1542.46005427 -2412.33984375 1537.82580566 C-2416.79444285 1533.82882188 -2421.19152854 1529.77256157 -2425.58349609 1525.70715332 C-2429.65115963 1521.9460314 -2433.75796005 1518.23121027 -2437.8828125 1514.53283691 C-2443.27272041 1509.67774157 -2448.6018618 1504.75551025 -2453.94335938 1499.84729004 C-2459.05544749 1495.15092446 -2464.17119531 1490.46005427 -2469.33984375 1485.82580566 C-2473.79444285 1481.82882188 -2478.19152854 1477.77256157 -2482.58349609 1473.70715332 C-2486.65115963 1469.9460314 -2490.75796005 1466.23121027 -2494.8828125 1462.53283691 C-2500.27272041 1457.67774157 -2505.6018618 1452.75551025 -2510.94335938 1447.84729004 C-2516.05544749 1443.15092446 -2521.17119531 1438.46005427 -2526.33984375 1433.82580566 C-2530.79444285 1429.82882188 -2535.19152854 1425.77256157 -2539.58349609 1421.70715332 C-2543.65115963 1417.9460314 -2547.75796005 1414.23121027 -2551.8828125 1410.53283691 C-2557.27272041 1405.67774157 -2562.6018618 1400.75551025 -2567.94335938 1395.84729004 C-2573.05544749 1391.15092446 -2578.17119531 1386.46005427 -2583.33984375 1381.82580566 C-2587.79444285 1377.82882188 -2592.19152854 1373.77256157 -2596.58349609 1369.70715332 C-2600.65115963 1365.9460314 -2604.75796005 1362.23121027 -2608.8828125 1358.53283691 C-2614.27272041 1353.67774157 -2619.6018618 1348.75551025 -2624.94335938 1343.84729004 C-2630.05544749 1339.15092446 -2635.17119531 1334.46005427 -2640.33984375 1329.82580566 C-2644.79444285 1325.82882188 -2649.19152854 1321.77256157 -2653.58349609 1317.70715332 C-2657.65115963 1313.9460314 -2661.75796005 1310.23121027 -2665.8828125 1306.53283691 C-2671.27272041 1301.67774157 -2676.6018618 1296.75551025 -2681.94335938 1291.84729004 C-2687.05544749 1287.15092446 -2692.17119531 1282.46005427 -2697.33984375 1277.82580566 C-2699.02797579 1276.30567393 -2700.71542867 1274.78478777 -2702.40234375 1273.26330566 C-2702.90910645 1272.80842773 -2703.41586914 1272.3535498 -2703.93798828 1271.8848877 C-2733.99343061 1244.84673354 -2755.22933905 1209.59904501 -2757.62548828 1168.42932129 C-2759.36073229 1127.43137568 -2749.17944125 1089.98386732 -2722.40234375 1058.26330566 C-2721.77328125 1057.51049316 -2721.14421875 1056.75768066 -2720.49609375 1055.98205566 C-2711.35292432 1045.43224478 -2700.80699437 1036.05918948 -2690.28442383 1026.91345215 C-2687.48307021 1024.45731658 -2684.75385311 1021.92686827 -2682.02734375 1019.38830566 C-2677.36401152 1015.06466406 -2672.66538199 1010.78512114 -2667.9296875 1006.54064941 C-2665.07152172 1003.96520791 -2662.23524114 1001.36644803 -2659.40234375 998.76330566 C-2654.94901758 994.67161359 -2650.46574487 990.6150759 -2645.96484375 986.57580566 C-2643.09633966 983.98715563 -2640.24757725 981.37745421 -2637.40234375 978.76330566 C-2632.94898888 974.67164459 -2628.46574521 970.6150762 -2623.96484375 966.57580566 C-2621.09633966 963.98715563 -2618.24757725 961.37745421 -2615.40234375 958.76330566 C-2610.94898888 954.67164459 -2606.46574521 950.6150762 -2601.96484375 946.57580566 C-2599.09633966 943.98715563 -2596.24757725 941.37745421 -2593.40234375 938.76330566 C-2588.94898888 934.67164459 -2584.46574521 930.6150762 -2579.96484375 926.57580566 C-2576.57836054 923.51971106 -2573.21989561 920.43344955 -2569.86108398 917.3470459 C-2566.7460125 914.48728362 -2563.613827 911.64815208 -2560.46484375 908.82580566 C-2556.57863777 905.3388247 -2552.73391568 901.80998581 -2548.90234375 898.26330566 C-2544.27881764 893.98355611 -2539.6214204 889.74571959 -2534.9296875 885.54064941 C-2532.0715175 882.96520411 -2529.23563546 880.36602233 -2526.40234375 877.76330566 C-2525.37768631 876.82441393 -2524.35294768 875.88561079 -2523.328125 874.94689941 C-2521.52991404 873.29753902 -2519.73490078 871.64467411 -2517.9453125 869.98596191 C-2484.85937759 839.64347103 -2446.01556094 823.2045193 -2400.70556641 825.05187988 C-2362.26693448 827.51217961 -2332.84042025 845.23056812 -2303.14599609 868.14904785 C-2298.64042311 871.62104127 -2294.115099 875.06702881 -2289.58984375 878.51330566 C-2288.27185791 879.51804932 -2288.27185791 879.51804932 -2286.92724609 880.54309082 C-2281.76898193 884.47241473 -2276.59539861 888.3801032 -2271.40234375 892.26330566 C-2260.76886862 900.21468263 -2250.22884902 908.28904528 -2239.67480469 916.34533691 C-2226.57115808 926.34738665 -2226.57115808 926.34738665 -2213.40234375 936.26330566 C-2202.76886862 944.21468263 -2192.22884902 952.28904528 -2181.67480469 960.34533691 C-2168.57115808 970.34738665 -2168.57115808 970.34738665 -2155.40234375 980.26330566 C-2144.76886862 988.21468263 -2134.22884902 996.28904528 -2123.67480469 1004.34533691 C-2110.57115808 1014.34738665 -2110.57115808 1014.34738665 -2097.40234375 1024.26330566 C-2086.76886862 1032.21468263 -2076.22884902 1040.28904528 -2065.67480469 1048.34533691 C-2052.57115808 1058.34738665 -2052.57115808 1058.34738665 -2039.40234375 1068.26330566 C-2028.76886862 1076.21468263 -2018.22884902 1084.28904528 -2007.67480469 1092.34533691 C-1994.57115808 1102.34738665 -1994.57115808 1102.34738665 -1981.40234375 1112.26330566 C-1970.76886862 1120.21468263 -1960.22884902 1128.28904528 -1949.67480469 1136.34533691 C-1936.57115808 1146.34738665 -1936.57115808 1146.34738665 -1923.40234375 1156.26330566 C-1912.76886862 1164.21468263 -1902.22884902 1172.28904528 -1891.67480469 1180.34533691 C-1878.57115808 1190.34738665 -1878.57115808 1190.34738665 -1865.40234375 1200.26330566 C-1854.76886862 1208.21468263 -1844.22884902 1216.28904528 -1833.67480469 1224.34533691 C-1820.57115808 1234.34738665 -1820.57115808 1234.34738665 -1807.40234375 1244.26330566 C-1796.76886862 1252.21468263 -1786.22884902 1260.28904528 -1775.67480469 1268.34533691 C-1766.30851948 1275.49373425 -1756.93626635 1282.63194733 -1747.4987793 1289.68615723 C-1741.94141662 1293.84561277 -1736.42070638 1298.05230186 -1730.90234375 1302.26330566 C-1729.12247572 1303.61887931 -1727.34252873 1304.97434929 -1725.5625 1306.32971191 C-1722.25192798 1308.85078756 -1718.94797533 1311.3801567 -1715.6484375 1313.91564941 C-1714.21246158 1315.0109926 -1712.77627652 1316.10606166 -1711.33984375 1317.20080566 C-1710.69144531 1317.70289551 -1710.04304688 1318.20498535 -1709.375 1318.72229004 C-1706.44248884 1320.94684518 -1704.07943019 1322.73239444 -1700.40234375 1323.26330566 C-1698.42836594 1321.86181626 -1698.42836594 1321.86181626 -1696.65234375 1319.76330566 C-1694.13324006 1317.08301618 -1691.64321786 1314.52025752 -1688.83984375 1312.13830566 C-1684.75298316 1308.62603339 -1680.83089234 1304.95013438 -1676.90234375 1301.26330566 C-1672.48893507 1297.12442551 -1668.05725009 1293.03311675 -1663.47265625 1289.08361816 C-1658.92423963 1285.08444431 -1654.51639984 1280.92563858 -1650.07373047 1276.80969238 C-1643.9092301 1271.10622389 -1637.717265 1265.43281569 -1631.46484375 1259.82580566 C-1627.57863777 1256.3388247 -1623.73391568 1252.80998581 -1619.90234375 1249.26330566 C-1615.27612058 1244.98105958 -1610.61555752 1240.74122754 -1605.921875 1236.53283691 C-1601.0502413 1232.14459012 -1596.23022051 1227.69956758 -1591.40234375 1223.26330566 C-1580.12573529 1212.90140309 -1580.12573529 1212.90140309 -1574.46484375 1207.82580566 C-1570.00947571 1203.82813193 -1565.61150856 1199.77129681 -1561.21899414 1195.70495605 C-1557.17784491 1191.96803685 -1553.09523779 1188.28031461 -1548.99609375 1184.60705566 C-1545.94342694 1181.8486218 -1542.92151719 1179.05828523 -1539.90234375 1176.26330566 C-1535.27614568 1171.98103288 -1530.615557 1167.74122708 -1525.921875 1163.53283691 C-1521.0502413 1159.14459012 -1516.23022051 1154.69956758 -1511.40234375 1150.26330566 C-1500.12573529 1139.90140309 -1500.12573529 1139.90140309 -1494.46484375 1134.82580566 C-1490.57863777 1131.3388247 -1486.73391568 1127.80998581 -1482.90234375 1124.26330566 C-1478.27612058 1119.98105958 -1473.61555752 1115.74122754 -1468.921875 1111.53283691 C-1464.0502413 1107.14459012 -1459.23022051 1102.69956758 -1454.40234375 1098.26330566 C-1443.12573529 1087.90140309 -1443.12573529 1087.90140309 -1437.46484375 1082.82580566 C-1433.57863777 1079.3388247 -1429.73391568 1075.80998581 -1425.90234375 1072.26330566 C-1421.27612058 1067.98105958 -1416.61555752 1063.74122754 -1411.921875 1059.53283691 C-1407.0502413 1055.14459012 -1402.23022051 1050.69956758 -1397.40234375 1046.26330566 C-1386.12573529 1035.90140309 -1386.12573529 1035.90140309 -1380.46484375 1030.82580566 C-1376.57863777 1027.3388247 -1372.73391568 1023.80998581 -1368.90234375 1020.26330566 C-1364.27612058 1015.98105958 -1359.61555752 1011.74122754 -1354.921875 1007.53283691 C-1350.0502413 1003.14459012 -1345.23022051 998.69956758 -1340.40234375 994.26330566 C-1329.12573529 983.90140309 -1329.12573529 983.90140309 -1323.46484375 978.82580566 C-1319.57863777 975.3388247 -1315.73391568 971.80998581 -1311.90234375 968.26330566 C-1307.27612058 963.98105958 -1302.61555752 959.74122754 -1297.921875 955.53283691 C-1293.0502413 951.14459012 -1288.23022051 946.69956758 -1283.40234375 942.26330566 C-1272.12573529 931.90140309 -1272.12573529 931.90140309 -1266.46484375 926.82580566 C-1262.57863777 923.3388247 -1258.73391568 919.80998581 -1254.90234375 916.26330566 C-1250.27612058 911.98105958 -1245.61555752 907.74122754 -1240.921875 903.53283691 C-1236.0502413 899.14459012 -1231.23022051 894.69956758 -1226.40234375 890.26330566 C-1215.12573529 879.90140309 -1215.12573529 879.90140309 -1209.46484375 874.82580566 C-1205.57863777 871.3388247 -1201.73391568 867.80998581 -1197.90234375 864.26330566 C-1193.27612058 859.98105958 -1188.61555752 855.74122754 -1183.921875 851.53283691 C-1179.0502413 847.14459012 -1174.23022051 842.69956758 -1169.40234375 838.26330566 C-1158.12573529 827.90140309 -1158.12573529 827.90140309 -1152.46484375 822.82580566 C-1148.00947571 818.82813193 -1143.61150856 814.77129681 -1139.21899414 810.70495605 C-1135.17784491 806.96803685 -1131.09523779 803.28031461 -1126.99609375 799.60705566 C-1123.94342694 796.8486218 -1120.92151719 794.05828523 -1117.90234375 791.26330566 C-1113.27614568 786.98103288 -1108.615557 782.74122708 -1103.921875 778.53283691 C-1099.0502413 774.14459012 -1094.23022051 769.69956758 -1089.40234375 765.26330566 C-1078.12573529 754.90140309 -1078.12573529 754.90140309 -1072.46484375 749.82580566 C-1068.57863777 746.3388247 -1064.73391568 742.80998581 -1060.90234375 739.26330566 C-1056.27612058 734.98105958 -1051.61555752 730.74122754 -1046.921875 726.53283691 C-1042.0502413 722.14459012 -1037.23022051 717.69956758 -1032.40234375 713.26330566 C-1021.12573529 702.90140309 -1021.12573529 702.90140309 -1015.46484375 697.82580566 C-1011.57863777 694.3388247 -1007.73391568 690.80998581 -1003.90234375 687.26330566 C-999.27612058 682.98105958 -994.61555752 678.74122754 -989.921875 674.53283691 C-985.0502413 670.14459012 -980.23022051 665.69956758 -975.40234375 661.26330566 C-964.12573529 650.90140309 -964.12573529 650.90140309 -958.46484375 645.82580566 C-954.57863777 642.3388247 -950.73391568 638.80998581 -946.90234375 635.26330566 C-942.27612058 630.98105958 -937.61555752 626.74122754 -932.921875 622.53283691 C-928.0502413 618.14459012 -923.23022051 613.69956758 -918.40234375 609.26330566 C-907.12573529 598.90140309 -907.12573529 598.90140309 -901.46484375 593.82580566 C-897.57863777 590.3388247 -893.73391568 586.80998581 -889.90234375 583.26330566 C-885.27612058 578.98105958 -880.61555752 574.74122754 -875.921875 570.53283691 C-871.0502413 566.14459012 -866.23022051 561.69956758 -861.40234375 557.26330566 C-850.12573529 546.90140309 -850.12573529 546.90140309 -844.46484375 541.82580566 C-840.57863777 538.3388247 -836.73391568 534.80998581 -832.90234375 531.26330566 C-828.27612058 526.98105958 -823.61555752 522.74122754 -818.921875 518.53283691 C-814.0502413 514.14459012 -809.23022051 509.69956758 -804.40234375 505.26330566 C-793.12573529 494.90140309 -793.12573529 494.90140309 -787.46484375 489.82580566 C-783.00947571 485.82813193 -778.61150856 481.77129681 -774.21899414 477.70495605 C-770.17784491 473.96803685 -766.09523779 470.28031461 -761.99609375 466.60705566 C-758.94342694 463.8486218 -755.92151719 461.05828523 -752.90234375 458.26330566 C-748.27614568 453.98103288 -743.615557 449.74122708 -738.921875 445.53283691 C-734.0502413 441.14459012 -729.23022051 436.69956758 -724.40234375 432.26330566 C-713.12573529 421.90140309 -713.12573529 421.90140309 -707.46484375 416.82580566 C-703.57863777 413.3388247 -699.73391568 409.80998581 -695.90234375 406.26330566 C-691.27612058 401.98105958 -686.61555752 397.74122754 -681.921875 393.53283691 C-677.0502413 389.14459012 -672.23022051 384.69956758 -667.40234375 380.26330566 C-656.12573529 369.90140309 -656.12573529 369.90140309 -650.46484375 364.82580566 C-646.57863777 361.3388247 -642.73391568 357.80998581 -638.90234375 354.26330566 C-634.27612058 349.98105958 -629.61555752 345.74122754 -624.921875 341.53283691 C-620.0502413 337.14459012 -615.23022051 332.69956758 -610.40234375 328.26330566 C-599.12573529 317.90140309 -599.12573529 317.90140309 -593.46484375 312.82580566 C-589.57863777 309.3388247 -585.73391568 305.80998581 -581.90234375 302.26330566 C-577.27612058 297.98105958 -572.61555752 293.74122754 -567.921875 289.53283691 C-563.0502413 285.14459012 -558.23022051 280.69956758 -553.40234375 276.26330566 C-542.12573529 265.90140309 -542.12573529 265.90140309 -536.46484375 260.82580566 C-532.57863777 257.3388247 -528.73391568 253.80998581 -524.90234375 250.26330566 C-520.27612058 245.98105958 -515.61555752 241.74122754 -510.921875 237.53283691 C-506.0502413 233.14459012 -501.23022051 228.69956758 -496.40234375 224.26330566 C-485.12573529 213.90140309 -485.12573529 213.90140309 -479.46484375 208.82580566 C-475.57863777 205.3388247 -471.73391568 201.80998581 -467.90234375 198.26330566 C-463.27612058 193.98105958 -458.61555752 189.74122754 -453.921875 185.53283691 C-449.0502413 181.14459012 -444.23022051 176.69956758 -439.40234375 172.26330566 C-428.12573529 161.90140309 -428.12573529 161.90140309 -422.46484375 156.82580566 C-418.57863777 153.3388247 -414.73391568 149.80998581 -410.90234375 146.26330566 C-406.27612058 141.98105958 -401.61555752 137.74122754 -396.921875 133.53283691 C-392.0502413 129.14459012 -387.23022051 124.69956758 -382.40234375 120.26330566 C-371.12573529 109.90140309 -371.12573529 109.90140309 -365.46484375 104.82580566 C-361.00947571 100.82813193 -356.61150856 96.77129681 -352.21899414 92.70495605 C-348.17784491 88.96803685 -344.09523779 85.28031461 -339.99609375 81.60705566 C-336.94342694 78.8486218 -333.92151719 76.05828523 -330.90234375 73.26330566 C-326.27614568 68.98103288 -321.615557 64.74122708 -316.921875 60.53283691 C-312.0502413 56.14459012 -307.23022051 51.69956758 -302.40234375 47.26330566 C-295.9695138 41.35227687 -289.5271005 35.45466878 -283.01171875 29.63439941 C-281.12243375 27.91763894 -279.26287454 26.1864897 -277.41796875 24.42346191 C-264.37048202 12.0093875 -249.94266251 2.30449317 -234.40234375 -6.73669434 C-233.77924316 -7.10391602 -233.15614258 -7.4711377 -232.51416016 -7.8494873 C-156.95175638 -51.98456485 -74.19002486 -36.08414574 0 0 Z M-67.21484375 945.26330566 C-67.91843018 945.7972998 -68.6220166 946.33129395 -69.34692383 946.88146973 C-71.70222288 948.67087363 -74.0522292 950.46709966 -76.40234375 952.26330566 C-78.066085 953.52935294 -79.73015371 954.79496999 -81.39453125 956.06018066 C-86.73485392 960.1221484 -92.06900658 964.19217253 -97.40234375 968.26330566 C-107.68091618 976.10931942 -117.96101403 983.95114582 -128.31689453 991.69494629 C-137.39206589 998.48938678 -146.39099595 1005.38461125 -155.40234375 1012.26330566 C-165.68091618 1020.10931942 -175.96101403 1027.95114582 -186.31689453 1035.69494629 C-195.39206589 1042.48938678 -204.39099595 1049.38461125 -213.40234375 1056.26330566 C-223.68091618 1064.10931942 -233.96101403 1071.95114582 -244.31689453 1079.69494629 C-253.39206589 1086.48938678 -262.39099595 1093.38461125 -271.40234375 1100.26330566 C-281.68091618 1108.10931942 -291.96101403 1115.95114582 -302.31689453 1123.69494629 C-311.39206589 1130.48938678 -320.39099595 1137.38461125 -329.40234375 1144.26330566 C-339.68091618 1152.10931942 -349.96101403 1159.95114582 -360.31689453 1167.69494629 C-369.39206589 1174.48938678 -378.39099595 1181.38461125 -387.40234375 1188.26330566 C-397.68091618 1196.10931942 -407.96101403 1203.95114582 -418.31689453 1211.69494629 C-427.39206589 1218.48938678 -436.39099595 1225.38461125 -445.40234375 1232.26330566 C-455.68091618 1240.10931942 -465.96101403 1247.95114582 -476.31689453 1255.69494629 C-485.39206589 1262.48938678 -494.39099595 1269.38461125 -503.40234375 1276.26330566 C-513.68091618 1284.10931942 -523.96101403 1291.95114582 -534.31689453 1299.69494629 C-543.39206589 1306.48938678 -552.39099595 1313.38461125 -561.40234375 1320.26330566 C-571.68091618 1328.10931942 -581.96101403 1335.95114582 -592.31689453 1343.69494629 C-601.39206589 1350.48938678 -610.39099595 1357.38461125 -619.40234375 1364.26330566 C-629.68091618 1372.10931942 -639.96101403 1379.95114582 -650.31689453 1387.69494629 C-659.39206589 1394.48938678 -668.39099595 1401.38461125 -677.40234375 1408.26330566 C-687.68091618 1416.10931942 -697.96101403 1423.95114582 -708.31689453 1431.69494629 C-717.39206589 1438.48938678 -726.39099595 1445.38461125 -735.40234375 1452.26330566 C-745.68091618 1460.10931942 -755.96101403 1467.95114582 -766.31689453 1475.69494629 C-775.39206589 1482.48938678 -784.39099595 1489.38461125 -793.40234375 1496.26330566 C-803.68091618 1504.10931942 -813.96101403 1511.95114582 -824.31689453 1519.69494629 C-833.39206589 1526.48938678 -842.39099595 1533.38461125 -851.40234375 1540.26330566 C-861.68091618 1548.10931942 -871.96101403 1555.95114582 -882.31689453 1563.69494629 C-891.39206589 1570.48938678 -900.39099595 1577.38461125 -909.40234375 1584.26330566 C-919.68091618 1592.10931942 -929.96101403 1599.95114582 -940.31689453 1607.69494629 C-949.39206589 1614.48938678 -958.39099595 1621.38461125 -967.40234375 1628.26330566 C-977.68091618 1636.10931942 -987.96101403 1643.95114582 -998.31689453 1651.69494629 C-1007.39206589 1658.48938678 -1016.39099595 1665.38461125 -1025.40234375 1672.26330566 C-1035.68091618 1680.10931942 -1045.96101403 1687.95114582 -1056.31689453 1695.69494629 C-1065.39206589 1702.48938678 -1074.39099595 1709.38461125 -1083.40234375 1716.26330566 C-1093.85187266 1724.23981681 -1104.30377701 1732.21085256 -1114.83325195 1740.08166504 C-1121.06934596 1744.7488235 -1127.24269421 1749.49590567 -1133.40234375 1754.26330566 C-1132.01713928 1757.53862693 -1130.57053226 1759.17412857 -1127.68359375 1761.22424316 C-1126.54579468 1762.04469116 -1126.54579468 1762.04469116 -1125.38500977 1762.88171387 C-1124.56572998 1763.46138916 -1123.7464502 1764.04106445 -1122.90234375 1764.63830566 C-1121.17035782 1765.88750691 -1119.43992723 1767.13886699 -1117.7109375 1768.39221191 C-1116.38618408 1769.35151611 -1116.38618408 1769.35151611 -1115.03466797 1770.3302002 C-1110.94794935 1773.33137234 -1106.95383329 1776.44651583 -1102.96484375 1779.57580566 C-1097.27963993 1784.02641448 -1091.5642495 1788.42297156 -1085.7734375 1792.73596191 C-1081.20637624 1796.14731209 -1076.68346175 1799.6169677 -1072.15234375 1803.07580566 C-1065.92123973 1807.83058692 -1059.68043024 1812.57071712 -1053.40234375 1817.26330566 C-1042.76869509 1825.21444574 -1032.22884548 1833.28904799 -1021.67480469 1841.34533691 C-1008.57115808 1851.34738665 -1008.57115808 1851.34738665 -995.40234375 1861.26330566 C-984.76886862 1869.21468263 -974.22884902 1877.28904528 -963.67480469 1885.34533691 C-950.57115808 1895.34738665 -950.57115808 1895.34738665 -937.40234375 1905.26330566 C-926.76886862 1913.21468263 -916.22884902 1921.28904528 -905.67480469 1929.34533691 C-892.57115808 1939.34738665 -892.57115808 1939.34738665 -879.40234375 1949.26330566 C-868.76886862 1957.21468263 -858.22884902 1965.28904528 -847.67480469 1973.34533691 C-834.57115808 1983.34738665 -834.57115808 1983.34738665 -821.40234375 1993.26330566 C-810.76886862 2001.21468263 -800.22884902 2009.28904528 -789.67480469 2017.34533691 C-776.57115808 2027.34738665 -776.57115808 2027.34738665 -763.40234375 2037.26330566 C-752.76886862 2045.21468263 -742.22884902 2053.28904528 -731.67480469 2061.34533691 C-718.57115808 2071.34738665 -718.57115808 2071.34738665 -705.40234375 2081.26330566 C-694.76886862 2089.21468263 -684.22884902 2097.28904528 -673.67480469 2105.34533691 C-660.57115808 2115.34738665 -660.57115808 2115.34738665 -647.40234375 2125.26330566 C-636.76886862 2133.21468263 -626.22884902 2141.28904528 -615.67480469 2149.34533691 C-602.57115808 2159.34738665 -602.57115808 2159.34738665 -589.40234375 2169.26330566 C-578.76886862 2177.21468263 -568.22884902 2185.28904528 -557.67480469 2193.34533691 C-544.57115808 2203.34738665 -544.57115808 2203.34738665 -531.40234375 2213.26330566 C-520.76886862 2221.21468263 -510.22884902 2229.28904528 -499.67480469 2237.34533691 C-486.57115808 2247.34738665 -486.57115808 2247.34738665 -473.40234375 2257.26330566 C-462.76886862 2265.21468263 -452.22884902 2273.28904528 -441.67480469 2281.34533691 C-428.57115808 2291.34738665 -428.57115808 2291.34738665 -415.40234375 2301.26330566 C-404.76886862 2309.21468263 -394.22884902 2317.28904528 -383.67480469 2325.34533691 C-370.57115808 2335.34738665 -370.57115808 2335.34738665 -357.40234375 2345.26330566 C-346.76886862 2353.21468263 -336.22884902 2361.28904528 -325.67480469 2369.34533691 C-312.57115808 2379.34738665 -312.57115808 2379.34738665 -299.40234375 2389.26330566 C-288.76886862 2397.21468263 -278.22884902 2405.28904528 -267.67480469 2413.34533691 C-254.57115808 2423.34738665 -254.57115808 2423.34738665 -241.40234375 2433.26330566 C-230.76886862 2441.21468263 -220.22884902 2449.28904528 -209.67480469 2457.34533691 C-196.57115808 2467.34738665 -196.57115808 2467.34738665 -183.40234375 2477.26330566 C-172.76886862 2485.21468263 -162.22884902 2493.28904528 -151.67480469 2501.34533691 C-138.57115808 2511.34738665 -138.57115808 2511.34738665 -125.40234375 2521.26330566 C-119.31546748 2525.81487956 -113.25896959 2530.40511693 -107.21484375 2535.01330566 C-105.89299072 2536.02107056 -105.89299072 2536.02107056 -104.54443359 2537.04919434 C-100.0011507 2540.51452878 -95.46052519 2543.98331257 -90.921875 2547.45471191 C-82.88401553 2553.59875917 -74.84087547 2559.73608336 -66.71484375 2565.76330566 C-66.09689941 2566.22648193 -65.47895508 2566.6896582 -64.84228516 2567.16687012 C-61.93035321 2569.5220365 -61.93035321 2569.5220365 -58.40234375 2570.26330566 C-58.40234375 2032.36330566 -58.40234375 1494.46330566 -58.40234375 940.26330566 C-61.92316649 940.26330566 -64.50650919 943.18476298 -67.21484375 945.26330566 Z " fill="#1987D0" transform="translate(3007.40234375,292.7366943359375)"/>
<path d="M0 0 C2.55129812 1.24076054 5.10360551 2.47941931 7.65625 3.71740723 C14.81422266 7.18973757 21.96890162 10.66872916 29.11863708 14.1579895 C37.48247915 18.23963268 45.86433269 22.28120308 54.26586914 26.28479004 C61.88893302 29.91859656 69.49455157 33.58799504 77.09765625 37.26330566 C85.75569996 41.44812067 94.41928084 45.62076021 103.09765625 49.76330566 C111.73386929 53.88600202 120.35613616 58.03714274 128.97265625 62.20080566 C142.17006274 68.57780565 155.38094533 74.92641025 168.59765625 81.26330566 C182.43601759 87.89825812 196.26678908 94.54850807 210.08483887 101.22564697 C218.0808193 105.08897691 226.08360751 108.9375818 234.09765625 112.76330566 C242.73385591 116.88603018 251.35613604 121.03714268 259.97265625 125.20080566 C273.17006274 131.57780565 286.38094533 137.92641025 299.59765625 144.26330566 C313.43601759 150.89825812 327.26678908 157.54850807 341.08483887 164.22564697 C349.0808193 168.08897691 357.08360751 171.9375818 365.09765625 175.76330566 C373.73385591 179.88603018 382.35613604 184.03714268 390.97265625 188.20080566 C404.17006274 194.57780565 417.38094533 200.92641025 430.59765625 207.26330566 C444.43601759 213.89825812 458.26678908 220.54850807 472.08483887 227.22564697 C480.9981978 231.53221659 489.92234113 235.81557382 498.85595703 240.07995605 C507.23979586 244.08501645 515.60621475 248.12583198 523.97167969 252.16906738 C532.00527368 256.0514812 540.04542814 259.91964606 548.09765625 263.76330566 C556.73386929 267.88600202 565.35613616 272.03714274 573.97265625 276.20080566 C587.17006274 282.57780565 600.38094533 288.92641025 613.59765625 295.26330566 C627.43601759 301.89825812 641.26678908 308.54850807 655.08483887 315.22564697 C663.08082269 319.08897854 671.08397573 322.93680688 679.09765625 326.76330566 C680.94535264 327.64733636 682.7930082 328.53145239 684.640625 329.41564941 C688.41112794 331.21982514 692.18454166 333.01773993 695.95970154 334.81214905 C734.92470515 353.34857837 769.49121293 375.12124458 795.59765625 410.26330566 C796.67466797 411.68256348 796.67466797 411.68256348 797.7734375 413.13049316 C820.29449028 443.30433088 834.33282534 479.06272401 839.59765625 516.26330566 C839.76797436 517.45659933 839.93829246 518.64989299 840.11377172 519.87934707 C840.91885885 527.26762841 840.73570959 534.70855967 840.72530675 542.13052011 C840.72655037 543.86505091 840.72823161 545.59958144 840.73030911 547.33411144 C840.73476187 552.11635481 840.73297972 556.89857882 840.73020733 561.68082271 C840.72828622 566.89697337 840.73216619 572.11312026 840.73530412 577.32926989 C840.74002156 586.51180446 840.74100136 595.69433364 840.73957577 604.87686923 C840.73745727 618.62366738 840.74106426 632.37045994 840.74579055 646.11725723 C840.75367039 669.54385346 840.75676087 692.97044774 840.75723648 716.39704514 C840.7577309 740.14625243 840.76037523 763.89545803 840.76564407 787.64466476 C840.76597761 789.15840477 840.76631108 790.67214478 840.76664448 792.18588478 C840.76799258 798.28922708 840.76935588 804.39256937 840.77073658 810.49591166 C840.78590439 877.6397327 840.7926796 944.78355331 840.79715855 1011.9273758 C840.79724358 1013.2013724 840.79724358 1013.2013724 840.79733034 1014.5011063 C840.79761686 1018.79720735 840.79790189 1023.09330839 840.79818445 1027.38940943 C840.80055953 1063.38215044 840.80426919 1099.37489126 840.80822155 1135.36763213 C840.81011413 1152.60411968 840.81194263 1169.84060724 840.81375575 1187.07709479 C840.81384594 1187.93434088 840.81393613 1188.79158697 840.81402905 1189.67481021 C840.81836532 1230.9332706 840.82229364 1272.19173102 840.82575607 1313.4501915 C840.82586688 1314.77037118 840.82586688 1314.77037118 840.82597993 1316.11722116 C840.83067499 1372.20791339 840.83349796 1428.29860555 840.83514285 1484.38929795 C840.83527843 1488.98812254 840.83541746 1493.58694714 840.83555639 1498.18577173 C840.83577887 1505.55881235 840.83600024 1512.93185297 840.83622027 1520.3048936 C840.83624754 1521.21853958 840.83627481 1522.13218556 840.83630291 1523.07351779 C840.83635802 1524.92007008 840.83641313 1526.76662236 840.83646824 1528.61317465 C840.83685486 1541.56622863 840.8372428 1554.51928262 840.83763737 1567.47233661 C840.83777848 1572.10720941 840.83791855 1576.74208222 840.83805627 1581.37695502 C840.84066043 1668.91243718 840.84599015 1756.44791757 840.86193848 1843.98339844 C840.86210627 1844.9048691 840.86227406 1845.82633976 840.86244694 1846.77573378 C840.86769764 1875.56651299 840.87327199 1904.35729215 840.87890625 1933.14807129 C840.88468724 1962.68949506 840.8904178 1992.23091884 840.89586258 2021.77234268 C840.89603039 2022.68194359 840.89619819 2023.59154449 840.89637109 2024.52870906 C840.90686453 2081.49743997 840.91372595 2138.46617039 840.91672897 2195.43490219 C840.91677578 2196.31481209 840.9168226 2197.194722 840.91687083 2198.10129584 C840.91892151 2236.74542857 840.92016557 2275.38956129 840.92051688 2314.03369408 C840.92066015 2329.58051476 840.92089881 2345.12733544 840.92118094 2360.67415612 C840.92122647 2363.25189181 840.92126812 2365.82962749 840.92130905 2368.40736317 C840.9219551 2407.83319308 840.92491184 2447.25902096 840.93476963 2486.68484974 C840.934982 2487.53497718 840.93519437 2488.38510463 840.93541318 2489.26099351 C840.93884193 2502.93621142 840.94245491 2516.61142928 840.94608958 2530.28664714 C840.95640405 2569.11305652 840.96518398 2607.9394634 840.96324492 2646.76587439 C840.96318681 2647.94789856 840.96318681 2647.94789856 840.96312752 2649.15380201 C840.96225091 2666.3468759 840.96053873 2683.5399496 840.9580079 2700.73302333 C840.95701116 2707.59039348 840.9561245 2714.44776365 840.95527267 2721.30513382 C840.95512884 2722.42716003 840.95512884 2722.42716003 840.95498211 2723.57185343 C840.95199462 2747.28497962 840.95822072 2770.99809134 840.96979154 2794.71121457 C840.98146355 2818.71276787 840.98276855 2842.71429435 840.97147586 2866.71584909 C840.96537379 2880.36794025 840.96748921 2894.01997053 840.98172783 2907.67205597 C840.99036521 2916.73917174 840.98811832 2925.8062427 840.97702912 2934.87335569 C840.97104757 2940.01308668 840.96966731 2945.15269829 840.98171398 2950.29242134 C841.06810103 2989.76914122 841.06810103 2989.76914122 837.59765625 3006.26330566 C837.41149337 3007.16372817 837.22533049 3008.06415067 837.03352631 3008.99185871 C826.28802386 3060.50191888 797.75188612 3109.11947712 755.59765625 3141.26330566 C754.95441406 3141.75588867 754.31117187 3142.24847168 753.6484375 3142.75598145 C731.30154043 3159.72785083 706.01985136 3171.30667595 680.78125 3183.31408691 C673.87326901 3186.602694 666.98549912 3189.93281741 660.09765625 3193.26330566 C650.52260125 3197.89170416 640.93752732 3202.49838137 631.33984375 3207.07971191 C623.58190056 3210.78580455 615.83861063 3214.52191161 608.09765625 3218.26330566 C599.43954587 3222.44798382 590.77603254 3226.62075978 582.09765625 3230.76330566 C573.46144321 3234.88600202 564.83917634 3239.03714274 556.22265625 3243.20080566 C542.01240364 3250.0672139 527.78572246 3256.89906596 513.5546875 3263.72229004 C500.73091582 3269.87146097 487.91568246 3276.03793168 475.11047363 3282.22564697 C466.1971147 3286.53221659 457.27297137 3290.81557382 448.33935547 3295.07995605 C440.58156475 3298.78594575 432.83844677 3302.52199081 425.09765625 3306.26330566 C416.43954587 3310.44798382 407.77603254 3314.62075978 399.09765625 3318.76330566 C390.46144321 3322.88600202 381.83917634 3327.03714274 373.22265625 3331.20080566 C359.01240364 3338.0672139 344.78572246 3344.89906596 330.5546875 3351.72229004 C317.73091582 3357.87146097 304.91568246 3364.03793168 292.11047363 3370.22564697 C283.19563985 3374.53292917 274.26992931 3378.81680345 265.33496094 3383.08215332 C257.62077476 3386.76752191 249.92034454 3390.48113938 242.22265625 3394.20080566 C228.01240364 3401.0672139 213.78572246 3407.89906596 199.5546875 3414.72229004 C186.73091582 3420.87146097 173.91568246 3427.03793168 161.11047363 3433.22564697 C152.1971147 3437.53221659 143.27297137 3441.81557382 134.33935547 3446.07995605 C126.58156475 3449.78594575 118.83844677 3453.52199081 111.09765625 3457.26330566 C102.43954587 3461.44798382 93.77603254 3465.62075978 85.09765625 3469.76330566 C76.46144321 3473.88600202 67.83917634 3478.03714274 59.22265625 3482.20080566 C48.04988422 3487.59950025 36.86908931 3492.98117589 25.6796875 3498.34533691 C21.65393318 3500.27545781 17.63063513 3502.21055839 13.609375 3504.15002441 C8.43378705 3506.64524044 3.25226586 3509.12779774 -1.93261719 3511.6036377 C-4.37764268 3512.77316227 -6.82100584 3513.94575302 -9.26269531 3515.12219238 C-70.15036031 3544.43258853 -133.52873273 3555.96186168 -199.01220703 3533.44445801 C-225.52245268 3523.91799679 -248.60854113 3510.03872819 -270.40234375 3492.26330566 C-266.75346362 3492.26330566 -266.00725557 3493.08813475 -263.15234375 3495.26330566 C-246.95214485 3506.85159823 -228.96745055 3513.09697196 -209.40234375 3516.26330566 C-208.644375 3516.39479004 -207.88640625 3516.52627441 -207.10546875 3516.66174316 C-174.18475229 3521.38293118 -138.81998922 3511.07377448 -112.22412109 3491.64025879 C-84.35634852 3470.57697317 -65.65061981 3440.35182716 -60.66642625 3405.55039664 C-59.40746129 3394.64710921 -59.2586854 3383.73434364 -59.27699459 3372.77421987 C-59.27600114 3371.14221695 -59.2745697 3369.51021426 -59.27274514 3367.87821206 C-59.26900423 3363.40367609 -59.27145268 3358.92916199 -59.27493509 3354.4546266 C-59.27762738 3349.56293076 -59.27448211 3344.67123797 -59.27209824 3339.77954245 C-59.26870671 3331.17289457 -59.26903538 3322.56625303 -59.27178179 3313.95960502 C-59.27587818 3301.06304614 -59.27419693 3288.16649238 -59.27139915 3275.26993338 C-59.26679491 3253.26178091 -59.26694471 3231.25363028 -59.26968002 3209.24547768 C-59.2724405 3186.91351208 -59.27301935 3164.58154798 -59.27094269 3142.24958229 C-59.27084592 3141.19231335 -59.27084592 3141.19231335 -59.27074719 3140.11368545 C-59.2701555 3133.65214211 -59.26954158 3127.19059877 -59.26890098 3120.72905544 C-59.2672954 3104.5065525 -59.26603994 3088.28404955 -59.26502061 3072.06154656 C-59.26495026 3070.94544214 -59.26495026 3070.94544214 -59.26487848 3069.80679015 C-59.26259523 3033.05329554 -59.26414059 2996.2998012 -59.26604843 2959.54630661 C-59.26613207 2957.93208327 -59.2662157 2956.31785993 -59.26629933 2954.70363658 C-59.26636151 2953.50338881 -59.26636151 2953.50338881 -59.26642495 2952.27889362 C-59.26697201 2941.71485577 -59.26750861 2931.15081792 -59.26801825 2920.58678007 C-59.26807699 2919.37407569 -59.26807699 2919.37407569 -59.26813692 2918.13687222 C-59.26994878 2880.44401352 -59.2695054 2842.75115495 -59.26858779 2805.05829622 C-59.26848797 2800.9258841 -59.26839247 2796.79347198 -59.26829651 2792.66105986 C-59.26800571 2780.19202618 -59.26770876 2767.7229925 -59.26739892 2755.25395882 C-59.26645354 2717.16530618 -59.26585382 2679.07665353 -59.26555061 2640.98800087 C-59.26554374 2640.13899005 -59.26553688 2639.28997922 -59.2655298 2638.4152408 C-59.26509007 2583.30485944 -59.26619441 2528.19447822 -59.26840019 2473.08409691 C-59.26843531 2472.20337944 -59.26847043 2471.32266197 -59.26850661 2470.41525609 C-59.26968209 2440.93981501 -59.27093866 2411.46437393 -59.27220324 2381.98893285 C-59.27596867 2294.16330834 -59.27820206 2206.33768434 -59.27253878 2061.26253658 C-59.27113899 2029.30524671 -59.26983592 1997.34795684 -59.26856613 1965.39066696 C-59.26853222 1964.53812916 -59.2684983 1963.68559136 -59.26846336 1962.80721908 C-59.26509548 1878.04836464 -59.26323401 1793.2895102 -59.64851534 529.70510876 C-59.65012207 527.97519125 -59.65012207 527.97519125 -59.65176125 526.2103259 C-59.6613977 515.83936504 -59.67104713 505.46840419 -59.68079677 495.09744343 C-59.71123194 462.65714513 -59.73480957 430.21684797 -59.75370337 397.77654101 C-59.77581647 359.81173141 -59.80758487 321.84694946 -59.85611656 283.88216379 C-59.86090964 280.10394262 -59.86566388 276.32572139 -59.87038946 272.54750013 C-59.87155241 271.62226195 -59.87271536 270.69702376 -59.87391354 269.74374805 C-59.89192781 255.21935124 -59.90031011 240.69496638 -59.90455235 226.17055969 C-59.90889407 212.06392918 -59.92387715 197.95734365 -59.95044934 183.8507371 C-59.96557543 175.66019738 -59.9727466 167.46974844 -59.9677208 159.27919572 C-59.96492041 153.22415234 -59.97772002 147.16924667 -59.99655264 141.11422757 C-60.00170411 138.69376186 -60.00191365 136.27327901 -59.99644923 133.85281398 C-59.9594658 115.67530995 -61.01022396 98.31487152 -67.08984375 81.01330566 C-67.43797119 80.00171387 -67.78609863 78.99012207 -68.14477539 77.94787598 C-75.11639284 58.30130304 -86.93034219 40.28767899 -103.40234375 27.26330566 C-104.73567708 25.92997233 -106.06901042 24.596639 -107.40234375 23.26330566 C-108.06234375 22.93330566 -108.72234375 22.60330566 -109.40234375 22.26330566 C-109.40234375 21.60330566 -109.40234375 20.94330566 -109.40234375 20.26330566 C-110.72234375 19.93330566 -112.04234375 19.60330566 -113.40234375 19.26330566 C-113.40234375 18.60330566 -113.40234375 17.94330566 -113.40234375 17.26330566 C-114.04171875 17.03643066 -114.68109375 16.80955566 -115.33984375 16.57580566 C-117.80754134 15.51822098 -120.01369867 14.39511183 -122.33984375 13.07580566 C-134.73111556 6.15785424 -146.67181013 0.91977507 -160.40234375 -2.73669434 C-161.08071289 -2.91748535 -161.75908203 -3.09827637 -162.45800781 -3.2845459 C-194.2632147 -11.28755694 -228.93208271 -4.68658926 -257.14453125 11.26330566 C-260.91306454 13.57684169 -264.33110555 16.11618413 -267.66796875 19.01330566 C-269.40234375 20.26330566 -269.40234375 20.26330566 -272.40234375 20.26330566 C-260.98436828 9.44945588 -248.00523685 1.04354497 -234.40234375 -6.73669434 C-233.82468262 -7.07410645 -233.24702148 -7.41151855 -232.65185547 -7.75915527 C-156.86372326 -51.80952982 -74.42862625 -36.2001954 0 0 Z " fill="#3AA8F1" transform="translate(3007.40234375,292.7366943359375)"/>
<path d="M0 0 C0 0.66 0 1.32 0 2 C1.32 2.33 2.64 2.66 4 3 C4 3.66 4 4.32 4 5 C4.804375 5.268125 5.60875 5.53625 6.4375 5.8125 C7.283125 6.204375 8.12875 6.59625 9 7 C9.33 7.99 9.66 8.98 10 10 C11.32210865 10.68865879 12.65782362 11.35132073 14 12 C30.02962191 25.57231801 40.55573943 44.15555007 47.3125 63.75 C47.63822998 64.67675537 47.96395996 65.60351074 48.29956055 66.55834961 C54.67712659 86.0128287 54.46538948 105.93848787 54.47842308 126.16590212 C54.48439969 130.40730482 54.50745269 134.64862346 54.52814072 138.88997525 C54.56635229 147.28020867 54.58866146 155.67041455 54.60583708 164.06071444 C54.62711903 174.11885957 54.66538725 184.17692348 54.70348466 194.2350164 C54.79872681 219.68126039 54.85847689 245.1275581 54.91134122 270.57392028 C54.92327913 276.3198231 54.93566864 282.06572483 54.94823196 287.81162631 C55.04436174 331.7772236 55.12732601 375.7428351 55.17901325 419.70850849 C55.19082391 429.61369668 55.20285977 439.51888458 55.21508789 449.42407227 C55.21659289 450.65459655 55.2180979 451.88512083 55.21964851 453.15293373 C55.26894994 493.08787062 55.38441154 533.02225765 55.5369492 572.95692384 C55.6935837 614.03908851 55.79194982 655.1209601 55.81374585 696.20342943 C55.81683154 702.00390296 55.82054046 707.80437594 55.82460594 713.60484886 C55.82576711 715.31713061 55.82576711 715.31713061 55.82695174 717.06400392 C55.84103566 735.43310049 55.91582944 753.80147045 56.01286023 772.170295 C56.10891988 790.62383562 56.1388994 809.07655763 56.10156438 827.5303186 C56.08134403 838.49306421 56.11120174 849.45299906 56.21294539 860.41530561 C56.27596584 867.73985337 56.27344986 875.06249815 56.21794514 882.38710151 C56.18817893 886.5603338 56.18655971 890.72821533 56.26493362 894.90093724 C56.7243653 920.88789053 56.7243653 920.88789053 50.03240812 927.99641836 C46.33457589 931.18566628 42.40992181 933.66139974 38.07973399 935.90024617 C35.40716166 937.31349021 33.08466299 939.06382261 30.71875 940.9375 C29.31394746 941.96032432 27.90774357 942.98122731 26.5 944 C19.32120273 949.24221932 12.27080932 954.62791065 5.27075195 960.10595703 C0.34879987 963.9569765 -4.61666765 967.7395465 -9.62890625 971.47265625 C-14.19596751 974.88400642 -18.718882 978.35366203 -23.25 981.8125 C-29.48110402 986.56728125 -35.72191351 991.30741145 -42 996 C-51.71766774 1003.26623005 -61.35507104 1010.63766969 -71 1018 C-81.27857243 1025.84601376 -91.55867028 1033.68784016 -101.91455078 1041.43164062 C-110.98972214 1048.22608112 -119.9886522 1055.12130559 -129 1062 C-139.27857243 1069.84601376 -149.55867028 1077.68784016 -159.91455078 1085.43164062 C-168.98972214 1092.22608112 -177.9886522 1099.12130559 -187 1106 C-197.27857243 1113.84601376 -207.55867028 1121.68784016 -217.91455078 1129.43164062 C-226.98972214 1136.22608112 -235.9886522 1143.12130559 -245 1150 C-255.27857243 1157.84601376 -265.55867028 1165.68784016 -275.91455078 1173.43164062 C-284.98972214 1180.22608112 -293.9886522 1187.12130559 -303 1194 C-313.27857243 1201.84601376 -323.55867028 1209.68784016 -333.91455078 1217.43164062 C-342.98972214 1224.22608112 -351.9886522 1231.12130559 -361 1238 C-371.27857243 1245.84601376 -381.55867028 1253.68784016 -391.91455078 1261.43164062 C-400.98972214 1268.22608112 -409.9886522 1275.12130559 -419 1282 C-429.27857243 1289.84601376 -439.55867028 1297.68784016 -449.91455078 1305.43164062 C-458.98972214 1312.22608112 -467.9886522 1319.12130559 -477 1326 C-487.27857243 1333.84601376 -497.55867028 1341.68784016 -507.91455078 1349.43164062 C-516.98972214 1356.22608112 -525.9886522 1363.12130559 -535 1370 C-545.27857243 1377.84601376 -555.55867028 1385.68784016 -565.91455078 1393.43164062 C-574.98972214 1400.22608112 -583.9886522 1407.12130559 -593 1414 C-603.27857243 1421.84601376 -613.55867028 1429.68784016 -623.91455078 1437.43164062 C-632.98972214 1444.22608112 -641.9886522 1451.12130559 -651 1458 C-661.27857243 1465.84601376 -671.55867028 1473.68784016 -681.91455078 1481.43164062 C-690.98972214 1488.22608112 -699.9886522 1495.12130559 -709 1502 C-719.27857243 1509.84601376 -729.55867028 1517.68784016 -739.91455078 1525.43164062 C-748.98972214 1532.22608112 -757.9886522 1539.12130559 -767 1546 C-777.27857243 1553.84601376 -787.55867028 1561.68784016 -797.91455078 1569.43164062 C-806.98972214 1576.22608112 -815.9886522 1583.12130559 -825 1590 C-835.27857243 1597.84601376 -845.55867028 1605.68784016 -855.91455078 1613.43164062 C-864.98972214 1620.22608112 -873.9886522 1627.12130559 -883 1634 C-893.27857243 1641.84601376 -903.55867028 1649.68784016 -913.91455078 1657.43164062 C-922.98972214 1664.22608112 -931.9886522 1671.12130559 -941 1678 C-951.27857243 1685.84601376 -961.55867028 1693.68784016 -971.91455078 1701.43164062 C-976.46835599 1704.84100418 -981.00296133 1708.27482687 -985.52734375 1711.72314453 C-987.29517272 1713.0701082 -989.06469599 1714.41485117 -990.8359375 1715.75732422 C-995.54634446 1719.33396717 -1000.21280281 1722.95459578 -1004.83203125 1726.6484375 C-1005.78118408 1727.39770508 -1006.73033691 1728.14697266 -1007.70825195 1728.91894531 C-1009.53755757 1730.36447269 -1011.35564467 1731.8243378 -1013.16088867 1733.29980469 C-1013.98435791 1733.94594727 -1014.80782715 1734.59208984 -1015.65625 1735.2578125 C-1016.73616211 1736.12623779 -1016.73616211 1736.12623779 -1017.83789062 1737.01220703 C-1020 1738 -1020 1738 -1022.54101562 1737.33984375 C-1024.77693876 1736.12154092 -1026.70083771 1734.89003108 -1028.6875 1733.3046875 C-1029.37513428 1732.76199219 -1030.06276855 1732.21929688 -1030.77124023 1731.66015625 C-1031.50673096 1731.07105469 -1032.24222168 1730.48195313 -1033 1729.875 C-1034.61512234 1728.60059481 -1036.23103997 1727.32719705 -1037.84765625 1726.0546875 C-1039.11246826 1725.05646973 -1039.11246826 1725.05646973 -1040.40283203 1724.03808594 C-1044.7173939 1720.65230266 -1049.07462451 1717.323172 -1053.4375 1714 C-1054.31704346 1713.3296875 -1055.19658691 1712.659375 -1056.1027832 1711.96875 C-1062.6937477 1706.96041464 -1069.35174443 1702.04868275 -1076.03125 1697.15942383 C-1082.34998603 1692.51777682 -1088.54733617 1687.73217494 -1094.72119141 1682.90014648 C-1099.73998801 1678.97265796 -1104.80392851 1675.12059985 -1109.9140625 1671.3125 C-1113.60723802 1668.54495582 -1117.27362522 1665.74365663 -1120.9375 1662.9375 C-1139.91391371 1648.39643716 -1139.91391371 1648.39643716 -1159 1634 C-1165.08687976 1629.44843043 -1171.14336085 1624.85817135 -1177.1875 1620.25 C-1178.07163574 1619.57598145 -1178.95577148 1618.90196289 -1179.86669922 1618.20751953 C-1184.36055629 1614.78002897 -1188.85155992 1611.34884752 -1193.33984375 1607.9140625 C-1201.73677028 1601.49406724 -1210.15816246 1595.11833127 -1218.6875 1588.875 C-1225.70509639 1583.73793598 -1232.60135286 1578.46588092 -1239.44873047 1573.10449219 C-1244.83247229 1568.89317828 -1250.27206367 1564.7659452 -1255.75073242 1560.67919922 C-1261.36219673 1556.48972863 -1266.9340162 1552.2496599 -1272.5 1548 C-1278.64764838 1543.30751747 -1284.80536026 1538.63028863 -1291 1534 C-1301.63364283 1526.04885198 -1312.17349816 1517.97425776 -1322.72753906 1509.91796875 C-1335.83118567 1499.91591901 -1335.83118567 1499.91591901 -1349 1490 C-1359.63347513 1482.04862304 -1370.17349473 1473.97426038 -1380.72753906 1465.91796875 C-1393.83118567 1455.91591901 -1393.83118567 1455.91591901 -1407 1446 C-1417.63347513 1438.04862304 -1428.17349473 1429.97426038 -1438.72753906 1421.91796875 C-1451.83118567 1411.91591901 -1451.83118567 1411.91591901 -1465 1402 C-1475.63347513 1394.04862304 -1486.17349473 1385.97426038 -1496.72753906 1377.91796875 C-1509.83118567 1367.91591901 -1509.83118567 1367.91591901 -1523 1358 C-1533.63347513 1350.04862304 -1544.17349473 1341.97426038 -1554.72753906 1333.91796875 C-1566.11403961 1325.22773261 -1577.52337096 1316.57094786 -1589 1308 C-1584.86729424 1303.81133884 -1580.60874049 1299.77024204 -1576.3125 1295.75 C-1575.60061523 1295.08323242 -1574.88873047 1294.41646484 -1574.15527344 1293.72949219 C-1569.6221038 1289.49263504 -1565.05099949 1285.3039123 -1560.421875 1281.171875 C-1557.59447372 1278.63633449 -1554.79589088 1276.07013846 -1552 1273.5 C-1548.37263506 1270.1666371 -1544.73106833 1266.85053612 -1541.0625 1263.5625 C-1536.60713196 1259.56482627 -1532.20916481 1255.50799115 -1527.81665039 1251.44165039 C-1523.77550116 1247.70473118 -1519.69289404 1244.01700894 -1515.59375 1240.34375 C-1512.54108319 1237.58531613 -1509.51917344 1234.79497956 -1506.5 1232 C-1501.87380193 1227.71772721 -1497.21321325 1223.47792141 -1492.51953125 1219.26953125 C-1487.64789755 1214.88128446 -1482.82787676 1210.43626191 -1478 1206 C-1466.72339154 1195.63809743 -1466.72339154 1195.63809743 -1461.0625 1190.5625 C-1456.60713196 1186.56482627 -1452.20916481 1182.50799115 -1447.81665039 1178.44165039 C-1443.77550116 1174.70473118 -1439.69289404 1171.01700894 -1435.59375 1167.34375 C-1432.54108319 1164.58531613 -1429.51917344 1161.79497956 -1426.5 1159 C-1421.87380193 1154.71772721 -1417.21321325 1150.47792141 -1412.51953125 1146.26953125 C-1407.64789755 1141.88128446 -1402.82787676 1137.43626191 -1398 1133 C-1386.72339154 1122.63809743 -1386.72339154 1122.63809743 -1381.0625 1117.5625 C-1377.17629402 1114.07551903 -1373.33157193 1110.54668015 -1369.5 1107 C-1364.87377683 1102.71775392 -1360.21321377 1098.47792188 -1355.51953125 1094.26953125 C-1350.64789755 1089.88128446 -1345.82787676 1085.43626191 -1341 1081 C-1329.72339154 1070.63809743 -1329.72339154 1070.63809743 -1324.0625 1065.5625 C-1320.17629402 1062.07551903 -1316.33157193 1058.54668015 -1312.5 1055 C-1307.87377683 1050.71775392 -1303.21321377 1046.47792188 -1298.51953125 1042.26953125 C-1293.64789755 1037.88128446 -1288.82787676 1033.43626191 -1284 1029 C-1272.72339154 1018.63809743 -1272.72339154 1018.63809743 -1267.0625 1013.5625 C-1263.17629402 1010.07551903 -1259.33157193 1006.54668015 -1255.5 1003 C-1250.87377683 998.71775392 -1246.21321377 994.47792188 -1241.51953125 990.26953125 C-1236.64789755 985.88128446 -1231.82787676 981.43626191 -1227 977 C-1215.72339154 966.63809743 -1215.72339154 966.63809743 -1210.0625 961.5625 C-1206.17629402 958.07551903 -1202.33157193 954.54668015 -1198.5 951 C-1193.87377683 946.71775392 -1189.21321377 942.47792188 -1184.51953125 938.26953125 C-1179.64789755 933.88128446 -1174.82787676 929.43626191 -1170 925 C-1158.72339154 914.63809743 -1158.72339154 914.63809743 -1153.0625 909.5625 C-1149.17629402 906.07551903 -1145.33157193 902.54668015 -1141.5 899 C-1136.87377683 894.71775392 -1132.21321377 890.47792188 -1127.51953125 886.26953125 C-1122.64789755 881.88128446 -1117.82787676 877.43626191 -1113 873 C-1101.72339154 862.63809743 -1101.72339154 862.63809743 -1096.0625 857.5625 C-1092.17629402 854.07551903 -1088.33157193 850.54668015 -1084.5 847 C-1079.87377683 842.71775392 -1075.21321377 838.47792188 -1070.51953125 834.26953125 C-1065.64789755 829.88128446 -1060.82787676 825.43626191 -1056 821 C-1044.72339154 810.63809743 -1044.72339154 810.63809743 -1039.0625 805.5625 C-1034.60713196 801.56482627 -1030.20916481 797.50799115 -1025.81665039 793.44165039 C-1021.77550116 789.70473118 -1017.69289404 786.01700894 -1013.59375 782.34375 C-1010.54108319 779.58531613 -1007.51917344 776.79497956 -1004.5 774 C-999.87380193 769.71772721 -995.21321325 765.47792141 -990.51953125 761.26953125 C-985.64789755 756.88128446 -980.82787676 752.43626191 -976 748 C-964.72339154 737.63809743 -964.72339154 737.63809743 -959.0625 732.5625 C-955.17629402 729.07551903 -951.33157193 725.54668015 -947.5 722 C-942.87377683 717.71775392 -938.21321377 713.47792188 -933.51953125 709.26953125 C-928.64789755 704.88128446 -923.82787676 700.43626191 -919 696 C-907.72339154 685.63809743 -907.72339154 685.63809743 -902.0625 680.5625 C-898.17629402 677.07551903 -894.33157193 673.54668015 -890.5 670 C-885.87377683 665.71775392 -881.21321377 661.47792188 -876.51953125 657.26953125 C-871.64789755 652.88128446 -866.82787676 648.43626191 -862 644 C-850.72339154 633.63809743 -850.72339154 633.63809743 -845.0625 628.5625 C-841.17629402 625.07551903 -837.33157193 621.54668015 -833.5 618 C-828.87377683 613.71775392 -824.21321377 609.47792188 -819.51953125 605.26953125 C-814.64789755 600.88128446 -809.82787676 596.43626191 -805 592 C-793.72339154 581.63809743 -793.72339154 581.63809743 -788.0625 576.5625 C-784.17629402 573.07551903 -780.33157193 569.54668015 -776.5 566 C-771.87377683 561.71775392 -767.21321377 557.47792188 -762.51953125 553.26953125 C-757.64789755 548.88128446 -752.82787676 544.43626191 -748 540 C-736.72339154 529.63809743 -736.72339154 529.63809743 -731.0625 524.5625 C-727.17629402 521.07551903 -723.33157193 517.54668015 -719.5 514 C-714.87377683 509.71775392 -710.21321377 505.47792188 -705.51953125 501.26953125 C-700.64789755 496.88128446 -695.82787676 492.43626191 -691 488 C-679.72339154 477.63809743 -679.72339154 477.63809743 -674.0625 472.5625 C-669.60713196 468.56482627 -665.20916481 464.50799115 -660.81665039 460.44165039 C-656.77550116 456.70473118 -652.69289404 453.01700894 -648.59375 449.34375 C-645.54108319 446.58531613 -642.51917344 443.79497956 -639.5 441 C-634.87380193 436.71772721 -630.21321325 432.47792141 -625.51953125 428.26953125 C-620.64789755 423.88128446 -615.82787676 419.43626191 -611 415 C-599.72339154 404.63809743 -599.72339154 404.63809743 -594.0625 399.5625 C-590.17629402 396.07551903 -586.33157193 392.54668015 -582.5 389 C-577.87377683 384.71775392 -573.21321377 380.47792188 -568.51953125 376.26953125 C-563.64789755 371.88128446 -558.82787676 367.43626191 -554 363 C-542.72339154 352.63809743 -542.72339154 352.63809743 -537.0625 347.5625 C-533.17629402 344.07551903 -529.33157193 340.54668015 -525.5 337 C-520.87377683 332.71775392 -516.21321377 328.47792188 -511.51953125 324.26953125 C-506.64789755 319.88128446 -501.82787676 315.43626191 -497 311 C-485.72339154 300.63809743 -485.72339154 300.63809743 -480.0625 295.5625 C-476.17629402 292.07551903 -472.33157193 288.54668015 -468.5 285 C-463.87377683 280.71775392 -459.21321377 276.47792188 -454.51953125 272.26953125 C-449.64789755 267.88128446 -444.82787676 263.43626191 -440 259 C-428.72339154 248.63809743 -428.72339154 248.63809743 -423.0625 243.5625 C-419.17629402 240.07551903 -415.33157193 236.54668015 -411.5 233 C-406.87377683 228.71775392 -402.21321377 224.47792188 -397.51953125 220.26953125 C-392.64789755 215.88128446 -387.82787676 211.43626191 -383 207 C-371.72339154 196.63809743 -371.72339154 196.63809743 -366.0625 191.5625 C-362.17629402 188.07551903 -358.33157193 184.54668015 -354.5 181 C-349.87377683 176.71775392 -345.21321377 172.47792188 -340.51953125 168.26953125 C-335.64789755 163.88128446 -330.82787676 159.43626191 -326 155 C-314.72339154 144.63809743 -314.72339154 144.63809743 -309.0625 139.5625 C-305.17629402 136.07551903 -301.33157193 132.54668015 -297.5 129 C-292.87377683 124.71775392 -288.21321377 120.47792188 -283.51953125 116.26953125 C-278.64789755 111.88128446 -273.82787676 107.43626191 -269 103 C-257.72339154 92.63809743 -257.72339154 92.63809743 -252.0625 87.5625 C-247.60713196 83.56482627 -243.20916481 79.50799115 -238.81665039 75.44165039 C-234.77550116 71.70473118 -230.69289404 68.01700894 -226.59375 64.34375 C-223.54108319 61.58531613 -220.51917344 58.79497956 -217.5 56 C-212.87380193 51.71772721 -208.21321325 47.47792141 -203.51953125 43.26953125 C-198.64789755 38.88128446 -193.82787676 34.43626191 -189 30 C-186.95885889 28.12442674 -184.91725172 26.24936391 -182.875 24.375 C-182.1315332 23.69232056 -182.1315332 23.69232056 -181.37304688 22.99584961 C-177.34046755 19.29865444 -173.26460405 15.6513385 -169.18359375 12.0078125 C-167.27305 10.25106923 -165.47339057 8.44381984 -163.6875 6.5625 C-161 4 -161 4 -158.56640625 3.03125 C-155.918574 1.96728088 -154.38457435 0.80304742 -152.25 -1.0625 C-110.33851582 -34.21944719 -42.10864217 -31.78392702 0 0 Z " fill="#2E81B8" transform="translate(2894,310)"/>
<path d="M0 0 C4.42051588 2.41119048 8.4942989 5.37306428 12 9 C12 9.66 12 10.32 12 11 C12.54011719 11.22171875 13.08023438 11.4434375 13.63671875 11.671875 C16.7708082 13.43318147 19.22044399 15.79408826 21.8125 18.25 C22.87534672 19.24451158 23.93914455 20.2380077 25.00390625 21.23046875 C25.5158252 21.70790527 26.02774414 22.1853418 26.55517578 22.67724609 C28.40262956 24.36861219 30.31732811 25.96972542 32.25 27.5625 C33.1575 28.366875 34.065 29.17125 35 30 C35 30.66 35 31.32 35 32 C35.58265625 32.268125 36.1653125 32.53625 36.765625 32.8125 C39.02786601 34.01480991 40.80576318 35.33825913 42.75 37 C43.36359375 37.515625 43.9771875 38.03125 44.609375 38.5625 C46 40 46 40 46 42 C46.54011719 42.22171875 47.08023438 42.4434375 47.63671875 42.671875 C50.7708082 44.43318147 53.22044399 46.79408826 55.8125 49.25 C56.87534672 50.24451158 57.93914455 51.2380077 59.00390625 52.23046875 C59.5158252 52.70790527 60.02774414 53.1853418 60.55517578 53.67724609 C62.40262956 55.36861219 64.31732811 56.96972542 66.25 58.5625 C67.1575 59.366875 68.065 60.17125 69 61 C69 61.66 69 62.32 69 63 C69.58265625 63.268125 70.1653125 63.53625 70.765625 63.8125 C73.02786601 65.01480991 74.80576318 66.33825913 76.75 68 C77.36359375 68.515625 77.9771875 69.03125 78.609375 69.5625 C80 71 80 71 80 73 C80.54011719 73.22171875 81.08023438 73.4434375 81.63671875 73.671875 C84.7708082 75.43318147 87.22044399 77.79408826 89.8125 80.25 C90.87534672 81.24451158 91.93914455 82.2380077 93.00390625 83.23046875 C93.5158252 83.70790527 94.02774414 84.1853418 94.55517578 84.67724609 C96.40262956 86.36861219 98.31732811 87.96972542 100.25 89.5625 C101.1575 90.366875 102.065 91.17125 103 92 C103 92.66 103 93.32 103 94 C103.58265625 94.268125 104.1653125 94.53625 104.765625 94.8125 C107.02786601 96.01480991 108.80576318 97.33825913 110.75 99 C111.36359375 99.515625 111.9771875 100.03125 112.609375 100.5625 C114 102 114 102 114 104 C114.54011719 104.22171875 115.08023438 104.4434375 115.63671875 104.671875 C118.7708082 106.43318147 121.22044399 108.79408826 123.8125 111.25 C124.87534672 112.24451158 125.93914455 113.2380077 127.00390625 114.23046875 C127.5158252 114.70790527 128.02774414 115.1853418 128.55517578 115.67724609 C130.40262956 117.36861219 132.31732811 118.96972542 134.25 120.5625 C135.1575 121.366875 136.065 122.17125 137 123 C137 123.66 137 124.32 137 125 C137.58265625 125.268125 138.1653125 125.53625 138.765625 125.8125 C141.02786601 127.01480991 142.80576318 128.33825913 144.75 130 C145.36359375 130.515625 145.9771875 131.03125 146.609375 131.5625 C148 133 148 133 148 135 C148.54011719 135.22171875 149.08023438 135.4434375 149.63671875 135.671875 C152.7708082 137.43318147 155.22044399 139.79408826 157.8125 142.25 C158.87534672 143.24451158 159.93914455 144.2380077 161.00390625 145.23046875 C161.5158252 145.70790527 162.02774414 146.1853418 162.55517578 146.67724609 C164.40262956 148.36861219 166.31732811 149.96972542 168.25 151.5625 C169.1575 152.366875 170.065 153.17125 171 154 C171 154.66 171 155.32 171 156 C171.58265625 156.268125 172.1653125 156.53625 172.765625 156.8125 C175.02786601 158.01480991 176.80576318 159.33825913 178.75 161 C179.36359375 161.515625 179.9771875 162.03125 180.609375 162.5625 C182 164 182 164 182 166 C182.54011719 166.22171875 183.08023438 166.4434375 183.63671875 166.671875 C186.7708082 168.43318147 189.22044399 170.79408826 191.8125 173.25 C192.87534672 174.24451158 193.93914455 175.2380077 195.00390625 176.23046875 C195.5158252 176.70790527 196.02774414 177.1853418 196.55517578 177.67724609 C198.40262956 179.36861219 200.31732811 180.96972542 202.25 182.5625 C203.1575 183.366875 204.065 184.17125 205 185 C205 185.66 205 186.32 205 187 C205.54398438 187.22558594 206.08796875 187.45117188 206.6484375 187.68359375 C209.70731551 189.3959557 212.09583968 191.67022722 214.625 194.0625 C215.7001376 195.06421357 216.77566385 196.06551015 217.8515625 197.06640625 C218.65062012 197.81301514 218.65062012 197.81301514 219.46582031 198.57470703 C221.62032022 200.57629367 223.80853681 202.53903051 226 204.5 C232.22569011 210.08919783 238.38053078 215.75524058 244.54101562 221.41601562 C249.67473745 226.13225563 254.81247157 230.84282591 260 235.5 C266.22569011 241.08919783 272.38053078 246.75524058 278.54101562 252.41601562 C283.67473745 257.13225563 288.81247157 261.84282591 294 266.5 C300.22569011 272.08919783 306.38053078 277.75524058 312.54101562 283.41601562 C317.67473745 288.13225563 322.81247157 292.84282591 328 297.5 C334.22569011 303.08919783 340.38053078 308.75524058 346.54101562 314.41601562 C351.67473745 319.13225563 356.81247157 323.84282591 362 328.5 C368.22569011 334.08919783 374.38053078 339.75524058 380.54101562 345.41601562 C385.67473745 350.13225563 390.81247157 354.84282591 396 359.5 C402.22569011 365.08919783 408.38053078 370.75524058 414.54101562 376.41601562 C419.67473745 381.13225563 424.81247157 385.84282591 430 390.5 C436.22569011 396.08919783 442.38053078 401.75524058 448.54101562 407.41601562 C450.06864161 408.81941281 451.59666957 410.22237002 453.125 411.625 C453.86520386 412.3044165 453.86520386 412.3044165 454.62036133 412.99755859 C458.70035274 416.73704502 462.81393073 420.43805964 466.94140625 424.125 C468.6789749 425.70760522 470.35701942 427.32027544 472 429 C470.46314725 433.47464609 466.86956595 435.60975891 463.1875 438.25 C461.73227903 439.31662605 460.27789488 440.38439447 458.82421875 441.453125 C458.04481934 442.02353516 457.26541992 442.59394531 456.46240234 443.18164062 C452.10166049 446.40182755 447.80470761 449.70551291 443.5 453 C437.35294547 457.69325101 431.19463153 462.36971751 425 467 C415.28233759 474.2662373 405.64492906 481.63766962 396 489 C385.72142757 496.84601376 375.44132972 504.68784016 365.08544922 512.43164062 C356.01027786 519.22608112 347.0113478 526.12130559 338 533 C327.72142757 540.84601376 317.44132972 548.68784016 307.08544922 556.43164062 C298.01027786 563.22608112 289.0113478 570.12130559 280 577 C269.72142757 584.84601376 259.44132972 592.68784016 249.08544922 600.43164062 C240.01027786 607.22608112 231.0113478 614.12130559 222 621 C211.72142757 628.84601376 201.44132972 636.68784016 191.08544922 644.43164062 C182.01027786 651.22608112 173.0113478 658.12130559 164 665 C153.72142757 672.84601376 143.44132972 680.68784016 133.08544922 688.43164062 C124.01027786 695.22608112 115.0113478 702.12130559 106 709 C95.72142757 716.84601376 85.44132972 724.68784016 75.08544922 732.43164062 C66.01027786 739.22608112 57.0113478 746.12130559 48 753 C37.72142757 760.84601376 27.44132972 768.68784016 17.08544922 776.43164062 C8.01027786 783.22608112 -0.9886522 790.12130559 -10 797 C-20.27857243 804.84601376 -30.55867028 812.68784016 -40.91455078 820.43164062 C-49.98972214 827.22608112 -58.9886522 834.12130559 -68 841 C-78.27857243 848.84601376 -88.55867028 856.68784016 -98.91455078 864.43164062 C-104.3607669 868.50913843 -109.77662697 872.62575311 -115.1875 876.75 C-116.07091064 877.42184326 -116.95432129 878.09368652 -117.86450195 878.78588867 C-122.38790837 882.22950628 -126.89483148 885.69168277 -131.375 889.19140625 C-167.36127612 917.19245463 -206.87676137 933.36770891 -253.22265625 928.5390625 C-281.47109038 924.85878825 -309.70836336 913.0415741 -331 894 C-331.83789062 893.25878906 -332.67578125 892.51757812 -333.5390625 891.75390625 C-336.04132519 889.5189131 -338.52174569 887.26155481 -341 885 C-342.62409967 883.54066406 -344.24910791 882.08233868 -345.875 880.625 C-350.12063113 876.80526291 -354.33310861 872.95022233 -358.53857422 869.08642578 C-361.67631113 866.20606171 -364.83003818 863.34483753 -368 860.5 C-374.22569011 854.91080217 -380.38053078 849.24475942 -386.54101562 843.58398438 C-392.47889501 838.12898209 -398.43642391 832.69808111 -404.4375 827.3125 C-407.82321544 824.25709826 -411.1808191 821.17143016 -414.5390625 818.0859375 C-417.67667086 815.20577393 -420.83020941 812.34468386 -424 809.5 C-428.20684327 805.72462783 -432.37674853 801.91019552 -436.5390625 798.0859375 C-439.67667086 795.20577393 -442.83020941 792.34468386 -446 789.5 C-450.20684327 785.72462783 -454.37674853 781.91019552 -458.5390625 778.0859375 C-461.67667086 775.20577393 -464.83020941 772.34468386 -468 769.5 C-472.20684327 765.72462783 -476.37674853 761.91019552 -480.5390625 758.0859375 C-483.67667086 755.20577393 -486.83020941 752.34468386 -490 749.5 C-494.20684327 745.72462783 -498.37674853 741.91019552 -502.5390625 738.0859375 C-505.67667086 735.20577393 -508.83020941 732.34468386 -512 729.5 C-516.20678391 725.72468111 -520.38026966 721.91414706 -524.53686523 718.08374023 C-527.67379929 715.1974388 -530.85683358 712.37190337 -534.0625 709.5625 C-561.64423458 684.62438215 -580.02361955 648.56596142 -582.22265625 611.21850586 C-582.33943034 607.1638778 -582.3871361 603.11842145 -582.375 599.0625 C-582.37368576 597.98192322 -582.37368576 597.98192322 -582.37234497 596.8795166 C-582.32199089 584.25858895 -581.26606236 572.22649502 -578 560 C-577.65388672 558.70328369 -577.65388672 558.70328369 -577.30078125 557.38037109 C-566.76728339 519.57263769 -541.93498671 493.62317605 -513.421875 468.171875 C-510.59447372 465.63633449 -507.79589088 463.07013846 -505 460.5 C-501.37263506 457.1666371 -497.73106833 453.85053612 -494.0625 450.5625 C-489.60713196 446.56482627 -485.20916481 442.50799115 -480.81665039 438.44165039 C-476.77550116 434.70473118 -472.69289404 431.01700894 -468.59375 427.34375 C-465.54108348 424.5853164 -462.51915705 421.7949969 -459.5 419 C-454.8995846 414.74114677 -450.2626635 410.52758158 -445.59375 406.34375 C-442.54108319 403.58531613 -439.51917344 400.79497956 -436.5 398 C-431.87380193 393.71772721 -427.21321325 389.47792141 -422.51953125 385.26953125 C-417.64789755 380.88128446 -412.82787676 376.43626191 -408 372 C-396.72339154 361.63809743 -396.72339154 361.63809743 -391.0625 356.5625 C-387.17629402 353.07551903 -383.33157193 349.54668015 -379.5 346 C-374.87377683 341.71775392 -370.21321377 337.47792188 -365.51953125 333.26953125 C-360.64789755 328.88128446 -355.82787676 324.43626191 -351 320 C-339.72339154 309.63809743 -339.72339154 309.63809743 -334.0625 304.5625 C-330.17629402 301.07551903 -326.33157193 297.54668015 -322.5 294 C-317.87377683 289.71775392 -313.21321377 285.47792188 -308.51953125 281.26953125 C-303.64789755 276.88128446 -298.82787676 272.43626191 -294 268 C-282.72339154 257.63809743 -282.72339154 257.63809743 -277.0625 252.5625 C-273.17629402 249.07551903 -269.33157193 245.54668015 -265.5 242 C-260.87377683 237.71775392 -256.21321377 233.47792188 -251.51953125 229.26953125 C-246.64789755 224.88128446 -241.82787676 220.43626191 -237 216 C-225.72339154 205.63809743 -225.72339154 205.63809743 -220.0625 200.5625 C-216.17629402 197.07551903 -212.33157193 193.54668015 -208.5 190 C-203.87377683 185.71775392 -199.21321377 181.47792188 -194.51953125 177.26953125 C-189.64789755 172.88128446 -184.82787676 168.43626191 -180 164 C-168.72339154 153.63809743 -168.72339154 153.63809743 -163.0625 148.5625 C-159.17629402 145.07551903 -155.33157193 141.54668015 -151.5 138 C-146.87377683 133.71775392 -142.21321377 129.47792188 -137.51953125 125.26953125 C-132.64789755 120.88128446 -127.82787676 116.43626191 -123 112 C-111.72339154 101.63809743 -111.72339154 101.63809743 -106.0625 96.5625 C-101.60713196 92.56482627 -97.20916481 88.50799115 -92.81665039 84.44165039 C-88.77550116 80.70473118 -84.69289404 77.01700894 -80.59375 73.34375 C-77.54108319 70.58531613 -74.51917344 67.79497956 -71.5 65 C-66.87380193 60.71772721 -62.21321325 56.47792141 -57.51953125 52.26953125 C-52.64789755 47.88128446 -47.82787676 43.43626191 -43 39 C-31.72339154 28.63809743 -31.72339154 28.63809743 -26.0625 23.5625 C-22.13173055 20.036834 -18.24784328 16.46390886 -14.375 12.875 C-9.65346095 8.50057205 -4.88549675 4.19178573 0 0 Z " fill="#1772B0" transform="translate(832,2049)"/>
</svg>
