<?xml version="1.0" encoding="UTF-8"?>
<svg version="1.1" xmlns="http://www.w3.org/2000/svg" width="256" height="256">
<path d="M0 0 C1.57291767 -0.00735011 3.14582997 -0.01593907 4.71873474 -0.02566528 C8.96871878 -0.04778677 13.2185084 -0.05081683 17.4685421 -0.04891777 C21.02466742 -0.04879768 24.58075213 -0.05737731 28.13686609 -0.06569529 C36.52893466 -0.08489426 44.92090377 -0.0878254 53.31298828 -0.08105469 C61.95471839 -0.07441071 70.59602203 -0.09730053 79.23766565 -0.13436842 C86.67404458 -0.16510247 94.11028653 -0.17642161 101.54672766 -0.1725316 C105.98087275 -0.17046857 110.41468553 -0.17587472 114.84877014 -0.20042419 C119.01868829 -0.22275139 123.18791394 -0.22076449 127.35783577 -0.20049667 C128.88277288 -0.19709755 130.40775718 -0.20212827 131.93263054 -0.21648026 C148.00617773 -0.35725776 148.00617773 -0.35725776 154.34179688 5.41992188 C157.34983984 9.37863471 157.71954614 12.3212932 157.72947693 17.23812866 C157.73755524 18.24780762 157.73755524 18.24780762 157.74579674 19.27788413 C157.76006887 21.52642681 157.75297476 23.77438016 157.74584961 26.02294922 C157.75155365 27.637929 157.75851804 29.25290475 157.76664734 30.86787415 C157.78459174 35.25019784 157.78340779 39.63232144 157.77770495 44.01467085 C157.77461447 47.6751651 157.7807041 51.33562084 157.7867437 54.9961096 C157.80079197 63.63350669 157.79922557 72.27080488 157.7878418 80.90820312 C157.77636428 89.81340152 157.79042934 98.71829863 157.81723827 107.62345731 C157.8394055 115.27373193 157.84603022 122.92391204 157.84016186 130.57421649 C157.83679304 135.1413212 157.83920218 139.70823286 157.85641289 144.27531052 C157.87189593 148.57149367 157.86791156 152.8672312 157.84910774 157.16339684 C157.84542539 158.73754098 157.84852007 160.31171823 157.85899353 161.88583183 C157.95032563 176.75097671 157.95032563 176.75097671 153.34179688 182.41992188 C148.09908489 186.48569852 144.41184627 187.54393249 137.8712616 187.56036377 C137.21139623 187.56333489 136.55153087 187.56630601 135.87166959 187.56936717 C133.6562142 187.57805237 131.44081287 187.57956226 129.2253418 187.58105469 C127.63859441 187.58568299 126.05184813 187.59070767 124.46510315 187.59609985 C120.15096636 187.60922473 115.83684513 187.61566899 111.52269149 187.62011051 C108.82756258 187.62304112 106.13243794 187.6271459 103.43731117 187.63161469 C95.00539233 187.64528989 86.57348322 187.65495642 78.14155406 187.65881658 C68.40718573 187.66329743 58.67295782 187.6808465 48.93863219 187.70981717 C41.41497039 187.73143156 33.8913481 187.74152073 26.36765558 187.74285769 C21.87378914 187.7439059 17.38005469 187.74981707 12.88622093 187.76767731 C8.65827598 187.78415379 4.43056228 187.78631559 0.20259666 187.7775383 C-1.34778462 187.77676769 -2.89817831 187.78111377 -4.44852829 187.79099655 C-6.56819937 187.80371432 -8.68705116 187.797841 -10.80671692 187.78741455 C-11.99193341 187.78888111 -13.17714991 187.79034767 -14.39828205 187.79185867 C-18.77428616 187.29258372 -22.23048968 185.91206894 -25.30273438 182.70117188 C-25.68816406 182.11335937 -26.07359375 181.52554688 -26.47070312 180.91992188 C-26.86902344 180.33210937 -27.26734375 179.74429688 -27.67773438 179.13867188 C-29.75758697 175.49271513 -29.79879894 172.36448225 -29.83660889 168.25550842 C-29.85779533 166.31904449 -29.85779533 166.31904449 -29.87940979 164.34346008 C-29.89009921 162.90939416 -29.90066952 161.47532735 -29.91113281 160.04125977 C-29.92562312 158.53320963 -29.94049971 157.02516316 -29.95573425 155.51712036 C-29.99564984 151.41541709 -30.02898831 147.31368651 -30.06032085 143.21190953 C-30.08005146 140.64604582 -30.10089815 138.08019348 -30.12207794 135.51434135 C-30.18807242 127.47755278 -30.25001604 119.44074779 -30.30625701 111.40388495 C-30.37109663 102.14435283 -30.44918604 92.88505974 -30.53893924 83.6257363 C-30.60759249 76.45958551 -30.66429708 69.29340075 -30.71210599 62.12708086 C-30.7408867 57.85206261 -30.77458979 53.5772236 -30.82076263 49.30235481 C-30.86395087 45.27310052 -30.89217906 41.24400385 -30.90941811 37.21455765 C-30.91819203 35.74406364 -30.93212587 34.27358887 -30.95190239 32.80320168 C-31.24120767 10.61155015 -31.24120767 10.61155015 -24.65820312 3.41992188 C-17.40996198 -0.95177303 -8.15085107 -0.01806933 0 0 Z " fill="#DA6B20" transform="translate(64.658203125,35.580078125)"/>
<path d="M0 0 C8.5317384 5.2524383 14.87373782 12.59778283 18.30078125 22.0546875 C20.74702216 32.35896484 19.37791769 41.85382735 15.69165039 51.59619141 C13.76519792 56.80417207 13.86280507 60.25063716 15.97265625 65.3515625 C16.33230469 66.10179687 16.69195312 66.85203125 17.0625 67.625 C20.36562067 75.64169797 20.03831996 83.94933917 16.90234375 91.984375 C12.79237858 101.16507641 6.49508395 108.86618219 -2.82421875 113.15625 C-7.11487161 114.29620205 -11.19940706 114.46589467 -15.625 114.5 C-16.42462158 114.50644531 -17.22424316 114.51289063 -18.0480957 114.51953125 C-28.22576347 114.3010858 -36.06757686 110.24232358 -43.125 102.9375 C-47.31031641 98.12679148 -49.27300123 93.07858121 -51 87 C-51.4021875 88.14275391 -51.4021875 88.14275391 -51.8125 89.30859375 C-56.25899637 101.02452663 -61.78937293 107.53758094 -73.16796875 112.90625 C-81.6212447 116.17096347 -91.47206625 116.01242711 -100 113 C-107.52540118 109.58462562 -112.65938786 105.01840271 -117 98 C-117.3515918 97.44771729 -117.70318359 96.89543457 -118.06542969 96.32641602 C-121.40601097 90.52345516 -121.62129721 85.28445102 -121.5 78.6875 C-121.48731079 77.15935669 -121.48731079 77.15935669 -121.47436523 75.6003418 C-121.30364772 68.38101656 -120.18773496 62.51629355 -117 56 C-116.07679712 53.50590217 -115.82242682 52.48692435 -116.7421875 49.96484375 C-117.11601563 49.29582031 -117.48984375 48.62679687 -117.875 47.9375 C-122.33908057 39.80538119 -122.61940424 28.81678384 -120.12890625 19.87109375 C-118.93651804 17.37294272 -117.63449217 15.23187002 -116 13 C-115.49210937 12.28585938 -114.98421875 11.57171875 -114.4609375 10.8359375 C-109.66489195 4.76700782 -103.34239802 0.44746601 -96 -2 C-84.71571985 -3.24346688 -74.44115659 -2.89423993 -65 4 C-58.32892086 9.45815566 -53.51549245 15.36316439 -52 24 C-51.63648438 23.21496094 -51.27296875 22.42992188 -50.8984375 21.62109375 C-45.62203849 10.59477273 -39.83248614 2.58667255 -28.171875 -2.1484375 C-19.24551351 -4.54492371 -8.38727948 -4.06393954 0 0 Z " fill="#FDFBFA" transform="translate(182,74)"/>
<path d="M0 0 C3.07469523 1.70251719 5.40613254 3.81226508 7 7 C8.13569163 18.35691625 4.71258027 27.00644586 -2 36 C-0.88625 36.0928125 -0.88625 36.0928125 0.25 36.1875 C4.06809356 37.3155731 5.04875757 38.52767541 7 42 C7.57054048 45.3274099 7.55888313 48.56889405 7.5 51.9375 C7.52320313 53.25911133 7.52320313 53.25911133 7.546875 54.60742188 C7.51233082 60.37198234 6.74302687 63.57450395 3 68 C-0.0051848 70.36121663 -3.26488438 70.41860637 -7.03515625 70.3203125 C-10.20305433 69.80387583 -11.83954935 68.28753598 -14 66 C-16.50603715 62.31055642 -16.23047983 58.54221768 -16.125 54.25 C-16.11597656 53.55261719 -16.10695313 52.85523438 -16.09765625 52.13671875 C-16.07419888 50.42433042 -16.03833104 48.71211996 -16 47 C-21.76647856 47.01940422 -27.53142759 47.07107182 -33.29736328 47.15258789 C-35.25854151 47.17577695 -37.21984443 47.19016574 -39.18115234 47.19555664 C-42.00176783 47.20483968 -44.82041972 47.24581459 -47.640625 47.29296875 C-48.51680481 47.2890361 -49.39298462 47.28510345 -50.29571533 47.28105164 C-55.43872356 47.38037828 -55.43872356 47.38037828 -59.53491211 50.36279297 C-61.15046305 53.27083851 -61.76078545 55.66511678 -62.3125 58.9375 C-63.47479401 63.97203554 -64.70622179 67.08553335 -68.96875 70.12890625 C-72.80063562 71.77219566 -76.15992461 71.51733316 -80 70 C-82.71091184 67.77088529 -84.42875206 65.14249588 -86 62 C-86.78851088 52.0647629 -83.93881824 43.52791134 -77.63671875 35.78125 C-69.63977528 27.07813252 -61.12654812 23.42128408 -49.34545898 22.81054688 C-44.56263899 22.70917973 -39.78099816 22.63231344 -34.99707031 22.61914062 C-32.937545 22.60962781 -30.87950431 22.57592879 -28.8203125 22.5390625 C-27.60617676 22.53084473 -26.39204102 22.52262695 -25.14111328 22.51416016 C-21.42617655 21.90607242 -20.28643226 20.92234836 -18 18 C-16.86493752 15.72987504 -16.86998745 14.2697364 -16.75 11.75 C-16.25232537 6.69166765 -14.60162687 4.51378231 -11 1 C-7.51556578 -0.74221711 -3.80112955 -0.58675154 0 0 Z " fill="#FA7B25" transform="translate(170,95)"/>
<path d="M0 0 C46.2 0 92.4 0 140 0 C140.33 1.32 140.66 2.64 141 4 C139.68 4.66 138.36 5.32 137 6 C137 6.66 137 7.32 137 8 C128.18165137 12.21747109 119.45469018 13.30158334 109.75195312 13.2746582 C108.78144516 13.27976913 107.81093719 13.28488007 106.8110199 13.29014587 C103.63436549 13.30393427 100.45793059 13.30309357 97.28125 13.30078125 C95.05505291 13.30467341 92.82885655 13.30900915 90.60266113 13.31376648 C85.94943833 13.32120507 81.29629145 13.32095407 76.64306641 13.31567383 C70.69841887 13.30987516 64.7540825 13.32683153 58.80948639 13.3500185 C54.21622928 13.36479107 49.62304656 13.36562286 45.0297699 13.36250877 C42.83865237 13.36301997 40.64753046 13.36821963 38.45643616 13.37832069 C35.38677036 13.39073947 32.317704 13.38386128 29.24804688 13.37231445 C27.9089048 13.38378006 27.9089048 13.38378006 26.54270935 13.39547729 C16.70220712 13.31418845 8.73891929 10.78243275 1.125 4.4375 C0 3 0 3 0 0 Z " fill="#F3AE80" transform="translate(58,47)"/>
<path d="M0 0 C3.69647874 1.68021761 5.99168797 3.475441 8 7 C8.21340383 9.83400286 8.28464991 12.43016169 8.1875 15.25 C8.16719727 16.36761719 8.16719727 16.36761719 8.14648438 17.5078125 C8.11127204 19.33885416 8.05746851 21.16952169 8 23 C5.26916098 23.13548815 2.54508193 23.23429855 -0.1875 23.3125 C-0.95642578 23.35439453 -1.72535156 23.39628906 -2.51757812 23.43945312 C-6.73997672 23.53006254 -8.48176544 23.38561548 -11.9765625 20.78515625 C-14.9946142 16.63096539 -15.69522247 13.07986419 -15 8 C-11.3222634 1.4578724 -7.42845058 -0.50362377 0 0 Z " fill="#FA7B26" transform="translate(99,95)"/>
<path d="M0 0 C1.15739984 0.10602948 1.15739984 0.10602948 2.3381815 0.21420097 C10.70276897 0.92609917 18.98866095 1.14278696 27.38061523 1.12939453 C28.76866705 1.13075376 30.1567185 1.13253659 31.54476929 1.13470459 C35.27416856 1.13921739 39.0035398 1.13751488 42.73293948 1.1343255 C46.6621347 1.13176928 50.59132774 1.13414849 54.52052307 1.13571167 C61.11630681 1.13752414 67.7120793 1.13515159 74.30786133 1.13037109 C81.89854473 1.12493253 89.48920124 1.12669193 97.07988399 1.1321975 C103.63317926 1.13675773 110.1864665 1.13736494 116.73976284 1.13475883 C120.63788325 1.1332117 124.53599108 1.1329588 128.43411064 1.13629532 C132.10238635 1.13921652 135.77062792 1.1371216 139.43889999 1.13140106 C141.40178635 1.12948082 143.36467564 1.13239106 145.32756042 1.13552856 C153.59938841 1.11615044 161.75786303 0.6916964 170 0 C166.52834704 3.47165296 163.19376051 3.12871212 158.50927734 3.14044189 C157.51630425 3.14489858 157.51630425 3.14489858 156.5032711 3.1494453 C154.28081382 3.15813036 152.05841041 3.15964035 149.8359375 3.16113281 C148.24432256 3.16576099 146.65270873 3.17078565 145.06109619 3.17617798 C140.73476453 3.18930091 136.40844837 3.19574631 132.08209991 3.20018864 C129.38096405 3.20311853 126.67983245 3.2072231 123.97869873 3.21169281 C115.53236981 3.22536524 107.0860506 3.23503408 98.63971138 3.2388947 C88.87984305 3.24337998 79.12011445 3.26095065 69.36028862 3.2898953 C61.82138721 3.31148 54.28252521 3.3215972 46.74359322 3.32293582 C42.23808549 3.32398583 37.73270917 3.3299355 33.22723389 3.34775543 C28.99191132 3.36418151 24.75681972 3.36641842 20.52147675 3.35761642 C18.96499769 3.3568432 17.4085065 3.36122614 15.85205841 3.37107468 C13.73133468 3.38370956 11.6114396 3.37796469 9.49072266 3.36749268 C7.70874985 3.36969252 7.70874985 3.36969252 5.89077759 3.3719368 C3 3 3 3 1.09432983 1.47703171 C0.73320099 0.98961124 0.37207214 0.50219078 0 0 Z " fill="#B89C88" transform="translate(44,220)"/>
<path d="M0 0 C1.58041407 0.00138269 1.58041407 0.00138269 3.1927557 0.00279331 C4.39735439 0.00141865 5.60195309 0.00004398 6.84305477 -0.00137234 C8.19008566 0.00216726 9.53711629 0.00580208 10.88414669 0.00952244 C12.29314325 0.00980431 13.70213996 0.00964658 15.11113644 0.00907993 C18.94774448 0.00879194 22.78432152 0.01468889 26.62092233 0.02165389 C30.62613758 0.0278872 34.63135348 0.02849121 38.63657284 0.0296793 C46.22618821 0.03279268 53.81578926 0.04100616 61.40539831 0.05102879 C70.04370741 0.06218971 78.68201718 0.06770032 87.32033169 0.07272422 C105.09478532 0.08318877 122.8692256 0.10078835 140.64366817 0.12304783 C141.23351192 1.98242283 141.23351192 1.98242283 141.64366817 4.12304783 C140.20616817 6.37304783 140.20616817 6.37304783 138.64366817 8.12304783 C137.65366817 7.79304783 136.66366817 7.46304783 135.64366817 7.12304783 C136.63366817 6.46304783 137.62366817 5.80304783 138.64366817 5.12304783 C138.64366817 4.13304783 138.64366817 3.14304783 138.64366817 2.12304783 C92.44366817 1.79304783 46.24366817 1.46304783 -1.35633183 1.12304783 C-0.36633183 3.10304783 0.62366817 5.08304783 1.64366817 7.12304783 C-0.29383183 6.37304783 -0.29383183 6.37304783 -2.35633183 5.12304783 C-3.16883183 3.06054783 -3.16883183 3.06054783 -3.35633183 1.12304783 C-2.35633183 0.12304783 -2.35633183 0.12304783 0 0 Z " fill="#D0763A" transform="translate(59.35633182525635,45.876952171325684)"/>
<path d="M0 0 C7.26 0 14.52 0 22 0 C22.33 1.32 22.66 2.64 23 4 C21.5625 6.25 21.5625 6.25 20 8 C19.01 7.67 18.02 7.34 17 7 C17.99 6.34 18.98 5.68 20 5 C20 4.01 20 3.02 20 2 C13.4 1.67 6.8 1.34 0 1 C0 0.67 0 0.34 0 0 Z " fill="#DC8C57" transform="translate(178,46)"/>
</svg>
